<?xml version="1.0" standalone="no"?>
<!DOCTYPE svg PUBLIC "-//W3C//DTD SVG 1.1//EN" "http://www.w3.org/Graphics/SVG/1.1/DTD/svg11.dtd" >
<svg xmlns="http://www.w3.org/2000/svg">
<metadata>
This is a custom SVG webfont generated by Font Squirrel.
Copyright   : c Copyright 19951997 International Typeface Corporation  All rights reserved
Foundry     : International Typeface Corporation
</metadata>
<defs>
<font id="webfontFSIeHOwD" horiz-adv-x="1044" >
<font-face units-per-em="2048" ascent="1638" descent="-410" />
<missing-glyph horiz-adv-x="366" />
<glyph unicode=" "  horiz-adv-x="366" />
<glyph unicode="&#x09;" horiz-adv-x="366" />
<glyph unicode="&#xa0;" horiz-adv-x="366" />
<glyph unicode="!" horiz-adv-x="552" d="M420 92q0 -47 -32 -79.5t-81 -32.5t-80.5 31.5t-31.5 80.5t32.5 81t79.5 32t80 -33t33 -80zM356 387q-4 -18 -20 -18h-55q-18 0 -21 18l-45 354v529q0 20 21 20h143q20 0 20 -20v-529z" />
<glyph unicode="&#x22;" horiz-adv-x="634" d="M223 940q-4 -18 -20 -18h-56q-18 0 -20 18l-43 328v4q0 18 20 18h140q20 0 20 -18v-4zM510 940q-4 -18 -21 -18h-55q-18 0 -20 18l-43 328v4q0 18 20 18h139q20 0 21 -18v-4z" />
<glyph unicode="#" horiz-adv-x="1148" d="M735 733q0 2 1 3t1 3q0 18 -22 19h-230q-18 0 -20 -13l-53 -186q0 -2 -1 -4t-1 -4q0 -18 22 -19h232q14 0 20 17zM1040 778q-6 -20 -26 -20h-140q-18 0 -20 -13l-53 -186q0 -2 -1 -4t-1 -4q0 -18 22 -19h144q16 0 16 -12q0 -2 -1 -3t-1 -5l-33 -123q-6 -20 -26 -20h-156 q-18 0 -21 -13l-98 -342q-2 -14 -20 -14h-68q-23 0 -22 18q0 2 1 3.5t1 5.5l88 317q0 2 1 3t1 3q0 18 -23 19h-231q-18 0 -21 -13l-96 -342q-2 -14 -20 -14h-68q-23 0 -23 18q0 2 1 3.5t1 5.5l91 317q0 2 1 3t1 3q0 18 -23 19h-127q-16 0 -16 12q0 2 1 3t1 5l33 123 q6 20 26 20h139q14 0 21 17l53 184q0 2 1 3t1 3q0 18 -22 19h-144q-16 0 -16 12q0 2 1 3t1 5l33 123q6 20 26 21h158q14 0 21 16l96 338q6 14 20 14h68q23 0 22 -18q0 -2 -1 -4t-1 -4l-88 -316q0 -2 -1 -4t-1 -4q0 -18 23 -18h229q14 0 21 16l98 338q2 14 20 14h68 q23 0 23 -18q0 -2 -1.5 -4t-1.5 -4l-88 -316q0 -2 -1 -4t-1 -4q0 -18 23 -18h125q16 0 16 -13q0 -2 -1 -3t-1 -5z" />
<glyph unicode="$" d="M575 168q0 -20 19 -21q27 0 52.5 14.5t46 39t33.5 57.5t13 70q0 39 -17 72.5t-41 59t-49.5 41t-41.5 15.5q-14 0 -15 -22v-326zM483 1114q0 20 -14 21q-23 0 -46.5 -13.5t-42 -37t-30.5 -55.5t-12 -66q0 -31 15.5 -61t36 -51.5t43 -34.5t36.5 -13t14 22v289zM575 760 q0 -20 37 -31.5t97 -46.5q111 -63 163 -149.5t52 -204.5q0 -211 -195 -312q-31 -16 -59.5 -21t-49 -8t-33 -7.5t-12.5 -18.5v-63q0 -20 -20 -21h-51q-20 0 -21 21v61q0 18 -14 21q-76 2 -132 17t-91 42q-59 47 -88 87t-29 64q0 8 12 15l129 65q4 2 11 2q8 0 18 -12 q39 -49 70.5 -83t85.5 -34q16 0 22 3.5t6 17.5v397q-4 20 -38.5 33.5t-88.5 42.5q-98 51 -150 134t-52 192q0 215 180 309q29 14 56.5 20t48 9.5t32.5 8.5t12 17v66q0 20 21 20h51q20 0 20 -20v-64q0 -18 12.5 -20t45.5 -9q66 -14 115 -38.5t81.5 -52t49 -56.5t16.5 -49 q0 -12 -10 -17l-129 -65q-8 -4 -13 -4q-10 0 -23 19.5t-40 54.5q-18 25 -42 37t-44 12q-18 0 -19 -21v-360z" />
<glyph unicode="%" d="M825 379q0 31 -20.5 51.5t-50.5 20.5q-33 0 -52.5 -20.5t-19.5 -51.5v-205q0 -31 19.5 -51.5t52.5 -20.5q31 0 51 20.5t20 51.5v205zM365 1116q0 31 -20.5 51.5t-51.5 20.5t-51.5 -20.5t-20.5 -51.5v-205q0 -31 19.5 -51t52.5 -20q31 0 51.5 20.5t20.5 50.5v205zM938 174 q0 -78 -49 -126t-135 -48t-135.5 48t-49.5 126v205q0 78 49.5 126t135.5 48t135 -48t49 -126v-205zM299 12q-4 -10 -18 -12h-50q-23 0 -22 14q0 2 4 15l535 1249q6 12 18 12h49q23 0 23 -16q0 -4 -4 -12zM477 911q0 -78 -49 -126t-135 -48t-135 48.5t-49 125.5v205 q0 78 49 126t135 48t135 -48t49 -126v-205z" />
<glyph unicode="&#x26;" horiz-adv-x="1269" d="M733 285q-70 92 -144.5 157.5t-162.5 112.5l-20 2q-98 -68 -99 -168v-61q0 -78 53.5 -131.5t131.5 -53.5h61q109 0 182 123zM676 963q0 76 -53.5 130t-130.5 54q-78 0 -131.5 -53.5t-53.5 -130.5q0 -61 45 -118t137 -116q92 23 139.5 73t47.5 120v41zM1229 2 q0 -20 -23 -20q-90 0 -148.5 30.5t-117.5 71.5l-45 33q-16 12 -23 12q-8 0 -25.5 -21.5t-55.5 -56.5q-82 -72 -238 -71h-61q-172 0 -270.5 98t-98.5 266v51q0 37 15.5 82t47.5 94q25 39 50.5 57.5t25.5 28.5t-12 22.5t-31 35.5q-39 45 -67.5 92t-28.5 131q0 174 98 273.5 t271 99.5q170 0 269 -99.5t99 -269.5v-41q0 -41 -19.5 -89t-56.5 -95q-18 -23 -37.5 -36t-36 -22.5t-26.5 -16.5t-10 -17t12 -20.5l35 -31.5q39 -35 59.5 -58t32.5 -23q10 0 27.5 37.5t64.5 101.5q35 47 104.5 76.5t161.5 29.5h37q20 0 21 -20v-144q0 -20 -21 -20h-53 q-76 0 -130 -54.5t-54 -129.5v-41l6 -15q61 -70 123 -97l112 -50q16 -6 17 -21v-143z" />
<glyph unicode="'" horiz-adv-x="348" d="M223 940q-4 -18 -20 -18h-56q-18 0 -20 18l-43 328v4q0 18 20 18h140q20 0 20 -18v-4z" />
<glyph unicode="(" horiz-adv-x="737" d="M553 -346q0 -14 -9 -17.5t-32 -3.5q-63 0 -122.5 26t-104.5 74t-73 115.5t-28 151.5v1126q0 84 28 152t73 116t104.5 73.5t122.5 25.5q23 0 32 -3t9 -17v-123q0 -10 -4 -13.5t-12 -7.5l-69 -31q-32 -14 -53.5 -33.5t-33.5 -47t-12 -70.5v-1167q0 -43 12 -71t33.5 -47.5 t53.5 -33.5l69 -31q8 -4 12 -7t4 -13v-123z" />
<glyph unicode=")" horiz-adv-x="737" d="M553 0q0 -84 -27.5 -151.5t-72.5 -114.5t-105.5 -74t-124.5 -27q-23 0 -31 3.5t-8 17.5v123q0 10 4.5 13t12.5 7l77 35q32 14 46 31q45 57 45 117v1167q0 43 -12.5 70.5t-34 47t-53.5 33.5l-68 31q-8 4 -12.5 7t-4.5 14v123q0 14 9.5 17t29.5 3q63 0 124 -25.5t106 -73.5 t72.5 -116t27.5 -152v-1126z" />
<glyph unicode="*" horiz-adv-x="794" d="M680 846q-6 -10 -16 -10t-15 4l-170 116q-10 6 -16 7q-16 0 -17 -21v-4l25 -205v-4q0 -18 -20 -18h-107q-20 0 -20 18v4l24 205v4q0 20 -16 21q-8 0 -17 -7l-163 -116q-10 -6 -15 -6q-10 0 -16 12l-53 92q-4 8 -5 12q0 10 15 17l188 80q14 6 15 18q0 12 -15 18l-188 84 q-14 6 -15 17q0 4 5 12l53 90q6 12 16 12q4 0 15 -6l161 -121q8 -6 17 -6q16 0 16 21v4l-22 203v4q0 18 20 18h107q20 0 20 -18v-4l-22 -203v-4q0 -20 16 -21q6 0 16 6l168 121q8 6 15 6q10 0 16 -12l53 -90q4 -8 4 -12q0 -10 -14 -17l-193 -84q-16 -6 -16 -18t16 -18 l193 -82q14 -6 14 -17q0 -4 -4 -12z" />
<glyph unicode="+" d="M952 451q0 -20 -20 -21h-328q-20 0 -20 -20v-328q0 -20 -21 -21h-82q-20 0 -20 21v328q0 20 -21 20h-327q-20 0 -21 21v81q0 20 21 21h327q20 0 21 20v328q0 20 20 21h82q20 0 21 -21v-328q0 -20 20 -20h328q20 0 20 -21v-81z" />
<glyph unicode="," horiz-adv-x="450" d="M338 74q0 -164 -78 -250q-41 -47 -74.5 -68.5t-48.5 -21.5q-8 0 -14 14l-29 59q0 2 -1 3.5t-1 3.5q0 10 13.5 23t31 35t30.5 52.5t13 75.5q0 33 -20 33h-27q-20 0 -20 20v148q0 20 20 20h184q20 0 21 -20v-127z" />
<glyph unicode="-" horiz-adv-x="552" d="M461 389q0 -20 -21 -20h-327q-20 0 -21 20v143q0 20 21 21h327q20 0 21 -21v-143z" />
<glyph unicode="." horiz-adv-x="450" d="M338 92q0 -47 -32 -79.5t-81 -32.5t-80.5 31.5t-31.5 80.5q0 47 32.5 80t79.5 33t80 -33t33 -80z" />
<glyph unicode="/" horiz-adv-x="665" d="M135 18q-6 -18 -26 -18h-68q-33 0 -33 27q0 4 4 16l518 1229q6 18 27 18h68q33 0 32 -26q0 -4 -4 -17z" />
<glyph unicode="0" d="M737 963q0 78 -53 131t-131 53h-61q-78 0 -131.5 -53.5t-53.5 -130.5v-635q0 -78 53.5 -131.5t131.5 -53.5h61q78 0 131 53.5t53 131.5v635zM922 328q0 -78 -27 -142.5t-75 -110.5t-115.5 -70.5t-151.5 -24.5h-61q-84 0 -152 24.5t-116 70.5t-74.5 110.5t-26.5 142.5v635 q0 78 26.5 142t74.5 110.5t116 71t152 24.5h61q84 0 151.5 -24.5t115.5 -71t75 -111t27 -141.5v-635z" />
<glyph unicode="1" d="M897 20q0 -20 -20 -20h-635q-20 0 -21 20v123q0 20 21 21h204q20 0 21 20v740q0 23 -18 22q-8 0 -17 -8l-98 -100q-8 -8 -15 -9q-6 0 -14 9l-90 88q-8 8 -8 14t8 14l330 330l14 6h72q20 0 20 -20v-1086q0 -20 21 -20h205q20 0 20 -21v-123z" />
<glyph unicode="2" d="M539 1311q84 0 151.5 -25.5t115.5 -72t74.5 -110t26.5 -140.5q0 -90 -38 -170t-109 -140q-53 -45 -116 -82l-128 -77q-92 -57 -135 -118t-43 -138v-54q0 -20 20 -20h512q20 0 21 -21v-123q0 -20 -21 -20h-696q-20 0 -20 20v218q0 152 75.5 252t229.5 196l106 67 q49 30 84 60.5t54.5 66t19.5 83.5q0 39 -14.5 72.5t-40 58t-59.5 39t-70 14.5h-78q-35 0 -59.5 -9.5t-43 -24.5t-34 -36.5l-33.5 -44.5q-10 -12 -19 -12q-6 0 -10 2l-129 65q-12 6 -12 15q0 27 29.5 65.5t89.5 83.5q35 27 92 43.5t129 16.5h78z" />
<glyph unicode="3" d="M891 344q0 -168 -98.5 -266t-270.5 -98h-61q-74 0 -131.5 16t-91.5 43q-59 47 -88 87t-29 64q0 8 12 15l129 65q8 4 12 4q6 0 9.5 -4t7.5 -10l34 -45q15 -20 33.5 -36.5t43 -26t59.5 -9.5h61q76 0 130.5 53.5t54.5 131.5v71q0 78 -54.5 131.5t-130.5 53.5h-164 q-20 0 -20 20v123q0 20 20 21h164q76 0 130.5 53t54.5 131v31q0 78 -54.5 131t-130.5 53h-61q-35 0 -59.5 -9.5t-43 -24.5t-34 -36.5l-33.5 -44.5q-10 -12 -19 -12q-6 0 -10 2l-129 65q-12 6 -12 15q0 27 29.5 65.5t89.5 83.5q35 27 92 43.5t129 16.5h61q170 0 269.5 -99.5 t99.5 -269.5v-31q0 -78 -64 -166q-27 -35 -51 -53t-24 -28t24.5 -30t50.5 -59q63 -94 64 -169v-62z" />
<glyph unicode="4" d="M614 946q0 23 -18 23q-14 0 -18 -11l-310 -464q-6 -10 -6 -17q0 -16 23 -16h309q20 0 20 20v465zM983 317q0 -20 -20 -20h-144q-20 0 -20 -21v-256q0 -20 -21 -20h-143q-20 0 -21 20v256q0 20 -20 21h-512q-18 0 -19 16v4l3 144l542 821l17 8h153q20 0 21 -20v-789 q0 -20 20 -20h144q20 0 20 -21v-123z" />
<glyph unicode="5" d="M924 344q0 -168 -98.5 -266t-270.5 -98h-61q-74 0 -131.5 16t-92.5 43q-59 47 -87.5 87t-28.5 64q0 8 12 15l129 65q8 4 10 4q8 0 19 -14l33 -45q15 -20 34 -36.5t43.5 -26t59.5 -9.5h61q76 0 130 53.5t54 131.5v71q0 78 -54 131.5t-130 53.5h-328q-20 0 -20 20v666 q0 20 20 20h656q20 0 20 -20v-123q0 -20 -20 -21h-471q-20 0 -21 -20v-338q0 -20 21 -20h143q172 0 270.5 -98.5t98.5 -266.5v-39z" />
<glyph unicode="6" d="M737 410q0 78 -53 131t-131 53h-61q-78 0 -131.5 -53.5t-53.5 -130.5v-82q0 -78 53.5 -131.5t131.5 -53.5h61q92 18 138 65.5t46 119.5v82zM922 328q0 -78 -27 -142.5t-75 -110.5t-115.5 -70.5t-151.5 -24.5h-61q-84 0 -152 24.5t-116 70.5t-74.5 110.5t-26.5 142.5v635 q0 78 26.5 142t74.5 110.5t116 71t152 24.5h61q76 0 139.5 -21.5t108.5 -54.5t69.5 -69t24.5 -64q0 -8 -12 -15l-129 -65q-8 -4 -13 -4q-6 0 -9 4t-7 10l-34 45q-15 20 -33.5 35.5t-43 25t-61.5 9.5h-61q-78 0 -131.5 -53.5t-53.5 -130.5v-250q0 -23 17 -23q6 0 21 10.5 t39 23.5t55.5 23.5t72.5 10.5h61q74 0 138.5 -25.5t110.5 -72t73 -111t27 -139.5v-82z" />
<glyph unicode="7" d="M911 1053q0 -84 -20.5 -148.5t-59 -119t-96 -101.5t-129.5 -96l-86 -62q-39 -29 -65.5 -58.5t-41 -63t-14.5 -76.5v-308q0 -20 -20 -20h-143q-20 0 -21 20v308q0 74 17.5 130t50 103t82 89t114.5 87l102 72q46 33 77.5 68.5t50 77.5t18.5 98v53q0 20 -20 20h-512 q-20 0 -21 21v123q0 20 21 20h696q20 0 20 -20v-217z" />
<glyph unicode="8" d="M737 389q0 76 -53 130t-131 54h-61q-78 0 -131.5 -54t-53.5 -130v-61q0 -78 53.5 -131.5t131.5 -53.5h61q78 0 131 53.5t53 131.5v61zM737 963q0 78 -53 131t-131 53h-61q-78 0 -131.5 -53.5t-53.5 -130.5v-41q0 -78 53.5 -131.5t131.5 -53.5h61q78 0 131 53.5t53 131.5 v41zM922 344q0 -168 -98.5 -266t-270.5 -98h-61q-172 0 -270.5 98t-98.5 266v51q0 35 14.5 79t46.5 91q27 41 52.5 59.5t25.5 28.5q0 12 -25.5 29.5t-50.5 52.5q-63 88 -63 166v41q0 170 99.5 269.5t269.5 99.5h61q170 0 269.5 -99.5t99.5 -269.5v-41q0 -78 -64 -166 q-25 -35 -50.5 -52t-25.5 -30q0 -10 24.5 -28.5t51.5 -59.5q63 -94 64 -170v-51z" />
<glyph unicode="9" d="M737 963q0 78 -53 131t-131 53h-61q-78 0 -131.5 -53.5t-53.5 -130.5v-154q0 -76 53.5 -130t131.5 -54h61q78 0 131 54t53 130v154zM922 328q0 -78 -27 -142.5t-75 -110.5t-115.5 -70.5t-151.5 -24.5h-61q-74 0 -131.5 16t-92.5 43q-59 47 -87.5 87t-28.5 64q0 8 12 15 l129 65q8 4 12 4q6 0 9 -4t8 -10l32 -45q14 -20 33 -36.5t43.5 -26t61.5 -9.5h61q78 0 131 53.5t53 131.5v178q0 23 -14 22q-10 0 -28 -10l-40 -23q-23 -13 -53.5 -23.5t-69.5 -10.5h-61q-76 0 -139.5 25.5t-109.5 71.5t-72.5 110.5t-26.5 140.5v154q0 78 26.5 142 t74.5 110.5t116 71t152 24.5h61q84 0 151.5 -24.5t115.5 -71t75 -111t27 -141.5v-635z" />
<glyph unicode=":" horiz-adv-x="450" d="M338 92q0 -47 -32 -79.5t-81 -32.5t-80.5 31.5t-31.5 80.5q0 47 32.5 80t79.5 33t80 -33t33 -80zM338 645q0 -47 -33 -80t-80 -33t-79.5 33t-32.5 80q0 49 32.5 81t79.5 32t80 -33t33 -80z" />
<glyph unicode=";" horiz-adv-x="450" d="M338 74q0 -164 -78 -250q-41 -47 -74.5 -68.5t-48.5 -21.5q-8 0 -14 14l-29 59q0 2 -1 3.5t-1 3.5q0 10 13.5 23t31 35t30.5 52.5t13 75.5q0 33 -20 33h-27q-20 0 -20 20v148q0 20 20 20h184q20 0 21 -20v-127zM338 645q0 -47 -33 -80t-80 -33t-79.5 33t-32.5 80 q0 49 32.5 81t79.5 32t80 -33t33 -80z" />
<glyph unicode="&#x37e;" horiz-adv-x="450" d="M338 74q0 -164 -78 -250q-41 -47 -74.5 -68.5t-48.5 -21.5q-8 0 -14 14l-29 59q0 2 -1 3.5t-1 3.5q0 10 13.5 23t31 35t30.5 52.5t13 75.5q0 33 -20 33h-27q-20 0 -20 20v148q0 20 20 20h184q20 0 21 -20v-127zM338 645q0 -47 -33 -80t-80 -33t-79.5 33t-32.5 80 q0 49 32.5 81t79.5 32t80 -33t33 -80z" />
<glyph unicode="&#x3c;" d="M809 59q-6 -12 -16 -12q-4 0 -13 4l-635 367l-10 18v117l10 18l635 369q8 4 13 4q10 0 16 -12l41 -70q4 -8 4 -10q0 -12 -12 -18l-551 -320q-14 -10 -15 -18q0 -8 15 -19l553 -319q12 -6 12 -17q0 -4 -4 -12z" />
<glyph unicode="=" d="M952 266q0 -20 -20 -20h-819q-20 0 -21 20v82q0 20 21 21h819q20 0 20 -21v-82zM952 635q0 -20 -20 -21h-819q-20 0 -21 21v82q0 20 21 20h819q20 0 20 -20v-82z" />
<glyph unicode="&#x3e;" d="M899 418l-633 -367q-8 -4 -12 -4q-10 0 -16 12l-43 70q-4 8 -5 12q0 10 13 17l551 319q14 10 14 19q0 8 -14 18l-551 320q-12 6 -13 16q0 4 5 12l43 70q6 12 16 12q4 0 12 -4l633 -369l10 -18v-117z" />
<glyph unicode="?" d="M573 92q0 -47 -31.5 -79.5t-80.5 -32.5t-81 31.5t-32 80.5t33 81t80 32t79.5 -33t32.5 -80zM545 1311q84 0 151.5 -25.5t115.5 -72t74.5 -110t26.5 -140.5q0 -113 -44 -185.5t-142 -122.5l-85 -42q-38 -19 -65.5 -40.5t-43 -49t-15.5 -68.5q0 -25 3 -40.5t3 -23.5 q0 -23 -20 -22h-142q-20 0 -24 25.5t-4 88.5q0 88 41 148.5t131 105.5l92 48q41 22 69.5 46.5t45 55.5t16.5 76q0 39 -14.5 72.5t-40 58t-59 39t-70.5 14.5h-78q-35 0 -59.5 -9.5t-43 -24.5t-34 -36.5l-33.5 -44.5q-10 -12 -18 -12q-6 0 -11 2l-129 65q-12 6 -12 15 q0 29 24.5 64.5t69.5 68.5t107.5 54.5t138.5 21.5h78z" />
<glyph unicode="@" horiz-adv-x="1474" d="M872 717q0 55 -38.5 95t-98.5 40q-55 0 -94 -41t-39 -94v-133q0 -59 38 -98.5t95 -39.5t97 41t40 97v133zM1067 317q-96 0 -162 72q-94 -72 -182 -72q-53 0 -98 18.5t-79 51.5t-53.5 79t-19.5 101v166q0 55 19.5 100.5t53.5 78t79 51t98 18.5q72 0 149 -47v6q0 41 41 41 h48q39 0 38 -41l-2 -424q0 -29 20.5 -49.5t51.5 -20.5h25q27 0 47 20.5t20 49.5v418q0 102 -66.5 164.5t-179.5 62.5h-356q-113 0 -179.5 -62.5t-66.5 -164.5v-578q0 -104 66.5 -165.5t179.5 -61.5h514q39 0 39 -39v-51q0 -39 -39 -39h-514q-86 0 -154.5 25.5t-117.5 72.5 t-76 112.5t-27 145.5v578q0 80 27 145.5t76 112.5t118.5 72.5t153.5 25.5h356q84 0 154 -25.5t119 -72.5t75.5 -112.5t26.5 -145.5v-428q0 -84 -53 -136.5t-143 -52.5h-27z" />
<glyph unicode="A" horiz-adv-x="921" d="M489 872l-10 39l-14 52h-8l-25 -93l-100 -383q0 -4 -1 -5t-1 -3q0 -18 22 -18h215q23 0 23 18q0 2 -1 4t-1 4zM918 27q0 -4 1 -5.5t1 -3.5q0 -18 -23 -18h-154q-18 0 -20 14l-76 271q-2 12 -20 12h-332q-18 0 -21 -12l-75 -271q-2 -14 -21 -14h-153q-23 0 -23 18 q0 2 1 3.5t1 5.5l381 1249q2 14 21 14h110q14 0 21 -14z" />
<glyph unicode="B" horiz-adv-x="1064" d="M768 389q0 76 -53 130t-131 54h-226q-20 0 -20 -20v-369q0 -20 20 -20h226q78 0 131 54t53 130v41zM768 942q0 78 -53 131t-131 53h-226q-20 0 -20 -20v-348q0 -20 20 -21h226q78 0 131 53.5t53 131.5v20zM952 365q0 -170 -98 -267.5t-270 -97.5h-410q-20 0 -20 20v1250 q0 20 20 20h410q170 0 269 -99t99 -269v-21q0 -78 -63 -166q-27 -37 -51.5 -54t-24.5 -28q0 -10 24.5 -28.5t51.5 -59.5q63 -94 63 -170v-30z" />
<glyph unicode="C" horiz-adv-x="952" d="M883 205q12 -6 12 -15q0 -10 -19.5 -45.5t-66.5 -78.5q-92 -86 -256 -86h-61q-84 0 -152 24.5t-116 70.5t-74.5 110.5t-26.5 142.5v635q0 78 26.5 142t74.5 110.5t116 71t152 24.5h61q76 0 138.5 -21.5t107.5 -52.5t69.5 -66.5t24.5 -66.5q0 -10 -12 -17l-131 -65 q-4 -2 -11 -2q-8 0 -16 12q-35 47 -70 81t-100 34h-61q-78 0 -131.5 -53.5t-53.5 -130.5v-635q0 -78 53.5 -131.5t131.5 -53.5h61q37 0 66.5 13.5t44.5 29.5q35 41 51 64.5t26 23.5q4 0 13 -4z" />
<glyph unicode="D" horiz-adv-x="1075" d="M768 942q0 78 -53 131t-131 53h-226q-20 0 -20 -20v-922q0 -20 20 -20h226q78 0 131 54t53 130v594zM952 369q0 -172 -98 -270.5t-270 -98.5h-410q-20 0 -20 20v1250q0 20 20 20h410q170 0 269 -99t99 -269v-553z" />
<glyph unicode="E" horiz-adv-x="983" d="M891 20q0 -20 -21 -20h-696q-20 0 -20 20v1250q0 20 20 20h696q20 0 21 -20v-123q0 -20 -21 -21h-512q-20 0 -20 -20v-348q0 -20 20 -21h420q20 0 21 -20v-123q0 -20 -21 -21h-420q-20 0 -20 -20v-369q0 -20 20 -20h512q20 0 21 -21v-123z" />
<glyph unicode="F" horiz-adv-x="931" d="M891 1147q0 -20 -21 -21h-512q-20 0 -20 -20v-348q0 -20 20 -21h420q20 0 21 -20v-123q0 -20 -21 -21h-420q-20 0 -20 -20v-533q0 -20 -21 -20h-143q-20 0 -20 20v1250q0 20 20 20h696q20 0 21 -20v-123z" />
<glyph unicode="G" d="M590 1311q76 0 138.5 -21.5t107.5 -52.5t69.5 -66.5t24.5 -66.5q0 -10 -12 -17l-132 -65q-4 -2 -10 -2q-8 0 -16 12q-35 47 -70 81t-100 34h-98q-78 0 -131.5 -53.5t-53.5 -130.5v-635q0 -78 53.5 -131.5t131.5 -53.5h61q78 0 131 53.5t53 131.5v133q0 20 -20 20h-205 q-20 0 -20 21v123q0 20 20 20h389q20 0 21 -20v-297q0 -78 -27 -142.5t-75 -110.5t-115.5 -70.5t-151.5 -24.5h-61q-84 0 -152 24.5t-116 70.5t-74.5 110.5t-26.5 142.5v635q0 78 26.5 142t74.5 110.5t116 71t152 24.5h98z" />
<glyph unicode="H" horiz-adv-x="1136" d="M983 20q0 -20 -20 -20h-144q-20 0 -20 20v533q0 20 -21 20h-420q-20 0 -20 -20v-533q0 -20 -21 -20h-143q-20 0 -20 20v1250q0 20 20 20h143q20 0 21 -20v-512q0 -20 20 -21h420q20 0 21 21v512q0 20 20 20h144q20 0 20 -20v-1250z" />
<glyph unicode="I" horiz-adv-x="491" d="M338 20q0 -20 -21 -20h-143q-20 0 -20 20v1250q0 20 20 20h143q20 0 21 -20v-1250z" />
<glyph unicode="J" horiz-adv-x="860" d="M737 348q0 -145 -108 -260q-49 -53 -112.5 -80.5t-137.5 -27.5q-98 0 -205 59q-74 41 -110.5 85t-36.5 69q0 6 14 14l129 63q4 2 10 2t17 -12l34 -46q16 -22 35 -37t43.5 -24.5t59.5 -9.5q78 0 131 54.5t53 130.5v942q0 20 20 20h144q20 0 20 -20v-922z" />
<glyph unicode="K" horiz-adv-x="1075" d="M1061 31q4 -6 4 -15q0 -16 -21 -16h-182l-16 10l-369 596q-59 -70 -139 -176v-410q0 -20 -21 -20h-143q-20 0 -20 20v1250q0 20 20 20h143q20 0 21 -20v-539q0 -25 18 -24q8 0 19 12l430 563l16 8h170q23 0 23 -16q0 -8 -6 -17l-394 -483q-4 -4 -4 -12q0 -6 2 -10z" />
<glyph unicode="L" horiz-adv-x="931" d="M891 20q0 -20 -21 -20h-696q-20 0 -20 20v1250q0 20 20 20h143q20 0 21 -20v-1086q0 -20 20 -20h512q20 0 21 -21v-123z" />
<glyph unicode="M" horiz-adv-x="1323" d="M1169 20q0 -20 -20 -20h-143q-20 0 -21 20l23 910l-293 -733q-4 -10 -19 -13h-69q-14 2 -19 13l-289 735l19 -912q0 -20 -21 -20h-143q-20 0 -20 20v1250q0 20 20 20h141q14 0 19 -12l323 -813h7l321 815l19 12l145 -2q20 0 20 -20v-1250z" />
<glyph unicode="N" horiz-adv-x="1136" d="M983 20q0 -20 -20 -20h-132l-18 10l-487 920l12 -910q0 -20 -21 -20h-143q-20 0 -20 20v1250q0 20 20 20h131l19 -10l485 -918l-10 908q0 20 20 20h144q20 0 20 -20v-1250z" />
<glyph unicode="O" d="M737 963q0 78 -53 131t-131 53h-61q-78 0 -131.5 -53.5t-53.5 -130.5v-635q0 -78 53.5 -131.5t131.5 -53.5h61q78 0 131 53.5t53 131.5v635zM922 328q0 -78 -27 -142.5t-75 -110.5t-115.5 -70.5t-151.5 -24.5h-61q-84 0 -152 24.5t-116 70.5t-74.5 110.5t-26.5 142.5v635 q0 78 26.5 142t74.5 110.5t116 71t152 24.5h61q84 0 151.5 -24.5t115.5 -71t75 -111t27 -141.5v-635z" />
<glyph unicode="P" horiz-adv-x="993" d="M768 942q0 78 -53 131t-131 53h-226q-20 0 -20 -20v-348q0 -20 20 -21h226q78 0 131 53.5t53 131.5v20zM584 1290q170 0 269 -99t99 -269q0 -78 -26.5 -141.5t-74.5 -109.5t-116.5 -72t-150.5 -26h-226q-20 0 -20 -20v-533q0 -20 -21 -20h-143q-20 0 -20 20v1250 q0 20 20 20h410z" />
<glyph unicode="Q" d="M737 963q0 78 -53 131t-131 53h-61q-78 0 -131.5 -53.5t-53.5 -130.5v-635q0 -35 11.5 -65t29 -53.5t38 -36.5t40.5 -13q14 0 14 20v84q0 20 21 21h123q20 0 20 -21v-84q0 -20 14 -20q20 0 41 13t38.5 36.5t28.5 53.5t11 65v635zM922 328q0 -207 -177 -305 q-29 -16 -54 -22.5t-44.5 -10.5t-31 -9.5t-11.5 -17.5v-127q0 -20 -20 -20h-123q-20 0 -21 20v127q0 12 -12 17.5t-32.5 9.5t-47 10t-53.5 23q-86 47 -129 123.5t-43 181.5v635q0 78 26.5 142t74.5 110.5t116 71t152 24.5h61q84 0 151.5 -24.5t115.5 -71t75 -111t27 -141.5 v-635z" />
<glyph unicode="R" d="M768 942q0 78 -53 131t-131 53h-226q-20 0 -20 -20v-348q0 -20 20 -21h226q78 0 131 53.5t53 131.5v20zM963 27q2 -4 2 -11q0 -16 -21 -16h-158l-18 14l-190 547l-17 12h-203q-20 0 -20 -20v-533q0 -20 -21 -20h-143q-20 0 -20 20v1250q0 20 20 20h410q170 0 269 -99 t99 -269v-21q0 -53 -28.5 -115.5t-87.5 -117.5q-29 -27 -51.5 -36t-22.5 -26q0 -4 2 -6z" />
<glyph unicode="S" horiz-adv-x="901" d="M451 1147q-37 0 -71 -14.5t-59.5 -39t-40 -58.5t-14.5 -72q0 -41 18.5 -71t52.5 -55.5t84 -49.5l111 -52q82 -37 141.5 -78t99.5 -89t59.5 -106.5t19.5 -133.5q0 -78 -26.5 -141.5t-75 -109.5t-116 -71.5t-151.5 -25.5h-86q-74 0 -131 16t-92 43q-59 47 -88 87t-29 64 q0 8 13 15l129 65q8 4 10 4q8 0 18 -14l34 -45q15 -20 33.5 -36.5t43 -26t59.5 -9.5h86q76 0 130.5 53.5t54.5 131.5q0 43 -16.5 75.5t-48.5 60.5t-78 52.5t-105 52.5q-82 39 -145.5 76t-106.5 81t-64.5 101.5t-21.5 135.5t26.5 142t74.5 110.5t116 71t152 24.5h32 q76 0 138.5 -21.5t107.5 -53.5t69.5 -67.5t24.5 -64.5q0 -10 -12 -17l-131 -65q-4 -2 -10 -2q-8 0 -17 12q-35 47 -69.5 81t-100.5 34h-32z" />
<glyph unicode="T" horiz-adv-x="819" d="M778 1147q0 -20 -20 -21h-236q-20 0 -20 -20v-1086q0 -20 -21 -20h-143q-20 0 -21 20v1086q0 20 -20 20h-236q-20 0 -20 21v123q0 20 20 20h697q20 0 20 -20v-123z" />
<glyph unicode="U" d="M922 328q0 -78 -27 -142.5t-75 -110.5t-115.5 -70.5t-151.5 -24.5h-61q-84 0 -152 24.5t-116 70.5t-74.5 110.5t-26.5 142.5v942q0 20 20 20h144q20 0 20 -20v-942q0 -78 53.5 -131.5t131.5 -53.5h61q78 0 131 53.5t53 131.5v942q0 20 21 20h143q20 0 21 -20v-942z" />
<glyph unicode="V" horiz-adv-x="921" d="M537 14q-6 -14 -21 -14h-110q-14 0 -21 14l-381 1250q0 4 -1 5t-1 3q0 18 23 18h153q18 0 21 -14l266 -938l258 938q2 14 20 14h154q23 0 23 -18q0 -2 -1 -4t-1 -4z" />
<glyph unicode="W" horiz-adv-x="1366" d="M1079 16q-4 -16 -20 -16h-117q-18 0 -20 14l-236 908l-242 -908q-2 -14 -20 -14h-117q-16 0 -20 16l-264 1250q0 2 -1.5 4t-1.5 4q0 16 23 16h150q16 0 20 -16l178 -944l240 950q2 14 20 14h64q18 0 20 -14l244 -950l174 944q4 16 21 16h149q23 0 23 -16q0 -2 -1.5 -4 t-1.5 -4z" />
<glyph unicode="X" horiz-adv-x="940" d="M909 29q4 -8 4 -13q0 -16 -22 -16h-178q-14 2 -19 12l-200 432q-6 16 -19 17q-12 0 -18 -17l-211 -432l-19 -12h-176q-23 0 -22 16q0 2 4 15l309 606v18l-309 605q-4 12 -4 14q0 16 22 16h174l19 -12l213 -438q6 -14 18 -15q12 0 19 15l202 438q6 12 19 12h176 q23 0 22 -16q0 -4 -4 -12l-305 -607v-18z" />
<glyph unicode="Y" horiz-adv-x="921" d="M553 592v-572q0 -20 -21 -20h-143q-20 0 -20 20v572l-357 668q-4 12 -4 14q0 16 23 16h168l18 -12l225 -467q6 -14 19 -14q12 0 18 14l226 467l18 12h168q23 0 22 -16q0 -2 -4 -14z" />
<glyph unicode="Z" horiz-adv-x="901" d="M819 20q0 -20 -20 -20h-729q-23 0 -23 16q0 4 4 13l479 1069q4 8 5 12q0 16 -23 16h-410q-20 0 -20 21v123q0 20 20 20h686q23 0 23 -16q0 -4 -4 -12l-481 -1069q-4 -8 -4 -13q0 -16 22 -16h455q20 0 20 -21v-123z" />
<glyph unicode="[" horiz-adv-x="737" d="M553 -348q0 -20 -21 -21h-327q-20 0 -21 21v1823q0 20 21 20h327q20 0 21 -20v-123q0 -20 -21 -21h-143q-20 0 -20 -20v-1495q0 -20 20 -21h143q20 0 21 -20v-123z" />
<glyph unicode="\" horiz-adv-x="665" d="M557 0q-20 0 -27 18l-518 1229q-4 12 -4 17q0 27 33 26h68q18 0 26 -18l518 -1229q4 -12 4 -16q0 -27 -32 -27h-68z" />
<glyph unicode="]" horiz-adv-x="737" d="M553 -348q0 -20 -21 -21h-327q-20 0 -21 21v123q0 20 21 20h143q20 0 21 21v1495q0 20 -21 20h-143q-20 0 -21 21v123q0 20 21 20h327q20 0 21 -20v-1823z" />
<glyph unicode="^" horiz-adv-x="1538" d="M709 1057q-86 90 -177 90q-78 0 -131 -54.5t-53 -129.5v-113q0 -20 21 -21h313q20 0 20 21v92q0 27 2.5 51.5t8.5 46.5zM1071 686q0 -20 -20 -20h-144q-20 0 -20 -21v-625q0 -20 -21 -20h-143q-20 0 -21 20v625q0 20 -20 21h-313q-20 0 -21 -21v-625q0 -20 -20 -20h-144 q-20 0 -20 20v625q0 20 -21 21h-51q-20 0 -20 20v123q0 20 20 20h51q20 0 21 21v92q0 78 28.5 145.5t80 116.5t122 78t154.5 29q106 0 186 -49q33 -20 50.5 -35t23.5 -15q12 0 31.5 15.5t48.5 34t65.5 34t79.5 15.5q37 0 37 -23v-123q0 -10 -4 -13t-12 -7l-69 -31 q-32 -14 -53.5 -33.5t-33.5 -47t-12 -70.5v-113q0 -20 20 -21h144q20 0 20 -20v-123zM1419 20q0 -20 -20 -20h-144q-20 0 -20 20v881q0 20 20 21h144q20 0 20 -21v-881zM1440 1198q0 -47 -33 -80t-80 -33t-80 32t-33 81q0 47 33 80t80 33t80 -33t33 -80z" />
<glyph unicode="_" horiz-adv-x="450" d="M461 -440q0 -20 -21 -21h-430q-20 0 -20 21v51q0 20 20 20h430q20 0 21 -20v-51z" />
<glyph unicode="`" horiz-adv-x="1024" d="M606 1063q4 -6 4 -16q0 -14 -20 -15h-88l-15 6l-260 256q-8 8 -8 19q0 16 23 16h180l16 -10z" />
<glyph unicode="a" horiz-adv-x="972" d="M655 358q0 20 -20 21h-236q-39 0 -64.5 -25.5t-25.5 -64.5v-33q0 -41 25.5 -66.5t64.5 -25.5h80q121 0 174 147l2 39v8zM840 20q0 -20 -21 -20h-123q-20 0 -20 20v27q0 23 -14 23q-12 0 -29 -11.5t-39.5 -23.5t-51 -23.5t-63.5 -11.5h-80q-61 0 -111 19.5t-86 53 t-55.5 81t-19.5 102.5v12q0 55 19.5 101.5t55.5 80t86 53t111 19.5h236q20 0 20 21l-2 57q-4 78 -54 129t-130 51q-35 0 -63.5 -12t-47.5 -33q-35 -37 -50 -59.5t-25 -22.5q-4 0 -13 4l-125 66q-12 6 -12 16q0 12 21.5 47t70.5 78q88 78 244 78q168 0 267.5 -94t101.5 -248 l2 -270v-310z" />
<glyph unicode="b" horiz-adv-x="972" d="M686 573q0 37 -14.5 71t-39 59.5t-58 40t-72.5 14.5q-78 0 -131.5 -54.5t-53.5 -130.5v-225q0 -76 53.5 -130t131.5 -54q39 0 72.5 14.5t58 40t39 59t14.5 70.5v225zM870 348q0 -78 -26.5 -141.5t-73.5 -109.5t-112.5 -71.5t-143.5 -25.5q-45 0 -79 10t-58.5 23.5 t-39.5 24t-26 10.5q-14 0 -14 -23v-25q0 -20 -21 -20h-122q-20 0 -21 20v1250q0 20 21 20h143q20 0 20 -20v-393q0 -25 17 -25q6 0 21.5 11t39 23.5t57 24t78.5 11.5q72 0 133.5 -27t107.5 -73t72.5 -109.5t26.5 -139.5v-225z" />
<glyph unicode="c" horiz-adv-x="876" d="M801 205q12 -6 12 -15q0 -10 -19.5 -45.5t-66.5 -78.5q-92 -86 -256 -86q-84 0 -151.5 24.5t-115.5 70.5t-75 110.5t-27 142.5v266q0 78 27 142.5t75 110.5t115.5 70.5t151.5 24.5q94 0 174 -35q82 -37 124 -88t42 -84q0 -10 -12 -16l-131 -66q-4 -2 -11 -2q-8 0 -16 13 q-37 51 -71.5 82.5t-98.5 31.5q-39 0 -72.5 -14t-58.5 -40t-39 -59.5t-14 -70.5v-266q0 -37 14 -71t39 -59.5t58.5 -40t72.5 -14.5q37 0 66.5 12.5t46.5 32.5q35 41 50 63.5t25 22.5q4 0 13 -4z" />
<glyph unicode="d" horiz-adv-x="972" d="M655 573q0 76 -53 130.5t-131 54.5q-39 0 -72.5 -14.5t-58.5 -40t-39 -59.5t-14 -71v-225q0 -37 14 -70.5t39 -59t58.5 -40t72.5 -14.5q78 0 131 54t53 130v225zM840 20q0 -20 -21 -20h-123q-20 0 -20 20v25q0 23 -14 23q-10 0 -27 -10.5t-41.5 -24t-58 -23.5t-78.5 -10 q-78 0 -142.5 25.5t-111.5 71.5t-74 109.5t-27 141.5v225q0 76 26 139.5t72 109.5t110.5 73t140.5 27q39 0 69.5 -10.5t52.5 -23.5l40 -24q17 -10 28 -10q14 0 14 23v393q0 20 21 20h143q20 0 21 -20v-1250z" />
<glyph unicode="e" horiz-adv-x="942" d="M635 573q14 0 17 8.5t3 26.5q0 33 -15 63.5t-41 54.5t-58.5 38t-69.5 14t-70.5 -14t-58.5 -39t-40 -56.5t-15 -64.5q0 -16 3 -23.5t17 -7.5h328zM840 451q0 -20 -21 -21h-512q-20 0 -20 -20v-82q0 -37 14 -71t39 -59.5t58.5 -40t72.5 -14.5q37 0 66.5 12.5t46.5 32.5 q35 41 50 63.5t25 22.5q4 0 13 -4l129 -65q12 -6 12 -15q0 -10 -19.5 -45.5t-66.5 -78.5q-92 -86 -256 -86q-84 0 -151.5 24.5t-115.5 70.5t-75 110.5t-27 142.5v266q0 70 29 133.5t79 110.5t116.5 75.5t144.5 28.5q76 0 143.5 -28.5t117.5 -75.5t79 -110.5t29 -133.5v-143z " />
<glyph unicode="f" horiz-adv-x="583" d="M602 1157q-6 -14 -20 -14q-18 2 -30.5 3t-19.5 1q-39 0 -72.5 -14.5t-58 -40t-39 -59.5t-14.5 -70v-113q0 -20 21 -21h143q20 0 20 -20v-123q0 -20 -20 -20h-143q-20 0 -21 -21v-625q0 -20 -20 -20h-144q-20 0 -20 20v625q0 20 -21 21h-51q-20 0 -20 20v123q0 20 20 20 h51q20 0 21 21v92q0 72 26.5 138.5t79.5 121.5q98 109 262 109q57 0 85 -5.5t28 -21.5q0 -4 -2 -8z" />
<glyph unicode="g" horiz-adv-x="942" d="M748 -184q0 37 -28 64.5t-65 27.5h-276q-37 0 -64.5 -27.5t-27.5 -64.5v-21q0 -37 26.5 -64.5t65.5 -27.5h276q37 0 65 27.5t28 64.5v21zM655 573q0 76 -53 130.5t-131 54.5q-39 0 -72.5 -14.5t-58.5 -40t-39 -59.5t-14 -71v-18q0 -37 14 -70.5t39 -59.5t58.5 -40 t72.5 -14q78 0 131 54t53 130v18zM932 -205q0 -55 -20.5 -101t-56.5 -81t-87 -54.5t-113 -19.5h-276q-61 0 -112.5 19.5t-87.5 53.5t-56.5 81t-20.5 102v21q0 41 13.5 75.5t34.5 57.5q35 35 55 52t20 28q0 14 -14 41.5t-14 70.5q0 63 19.5 93t19.5 40q0 6 -21.5 29t-58.5 70 q-23 29 -38.5 77t-15.5 105v18q0 74 28 137.5t77 110.5t116.5 74t147.5 27q39 0 69.5 -10.5t53.5 -23.5l40 -24q17 -10 28 -10q14 0 14 23v24q0 20 20 21h123q20 0 21 -21v-346q0 -74 -28 -137.5t-77 -110.5t-116.5 -73.5t-147.5 -26.5q-10 0 -24.5 1t-34.5 3 q-53 -31 -54 -70q0 -45 56 -69h241q61 0 112.5 -19.5t87.5 -54.5t56.5 -81t20.5 -101v-21z" />
<glyph unicode="h" horiz-adv-x="993" d="M870 20q0 -20 -20 -20h-143q-20 0 -21 20v553q0 37 -14.5 71t-39 59.5t-58 40t-72.5 14.5q-78 0 -131.5 -54.5t-53.5 -130.5v-553q0 -20 -20 -20h-143q-20 0 -21 20v1250q0 20 21 20h143q20 0 20 -20v-393q0 -25 17 -25q6 0 21.5 11t40 23.5t58 24t78.5 11.5 q72 0 133.5 -27t107.5 -73t71.5 -109.5t25.5 -139.5v-553z" />
<glyph unicode="i" horiz-adv-x="450" d="M317 20q0 -20 -20 -20h-143q-20 0 -21 20v881q0 20 21 21h143q20 0 20 -21v-881zM338 1198q0 -47 -33 -80t-80 -33t-79.5 32t-32.5 81q0 47 32.5 80t79.5 33t80 -33t33 -80z" />
<glyph unicode="j" horiz-adv-x="450" d="M317 -115q0 -61 -24.5 -125.5t-71.5 -121.5q-98 -119 -250 -119q-23 0 -22 20v123q0 10 4 13t12 8l69 30q32 14 53.5 34t33.5 47.5t12 70.5v1036q0 20 21 21h143q20 0 20 -21v-1016zM338 1198q0 -47 -33 -80t-80 -33t-79.5 32t-32.5 81q0 47 32.5 80t79.5 33t80 -33 t33 -80z" />
<glyph unicode="k" horiz-adv-x="919" d="M905 31q4 -8 4 -15q0 -16 -22 -16h-180l-19 10l-260 426q-6 12 -16 13q-10 0 -17 -9l-78 -80v-340q0 -20 -20 -20h-143q-20 0 -21 20v1250q0 20 21 20h143q20 0 20 -20v-639q0 -23 19 -23q10 0 16 8l273 299l14 7h174q23 0 23 -17q0 -10 -9 -18l-266 -271q-8 -12 -8 -14 t4 -10z" />
<glyph unicode="l" horiz-adv-x="450" d="M317 20q0 -20 -20 -20h-143q-20 0 -21 20v1250q0 20 21 20h143q20 0 20 -20v-1250z" />
<glyph unicode="m" horiz-adv-x="1474" d="M1341 20q0 -20 -20 -20h-143q-20 0 -21 20v553q0 37 -13.5 71t-37 59.5t-53 40t-60.5 14.5t-60.5 -15.5t-52 -41t-37 -58.5t-14.5 -70v-553q0 -20 -20 -20h-143q-20 0 -21 20v553q0 37 -13.5 71t-37 59.5t-53 40t-60.5 14.5t-60.5 -15.5t-52 -40t-37 -58.5t-14.5 -71 v-553q0 -20 -20 -20h-143q-20 0 -21 20v881q0 20 21 21h122q20 0 21 -21v-27q0 -23 14 -22q10 0 27.5 11t41 23.5t54.5 24t68 11.5q94 0 162 -48q35 -23 52 -39t23 -16q8 0 25.5 17.5t52.5 40.5q70 45 176 45q76 0 140.5 -26t110.5 -72t71.5 -110.5t25.5 -140.5v-553z" />
<glyph unicode="n" horiz-adv-x="1003" d="M870 20q0 -20 -20 -20h-143q-20 0 -21 20v553q0 37 -14.5 71t-39 59.5t-58 40t-72.5 14.5q-78 0 -131.5 -54.5t-53.5 -130.5v-553q0 -20 -20 -20h-143q-20 0 -21 20v881q0 20 21 21h122q20 0 21 -21v-24q0 -23 14 -23q10 0 26.5 10t41 23.5t58.5 24t79 10.5 q78 0 142.5 -26t111.5 -72t73.5 -109.5t26.5 -141.5v-553z" />
<glyph unicode="o" horiz-adv-x="942" d="M655 594q0 76 -53 130t-131 54t-131 -54t-53 -130v-266q0 -37 14 -71t39 -59.5t58.5 -40t72.5 -14.5q78 0 131 54.5t53 130.5v266zM840 328q0 -78 -27 -142.5t-75 -110.5t-115.5 -70.5t-151.5 -24.5t-151.5 24.5t-115.5 70.5t-75 110.5t-27 142.5v266q0 78 27 142.5 t75 110.5t115.5 70.5t151.5 24.5t151.5 -25.5t115.5 -71.5t75 -109.5t27 -141.5v-266z" />
<glyph unicode="p" horiz-adv-x="972" d="M686 573q0 37 -14.5 71t-39 59.5t-58 40t-72.5 14.5q-78 0 -131.5 -54.5t-53.5 -130.5v-225q0 -76 53.5 -130t131.5 -54q39 0 72.5 14.5t58 40t39 59t14.5 70.5v225zM870 348q0 -76 -25.5 -139.5t-71.5 -109.5t-107.5 -72.5t-133.5 -26.5q-45 0 -78.5 10t-58 23.5t-40 24 t-21.5 10.5q-16 0 -17 -23v-485q0 -20 -20 -21h-143q-20 0 -21 21v1341q0 20 21 21h122q20 0 21 -21v-24q0 -23 14 -23q10 0 26.5 10t41 23.5t58.5 24t79 10.5q78 0 142.5 -26t111.5 -72t73.5 -109.5t26.5 -141.5v-225z" />
<glyph unicode="q" horiz-adv-x="972" d="M655 573q0 76 -53 130.5t-131 54.5q-39 0 -72.5 -14.5t-58.5 -40t-39 -59.5t-14 -71v-225q0 -37 14 -70.5t39 -59t58.5 -40t72.5 -14.5q78 0 131 54t53 130v225zM840 -440q0 -20 -21 -21h-143q-20 0 -21 21v485q0 23 -14 23q-10 0 -28 -11l-40 -23q-23 -13 -53.5 -23.5 t-68.5 -10.5q-76 0 -140.5 26.5t-110.5 72.5t-72 109.5t-26 139.5v225q0 78 27 141.5t74 109.5t111.5 72t142.5 26q45 0 78.5 -10.5t58 -24t41 -23.5t27.5 -10q14 0 14 23v24q0 20 20 21h123q20 0 21 -21v-1341z" />
<glyph unicode="r" horiz-adv-x="626" d="M614 741q0 -20 -12 -20q-14 0 -37.5 7t-62.5 7q-86 0 -135.5 -48t-49.5 -134v-533q0 -20 -20 -20h-143q-20 0 -21 20v881q0 20 21 21h122q20 0 21 -21v-65q0 -25 18 -25q8 0 23.5 17.5t39 38t56.5 38t74 17.5q59 0 82.5 -4.5t23.5 -22.5v-154z" />
<glyph unicode="s" horiz-adv-x="901" d="M416 784q-72 0 -111 -27.5t-39 -76.5q0 -63 55.5 -88t167.5 -47q82 -16 143.5 -36t101.5 -48.5t60.5 -70.5t20.5 -101q0 -139 -91 -224t-247 -85h-61q-76 0 -137.5 20t-105.5 52t-67.5 68t-23.5 66q0 8 12 15l119 59q8 4 10 4q4 0 17 -12q37 -47 72.5 -81t103.5 -34h61 q72 0 114 35t42 84q0 33 -16.5 53.5t-49 33.5t-82.5 24l-112 22q-145 29 -216 83t-71 169q0 68 23.5 123t67.5 95t104.5 61.5t134.5 21.5h61q76 0 137.5 -20.5t105.5 -52t67.5 -67.5t23.5 -67q0 -8 -12 -14l-119 -59q-8 -4 -12 -5q-4 0 -7.5 4.5t-7.5 8.5q-39 49 -74.5 81.5 t-101.5 32.5h-61z" />
<glyph unicode="t" horiz-adv-x="645" d="M543 2q0 -14 -8.5 -17t-30.5 -3q-63 0 -122.5 25.5t-106 70.5t-74 108.5t-27.5 141.5v409q0 20 -20 21h-113q-20 0 -21 20l5 72l235 250l14 6h64q20 0 20 -21v-143q0 -20 21 -20h143q20 0 21 -21v-123q0 -20 -21 -20h-143q-20 0 -21 -21v-409q0 -61 45 -119 q14 -16 46 -30l77 -34q16 -6 17 -20v-123z" />
<glyph unicode="u" horiz-adv-x="983" d="M850 20q0 -20 -21 -20h-122q-20 0 -21 20v25q0 23 -14 23q-10 0 -26.5 -10.5t-41 -24t-58.5 -23.5t-79 -10q-78 0 -142.5 25.5t-111.5 71.5t-73.5 109.5t-26.5 141.5v553q0 20 20 21h143q20 0 21 -21v-553q0 -37 14.5 -70.5t39 -59t58 -40t72.5 -14.5t73 14.5t58.5 40 t39 59t14.5 70.5v553q0 20 20 21h143q20 0 21 -21v-881z" />
<glyph unicode="v" horiz-adv-x="880" d="M524 12q-10 -10 -18 -12h-131q-12 0 -19 12l-348 881q-2 4 -2 12q0 16 21 17h153q8 -4 19 -13l239 -669l244 669q2 6 18 13h154q20 0 20 -17q0 -8 -2 -12z" />
<glyph unicode="w" horiz-adv-x="1243" d="M444 14q-2 -14 -20 -14h-119q-18 0 -20 14l-260 881q0 4 -1 5t-1 3q0 18 22 19h150q8 0 20 -15l154 -657l163 657q12 14 21 15h137q18 0 21 -15l163 -657l152 657q4 14 23 15h149q23 0 23 -19q0 -2 -1 -3t-1 -5l-265 -881q-6 -14 -20 -14h-115q-12 0 -20 14l-176 705z " />
<glyph unicode="x" horiz-adv-x="835" d="M817 31q4 -8 4 -15q0 -16 -20 -16h-168l-19 10l-180 291q-10 14 -18 14t-19 -14l-180 -291l-18 -10h-164q-23 0 -23 16q0 4 6 15l273 420q4 12 4 14q0 6 -4 10l-273 416q-6 8 -6 14q0 16 23 17h166l16 -11l182 -293q8 -12 15 -12q6 0 16 12l184 293l17 11h170 q20 0 20 -17q0 -10 -4 -14l-274 -418v-20z" />
<glyph unicode="y" horiz-adv-x="983" d="M850 -113q0 -172 -97.5 -270t-271.5 -98q-72 0 -130 16t-93 43q-59 45 -89 84t-30 66q0 8 13 14l129 65l10 5q8 0 18 -15l35 -45q16 -20 34.5 -35.5t43 -24.5t59.5 -9q39 0 73 14t58.5 39.5t39 59.5t14.5 71v170q0 23 -17 22q-10 0 -24.5 -9l-34 -20.5t-46 -20.5 t-63.5 -9q-84 0 -151.5 24.5t-115.5 70.5t-74.5 110.5t-26.5 142.5v553q0 20 20 21h143q20 0 21 -21v-553q0 -37 14.5 -70.5t39 -59t58 -40t72.5 -14.5t73 14.5t58.5 40t39 59t14.5 70.5v553q0 20 20 21h143q20 0 21 -21v-1014z" />
<glyph unicode="z" horiz-adv-x="880" d="M807 20q0 -20 -21 -20h-714q-23 0 -23 16q0 6 4 15l416 694q4 8 4 14q0 16 -22 17h-359q-20 0 -20 20v123q0 20 20 21h678q23 0 23 -17q0 -6 -5 -14l-417 -694q-4 -4 -4 -15q0 -16 22 -16h397q20 0 21 -21v-123z" />
<glyph unicode="{" horiz-adv-x="737" d="M553 -346q0 -14 -9 -17.5t-32 -3.5q-63 0 -122.5 26t-104.5 74t-73 115.5t-28 151.5v297q0 43 -12 70.5t-33.5 47t-52.5 34t-70 30.5q-8 4 -12 7t-4 14v127q0 10 4 13t12 7q39 16 70 30.5t52.5 34t33.5 47t12 70.5v297q0 84 28 152t73 116t104.5 73.5t122.5 25.5 q23 0 32 -3t9 -17v-123q0 -10 -4 -13.5t-12 -7.5l-69 -31q-32 -14 -53.5 -33.5t-33.5 -47t-12 -70.5v-338q0 -78 -64 -166q-25 -35 -50.5 -53.5t-25.5 -28.5t25 -28.5t51 -59.5q63 -94 64 -170v-323q0 -43 12 -71t33.5 -47.5t53.5 -33.5l69 -31q8 -4 12 -7t4 -13v-123z" />
<glyph unicode="|" horiz-adv-x="1558" d="M715 1047q-82 100 -183 100q-78 0 -131 -54.5t-53 -129.5v-113q0 -20 21 -21h313q20 0 20 21v72q0 29 2.5 55.5t10.5 52.5v17zM1425 20q0 -20 -20 -20h-143q-20 0 -21 20v1086q0 20 -20 20h-150q-76 0 -130 -53t-54 -131v-92q0 -20 20 -21h144q20 0 20 -20v-123 q0 -20 -20 -20h-144q-20 0 -20 -21v-625q0 -20 -21 -20h-143q-20 0 -21 20v625q0 20 -20 21h-313q-20 0 -21 -21v-625q0 -20 -20 -20h-144q-20 0 -20 20v625q0 20 -21 21h-51q-20 0 -20 20v123q0 20 20 20h51q20 0 21 21v92q0 78 28.5 145.5t80 116.5t122 78t156.5 29 q113 0 190 -54q37 -25 56.5 -40t23.5 -15q8 0 27.5 13.5t50.5 31t74 30.5t98 13h334q20 0 20 -20v-1250z" />
<glyph unicode="}" horiz-adv-x="737" d="M737 500q0 -10 -4 -13.5t-12 -7.5l-69 -30q-32 -14 -53 -34t-33.5 -47.5t-12.5 -70.5v-297q0 -84 -27.5 -151.5t-72.5 -114.5t-105.5 -74t-124.5 -27q-23 0 -31 3.5t-8 17.5v123q0 10 4.5 13t12.5 7l77 35q32 14 46 31q45 57 45 117v323q0 76 63 170q27 39 51.5 57.5 t24.5 30.5t-25.5 29.5t-50.5 52.5q-63 88 -63 166v338q0 43 -12.5 70.5t-34 47t-53.5 33.5l-68 31q-8 4 -12.5 7t-4.5 14v123q0 14 9.5 17t29.5 3q63 0 124 -25.5t106 -73.5t72.5 -116t27.5 -152v-297q0 -43 12.5 -70.5t34 -47t52.5 -33.5l69 -31q8 -4 12 -7t4 -13v-127z " />
<glyph unicode="~" horiz-adv-x="1122" d="M709 1057q-86 90 -177 90q-78 0 -131 -54.5t-53 -129.5v-113q0 -20 21 -21h313q20 0 20 21v92q0 27 2.5 51.5t8.5 46.5zM1141 1157q-6 -14 -21 -14q-18 2 -30.5 3t-18.5 1q-78 0 -131 -54.5t-53 -129.5v-113q0 -20 20 -21h144q20 0 20 -20v-123q0 -20 -20 -20h-144 q-20 0 -20 -21v-625q0 -20 -21 -20h-143q-20 0 -21 20v625q0 20 -20 21h-313q-20 0 -21 -21v-625q0 -20 -20 -20h-144q-20 0 -20 20v625q0 20 -21 21h-51q-20 0 -20 20v123q0 20 20 20h51q20 0 21 21v92q0 78 28.5 145.5t80 116.5t122 78t154.5 29q106 0 186 -49 q33 -20 50.5 -35t23.5 -15q8 0 20.5 9.5t32.5 21.5q18 10 38 22.5t44.5 22.5t55 16.5t71.5 6.5q59 0 86 -5.5t27 -21.5q0 -4 -2 -8z" />
<glyph unicode="&#xa1;" horiz-adv-x="552" d="M338 -348q0 -20 -21 -21h-143q-20 0 -20 21v534l43 349q2 18 20 18h55q16 0 21 -18l45 -349v-534zM358 829q0 -47 -32.5 -79.5t-79.5 -32.5t-80 32.5t-33 79.5q0 49 33 81t80 32t79.5 -33t32.5 -80z" />
<glyph unicode="&#xa2;" d="M494 928q0 20 -15 20q-20 0 -41.5 -14t-40 -37t-30 -54.5t-11.5 -64.5v-266q0 -35 11.5 -65.5t30 -53t40 -37t41.5 -14.5q14 0 15 20v566zM870 389q12 -6 13 -16q0 -16 -11.5 -38t-30 -45.5t-45 -43t-57.5 -31.5q-76 -29 -114.5 -38t-38.5 -30v-127q0 -20 -21 -20h-51 q-20 0 -20 20v127q0 12 -12.5 17.5t-33 8.5t-47 9t-55.5 23q-174 96 -174 307v266q0 209 174 305q29 14 55.5 21.5t47 11.5t33 9t12.5 18v127q0 20 20 20h51q20 0 21 -20v-127q0 -10 3 -13.5t13 -7.5q63 -6 110.5 -29.5t65.5 -37.5q53 -41 79 -77t26 -58q0 -10 -13 -17 l-129 -65q-4 -2 -10 -2q-10 0 -18 12l-54.5 69.5t-58.5 28.5q-14 0 -14 -20v-561q0 -20 14 -21q16 0 36.5 12.5t37.5 34.5q23 31 34 48.5t23 17.5q6 0 10 -2z" />
<glyph unicode="&#xa3;" d="M276 942q0 78 28 145.5t79 116.5t120.5 78t153.5 29q82 0 162 -35q82 -37 124 -87t42 -85q0 -10 -12 -17l-131 -65q-4 -2 -11 -2q-8 0 -16 12q-37 49 -71.5 82t-98.5 33q-39 0 -72.5 -14.5t-58.5 -40t-39 -59.5t-14 -70v-205q0 -20 20 -21h144q20 0 20 -20v-123 q0 -20 -20 -21h-144q-20 0 -20 -20v-225q0 -55 -22.5 -92t-22.5 -58q0 -14 22 -14h463q20 0 21 -21v-123q0 -20 -21 -20h-881q-20 0 -20 20v123q0 20 20 21h95q162 47 161 184v205q0 20 -20 20h-51q-20 0 -21 21v123q0 20 21 20h51q20 0 20 21v184z" />
<glyph unicode="&#xa4;" horiz-adv-x="1241" d="M926 887q0 61 -23.5 116.5t-64.5 97.5t-96.5 65.5t-118.5 23.5t-118.5 -23.5t-96.5 -65.5t-65 -97.5t-24 -116.5q0 -63 24 -118.5t65 -97.5t96 -65.5t119 -23.5q63 0 118.5 23.5t96.5 65.5t64.5 97.5t23.5 118.5zM367 1219q113 86 254 86t256 -86l204 204l82 -80 l-205 -206q82 -109 82 -252q0 -70 -19.5 -132.5t-62.5 -119.5l205 -205l-82 -82l-204 205q-53 -41 -116 -63.5t-138 -22.5q-143 0 -256 86l-205 -205l-82 82l207 205q-35 43 -59.5 106.5t-24.5 145.5q0 139 84 252l-207 206l82 80z" />
<glyph unicode="&#xa5;" d="M676 707q-4 -12 -4 -15q0 -16 22 -16h248q20 0 21 -21v-102q0 -20 -21 -21h-307q-20 0 -21 -20v-164q0 -20 21 -20h307q20 0 21 -21v-102q0 -20 -21 -21h-307q-20 0 -21 -20v-144q0 -20 -20 -20h-143q-20 0 -21 20v144q0 20 -20 20h-308q-20 0 -20 21v102q0 20 20 21h308 q20 0 20 20v164q0 20 -20 20h-308q-20 0 -20 21v102q0 20 20 21h248q23 0 23 16q0 2 -4 15l-295 553q-4 6 -4 16q0 14 22 14h168l19 -12l225 -467q6 -14 18 -14t19 14l225 467q8 12 18 12h168q23 0 23 -16q0 -2 -4 -14z" />
<glyph unicode="&#xa6;" horiz-adv-x="1024" d="M588 -350h-150v758h150v-758zM588 674h-150v758h150v-758z" />
<glyph unicode="&#xa7;" d="M739 328q0 59 -28.5 98t-85.5 78q-20 12 -113 57q-129 61 -141 62q-10 0 -21.5 -27t-11.5 -74q0 -43 22.5 -76.5t67.5 -62.5q123 -80 200 -109.5t83 -29.5q8 0 18 23.5t10 60.5zM864 106q59 -98 60 -219q0 -78 -27 -141t-75 -109.5t-115.5 -72t-151.5 -25.5h-86 q-72 0 -129 16.5t-92 43.5q-59 45 -89 83.5t-30 65.5q0 8 12 14l129 66q4 2 11 2q8 0 18 -12l34 -43q15 -20 33.5 -37t43 -26t59.5 -9h86q76 0 130 53.5t54 130.5q0 51 -21.5 86t-59 64t-92.5 54l-120 59q-74 37 -129 73.5t-92 79.5t-54 96.5t-17 122.5q0 51 10 90t22.5 66 t22.5 42t10 21t-10 20.5t-22.5 41t-22.5 65.5t-10 95q0 78 26.5 142t74.5 110.5t115.5 71t151.5 24.5h33q76 0 138.5 -21.5t107.5 -52.5t69.5 -66.5t24.5 -66.5q0 -10 -12 -17l-131 -65q-4 -2 -11 -2q-8 0 -16 12q-35 47 -69.5 81t-100.5 34h-33q-37 0 -70.5 -14.5t-59 -39 t-40 -58.5t-14.5 -72q0 -45 21.5 -77t59.5 -57.5t92 -50.5l120 -55q152 -72 222.5 -163t70.5 -232q0 -113 -62 -201z" />
<glyph unicode="&#xa8;" horiz-adv-x="1024" d="M457 1171q0 -41 -30 -71.5t-73 -30.5t-72.5 29.5t-29.5 72.5t29.5 73t72.5 30t73 -31t30 -72zM776 1171q0 -41 -29.5 -71.5t-72.5 -30.5t-73 29.5t-30 72.5t30 73t73 30t72.5 -31t29.5 -72z" />
<glyph unicode="&#xa9;" horiz-adv-x="1474" d="M956 459q10 -6 11 -19q0 -18 -16.5 -40.5t-46.5 -42t-73 -33t-96 -13.5q-119 0 -189.5 67.5t-70.5 178.5v203q0 111 69.5 176t190.5 65q53 0 95 -14t72 -33.5t46.5 -42t16.5 -39.5q0 -8 -11 -14l-59 -31q-8 -4 -12 -4q-6 0 -17.5 13.5t-29 30t-43 29.5t-58.5 13 q-66 0 -108.5 -43t-42.5 -106v-203q0 -61 44 -106t107 -45q35 0 59.5 14t41 30.5t27.5 31t20 14.5q4 0 12 -4zM1198 942q0 115 -74.5 185.5t-201.5 70.5h-369q-127 0 -202 -69.5t-75 -186.5v-594q0 -117 75 -186.5t202 -69.5h369q127 0 201.5 70.5t74.5 185.5v594zM1290 348 q0 -78 -26.5 -142.5t-74.5 -110.5t-115.5 -70.5t-151.5 -24.5h-369q-84 0 -151.5 24.5t-115.5 70.5t-75 110.5t-27 142.5v594q0 78 27 142.5t75 110.5t115.5 70.5t151.5 24.5h369q84 0 151.5 -24.5t115.5 -70.5t74.5 -110.5t26.5 -142.5v-594z" />
<glyph unicode="&#xaa;" horiz-adv-x="679" d="M449 891l-5 4h-165q-23 0 -37.5 -14.5t-14.5 -36.5v-25q0 -23 14.5 -38t37.5 -15h57q80 0 110 94l3 27v4zM598 655q0 -25 -25 -24h-86q-25 0 -24 24v19l-8 4q-66 -49 -119 -49h-57q-88 0 -144.5 54t-56.5 136v10q0 82 54 134.5t147 52.5h165l5 4l-3 41q-4 51 -36.5 84 t-81.5 33q-66 0 -111 -76q-6 -12 -18 -12q-8 0 -15 4l-86 45q-14 6 -14 16q0 23 17.5 49.5t49 50t76.5 40t101 16.5q123 0 194.5 -68.5t73.5 -181.5l2 -189v-217z" />
<glyph unicode="&#xab;" horiz-adv-x="1134" d="M557 223q0 -23 -16 -22q-8 0 -17 6l-403 287l-8 16v121l8 16l403 289q8 6 17 6q16 0 16 -22v-117l-8 -17l-277 -198q-10 -8 -10 -17q0 -8 10 -16l277 -199l8 -16v-117zM999 223q0 -23 -16 -22q-8 0 -16 6l-406 287l-8 16v121l8 16l406 289q8 6 16 6q16 0 16 -22v-117 l-8 -17l-276 -198q-10 -8 -10 -17q0 -8 10 -16l276 -199l8 -16v-117z" />
<glyph unicode="&#xac;" horiz-adv-x="1705" d="M1452 358h-137v363h-1061v139h1198v-502z" />
<glyph unicode="&#xad;" horiz-adv-x="552" d="M461 389q0 -20 -21 -20h-327q-20 0 -21 20v143q0 20 21 21h327q20 0 21 -21v-143z" />
<glyph unicode="&#xae;" horiz-adv-x="901" d="M537 999q0 29 -17.5 47.5t-46.5 18.5h-65q-20 0 -21 -21v-96q0 -20 21 -20h65q29 0 46.5 18.5t17.5 46.5v6zM602 985q0 -23 -9 -39t-21.5 -28.5t-21.5 -23.5t-9 -20q0 -4 2 -6l51 -102q4 -8 4 -12q0 -16 -23 -17h-32q-14 2 -19 13l-47 108q-4 6 -18 12h-51q-20 0 -21 -20 v-92q0 -20 -20 -21h-23q-20 0 -20 21v344q0 20 20 20h129q59 0 94 -34.5t35 -94.5v-8zM762 942q0 129 -83 208t-224 79h-9q-141 0 -224 -79t-83 -208v-41q0 -129 83 -208t224 -79h9q141 0 224 79t83 208v41zM823 901q0 -78 -26.5 -142.5t-74.5 -110.5t-115.5 -70.5 t-151.5 -24.5h-9q-84 0 -151.5 24.5t-115.5 70.5t-74.5 110.5t-26.5 142.5v41q0 78 26.5 142.5t74.5 110.5t115.5 70.5t151.5 24.5h9q84 0 151.5 -24.5t115.5 -70.5t74.5 -110.5t26.5 -142.5v-41z" />
<glyph unicode="&#xaf;" horiz-adv-x="1024" d="M748 1126q0 -20 -21 -20h-430q-20 0 -21 20v123q0 20 21 21h430q20 0 21 -21v-123z" />
<glyph unicode="&#x2c9;" horiz-adv-x="1024" d="M748 1126q0 -20 -21 -20h-430q-20 0 -21 20v123q0 20 21 21h430q20 0 21 -21v-123z" />
<glyph unicode="&#xb0;" horiz-adv-x="450" d="M303 1135q0 31 -22.5 54t-55.5 23t-55.5 -22.5t-22.5 -54.5v-58q0 -33 23 -55.5t55 -22.5q33 0 55.5 24t22.5 54v58zM410 1077q0 -78 -49.5 -127t-135.5 -49t-135 49t-49 127v58q0 80 49 128t135 48t135.5 -49.5t49.5 -126.5v-58z" />
<glyph unicode="&#xb1;" horiz-adv-x="1705" d="M1452 29h-1198v141h1198v-141zM924 852h528v-139h-528v-340h-142v340h-528v139h528v340h142v-340z" />
<glyph unicode="&#xb2;" horiz-adv-x="690" d="M356 1303q111 0 176.5 -57.5t65.5 -151.5q0 -113 -96 -187q-35 -27 -76 -48l-86 -46q-59 -35 -88 -70.5t-29 -83.5v-32q0 -12 15 -13h337q12 0 13 -12v-74q0 -12 -13 -12h-460q-12 0 -13 12v131q0 92 49.5 150.5t151.5 118.5q76 43 125 75.5t49 90.5q0 47 -35.5 78.5 t-85.5 31.5h-51q-47 0 -68.5 -20.5t-43.5 -48.5q-6 -6 -13 -7h-8l-84 41q-8 2 -8 9q0 16 18.5 38.5t59.5 51.5q23 16 60.5 25.5t86.5 9.5h51z" />
<glyph unicode="&#xb3;" horiz-adv-x="690" d="M588 723q0 -102 -64.5 -160.5t-179.5 -58.5h-39q-49 0 -87 9t-60 26q-41 29 -59.5 52t-18.5 40q0 6 8 8l84 39q2 0 3 1t3 1h2q6 0 13 -8q23 -29 44 -49.5t68 -20.5h39q51 0 87 32t36 79v43q0 47 -36 78.5t-87 31.5h-106q-14 0 -15 13v73q0 12 15 13h106q51 0 87 31.5 t36 78.5v19q0 47 -36 78.5t-87 31.5h-39q-47 0 -68.5 -20.5t-43.5 -48.5q-6 -6 -13 -7h-8l-84 41q-8 2 -8 9q0 16 18.5 38.5t59.5 51.5q23 16 60.5 25.5t86.5 9.5h39q113 0 178.5 -59.5t65.5 -162.5v-18q0 -47 -41 -100q-18 -20 -34.5 -30.5t-16.5 -19.5q0 -6 16 -17t35 -34 q41 -55 41 -102v-37z" />
<glyph unicode="&#xb4;" horiz-adv-x="1024" d="M532 1038l-14 -6h-88q-20 0 -20 17q0 8 4 14l168 256l16 10h180q23 0 23 -18q0 -8 -8 -17z" />
<glyph unicode="&#xb5;" horiz-adv-x="1150" d="M256 471q-14 -63 -14 -133q0 -100 52 -153.5t148 -53.5q137 0 212 98.5t120 305.5l115 536h178l-156 -731q-10 -45 -16 -78t-6 -55q0 -37 16.5 -52.5t55.5 -15.5h15q7 0 17 2l-30 -143q-29 -6 -55.5 -8t-53.5 -2q-66 0 -98.5 29.5t-50.5 99.5q-88 -131 -271 -131 q-82 0 -142.5 27.5t-113.5 88.5l-110 -530h-181l318 1499h180z" />
<glyph unicode="&#x3bc;" horiz-adv-x="1150" d="M256 471q-14 -63 -14 -133q0 -100 52 -153.5t148 -53.5q137 0 212 98.5t120 305.5l115 536h178l-156 -731q-10 -45 -16 -78t-6 -55q0 -37 16.5 -52.5t55.5 -15.5h15q7 0 17 2l-30 -143q-29 -6 -55.5 -8t-53.5 -2q-66 0 -98.5 29.5t-50.5 99.5q-88 -131 -271 -131 q-82 0 -142.5 27.5t-113.5 88.5l-110 -530h-181l318 1499h180z" />
<glyph unicode="&#xb6;" horiz-adv-x="1259" d="M1106 -440q0 -20 -21 -21h-143q-20 0 -20 21v1546q0 20 -21 20h-143q-20 0 -21 -20v-1546q0 -20 -20 -21h-144q-20 0 -20 21v604q0 20 -21 20h-40q-84 0 -152 26t-116 72t-74.5 109.5t-26.5 140.5v390q0 170 99.5 269t269.5 99h593q20 0 21 -20v-1710z" />
<glyph unicode="&#xb7;" horiz-adv-x="450" d="M338 647q0 -47 -33 -79.5t-80 -32.5t-79.5 31.5t-32.5 80.5q0 47 32.5 80t79.5 33t80 -33t33 -80z" />
<glyph unicode="&#x2219;" horiz-adv-x="450" d="M338 647q0 -47 -33 -79.5t-80 -32.5t-79.5 31.5t-32.5 80.5q0 47 32.5 80t79.5 33t80 -33t33 -80z" />
<glyph unicode="&#xb8;" horiz-adv-x="1024" d="M639 -279q0 -82 -57.5 -136t-149.5 -54h-98q-20 0 -21 20v82q0 20 21 21h98q29 0 48.5 19.5t19.5 47.5v17q0 29 -19.5 49t-48.5 20h-39q-23 0 -22 17q0 4 4 12l80 178h143l-49 -104q-2 -4 -2 -10t8 -15q31 -31 57.5 -60.5t26.5 -86.5v-17z" />
<glyph unicode="&#xb9;" horiz-adv-x="690" d="M592 528q0 -12 -14 -12h-418q-14 0 -15 12v74q0 12 15 12h135q12 0 12 13v444q0 12 -10 12q-8 0 -12 -4l-64 -61q-8 -4 -10 -4t-10 4l-60 53q-4 4 -4 8q0 6 4 11l219 196l9 4h47q14 0 14 -12v-651q0 -12 12 -13h136q14 0 14 -12v-74z" />
<glyph unicode="&#xba;" horiz-adv-x="659" d="M449 1057q0 47 -35 83t-84 36t-84 -36t-35 -83v-187q0 -47 35 -82.5t84 -35.5t84 35.5t35 82.5v187zM598 870q0 -115 -72.5 -184.5t-195.5 -69.5t-196 70t-73 184v187q0 115 73 184.5t196 69.5t195.5 -70t72.5 -184v-187z" />
<glyph unicode="&#xbb;" horiz-adv-x="1134" d="M573 494l-405 -287q-10 -6 -18 -6q-14 0 -15 22v117l8 16l277 199q10 6 10 16t-10 17l-277 198l-8 17v117q0 23 17 22q6 0 16 -6l405 -289l9 -16v-121zM1014 494l-404 -287q-10 -6 -16 -6q-16 0 -16 22v117l8 16l276 199q10 6 10 16t-10 17l-276 198l-8 17v117 q0 23 16 22q6 0 16 -6l404 -289l8 -16v-121z" />
<glyph unicode="&#xbc;" horiz-adv-x="1953" d="M1681 530q0 12 -12 13q-8 0 -10 -6l-195 -261q-4 -4 -4 -10q0 -8 15 -8h194q12 0 12 12v260zM1913 178q0 -12 -12 -12h-91q-12 0 -12 -10v-144q0 -12 -14 -12h-90q-12 0 -13 12v144q0 10 -12 10h-323q-10 0 -11 10v82l342 461l11 4h96q14 0 14 -12v-441q0 -12 12 -12h91 q12 0 12 -12v-68zM784 25q-10 -25 -36 -25h-46q-39 0 -38 35q0 8 4 20l499 1211q8 25 37 24h45q39 0 39 -35q0 -8 -4 -20zM565 580q0 -12 -12 -13h-401q-12 0 -13 13v67q0 12 13 12h129q14 0 14 11v415q0 12 -12 13q-4 0 -11 -6l-61 -56q-4 -4 -10 -4q-4 0 -8 4l-58 49 q-4 4 -4 9q0 4 4 8l209 184l8 4h45q12 0 13 -12v-608q0 -10 14 -11h129q12 0 12 -12v-67z" />
<glyph unicode="&#xbd;" horiz-adv-x="1953" d="M1634 733q104 0 168 -53t64 -141q0 -49 -23.5 -94.5t-68.5 -77.5q-35 -27 -74 -48l-80 -43q-57 -33 -85 -65.5t-28 -77.5v-31q0 -10 13 -10h323q12 0 12 -12v-68q0 -12 -12 -12h-438q-14 0 -14 12v121q0 84 48 140.5t144 111.5q74 41 120 70.5t46 83.5q0 45 -34 74.5 t-81 29.5h-49q-45 0 -65.5 -19.5t-42.5 -45.5q-4 -6 -11 -7h-6l-82 37q-8 2 -8 8q0 35 76 84q45 33 139 33h49zM784 25q-10 -25 -36 -25h-46q-39 0 -38 35q0 8 4 20l499 1211q8 25 37 24h45q39 0 39 -35q0 -8 -4 -20zM565 580q0 -12 -12 -13h-401q-12 0 -13 13v67 q0 12 13 12h129q14 0 14 11v415q0 12 -12 13q-4 0 -11 -6l-61 -56q-4 -4 -10 -4q-4 0 -8 4l-58 49q-4 4 -4 9q0 4 4 8l209 184l8 4h45q12 0 13 -12v-608q0 -10 14 -11h129q12 0 12 -12v-67z" />
<glyph unicode="&#xbe;" horiz-adv-x="1953" d="M1681 530q0 12 -12 13q-8 0 -10 -6l-195 -261q-4 -4 -4 -10q0 -8 15 -8h194q12 0 12 12v260zM1913 178q0 -12 -12 -12h-91q-12 0 -12 -10v-144q0 -12 -14 -12h-90q-12 0 -13 12v144q0 10 -12 10h-323q-10 0 -11 10v82l342 461l11 4h96q14 0 14 -12v-441q0 -12 12 -12h91 q12 0 12 -12v-68zM784 25q-10 -25 -36 -25h-46q-39 0 -38 35q0 8 4 20l499 1211q8 25 37 24h45q39 0 39 -35q0 -8 -4 -20zM561 760q0 -94 -61.5 -149.5t-169.5 -55.5h-39q-47 0 -83 9t-58 26q-37 25 -55.5 47t-18.5 37q0 6 8 8l82 37h4q2 0 2 2q6 0 10 -8q23 -27 43.5 -46.5 t65.5 -19.5h39q47 0 80.5 31t33.5 74v39q0 43 -33.5 73.5t-80.5 30.5h-105q-12 0 -12 10v70q0 10 12 10h105q47 0 80.5 31t33.5 74v16q0 43 -33.5 73.5t-80.5 30.5h-39q-45 0 -65.5 -19.5t-43.5 -45.5q-4 -6 -10 -6h-6l-82 37q-8 2 -8 8q0 35 76 84q45 33 139 32h39 q106 0 168.5 -55t62.5 -149v-19q0 -45 -39 -92q-16 -20 -32.5 -30.5t-16.5 -16.5q0 -4 16.5 -15.5t32.5 -33.5q39 -51 39 -94v-35z" />
<glyph unicode="&#xbf;" d="M905 -166q12 -6 13 -16q0 -29 -25 -65t-70 -67.5t-107.5 -53t-137.5 -21.5h-78q-84 0 -151.5 24.5t-116 70.5t-75 110.5t-26.5 142.5q0 104 38 176t124 119q47 27 89 45t74.5 39.5t51 51.5t18.5 77q0 25 -3 40t-3 23q0 23 21 23h141q18 0 23.5 -25.5t5.5 -89.5 q0 -88 -41 -147.5t-129 -104.5l-94 -48q-42 -22 -70.5 -46t-45 -56t-16.5 -77q0 -39 14.5 -72.5t40 -58.5t59.5 -39t71 -14h78q37 0 70.5 14t53.5 39q29 33 40.5 54.5t21.5 21.5q2 0 10 -4zM696 829q0 -47 -32.5 -79.5t-79.5 -32.5t-80 32.5t-33 79.5q0 49 33 81t80 32 t79.5 -33t32.5 -80z" />
<glyph unicode="&#xc0;" horiz-adv-x="921" d="M557 1432q4 -6 4 -17q0 -14 -20 -14h-88l-15 6l-260 256q-8 8 -8 18q0 16 23 17h180l16 -10zM489 872l-10 39l-14 52h-8l-25 -93l-100 -383q0 -4 -1 -5t-1 -3q0 -18 22 -18h215q23 0 23 18q0 2 -1 4t-1 4zM918 27q0 -4 1 -5.5t1 -3.5q0 -18 -23 -18h-154q-18 0 -20 14 l-76 271q-2 12 -20 12h-332q-18 0 -21 -12l-75 -271q-2 -14 -21 -14h-153q-23 0 -23 18q0 2 1 3.5t1 5.5l381 1249q2 14 21 14h110q14 0 21 -14z" />
<glyph unicode="&#xc1;" horiz-adv-x="921" d="M489 872l-10 39l-14 52h-8l-25 -93l-100 -383q0 -4 -1 -5t-1 -3q0 -18 22 -18h215q23 0 23 18q0 2 -1 4t-1 4zM918 27q0 -4 1 -5.5t1 -3.5q0 -18 -23 -18h-154q-18 0 -20 14l-76 271q-2 12 -20 12h-332q-18 0 -21 -12l-75 -271q-2 -14 -21 -14h-153q-23 0 -23 18 q0 2 1 3.5t1 5.5l381 1249q2 14 21 14h110q14 0 21 -14zM485 1407l-14 -6h-88q-20 0 -20 17q0 8 4 14l168 256l16 10h180q23 0 23 -18q0 -8 -8 -17z" />
<glyph unicode="&#xc2;" horiz-adv-x="921" d="M700 1436q6 -10 7 -17q0 -16 -23 -16h-98l-17 10l-90 139q-6 12 -14 13q-8 0 -16 -13l-89 -139l-16 -10h-98q-25 0 -25 16q0 4 8 17l183 256l16 8h74l16 -8zM489 872l-10 39l-14 52h-8l-25 -93l-100 -383q0 -4 -1 -5t-1 -3q0 -18 22 -18h215q23 0 23 18q0 2 -1 4t-1 4z M918 27q0 -4 1 -5.5t1 -3.5q0 -18 -23 -18h-154q-18 0 -20 14l-76 271q-2 12 -20 12h-332q-18 0 -21 -12l-75 -271q-2 -14 -21 -14h-153q-23 0 -23 18q0 2 1 3.5t1 5.5l381 1249q2 14 21 14h110q14 0 21 -14z" />
<glyph unicode="&#xc3;" horiz-adv-x="921" d="M489 872l-10 39l-14 52h-8l-25 -93l-100 -383q0 -4 -1 -5t-1 -3q0 -18 22 -18h215q23 0 23 18q0 2 -1 4t-1 4zM918 27q0 -4 1 -5.5t1 -3.5q0 -18 -23 -18h-154q-18 0 -20 14l-76 271q-2 12 -20 12h-332q-18 0 -21 -12l-75 -271q-2 -14 -21 -14h-153q-23 0 -23 18 q0 2 1 3.5t1 5.5l381 1249q2 14 21 14h110q14 0 21 -14zM766 1569q-78 -139 -176 -139q-63 0 -129 53l-41 27q-41 27 -74 26q-25 0 -43 -10t-31.5 -22.5t-22.5 -22.5t-15 -10q-8 0 -13 4l-45 33q-10 6 -10 14q0 12 15.5 36.5t40 49.5t57 43t67.5 18q68 0 129 -49l39 -30 q31 -25 72 -25q29 0 48 10.5t33.5 23.5t24 23.5t15.5 10.5q8 0 12 -4l41 -33q8 -8 8 -17q0 -6 -2 -10z" />
<glyph unicode="&#xc4;" horiz-adv-x="921" d="M489 872l-10 39l-14 52h-8l-25 -93l-100 -383q0 -4 -1 -5t-1 -3q0 -18 22 -18h215q23 0 23 18q0 2 -1 4t-1 4zM918 27q0 -4 1 -5.5t1 -3.5q0 -18 -23 -18h-154q-18 0 -20 14l-76 271q-2 12 -20 12h-332q-18 0 -21 -12l-75 -271q-2 -14 -21 -14h-153q-23 0 -23 18 q0 2 1 3.5t1 5.5l381 1249q2 14 21 14h110q14 0 21 -14zM410 1540q0 -41 -30 -71.5t-73 -30.5t-72.5 29.5t-29.5 72.5t29.5 73t72.5 30t73 -31t30 -72zM729 1540q0 -41 -29.5 -71.5t-72.5 -30.5t-73 29.5t-30 72.5t30 73t73 30t72.5 -31t29.5 -72z" />
<glyph unicode="&#xc5;" horiz-adv-x="921" d="M543 1616q0 31 -22.5 54.5t-55.5 23.5t-55.5 -23.5t-22.5 -54.5v-57q0 -31 22.5 -54.5t55.5 -23.5t55.5 23.5t22.5 54.5v57zM649 1559q0 -80 -49 -128.5t-135 -48.5t-135 48.5t-49 128.5v57q0 80 49 128t135 48t135 -48t49 -128v-57zM489 872l-10 39l-14 52h-8l-25 -93 l-100 -383q0 -4 -1 -5t-1 -3q0 -18 22 -18h215q23 0 23 18q0 2 -1 4t-1 4zM918 27q0 -4 1 -5.5t1 -3.5q0 -18 -23 -18h-154q-18 0 -20 14l-76 271q-2 12 -20 12h-332q-18 0 -21 -12l-75 -271q-2 -14 -21 -14h-153q-23 0 -23 18q0 2 1 3.5t1 5.5l381 1249q2 14 21 14h110 q14 0 21 -14z" />
<glyph unicode="&#xc6;" horiz-adv-x="1429" d="M598 948q-18 -43 -37 -74l-217 -382q-4 -6 -4 -15q0 -16 22 -16h218q20 0 20 20v158q0 76 1 152.5t5 154.5zM1337 20q0 -20 -20 -20h-696q-20 0 -21 20v256q0 20 -20 21h-334l-21 -8l-155 -279l-19 -10h-149q-23 0 -23 16q0 8 4 15l738 1249l18 10h678q20 0 20 -20v-123 q0 -20 -20 -21h-512q-20 0 -21 -20v-348q0 -20 21 -21h420q20 0 20 -20v-123q0 -20 -20 -21h-420q-20 0 -21 -20v-369q0 -20 21 -20h512q20 0 20 -21v-123z" />
<glyph unicode="&#xc7;" horiz-adv-x="952" d="M676 -279q0 -82 -57.5 -136t-149.5 -54h-98q-20 0 -21 20v82q0 20 21 21h98q29 0 48.5 19.5t19.5 47.5v17q0 29 -19.5 49t-48.5 20h-39q-23 0 -22 17q0 4 4 12l65 144q-170 10 -262 102t-92 246v635q0 78 26.5 142t74.5 110.5t116 71t152 24.5h61q76 0 138.5 -21.5 t107.5 -52.5t69.5 -66.5t24.5 -66.5q0 -10 -12 -17l-131 -65q-4 -2 -11 -2q-8 0 -16 12q-35 47 -70 81t-100 34h-61q-78 0 -131.5 -53.5t-53.5 -130.5v-635q0 -78 53.5 -131.5t131.5 -53.5h61q37 0 66.5 13.5t44.5 29.5q35 41 51 64.5t26 23.5q4 0 13 -4l129 -65 q12 -6 12 -15q0 -25 -17.5 -54.5t-52 -58t-86 -54t-118.5 -39.5l-35 -74q-2 -4 -2 -10t8 -15l57 -59q27 -29 27 -88v-17z" />
<glyph unicode="&#xc8;" horiz-adv-x="983" d="M616 1432q4 -6 5 -17q0 -14 -21 -14h-88l-14 6l-260 256q-8 8 -9 18q0 16 23 17h180l17 -10zM891 20q0 -20 -21 -20h-696q-20 0 -20 20v1250q0 20 20 20h696q20 0 21 -20v-123q0 -20 -21 -21h-512q-20 0 -20 -20v-348q0 -20 20 -21h420q20 0 21 -20v-123q0 -20 -21 -21 h-420q-20 0 -20 -20v-369q0 -20 20 -20h512q20 0 21 -21v-123z" />
<glyph unicode="&#xc9;" horiz-adv-x="983" d="M891 20q0 -20 -21 -20h-696q-20 0 -20 20v1250q0 20 20 20h696q20 0 21 -20v-123q0 -20 -21 -21h-512q-20 0 -20 -20v-348q0 -20 20 -21h420q20 0 21 -20v-123q0 -20 -21 -21h-420q-20 0 -20 -20v-369q0 -20 20 -20h512q20 0 21 -21v-123zM542 1407l-14 -6h-88 q-20 0 -20 17q0 8 4 14l168 256l16 10h180q23 0 23 -18q0 -8 -8 -17z" />
<glyph unicode="&#xca;" horiz-adv-x="983" d="M760 1436q6 -10 6 -17q0 -16 -23 -16h-98l-16 10l-90 139q-6 12 -15 13q-8 0 -16 -13l-88 -139l-17 -10h-98q-25 0 -24 16q0 4 8 17l182 256l16 8h74l17 -8zM891 20q0 -20 -21 -20h-696q-20 0 -20 20v1250q0 20 20 20h696q20 0 21 -20v-123q0 -20 -21 -21h-512 q-20 0 -20 -20v-348q0 -20 20 -21h420q20 0 21 -20v-123q0 -20 -21 -21h-420q-20 0 -20 -20v-369q0 -20 20 -20h512q20 0 21 -21v-123z" />
<glyph unicode="&#xcb;" horiz-adv-x="983" d="M891 20q0 -20 -21 -20h-696q-20 0 -20 20v1250q0 20 20 20h696q20 0 21 -20v-123q0 -20 -21 -21h-512q-20 0 -20 -20v-348q0 -20 20 -21h420q20 0 21 -20v-123q0 -20 -21 -21h-420q-20 0 -20 -20v-369q0 -20 20 -20h512q20 0 21 -21v-123zM467 1540q0 -41 -30 -71.5 t-73 -30.5t-72.5 29.5t-29.5 72.5t29.5 73t72.5 30t73 -31t30 -72zM786 1540q0 -41 -29.5 -71.5t-72.5 -30.5t-73 29.5t-30 72.5t30 73t73 30t72.5 -31t29.5 -72z" />
<glyph unicode="&#xcc;" horiz-adv-x="491" d="M342 1432q4 -6 4 -17q0 -14 -20 -14h-88l-15 6l-260 256q-8 8 -8 18q0 16 22 17h181l16 -10zM338 20q0 -20 -21 -20h-143q-20 0 -20 20v1250q0 20 20 20h143q20 0 21 -20v-1250z" />
<glyph unicode="&#xcd;" horiz-adv-x="491" d="M338 20q0 -20 -21 -20h-143q-20 0 -20 20v1250q0 20 20 20h143q20 0 21 -20v-1250zM270 1407l-14 -6h-88q-20 0 -20 17q0 8 4 14l168 256l16 10h180q23 0 23 -18q0 -8 -8 -17z" />
<glyph unicode="&#xce;" horiz-adv-x="491" d="M485 1436q6 -10 7 -17q0 -16 -23 -16h-98l-17 10l-90 139q-6 12 -14 13q-8 0 -17 -13l-88 -139l-16 -10h-98q-25 0 -25 16q0 4 8 17l183 256l16 8h74l16 -8zM338 20q0 -20 -21 -20h-143q-20 0 -20 20v1250q0 20 20 20h143q20 0 21 -20v-1250z" />
<glyph unicode="&#xcf;" horiz-adv-x="491" d="M338 20q0 -20 -21 -20h-143q-20 0 -20 20v1250q0 20 20 20h143q20 0 21 -20v-1250zM195 1540q0 -41 -30 -71.5t-73 -30.5t-72.5 29.5t-29.5 72.5t29.5 73t72.5 30t73 -31t30 -72zM514 1540q0 -41 -29.5 -71.5t-72.5 -30.5t-73 29.5t-30 72.5t30 73t73 30t72.5 -31 t29.5 -72z" />
<glyph unicode="&#xd0;" horiz-adv-x="1075" d="M768 942q0 78 -53 131t-131 53h-226q-20 0 -20 -20v-348q0 -20 20 -21h174q20 0 21 -20v-144q0 -20 -21 -20h-174q-20 0 -20 -21v-348q0 -20 20 -20h226q78 0 131 54t53 130v594zM952 369q0 -172 -98 -270.5t-270 -98.5h-410q-20 0 -20 20v512q0 20 -21 21h-65 q-20 0 -21 20v144q0 20 21 20h65q20 0 21 21v512q0 20 20 20h410q170 0 269 -99t99 -269v-553z" />
<glyph unicode="&#xd1;" horiz-adv-x="1136" d="M983 20q0 -20 -20 -20h-132l-18 10l-487 920l12 -910q0 -20 -21 -20h-143q-20 0 -20 20v1250q0 20 20 20h131l19 -10l485 -918l-10 908q0 20 20 20h144q20 0 20 -20v-1250zM870 1569q-78 -139 -176 -139q-63 0 -129 53l-41 27q-41 27 -74 26q-25 0 -43 -10t-31.5 -22.5 t-22.5 -22.5t-15 -10q-8 0 -13 4l-45 33q-10 6 -10 14q0 12 15.5 36.5t40 49.5t57 43t67.5 18q68 0 129 -49l39 -30q31 -25 72 -25q29 0 48 10.5t33.5 23.5t24 23.5t15.5 10.5q8 0 12 -4l41 -33q8 -8 8 -17q0 -6 -2 -10z" />
<glyph unicode="&#xd2;" d="M618 1432q4 -6 5 -17q0 -14 -21 -14h-88l-14 6l-260 256q-8 8 -9 18q0 16 23 17h180l17 -10zM737 963q0 78 -53 131t-131 53h-61q-78 0 -131.5 -53.5t-53.5 -130.5v-635q0 -78 53.5 -131.5t131.5 -53.5h61q78 0 131 53.5t53 131.5v635zM922 328q0 -78 -27 -142.5 t-75 -110.5t-115.5 -70.5t-151.5 -24.5h-61q-84 0 -152 24.5t-116 70.5t-74.5 110.5t-26.5 142.5v635q0 78 26.5 142t74.5 110.5t116 71t152 24.5h61q84 0 151.5 -24.5t115.5 -71t75 -111t27 -141.5v-635z" />
<glyph unicode="&#xd3;" d="M737 963q0 78 -53 131t-131 53h-61q-78 0 -131.5 -53.5t-53.5 -130.5v-635q0 -78 53.5 -131.5t131.5 -53.5h61q78 0 131 53.5t53 131.5v635zM922 328q0 -78 -27 -142.5t-75 -110.5t-115.5 -70.5t-151.5 -24.5h-61q-84 0 -152 24.5t-116 70.5t-74.5 110.5t-26.5 142.5v635 q0 78 26.5 142t74.5 110.5t116 71t152 24.5h61q84 0 151.5 -24.5t115.5 -71t75 -111t27 -141.5v-635zM544 1407l-14 -6h-88q-20 0 -20 17q0 8 4 14l168 256l16 10h180q23 0 23 -18q0 -8 -8 -17z" />
<glyph unicode="&#xd4;" d="M762 1436q6 -10 6 -17q0 -16 -23 -16h-98l-16 10l-90 139q-6 12 -15 13q-8 0 -16 -13l-88 -139l-16 -10h-99q-25 0 -24 16q0 4 8 17l182 256l16 8h74l17 -8zM737 963q0 78 -53 131t-131 53h-61q-78 0 -131.5 -53.5t-53.5 -130.5v-635q0 -78 53.5 -131.5t131.5 -53.5h61 q78 0 131 53.5t53 131.5v635zM922 328q0 -78 -27 -142.5t-75 -110.5t-115.5 -70.5t-151.5 -24.5h-61q-84 0 -152 24.5t-116 70.5t-74.5 110.5t-26.5 142.5v635q0 78 26.5 142t74.5 110.5t116 71t152 24.5h61q84 0 151.5 -24.5t115.5 -71t75 -111t27 -141.5v-635z" />
<glyph unicode="&#xd5;" d="M737 963q0 78 -53 131t-131 53h-61q-78 0 -131.5 -53.5t-53.5 -130.5v-635q0 -78 53.5 -131.5t131.5 -53.5h61q78 0 131 53.5t53 131.5v635zM922 328q0 -78 -27 -142.5t-75 -110.5t-115.5 -70.5t-151.5 -24.5h-61q-84 0 -152 24.5t-116 70.5t-74.5 110.5t-26.5 142.5v635 q0 78 26.5 142t74.5 110.5t116 71t152 24.5h61q84 0 151.5 -24.5t115.5 -71t75 -111t27 -141.5v-635zM825 1569q-78 -139 -176 -139q-63 0 -129 53l-41 27q-41 27 -74 26q-25 0 -43 -10t-31.5 -22.5t-22.5 -22.5t-15 -10q-8 0 -13 4l-45 33q-10 6 -10 14q0 12 15.5 36.5 t40 49.5t57 43t67.5 18q68 0 129 -49l39 -30q31 -25 72 -25q29 0 48 10.5t33.5 23.5t24 23.5t15.5 10.5q8 0 12 -4l41 -33q8 -8 8 -17q0 -6 -2 -10z" />
<glyph unicode="&#xd6;" d="M737 963q0 78 -53 131t-131 53h-61q-78 0 -131.5 -53.5t-53.5 -130.5v-635q0 -78 53.5 -131.5t131.5 -53.5h61q78 0 131 53.5t53 131.5v635zM922 328q0 -78 -27 -142.5t-75 -110.5t-115.5 -70.5t-151.5 -24.5h-61q-84 0 -152 24.5t-116 70.5t-74.5 110.5t-26.5 142.5v635 q0 78 26.5 142t74.5 110.5t116 71t152 24.5h61q84 0 151.5 -24.5t115.5 -71t75 -111t27 -141.5v-635zM469 1540q0 -41 -30 -71.5t-73 -30.5t-72.5 29.5t-29.5 72.5t29.5 73t72.5 30t73 -31t30 -72zM788 1540q0 -41 -29.5 -71.5t-72.5 -30.5t-73 29.5t-30 72.5t30 73t73 30 t72.5 -31t29.5 -72z" />
<glyph unicode="&#xd7;" horiz-adv-x="1705" d="M1329 1178l98 -99l-469 -469l469 -469l-98 -96l-469 467l-469 -467l-98 96l469 469l-469 469l98 99l469 -469z" />
<glyph unicode="&#xd8;" d="M737 958q0 23 -8 48l-344 -807q-2 -4 -2 -11q0 -16 30.5 -30.5t78.5 -14.5h61q78 0 131 53.5t53 131.5v630zM668 1085q2 2 2 9q0 14 -33 33.5t-84 19.5h-61q-78 0 -131.5 -53.5t-53.5 -130.5v-639q0 -18 12 -19q10 0 17 12zM922 328q0 -78 -27 -142.5t-75 -110.5 t-115.5 -70.5t-151.5 -24.5h-61q-84 0 -152 24.5t-116 70.5t-74.5 110.5t-26.5 142.5v635q0 78 26.5 142t74.5 110.5t116 71t152 24.5h61q84 0 151.5 -24.5t115.5 -71t75 -111t27 -141.5v-635z" />
<glyph unicode="&#xd9;" d="M618 1432q4 -6 5 -17q0 -14 -21 -14h-88l-14 6l-260 256q-8 8 -9 18q0 16 23 17h180l17 -10zM922 328q0 -78 -27 -142.5t-75 -110.5t-115.5 -70.5t-151.5 -24.5h-61q-84 0 -152 24.5t-116 70.5t-74.5 110.5t-26.5 142.5v942q0 20 20 20h144q20 0 20 -20v-942 q0 -78 53.5 -131.5t131.5 -53.5h61q78 0 131 53.5t53 131.5v942q0 20 21 20h143q20 0 21 -20v-942z" />
<glyph unicode="&#xda;" d="M922 328q0 -78 -27 -142.5t-75 -110.5t-115.5 -70.5t-151.5 -24.5h-61q-84 0 -152 24.5t-116 70.5t-74.5 110.5t-26.5 142.5v942q0 20 20 20h144q20 0 20 -20v-942q0 -78 53.5 -131.5t131.5 -53.5h61q78 0 131 53.5t53 131.5v942q0 20 21 20h143q20 0 21 -20v-942z M544 1407l-14 -6h-88q-20 0 -20 17q0 8 4 14l168 256l16 10h180q23 0 23 -18q0 -8 -8 -17z" />
<glyph unicode="&#xdb;" d="M762 1436q6 -10 6 -17q0 -16 -23 -16h-98l-16 10l-90 139q-6 12 -15 13q-8 0 -16 -13l-88 -139l-16 -10h-99q-25 0 -24 16q0 4 8 17l182 256l16 8h74l17 -8zM922 328q0 -78 -27 -142.5t-75 -110.5t-115.5 -70.5t-151.5 -24.5h-61q-84 0 -152 24.5t-116 70.5t-74.5 110.5 t-26.5 142.5v942q0 20 20 20h144q20 0 20 -20v-942q0 -78 53.5 -131.5t131.5 -53.5h61q78 0 131 53.5t53 131.5v942q0 20 21 20h143q20 0 21 -20v-942z" />
<glyph unicode="&#xdc;" d="M922 328q0 -78 -27 -142.5t-75 -110.5t-115.5 -70.5t-151.5 -24.5h-61q-84 0 -152 24.5t-116 70.5t-74.5 110.5t-26.5 142.5v942q0 20 20 20h144q20 0 20 -20v-942q0 -78 53.5 -131.5t131.5 -53.5h61q78 0 131 53.5t53 131.5v942q0 20 21 20h143q20 0 21 -20v-942z M469 1540q0 -41 -30 -71.5t-73 -30.5t-72.5 29.5t-29.5 72.5t29.5 73t72.5 30t73 -31t30 -72zM788 1540q0 -41 -29.5 -71.5t-72.5 -30.5t-73 29.5t-30 72.5t30 73t73 30t72.5 -31t29.5 -72z" />
<glyph unicode="&#xdd;" horiz-adv-x="921" d="M553 592v-572q0 -20 -21 -20h-143q-20 0 -20 20v572l-357 668q-4 12 -4 14q0 16 23 16h168l18 -12l225 -467q6 -14 19 -14q12 0 18 14l226 467l18 12h168q23 0 22 -16q0 -2 -4 -14zM485 1407l-14 -6h-88q-20 0 -20 17q0 8 4 14l168 256l16 10h180q23 0 23 -18 q0 -8 -8 -17z" />
<glyph unicode="&#xde;" horiz-adv-x="993" d="M768 758q0 78 -53 131t-131 53h-226q-20 0 -20 -20v-349q0 -20 20 -20h226q78 0 131 53t53 131v21zM584 1106q170 0 269 -99.5t99 -269.5q0 -78 -26.5 -141.5t-74.5 -109.5t-116.5 -71.5t-150.5 -25.5h-226q-20 0 -20 -20v-349q0 -20 -21 -20h-143q-20 0 -20 20v1250 q0 20 20 20h143q20 0 21 -20v-144q0 -20 20 -20h226z" />
<glyph unicode="&#xdf;" horiz-adv-x="987" d="M901 344q0 -84 -26.5 -150.5t-72.5 -113.5t-106.5 -72.5t-126.5 -25.5q-20 0 -28.5 3t-8.5 17v123q0 10 4.5 13t12.5 7l68 31q32 14 53.5 33.5t34 47.5t12.5 71v61q0 43 -12.5 70.5t-34 47t-53.5 34.5l-68 30q-8 4 -12.5 7.5t-4.5 13.5v127q0 10 4.5 13t12.5 7l68 31 q32 14 53.5 33.5t34 47.5t12.5 71v41q0 37 -14.5 70.5t-39 59t-58.5 40t-73 14.5q-82 0 -133 -53.5t-51 -130.5v-943q0 -20 -20 -20h-144q-20 0 -20 20v625q0 20 -21 21h-51q-20 0 -20 20v123q0 20 20 20h51q20 0 21 21v92q0 78 28.5 145.5t79 116.5t120 78t153.5 29 q80 0 145.5 -27t112.5 -75t72.5 -115.5t25.5 -151.5v-41q0 -78 -63 -166q-27 -37 -51.5 -54t-24.5 -28q0 -10 24.5 -28.5t51.5 -59.5q63 -94 63 -170v-51z" />
<glyph unicode="&#xe0;" horiz-adv-x="972" d="M580 1063q4 -6 4 -16q0 -14 -21 -15h-88l-14 6l-260 256q-8 8 -8 19q0 16 22 16h180l17 -10zM655 358q0 20 -20 21h-236q-39 0 -64.5 -25.5t-25.5 -64.5v-33q0 -41 25.5 -66.5t64.5 -25.5h80q121 0 174 147l2 39v8zM840 20q0 -20 -21 -20h-123q-20 0 -20 20v27 q0 23 -14 23q-12 0 -29 -11.5t-39.5 -23.5t-51 -23.5t-63.5 -11.5h-80q-61 0 -111 19.5t-86 53t-55.5 81t-19.5 102.5v12q0 55 19.5 101.5t55.5 80t86 53t111 19.5h236q20 0 20 21l-2 57q-4 78 -54 129t-130 51q-35 0 -63.5 -12t-47.5 -33q-35 -37 -50 -59.5t-25 -22.5 q-4 0 -13 4l-125 66q-12 6 -12 16q0 12 21.5 47t70.5 78q88 78 244 78q168 0 267.5 -94t101.5 -248l2 -270v-310z" />
<glyph unicode="&#xe1;" horiz-adv-x="972" d="M655 358q0 20 -20 21h-236q-39 0 -64.5 -25.5t-25.5 -64.5v-33q0 -41 25.5 -66.5t64.5 -25.5h80q121 0 174 147l2 39v8zM840 20q0 -20 -21 -20h-123q-20 0 -20 20v27q0 23 -14 23q-12 0 -29 -11.5t-39.5 -23.5t-51 -23.5t-63.5 -11.5h-80q-61 0 -111 19.5t-86 53 t-55.5 81t-19.5 102.5v12q0 55 19.5 101.5t55.5 80t86 53t111 19.5h236q20 0 20 21l-2 57q-4 78 -54 129t-130 51q-35 0 -63.5 -12t-47.5 -33q-35 -37 -50 -59.5t-25 -22.5q-4 0 -13 4l-125 66q-12 6 -12 16q0 12 21.5 47t70.5 78q88 78 244 78q168 0 267.5 -94t101.5 -248 l2 -270v-310zM507 1038l-14 -6h-88q-20 0 -20 17q0 8 4 14l168 256l16 10h180q23 0 23 -18q0 -8 -8 -17z" />
<glyph unicode="&#xe2;" horiz-adv-x="972" d="M723 1067q6 -10 6 -16q0 -16 -22 -17h-99l-16 10l-90 140q-6 12 -15 12q-8 0 -16 -12l-88 -140l-16 -10h-99q-25 0 -24 17q0 4 8 16l182 256l17 8h73l17 -8zM655 358q0 20 -20 21h-236q-39 0 -64.5 -25.5t-25.5 -64.5v-33q0 -41 25.5 -66.5t64.5 -25.5h80q121 0 174 147 l2 39v8zM840 20q0 -20 -21 -20h-123q-20 0 -20 20v27q0 23 -14 23q-12 0 -29 -11.5t-39.5 -23.5t-51 -23.5t-63.5 -11.5h-80q-61 0 -111 19.5t-86 53t-55.5 81t-19.5 102.5v12q0 55 19.5 101.5t55.5 80t86 53t111 19.5h236q20 0 20 21l-2 57q-4 78 -54 129t-130 51 q-35 0 -63.5 -12t-47.5 -33q-35 -37 -50 -59.5t-25 -22.5q-4 0 -13 4l-125 66q-12 6 -12 16q0 12 21.5 47t70.5 78q88 78 244 78q168 0 267.5 -94t101.5 -248l2 -270v-310z" />
<glyph unicode="&#xe3;" horiz-adv-x="972" d="M655 358q0 20 -20 21h-236q-39 0 -64.5 -25.5t-25.5 -64.5v-33q0 -41 25.5 -66.5t64.5 -25.5h80q121 0 174 147l2 39v8zM840 20q0 -20 -21 -20h-123q-20 0 -20 20v27q0 23 -14 23q-12 0 -29 -11.5t-39.5 -23.5t-51 -23.5t-63.5 -11.5h-80q-61 0 -111 19.5t-86 53 t-55.5 81t-19.5 102.5v12q0 55 19.5 101.5t55.5 80t86 53t111 19.5h236q20 0 20 21l-2 57q-4 78 -54 129t-130 51q-35 0 -63.5 -12t-47.5 -33q-35 -37 -50 -59.5t-25 -22.5q-4 0 -13 4l-125 66q-12 6 -12 16q0 12 21.5 47t70.5 78q88 78 244 78q168 0 267.5 -94t101.5 -248 l2 -270v-310zM788 1200q-78 -139 -176 -139q-63 0 -129 53l-41 27q-41 27 -74 26q-25 0 -43 -10t-31.5 -22.5t-22.5 -22.5t-15 -10q-8 0 -13 4l-45 33q-10 6 -10 14q0 12 15.5 36.5t40 49.5t57 43t67.5 18q68 0 129 -49l39 -30q31 -25 72 -25q29 0 48 10.5t33.5 23.5 t24 23.5t15.5 10.5q8 0 12 -4l41 -33q8 -8 8 -17q0 -6 -2 -10z" />
<glyph unicode="&#xe4;" horiz-adv-x="972" d="M655 358q0 20 -20 21h-236q-39 0 -64.5 -25.5t-25.5 -64.5v-33q0 -41 25.5 -66.5t64.5 -25.5h80q121 0 174 147l2 39v8zM840 20q0 -20 -21 -20h-123q-20 0 -20 20v27q0 23 -14 23q-12 0 -29 -11.5t-39.5 -23.5t-51 -23.5t-63.5 -11.5h-80q-61 0 -111 19.5t-86 53 t-55.5 81t-19.5 102.5v12q0 55 19.5 101.5t55.5 80t86 53t111 19.5h236q20 0 20 21l-2 57q-4 78 -54 129t-130 51q-35 0 -63.5 -12t-47.5 -33q-35 -37 -50 -59.5t-25 -22.5q-4 0 -13 4l-125 66q-12 6 -12 16q0 12 21.5 47t70.5 78q88 78 244 78q168 0 267.5 -94t101.5 -248 l2 -270v-310zM432 1171q0 -41 -30 -71.5t-73 -30.5t-72.5 29.5t-29.5 72.5t29.5 73t72.5 30t73 -31t30 -72zM751 1171q0 -41 -29.5 -71.5t-72.5 -30.5t-73 29.5t-30 72.5t30 73t73 30t72.5 -31t29.5 -72z" />
<glyph unicode="&#xe5;" horiz-adv-x="972" d="M584 1268q0 31 -22.5 54.5t-55.5 23.5t-55.5 -23t-22.5 -55v-58q0 -31 22.5 -54t55.5 -23t55.5 23.5t22.5 53.5v58zM690 1210q0 -78 -49 -127t-135 -49t-135 49.5t-49 126.5v58q0 78 49 127t135 49t135 -49t49 -127v-58zM655 358q0 20 -20 21h-236q-39 0 -64.5 -25.5 t-25.5 -64.5v-33q0 -41 25.5 -66.5t64.5 -25.5h80q121 0 174 147l2 39v8zM840 20q0 -20 -21 -20h-123q-20 0 -20 20v27q0 23 -14 23q-12 0 -29 -11.5t-39.5 -23.5t-51 -23.5t-63.5 -11.5h-80q-61 0 -111 19.5t-86 53t-55.5 81t-19.5 102.5v12q0 55 19.5 101.5t55.5 80t86 53 t111 19.5h236q20 0 20 21l-2 57q-4 78 -54 129t-130 51q-35 0 -63.5 -12t-47.5 -33q-35 -37 -50 -59.5t-25 -22.5q-4 0 -13 4l-125 66q-12 6 -12 16q0 12 21.5 47t70.5 78q88 78 244 78q168 0 267.5 -94t101.5 -248l2 -270v-310z" />
<glyph unicode="&#xe6;" horiz-adv-x="1495" d="M655 348q0 20 -20 21h-256q-37 0 -64.5 -28t-27.5 -65v-40q0 -39 26.5 -66t65.5 -27h102q100 0 170 144l4 41v20zM1188 573q14 0 17 7.5t3 23.5q0 33 -15 64.5t-40 54t-58.5 37t-70.5 14.5t-70.5 -14.5t-58.5 -37t-40 -54t-15 -64.5q0 -16 3 -23.5t17 -7.5h328zM1393 451 q0 -20 -21 -21h-512q-20 0 -20 -20v-82q0 -37 14 -71t39 -59.5t58.5 -40t72.5 -14.5q37 0 66.5 12.5t46.5 32.5q33 41 49 63.5t26 22.5q4 0 13 -4l129 -65q12 -6 12 -15q0 -25 -28.5 -64.5t-90.5 -86.5q-35 -27 -92 -43t-131 -16q-137 0 -219 59q-39 29 -58.5 48t-25.5 19 q-10 0 -22.5 -18t-41.5 -41q-33 -29 -84 -48t-92 -19h-102q-61 0 -112.5 19t-87.5 54t-56.5 81t-20.5 102v40q0 106 74 171t203 65h256q20 0 20 20v58q0 76 -53 130t-131 54q-80 0 -121 -51q-29 -35 -43 -55.5t-24 -20.5q-6 0 -11 2l-129 66q-12 6 -12 14q0 29 24.5 64.5 t69.5 68.5t107.5 54.5t138.5 21.5q125 0 207 -51q35 -23 52.5 -38t23.5 -15t24.5 16t52.5 39q41 27 89.5 38t103.5 11q76 0 143.5 -27.5t117.5 -75t79 -109.5t29 -132v-143z" />
<glyph unicode="&#xe7;" horiz-adv-x="876" d="M621 -279q0 -82 -57.5 -136t-149.5 -54h-99q-20 0 -20 20v82q0 20 20 21h99q29 0 48 19.5t19 47.5v17q0 29 -19.5 49t-47.5 20h-39q-23 0 -23 17q0 4 4 12l66 146q-154 20 -237 110t-83 236v266q0 78 27 142.5t75 110.5t115.5 70.5t151.5 24.5q94 0 174 -35 q82 -37 124 -88t42 -84q0 -10 -12 -16l-131 -66q-4 -2 -11 -2q-8 0 -16 13q-37 51 -71.5 82.5t-98.5 31.5q-39 0 -72.5 -14t-58.5 -40t-39 -59.5t-14 -70.5v-266q0 -37 14 -71t39 -59.5t58.5 -40t72.5 -14.5q37 0 66.5 12.5t46.5 32.5q35 41 50 63.5t25 22.5q4 0 13 -4 l129 -65q12 -6 12 -15q0 -45 -61.5 -104t-184.5 -98l-37 -78q-2 -4 -2 -10t9 -15q31 -31 57.5 -60.5t26.5 -86.5v-17z" />
<glyph unicode="&#xe8;" horiz-adv-x="942" d="M563 1063q4 -6 4 -16q0 -14 -20 -15h-88l-15 6l-260 256q-8 8 -8 19q0 16 23 16h180l16 -10zM635 573q14 0 17 8.5t3 26.5q0 33 -15 63.5t-41 54.5t-58.5 38t-69.5 14t-70.5 -14t-58.5 -39t-40 -56.5t-15 -64.5q0 -16 3 -23.5t17 -7.5h328zM840 451q0 -20 -21 -21h-512 q-20 0 -20 -20v-82q0 -37 14 -71t39 -59.5t58.5 -40t72.5 -14.5q37 0 66.5 12.5t46.5 32.5q35 41 50 63.5t25 22.5q4 0 13 -4l129 -65q12 -6 12 -15q0 -10 -19.5 -45.5t-66.5 -78.5q-92 -86 -256 -86q-84 0 -151.5 24.5t-115.5 70.5t-75 110.5t-27 142.5v266q0 70 29 133.5 t79 110.5t116.5 75.5t144.5 28.5q76 0 143.5 -28.5t117.5 -75.5t79 -110.5t29 -133.5v-143z" />
<glyph unicode="&#xe9;" horiz-adv-x="942" d="M635 573q14 0 17 8.5t3 26.5q0 33 -15 63.5t-41 54.5t-58.5 38t-69.5 14t-70.5 -14t-58.5 -39t-40 -56.5t-15 -64.5q0 -16 3 -23.5t17 -7.5h328zM840 451q0 -20 -21 -21h-512q-20 0 -20 -20v-82q0 -37 14 -71t39 -59.5t58.5 -40t72.5 -14.5q37 0 66.5 12.5t46.5 32.5 q35 41 50 63.5t25 22.5q4 0 13 -4l129 -65q12 -6 12 -15q0 -10 -19.5 -45.5t-66.5 -78.5q-92 -86 -256 -86q-84 0 -151.5 24.5t-115.5 70.5t-75 110.5t-27 142.5v266q0 70 29 133.5t79 110.5t116.5 75.5t144.5 28.5q76 0 143.5 -28.5t117.5 -75.5t79 -110.5t29 -133.5v-143z M491 1038l-14 -6h-88q-20 0 -20 17q0 8 4 14l168 256l16 10h180q23 0 23 -18q0 -8 -8 -17z" />
<glyph unicode="&#xea;" horiz-adv-x="942" d="M707 1067q6 -10 6 -16q0 -16 -23 -17h-98l-17 10l-90 140q-6 12 -14 12t-16 -12l-88 -140l-17 -10h-98q-25 0 -25 17q0 4 9 16l182 256l16 8h74l16 -8zM635 573q14 0 17 8.5t3 26.5q0 33 -15 63.5t-41 54.5t-58.5 38t-69.5 14t-70.5 -14t-58.5 -39t-40 -56.5t-15 -64.5 q0 -16 3 -23.5t17 -7.5h328zM840 451q0 -20 -21 -21h-512q-20 0 -20 -20v-82q0 -37 14 -71t39 -59.5t58.5 -40t72.5 -14.5q37 0 66.5 12.5t46.5 32.5q35 41 50 63.5t25 22.5q4 0 13 -4l129 -65q12 -6 12 -15q0 -10 -19.5 -45.5t-66.5 -78.5q-92 -86 -256 -86 q-84 0 -151.5 24.5t-115.5 70.5t-75 110.5t-27 142.5v266q0 70 29 133.5t79 110.5t116.5 75.5t144.5 28.5q76 0 143.5 -28.5t117.5 -75.5t79 -110.5t29 -133.5v-143z" />
<glyph unicode="&#xeb;" horiz-adv-x="942" d="M635 573q14 0 17 8.5t3 26.5q0 33 -15 63.5t-41 54.5t-58.5 38t-69.5 14t-70.5 -14t-58.5 -39t-40 -56.5t-15 -64.5q0 -16 3 -23.5t17 -7.5h328zM840 451q0 -20 -21 -21h-512q-20 0 -20 -20v-82q0 -37 14 -71t39 -59.5t58.5 -40t72.5 -14.5q37 0 66.5 12.5t46.5 32.5 q35 41 50 63.5t25 22.5q4 0 13 -4l129 -65q12 -6 12 -15q0 -10 -19.5 -45.5t-66.5 -78.5q-92 -86 -256 -86q-84 0 -151.5 24.5t-115.5 70.5t-75 110.5t-27 142.5v266q0 70 29 133.5t79 110.5t116.5 75.5t144.5 28.5q76 0 143.5 -28.5t117.5 -75.5t79 -110.5t29 -133.5v-143z M416 1171q0 -41 -30 -71.5t-73 -30.5t-72.5 29.5t-29.5 72.5t29.5 73t72.5 30t73 -31t30 -72zM735 1171q0 -41 -29.5 -71.5t-72.5 -30.5t-73 29.5t-30 72.5t30 73t73 30t72.5 -31t29.5 -72z" />
<glyph unicode="&#xec;" horiz-adv-x="450" d="M317 1063q4 -6 5 -16q0 -14 -21 -15h-88l-14 6l-260 256q-8 8 -9 19q0 16 23 16h180l17 -10zM317 20q0 -20 -20 -20h-143q-20 0 -21 20v881q0 20 21 21h143q20 0 20 -21v-881z" />
<glyph unicode="&#xed;" horiz-adv-x="450" d="M317 20q0 -20 -20 -20h-143q-20 0 -21 20v881q0 20 21 21h143q20 0 20 -21v-881zM245 1038l-14 -6h-88q-20 0 -20 17q0 8 4 14l168 256l16 10h180q23 0 23 -18q0 -8 -8 -17z" />
<glyph unicode="&#xee;" horiz-adv-x="450" d="M461 1067q6 -10 6 -16q0 -16 -23 -17h-98l-16 10l-90 140q-6 12 -15 12q-8 0 -16 -12l-88 -140l-17 -10h-98q-25 0 -24 17q0 4 8 16l182 256l16 8h74l17 -8zM317 20q0 -20 -20 -20h-143q-20 0 -21 20v881q0 20 21 21h143q20 0 20 -21v-881z" />
<glyph unicode="&#xef;" horiz-adv-x="450" d="M317 20q0 -20 -20 -20h-143q-20 0 -21 20v881q0 20 21 21h143q20 0 20 -21v-881zM170 1171q0 -41 -30 -71.5t-73 -30.5t-72.5 29.5t-29.5 72.5t29.5 73t72.5 30t73 -31t30 -72zM489 1171q0 -41 -29.5 -71.5t-72.5 -30.5t-73 29.5t-30 72.5t30 73t73 30t72.5 -31t29.5 -72 z" />
<glyph unicode="&#xf0;" d="M707 410q0 76 -53.5 130t-131.5 54q-39 0 -72.5 -14.5t-58 -40t-39 -59.5t-14.5 -70v-82q0 -37 14.5 -71t39 -59.5t58 -40t72.5 -14.5q78 0 131.5 54.5t53.5 130.5v82zM1032 1208q4 -4 4 -14q0 -8 -8 -14l-139 -99q-8 -8 -8 -20q0 -8 5 -32.5t5 -65.5v-635 q0 -78 -26.5 -142.5t-75 -110.5t-116 -70.5t-151.5 -24.5t-151.5 24.5t-115.5 70.5t-74.5 110.5t-26.5 142.5v82q0 76 25.5 139t71.5 109.5t108.5 73t134.5 26.5q43 0 74.5 -10.5t56 -23.5t41 -23.5t26.5 -10.5q14 0 15 23v202q0 23 -17 23q-8 0 -16 -6l-117 -84 q-10 -6 -14 -6q-8 0 -15 10l-45 68q-4 4 -4 12q0 10 8 16l162 115q10 6 10 14t-10 19q-29 29 -58.5 40t-68.5 11q-41 0 -72.5 -14.5t-50.5 -36.5q-29 -35 -41 -56.5t-22 -21.5q-4 0 -12 4l-129 65q-12 6 -13 15q0 29 24.5 64.5t70 68.5t107.5 54.5t138 21.5q131 0 205 -54 q43 -31 64.5 -51t27.5 -20t17 6l122 86q8 6 15 6q8 0 14 -10z" />
<glyph unicode="&#xf1;" horiz-adv-x="1003" d="M870 20q0 -20 -20 -20h-143q-20 0 -21 20v553q0 37 -14.5 71t-39 59.5t-58 40t-72.5 14.5q-78 0 -131.5 -54.5t-53.5 -130.5v-553q0 -20 -20 -20h-143q-20 0 -21 20v881q0 20 21 21h122q20 0 21 -21v-24q0 -23 14 -23q10 0 26.5 10t41 23.5t58.5 24t79 10.5 q78 0 142.5 -26t111.5 -72t73.5 -109.5t26.5 -141.5v-553zM803 1200q-78 -139 -176 -139q-63 0 -129 53l-41 27q-41 27 -74 26q-25 0 -43 -10t-31.5 -22.5t-22.5 -22.5t-15 -10q-8 0 -13 4l-45 33q-10 6 -10 14q0 12 15.5 36.5t40 49.5t57 43t67.5 18q68 0 129 -49l39 -30 q31 -25 72 -25q29 0 48 10.5t33.5 23.5t24 23.5t15.5 10.5q8 0 12 -4l41 -33q8 -8 8 -17q0 -6 -2 -10z" />
<glyph unicode="&#xf2;" horiz-adv-x="942" d="M563 1063q4 -6 4 -16q0 -14 -20 -15h-88l-15 6l-260 256q-8 8 -8 19q0 16 23 16h180l16 -10zM655 594q0 76 -53 130t-131 54t-131 -54t-53 -130v-266q0 -37 14 -71t39 -59.5t58.5 -40t72.5 -14.5q78 0 131 54.5t53 130.5v266zM840 328q0 -78 -27 -142.5t-75 -110.5 t-115.5 -70.5t-151.5 -24.5t-151.5 24.5t-115.5 70.5t-75 110.5t-27 142.5v266q0 78 27 142.5t75 110.5t115.5 70.5t151.5 24.5t151.5 -25.5t115.5 -71.5t75 -109.5t27 -141.5v-266z" />
<glyph unicode="&#xf3;" horiz-adv-x="942" d="M655 594q0 76 -53 130t-131 54t-131 -54t-53 -130v-266q0 -37 14 -71t39 -59.5t58.5 -40t72.5 -14.5q78 0 131 54.5t53 130.5v266zM840 328q0 -78 -27 -142.5t-75 -110.5t-115.5 -70.5t-151.5 -24.5t-151.5 24.5t-115.5 70.5t-75 110.5t-27 142.5v266q0 78 27 142.5 t75 110.5t115.5 70.5t151.5 24.5t151.5 -25.5t115.5 -71.5t75 -109.5t27 -141.5v-266zM491 1038l-14 -6h-88q-20 0 -20 17q0 8 4 14l168 256l16 10h180q23 0 23 -18q0 -8 -8 -17z" />
<glyph unicode="&#xf4;" horiz-adv-x="942" d="M707 1067q6 -10 6 -16q0 -16 -23 -17h-98l-17 10l-90 140q-6 12 -14 12t-16 -12l-88 -140l-17 -10h-98q-25 0 -25 17q0 4 9 16l182 256l16 8h74l16 -8zM655 594q0 76 -53 130t-131 54t-131 -54t-53 -130v-266q0 -37 14 -71t39 -59.5t58.5 -40t72.5 -14.5q78 0 131 54.5 t53 130.5v266zM840 328q0 -78 -27 -142.5t-75 -110.5t-115.5 -70.5t-151.5 -24.5t-151.5 24.5t-115.5 70.5t-75 110.5t-27 142.5v266q0 78 27 142.5t75 110.5t115.5 70.5t151.5 24.5t151.5 -25.5t115.5 -71.5t75 -109.5t27 -141.5v-266z" />
<glyph unicode="&#xf5;" horiz-adv-x="942" d="M655 594q0 76 -53 130t-131 54t-131 -54t-53 -130v-266q0 -37 14 -71t39 -59.5t58.5 -40t72.5 -14.5q78 0 131 54.5t53 130.5v266zM840 328q0 -78 -27 -142.5t-75 -110.5t-115.5 -70.5t-151.5 -24.5t-151.5 24.5t-115.5 70.5t-75 110.5t-27 142.5v266q0 78 27 142.5 t75 110.5t115.5 70.5t151.5 24.5t151.5 -25.5t115.5 -71.5t75 -109.5t27 -141.5v-266zM772 1200q-78 -139 -176 -139q-63 0 -129 53l-41 27q-41 27 -74 26q-25 0 -43 -10t-31.5 -22.5t-22.5 -22.5t-15 -10q-8 0 -13 4l-45 33q-10 6 -10 14q0 12 15.5 36.5t40 49.5t57 43 t67.5 18q68 0 129 -49l39 -30q31 -25 72 -25q29 0 48 10.5t33.5 23.5t24 23.5t15.5 10.5q8 0 12 -4l41 -33q8 -8 8 -17q0 -6 -2 -10z" />
<glyph unicode="&#xf6;" horiz-adv-x="942" d="M655 594q0 76 -53 130t-131 54t-131 -54t-53 -130v-266q0 -37 14 -71t39 -59.5t58.5 -40t72.5 -14.5q78 0 131 54.5t53 130.5v266zM840 328q0 -78 -27 -142.5t-75 -110.5t-115.5 -70.5t-151.5 -24.5t-151.5 24.5t-115.5 70.5t-75 110.5t-27 142.5v266q0 78 27 142.5 t75 110.5t115.5 70.5t151.5 24.5t151.5 -25.5t115.5 -71.5t75 -109.5t27 -141.5v-266zM416 1171q0 -41 -30 -71.5t-73 -30.5t-72.5 29.5t-29.5 72.5t29.5 73t72.5 30t73 -31t30 -72zM735 1171q0 -41 -29.5 -71.5t-72.5 -30.5t-73 29.5t-30 72.5t30 73t73 30t72.5 -31 t29.5 -72z" />
<glyph unicode="&#xf7;" horiz-adv-x="1705" d="M854 367q51 0 88 -36t37 -89q0 -51 -36 -88t-89 -37t-89 35.5t-36 89.5q0 53 37 89t88 36zM1452 541h-1198v139h1198v-139zM854 1106q51 0 88 -37t37 -90q0 -51 -36 -88t-89 -37t-89 36t-36 89t37 90t88 37z" />
<glyph unicode="&#xf8;" horiz-adv-x="942" d="M539 741q2 4 2 11q0 4 -4 8l-5 4l-6 4q-31 10 -55 10q-39 0 -72.5 -15t-58.5 -40t-39 -58.5t-14 -70.5v-266q0 -76 28 -76q12 0 19 16zM655 594q0 45 -12 70.5t-25 25.5q-12 0 -18 -14l-207 -494v-8q0 -14 13 -18q18 -8 33.5 -10.5t31.5 -2.5q39 0 73 15.5t58.5 40 t38.5 58.5t14 71v266zM840 328q0 -78 -27 -141.5t-75 -109.5t-115.5 -71.5t-151.5 -25.5t-151.5 24.5t-115.5 70.5t-75 110.5t-27 142.5v266q0 78 27 142.5t75 110.5t115.5 70.5t151.5 24.5q82 0 150.5 -25.5t116.5 -71.5t75 -109.5t27 -141.5v-266z" />
<glyph unicode="&#xf9;" horiz-adv-x="983" d="M584 1063q4 -6 4 -16q0 -14 -21 -15h-88l-14 6l-260 256q-8 8 -8 19q0 16 22 16h180l17 -10zM850 20q0 -20 -21 -20h-122q-20 0 -21 20v25q0 23 -14 23q-10 0 -26.5 -10.5t-41 -24t-58.5 -23.5t-79 -10q-78 0 -142.5 25.5t-111.5 71.5t-73.5 109.5t-26.5 141.5v553 q0 20 20 21h143q20 0 21 -21v-553q0 -37 14.5 -70.5t39 -59t58 -40t72.5 -14.5t73 14.5t58.5 40t39 59t14.5 70.5v553q0 20 20 21h143q20 0 21 -21v-881z" />
<glyph unicode="&#xfa;" horiz-adv-x="983" d="M850 20q0 -20 -21 -20h-122q-20 0 -21 20v25q0 23 -14 23q-10 0 -26.5 -10.5t-41 -24t-58.5 -23.5t-79 -10q-78 0 -142.5 25.5t-111.5 71.5t-73.5 109.5t-26.5 141.5v553q0 20 20 21h143q20 0 21 -21v-553q0 -37 14.5 -70.5t39 -59t58 -40t72.5 -14.5t73 14.5t58.5 40 t39 59t14.5 70.5v553q0 20 20 21h143q20 0 21 -21v-881zM512 1038l-14 -6h-88q-20 0 -20 17q0 8 4 14l168 256l16 10h180q23 0 23 -18q0 -8 -8 -17z" />
<glyph unicode="&#xfb;" horiz-adv-x="983" d="M727 1067q6 -10 6 -16q0 -16 -22 -17h-99l-16 10l-90 140q-6 12 -14 12t-17 -12l-88 -140l-16 -10h-99q-25 0 -24 17q0 4 8 16l182 256l17 8h73l17 -8zM850 20q0 -20 -21 -20h-122q-20 0 -21 20v25q0 23 -14 23q-10 0 -26.5 -10.5t-41 -24t-58.5 -23.5t-79 -10 q-78 0 -142.5 25.5t-111.5 71.5t-73.5 109.5t-26.5 141.5v553q0 20 20 21h143q20 0 21 -21v-553q0 -37 14.5 -70.5t39 -59t58 -40t72.5 -14.5t73 14.5t58.5 40t39 59t14.5 70.5v553q0 20 20 21h143q20 0 21 -21v-881z" />
<glyph unicode="&#xfc;" horiz-adv-x="983" d="M850 20q0 -20 -21 -20h-122q-20 0 -21 20v25q0 23 -14 23q-10 0 -26.5 -10.5t-41 -24t-58.5 -23.5t-79 -10q-78 0 -142.5 25.5t-111.5 71.5t-73.5 109.5t-26.5 141.5v553q0 20 20 21h143q20 0 21 -21v-553q0 -37 14.5 -70.5t39 -59t58 -40t72.5 -14.5t73 14.5t58.5 40 t39 59t14.5 70.5v553q0 20 20 21h143q20 0 21 -21v-881zM437 1171q0 -41 -30 -71.5t-73 -30.5t-72.5 29.5t-29.5 72.5t29.5 73t72.5 30t73 -31t30 -72zM756 1171q0 -41 -29.5 -71.5t-72.5 -30.5t-73 29.5t-30 72.5t30 73t73 30t72.5 -31t29.5 -72z" />
<glyph unicode="&#xfd;" horiz-adv-x="983" d="M850 -113q0 -172 -97.5 -270t-271.5 -98q-72 0 -130 16t-93 43q-59 45 -89 84t-30 66q0 8 13 14l129 65l10 5q8 0 18 -15l35 -45q16 -20 34.5 -35.5t43 -24.5t59.5 -9q39 0 73 14t58.5 39.5t39 59.5t14.5 71v170q0 23 -17 22q-10 0 -24.5 -9l-34 -20.5t-46 -20.5 t-63.5 -9q-84 0 -151.5 24.5t-115.5 70.5t-74.5 110.5t-26.5 142.5v553q0 20 20 21h143q20 0 21 -21v-553q0 -37 14.5 -70.5t39 -59t58 -40t72.5 -14.5t73 14.5t58.5 40t39 59t14.5 70.5v553q0 20 20 21h143q20 0 21 -21v-1014zM512 1038l-14 -6h-88q-20 0 -20 17q0 8 4 14 l168 256l16 10h180q23 0 23 -18q0 -8 -8 -17z" />
<glyph unicode="&#xfe;" horiz-adv-x="972" d="M686 573q0 37 -14.5 71t-39 59.5t-58 40t-72.5 14.5q-78 0 -131.5 -54.5t-53.5 -130.5v-225q0 -76 53.5 -130t131.5 -54q39 0 72.5 14.5t58 40t39 59t14.5 70.5v225zM870 348q0 -76 -25.5 -139.5t-71.5 -109.5t-107.5 -72.5t-133.5 -26.5q-45 0 -78.5 10t-58 23.5t-40 24 t-21.5 10.5q-16 0 -17 -23v-485q0 -20 -20 -21h-143q-20 0 -21 21v1710q0 20 21 20h143q20 0 20 -20v-393q0 -23 17 -23q6 0 21.5 10t40 23.5t59 24t77.5 10.5q72 0 133.5 -26t107.5 -72t71.5 -109.5t25.5 -141.5v-225z" />
<glyph unicode="&#xff;" horiz-adv-x="983" d="M434 1171q0 -41 -29.5 -71.5t-72.5 -30.5t-73 29.5t-30 72.5t30 73t73 30t72.5 -31t29.5 -72zM754 1171q0 -41 -30 -71.5t-73 -30.5t-72.5 29.5t-29.5 72.5t29.5 73t72.5 30t73 -31t30 -72zM850 -113q0 -172 -97.5 -270t-271.5 -98q-72 0 -130 16t-93 43q-59 45 -89 84 t-30 66q0 8 13 14l129 65l10 5q8 0 18 -15l35 -45q16 -20 34.5 -35.5t43 -24.5t59.5 -9q39 0 73 14t58.5 39.5t39 59.5t14.5 71v170q0 23 -17 22q-10 0 -24.5 -9l-34 -20.5t-46 -20.5t-63.5 -9q-84 0 -151.5 24.5t-115.5 70.5t-74.5 110.5t-26.5 142.5v553q0 20 20 21h143 q20 0 21 -21v-553q0 -37 14.5 -70.5t39 -59t58 -40t72.5 -14.5t73 14.5t58.5 40t39 59t14.5 70.5v553q0 20 20 21h143q20 0 21 -21v-1014z" />
<glyph unicode="&#x131;" horiz-adv-x="450" d="M317 20q0 -20 -20 -20h-143q-20 0 -21 20v881q0 20 21 21h143q20 0 20 -21v-881z" />
<glyph unicode="&#x152;" horiz-adv-x="1566" d="M737 963q0 78 -53 131t-131 53h-61q-78 0 -131.5 -53.5t-53.5 -130.5v-635q0 -78 53.5 -131.5t131.5 -53.5h61q78 0 131 53.5t53 131.5v635zM1475 20q0 -20 -21 -20h-764q-35 -10 -68.5 -15t-68.5 -5h-61q-84 0 -152 24.5t-116 70.5t-74.5 110.5t-26.5 142.5v635 q0 78 26.5 142t74.5 110.5t116 71t152 24.5h61q70 0 129 -21h772q20 0 21 -20v-123q0 -20 -21 -21h-536q-20 0 -21 -12q0 -16 12.5 -54t12.5 -97v-205q0 -20 20 -21h420q20 0 20 -20v-123q0 -20 -20 -21h-420q-20 0 -20 -20v-225q0 -61 -12.5 -98t-12.5 -54q0 -12 21 -12 h536q20 0 21 -21v-123z" />
<glyph unicode="&#x153;" horiz-adv-x="1495" d="M655 594q0 76 -53 130t-131 54t-131 -54t-53 -130v-266q0 -37 14 -71t39 -59.5t58.5 -40t72.5 -14.5q78 0 131 54.5t53 130.5v266zM1188 573q14 0 17 7.5t3 23.5q0 33 -15 64.5t-40 56.5t-58.5 39t-70.5 14q-123 0 -186 -143q2 -14 2 -24v-15q0 -23 20 -23h328zM1393 451 q0 -20 -21 -21h-512q-20 0 -20 -20v-82v-14q0 -9 -2 -25q72 -145 186 -146q37 0 66.5 12.5t46.5 32.5q33 41 49 63.5t26 22.5q4 0 13 -4l129 -65q12 -6 12 -15q0 -25 -28.5 -64.5t-90.5 -86.5q-35 -27 -92 -43t-131 -16q-59 0 -97 8t-55 18l-88 53q-31 18 -39 19 q-6 0 -36 -19l-86 -53q-18 -10 -56.5 -18t-95.5 -8q-84 0 -151.5 24.5t-115.5 70.5t-75 110.5t-27 142.5v266q0 78 27 142.5t75 110.5t115.5 70.5t151.5 24.5q119 0 188 -43l66 -45t29 -16t22.5 14t48.5 35q90 55 199 55q76 0 143.5 -28.5t117.5 -75.5t79 -110.5t29 -133.5 v-143z" />
<glyph unicode="&#x178;" horiz-adv-x="921" d="M408 1540q0 -41 -30 -71.5t-73 -30.5t-72.5 29.5t-29.5 72.5t29.5 72.5t72.5 29.5t73 -30.5t30 -71.5zM727 1540q0 -41 -29.5 -71.5t-72.5 -30.5t-73 29.5t-30 72.5t30 72.5t73 29.5t72.5 -30.5t29.5 -71.5zM553 592v-572q0 -20 -21 -20h-143q-20 0 -20 20v572l-357 668 q-4 12 -4 14q0 16 23 16h168l18 -12l225 -467q6 -14 19 -14q12 0 18 14l226 467l18 12h168q23 0 22 -16q0 -2 -4 -14z" />
<glyph unicode="&#x2c6;" horiz-adv-x="1024" d="M750 1067q6 -10 6 -16q0 -16 -23 -17h-98l-17 10l-90 140q-6 12 -14 12t-16 -12l-88 -140l-17 -10h-98q-25 0 -25 17q0 4 9 16l182 256l16 8h74l16 -8z" />
<glyph unicode="&#x2dc;" horiz-adv-x="1024" d="M813 1200q-78 -139 -176 -139q-63 0 -129 53l-41 27q-41 27 -74 26q-25 0 -43 -10t-31.5 -22.5t-22.5 -22.5t-15 -10q-8 0 -13 4l-45 33q-10 6 -10 14q0 12 15.5 36.5t40 49.5t57 43t67.5 18q68 0 129 -49l39 -30q31 -25 72 -25q29 0 48 10.5t33.5 23.5t24 23.5 t15.5 10.5q8 0 12 -4l41 -33q8 -8 8 -17q0 -6 -2 -10z" />
<glyph unicode="&#x2000;" horiz-adv-x="894" />
<glyph unicode="&#x2001;" horiz-adv-x="1792" />
<glyph unicode="&#x2002;" horiz-adv-x="894" />
<glyph unicode="&#x2003;" horiz-adv-x="1792" />
<glyph unicode="&#x2004;" horiz-adv-x="595" />
<glyph unicode="&#x2005;" horiz-adv-x="446" />
<glyph unicode="&#x2006;" horiz-adv-x="296" />
<glyph unicode="&#x2007;" horiz-adv-x="296" />
<glyph unicode="&#x2008;" horiz-adv-x="223" />
<glyph unicode="&#x2009;" horiz-adv-x="358" />
<glyph unicode="&#x200a;" horiz-adv-x="98" />
<glyph unicode="&#x2010;" horiz-adv-x="552" d="M461 389q0 -20 -21 -20h-327q-20 0 -21 20v143q0 20 21 21h327q20 0 21 -21v-143z" />
<glyph unicode="&#x2011;" horiz-adv-x="552" d="M461 389q0 -20 -21 -20h-327q-20 0 -21 20v143q0 20 21 21h327q20 0 21 -21v-143z" />
<glyph unicode="&#x2012;" horiz-adv-x="552" d="M461 389q0 -20 -21 -20h-327q-20 0 -21 20v143q0 20 21 21h327q20 0 21 -21v-143z" />
<glyph unicode="&#x2013;" d="M1004 451q0 -20 -21 -21h-922q-20 0 -20 21v81q0 20 20 21h922q20 0 21 -21v-81z" />
<glyph unicode="&#x2014;" horiz-adv-x="1597" d="M1556 451q0 -20 -20 -21h-1475q-20 0 -20 21v81q0 20 20 21h1475q20 0 20 -21v-81z" />
<glyph unicode="&#x2018;" horiz-adv-x="362" d="M297 1307q2 -4 2 -11q0 -10 -13.5 -20t-33.5 -31q-16 -16 -27.5 -50t-11.5 -73q0 -31 20 -30h23q20 0 20 -21v-137q0 -20 -20 -21h-154q-20 0 -20 21v119q0 76 16.5 135t42 101t56 63.5t57.5 21.5q10 0 16 -12z" />
<glyph unicode="&#x2019;" horiz-adv-x="362" d="M281 1151q0 -76 -16.5 -135.5t-42 -101.5t-55.5 -63.5t-54 -21.5q-10 0 -17 13l-28 55q-2 4 -2 10t13 17.5t28.5 31t29 47t13.5 68.5q0 23 -3.5 32t-17.5 9h-23q-20 0 -20 21v137q0 20 20 20h154q20 0 21 -20v-119z" />
<glyph unicode="&#x201a;" horiz-adv-x="362" d="M281 86q0 -119 -37 -196.5t-121 -122.5q-8 -4 -12 -5q-10 0 -17 15l-26 55q-2 4 -2 8q0 8 8 17q31 33 53.5 64.5t22.5 84.5q0 23 -3.5 32t-17.5 9h-23q-20 0 -20 21v137q0 20 20 20h154q20 0 21 -20v-119z" />
<glyph unicode="&#x201c;" horiz-adv-x="645" d="M297 1307q2 -4 2 -11q0 -10 -13.5 -20t-33.5 -31q-16 -16 -27.5 -50t-11.5 -73q0 -31 20 -30h23q20 0 20 -21v-137q0 -20 -20 -21h-154q-20 0 -20 21v119q0 76 16.5 135t42 101t56 63.5t57.5 21.5q10 0 16 -12zM580 1307q2 -4 2 -11q0 -10 -12.5 -19t-32.5 -30 q-16 -16 -28.5 -51t-12.5 -74q0 -16 3 -23t17 -7h23q20 0 20 -21v-137q0 -20 -20 -21h-154q-20 0 -20 21v119q0 76 16 135t42 101t56.5 63.5t57.5 21.5q10 0 16 -12z" />
<glyph unicode="&#x201d;" horiz-adv-x="645" d="M281 1151q0 -76 -16.5 -135.5t-42 -101.5t-55.5 -63.5t-54 -21.5q-10 0 -17 13l-28 55q-2 4 -2 10t13 17.5t28.5 31t29 47t13.5 68.5q0 23 -3.5 32t-17.5 9h-23q-20 0 -20 21v137q0 20 20 20h154q20 0 21 -20v-119zM563 1151q0 -76 -17.5 -135.5t-43 -101.5t-55 -63.5 t-54.5 -21.5q-8 0 -14 13l-29 55q-2 4 -2 10t13.5 17.5t30 31t29.5 47t13 68.5t-22 41h-23q-20 0 -20 21v137q0 20 20 20h154q20 0 20 -20v-119z" />
<glyph unicode="&#x201e;" horiz-adv-x="645" d="M281 86q0 -119 -37 -196.5t-121 -122.5q-8 -4 -12 -5q-10 0 -17 15l-26 55q-2 4 -2 8q0 8 8 17q31 33 53.5 64.5t22.5 84.5q0 23 -3.5 32t-17.5 9h-23q-20 0 -20 21v137q0 20 20 20h154q20 0 21 -20v-119zM563 86q0 -119 -37 -196.5t-120 -122.5q-8 -4 -13 -5 q-10 0 -16 15l-27 55q-2 4 -2 8q0 8 8 17q31 33 54.5 64.5t23.5 84.5q0 41 -22 41h-23q-20 0 -20 21v137q0 20 20 20h154q20 0 20 -20v-119z" />
<glyph unicode="&#x2022;" horiz-adv-x="901" d="M762 625q0 -129 -83 -208t-224 -79h-9q-141 0 -224 79t-83 208v41q0 129 83 207.5t224 78.5h9q141 0 224 -78.5t83 -207.5v-41z" />
<glyph unicode="&#x2026;" horiz-adv-x="940" d="M870 205q12 -6 13 -15q0 -25 -29 -64.5t-88 -86.5q-35 -27 -92.5 -43t-130.5 -16h-62q-172 0 -270 97t-98 267v62q0 76 63 169q27 39 51.5 57.5t24.5 31.5q0 12 -25.5 29.5t-50.5 51.5q-63 88 -63 166v31q0 172 99 270.5t269 98.5h62q72 0 129 -16.5t92 -43.5 q59 -45 89 -84t30 -65q0 -8 -13 -15l-129 -65q-4 -2 -10 -2q-10 0 -18 12l-33.5 44.5t-34 36.5t-43 24.5t-59.5 9.5h-62q-78 0 -131 -53.5t-53 -130.5v-31q0 -78 53 -131t131 -53h164q20 0 21 -21v-123q0 -20 -21 -20h-164q-78 0 -131 -53.5t-53 -131.5v-71q0 -78 53 -131.5 t131 -53.5h62q37 0 69.5 13.5t51.5 36.5q29 35 42 58t23 23q4 0 12 -4z" />
<glyph unicode="&#x202f;" horiz-adv-x="358" />
<glyph unicode="&#x2039;" horiz-adv-x="692" d="M557 223q0 -23 -16 -22q-8 0 -17 6l-403 287l-8 16v121l8 16l403 289q8 6 17 6q16 0 16 -22v-117l-8 -17l-277 -198q-10 -8 -10 -17q0 -8 10 -16l277 -199l8 -16v-117z" />
<glyph unicode="&#x203a;" horiz-adv-x="692" d="M573 494l-405 -287q-10 -6 -18 -6q-14 0 -15 22v117l8 16l277 199q10 6 10 16t-10 17l-277 198l-8 17v117q0 23 17 22q6 0 16 -6l405 -289l9 -16v-121z" />
<glyph unicode="&#x205f;" horiz-adv-x="446" />
<glyph unicode="&#x2122;" horiz-adv-x="835" d="M319 1079q0 -20 -20 -20h-55q-20 0 -21 -21v-280q0 -20 -20 -21h-25q-20 0 -20 21v280q0 20 -21 21h-55q-20 0 -21 20v23q0 20 21 20h217q20 0 20 -20v-23zM754 758q0 -20 -21 -21h-24q-20 0 -21 21v147q0 25 -20 25q-8 0 -19 -15l-51 -84l-18 -10h-9l-16 10l-55 84 q-10 12 -21 13q-16 0 -16 -23v-147q0 -20 -21 -21h-24q-20 0 -21 21v344q0 20 21 20h24l19 -10l96 -166q10 -14 18 -14t19 14l96 166l19 10h24q20 0 21 -20v-344z" />
<glyph unicode="&#xe000;" horiz-adv-x="920" d="M0 920h920v-920h-920v920z" />
<glyph unicode="&#xfb01;" horiz-adv-x="1013" d="M532 686q0 -20 -20 -20h-143q-20 0 -21 -21v-625q0 -20 -20 -20h-144q-20 0 -20 20v625q0 20 -21 21h-51q-20 0 -20 20v123q0 20 20 20h51q20 0 21 21v92q0 61 24.5 127t71.5 121q102 121 240 121q33 0 32 -23v-123q0 -10 -4 -13t-12 -7l-69 -31q-32 -14 -53 -33.5 t-33.5 -47t-12.5 -70.5v-113q0 -20 21 -21h143q20 0 20 -20v-123zM881 20q0 -20 -21 -20h-143q-20 0 -21 20v881q0 20 21 21h143q20 0 21 -21v-881zM901 1198q0 -47 -32.5 -80t-80.5 -33q-47 0 -79.5 32t-32.5 81q0 47 32.5 80t79.5 33t80 -33t33 -80z" />
<glyph unicode="&#xfb02;" horiz-adv-x="1019" d="M887 20q0 -20 -21 -20h-143q-20 0 -21 20v1086q0 20 -20 20h-150q-78 0 -131 -53t-53 -131v-92q0 -20 21 -21h143q20 0 20 -20v-123q0 -20 -20 -20h-143q-20 0 -21 -21v-625q0 -20 -20 -20h-144q-20 0 -20 20v625q0 20 -21 21h-51q-20 0 -20 20v123q0 20 20 20h51 q20 0 21 21v72q0 156 106 262t262 106h334q20 0 21 -20v-1250z" />
<glyph unicode="&#xfb03;" horiz-adv-x="1617" d="M1484 20q0 -20 -20 -20h-143q-20 0 -21 20v881q0 20 21 21h143q20 0 20 -21v-881zM1505 1198q0 -47 -33 -80t-80 -33t-79.5 32t-32.5 81q0 47 32.5 80t79.5 33t80 -33t33 -80zM1186 1157q-6 -14 -20 -14q-18 2 -30.5 3t-19.5 1q-39 0 -72.5 -14.5t-58 -40t-39 -59.5 t-14.5 -70v-113q0 -20 21 -21h143q20 0 20 -20v-123q0 -20 -20 -20h-143q-20 0 -21 -21v-625q0 -20 -20 -20h-144q-20 0 -20 20v625q0 20 -21 21h-51q-20 0 -20 20v123q0 20 20 20h51q20 0 21 21v92q0 72 26.5 138.5t79.5 121.5q98 109 262 109q57 0 85 -5.5t28 -21.5 q0 -4 -2 -8zM602 1157q-6 -14 -20 -14q-18 2 -30.5 3t-19.5 1q-39 0 -72.5 -14.5t-58 -40t-39 -59.5t-14.5 -70v-113q0 -20 21 -21h143q20 0 20 -20v-123q0 -20 -20 -20h-143q-20 0 -21 -21v-625q0 -20 -20 -20h-144q-20 0 -20 20v625q0 20 -21 21h-51q-20 0 -20 20v123 q0 20 20 20h51q20 0 21 21v92q0 72 26.5 138.5t79.5 121.5q98 109 262 109q57 0 85 -5.5t28 -21.5q0 -4 -2 -8z" />
<glyph unicode="&#xfb04;" horiz-adv-x="1617" d="M1484 20q0 -20 -20 -20h-143q-20 0 -21 20v1250q0 20 21 20h143q20 0 20 -20v-1250zM1186 1157q-6 -14 -20 -14q-18 2 -30.5 3t-19.5 1q-39 0 -72.5 -14.5t-58 -40t-39 -59.5t-14.5 -70v-113q0 -20 21 -21h143q20 0 20 -20v-123q0 -20 -20 -20h-143q-20 0 -21 -21v-625 q0 -20 -20 -20h-144q-20 0 -20 20v625q0 20 -21 21h-51q-20 0 -20 20v123q0 20 20 20h51q20 0 21 21v92q0 72 26.5 138.5t79.5 121.5q98 109 262 109q57 0 85 -5.5t28 -21.5q0 -4 -2 -8zM602 1157q-6 -14 -20 -14q-18 2 -30.5 3t-19.5 1q-39 0 -72.5 -14.5t-58 -40 t-39 -59.5t-14.5 -70v-113q0 -20 21 -21h143q20 0 20 -20v-123q0 -20 -20 -20h-143q-20 0 -21 -21v-625q0 -20 -20 -20h-144q-20 0 -20 20v625q0 20 -21 21h-51q-20 0 -20 20v123q0 20 20 20h51q20 0 21 21v92q0 72 26.5 138.5t79.5 121.5q98 109 262 109q57 0 85 -5.5 t28 -21.5q0 -4 -2 -8z" />
</font>
</defs>
</svg>
