<?xml version="1.0" standalone="no"?>
<!DOCTYPE svg PUBLIC "-//W3C//DTD SVG 1.1//EN" "http://www.w3.org/Graphics/SVG/1.1/DTD/svg11.dtd" >
<svg xmlns="http://www.w3.org/2000/svg">
<metadata>
This is a custom SVG webfont generated by Font Squirrel.
Copyright   : c Copyright 19951997 International Typeface Corporation  All rights reserved
Foundry     : International Typeface Corporation
</metadata>
<defs>
<font id="webfont8nBMy8kI" horiz-adv-x="1044" >
<font-face units-per-em="2048" ascent="1638" descent="-410" />
<missing-glyph horiz-adv-x="356" />
<glyph unicode=" "  horiz-adv-x="356" />
<glyph unicode="&#x09;" horiz-adv-x="356" />
<glyph unicode="&#xa0;" horiz-adv-x="356" />
<glyph unicode="!" horiz-adv-x="534" d="M401 70q0 -43 -28.5 -72t-73.5 -29q-41 0 -70.5 30t-29.5 71t29.5 70.5t70.5 29.5q45 0 73.5 -28.5t28.5 -71.5zM326 401q-4 -18 -21 -18h-10q-18 0 -21 18l-45 347v520q0 20 21 20h98q20 0 21 -20v-518z" />
<glyph unicode="&#x22;" horiz-adv-x="577" d="M199 967q-4 -18 -21 -19h-31q-18 0 -20 19l-43 309v4q0 18 20 18h113q20 0 21 -18v-4zM455 967q-4 -18 -21 -19h-28q-18 0 -21 19l-43 309v4q0 18 20 18h111q20 0 21 -18v-4z" />
<glyph unicode="#" horiz-adv-x="1153" d="M756 764q0 2 1 3t1 3q0 18 -23 18h-250q-18 0 -20 -12l-70 -250q0 -4 -1 -5t-1 -3q0 -18 23 -18h250q14 0 20 16zM1040 809q-6 -20 -26 -21h-121q-18 0 -21 -12l-69 -250q0 -2 -1 -4t-1 -4q0 -18 22 -18h127q16 0 17 -13q0 -2 -1 -3t-1 -5l-21 -76q-6 -20 -26 -20h-142 q-18 0 -20 -12l-101 -357q-2 -14 -20 -14h-68q-23 0 -22 18q0 2 1 3.5t1 5.5l94 331q0 2 1 3t1 4q0 18 -22 18h-250q-18 0 -21 -12l-102 -357q-2 -14 -21 -14h-67q-23 0 -23 18q0 2 1 3.5t1 5.5l92 331q0 2 1 3t1 4q0 18 -22 18h-105q-16 0 -16 12q0 2 1 3t1 5l21 76 q6 20 26 21h117q14 0 20 16l72 248q0 2 1 3t1 3q0 18 -22 18h-123q-16 0 -17 13q0 2 1 3t1 5l21 76q6 20 27 20h135q14 0 20 17l103 354q6 14 20 14h68q23 0 22 -18q0 -2 -1 -4t-1 -4l-94 -332q0 -2 -1 -4t-1 -4q0 -18 22 -19h250q14 0 21 17l102 354q2 14 21 14h67 q23 0 23 -18q0 -2 -1 -4t-1 -4l-94 -332q0 -2 -1.5 -4t-1.5 -4q0 -18 23 -19h109q16 0 16 -12q0 -2 -1 -3t-1 -5z" />
<glyph unicode="$" d="M582 127q0 -20 16 -21q31 0 62.5 17.5t57 46.5t42 66.5t16.5 78.5q0 82 -55 138q-90 86 -125 86q-14 0 -14 -23v-389zM485 1159q0 23 -14 23q-31 0 -60.5 -16.5t-53 -45t-38 -65.5t-14.5 -80q0 -72 49 -121q41 -41 71 -59.5t46 -18.5q14 0 14 23v360zM582 733 q0 -20 35.5 -32.5t95.5 -47.5q203 -119 202 -338q0 -104 -52 -183t-132 -112q-37 -14 -64.5 -20t-46 -11t-28.5 -10.5t-10 -17.5v-67q0 -20 -21 -21h-55q-20 0 -21 21v65q0 25 -33.5 23t-99.5 10q-41 8 -76.5 27.5t-63.5 44t-44 51t-16 45.5q0 10 12 16l86 43q4 2 10 2 q4 0 14 -10q47 -51 86 -83t93 -32q18 0 25 3t7 18v467q-4 20 -38.5 34.5t-88.5 43.5q-190 100 -190 313q0 104 47 181t125 112q31 14 57.5 20t46 11.5t30.5 11.5t11 18v68q0 20 21 20h55q20 0 21 -20v-66q0 -23 27.5 -24.5t86.5 -18.5q39 -12 72 -31.5t56.5 -43t36.5 -45 t13 -35.5q0 -10 -14 -17l-86 -43q-4 -2 -10 -2q-10 0 -24.5 17.5t-36 39t-47 39t-56.5 17.5q-18 0 -18 -21v-430z" />
<glyph unicode="%" horiz-adv-x="1003" d="M815 379q0 31 -24.5 56.5t-57.5 25.5q-35 0 -58.5 -24.5t-23.5 -57.5v-205q0 -33 23.5 -57.5t58.5 -24.5t58.5 24.5t23.5 57.5v205zM354 1116q0 31 -24.5 56.5t-57.5 25.5q-35 0 -58.5 -24.5t-23.5 -57.5v-205q0 -33 24 -57.5t58 -24.5q35 0 58.5 25t23.5 57v205z M918 174q0 -78 -49.5 -126t-135.5 -48t-135 48t-49 126v205q0 78 49 126t135 48t135.5 -48t49.5 -126v-205zM279 12q-4 -10 -19 -12h-49q-23 0 -23 14q0 2 5 15l534 1249q2 6 18 12h50q23 0 22 -16q0 -4 -4 -12zM457 911q0 -78 -49.5 -126t-135.5 -48t-135 48.5t-49 125.5 v205q0 78 49 126t135 48t135.5 -48t49.5 -126v-205z" />
<glyph unicode="&#x26;" horiz-adv-x="1280" d="M782 250q2 0 2 4q0 16 -39.5 68.5t-117.5 121.5q-82 74 -141.5 108t-75.5 34h-4q-139 -78 -140 -209v-64q0 -49 17.5 -90t48 -71.5t70.5 -48t87 -17.5h64q139 0 229 164zM717 977q0 45 -17.5 86t-48 71.5t-71.5 49t-91 18.5q-96 0 -159.5 -64.5t-63.5 -160.5 q0 -76 49.5 -140.5t151.5 -129.5l16 -5q113 23 173.5 85.5t60.5 148.5v41zM1233 -2q0 -16 -16 -16q-78 0 -130.5 32.5t-107.5 73.5l-62.5 48.5t-31.5 17.5q-12 0 -26.5 -26t-47.5 -56q-53 -49 -114.5 -70.5t-143.5 -21.5h-64q-166 0 -260 93t-94 257v53q0 47 20.5 95 t55.5 79q45 41 73.5 60.5t28.5 27.5q0 16 -25.5 34.5t-60.5 53.5q-92 86 -92 236q0 76 24.5 139t70.5 108.5t112 70t147 24.5q164 0 259.5 -95.5t95.5 -259.5v-43q0 -53 -31 -108t-82 -90t-86 -47.5t-35 -28.5q0 -12 13 -22l30 -23q43 -31 74 -60.5t52.5 -54t36.5 -39 t26 -14.5q16 0 21 23.5t24 64.5q88 195 315 195h15q16 0 16 -17v-96q0 -16 -16 -16h-31q-47 0 -88 -17.5t-72 -47.5t-48 -71t-17 -88v-55l8 -18q111 -117 254 -168q10 -10 10 -17v-100z" />
<glyph unicode="'" horiz-adv-x="321" d="M199 967q-4 -18 -21 -19h-31q-18 0 -20 19l-43 309v4q0 18 20 18h113q20 0 21 -18v-4z" />
<glyph unicode="(" horiz-adv-x="724" d="M528 -360q0 -20 -22 -21q-53 0 -115.5 33t-109.5 86q-82 94 -82 237v1172q0 143 82 237q45 53 108.5 84t116.5 31q23 0 22 -20v-80q0 -14 -16 -21l-80 -39q-33 -16 -49 -36q-45 -63 -45 -136v-1214q0 -72 45 -135q16 -23 50 -39l79 -39q16 -6 16 -21v-79z" />
<glyph unicode=")" horiz-adv-x="724" d="M528 -25q0 -145 -79 -237q-47 -53 -112 -86t-114 -33q-14 0 -19 3t-5 18v79q0 10 4 13.5t12 7.5q43 23 77 38t52 40q47 61 47 135v1214q0 74 -47 136q-18 25 -52 39t-77 36q-8 4 -12 7.5t-4 13.5v80q0 20 24 20q49 0 113.5 -31.5t112.5 -85.5q80 -92 79 -235v-1172z" />
<glyph unicode="*" horiz-adv-x="786" d="M682 877q-6 -10 -16 -11q-10 0 -15 4l-192 134q-10 6 -17 6q-16 0 -16 -21v-4l29 -233v-4q0 -18 -21 -19h-80q-20 0 -20 19v4l28 233v4q0 20 -16 21q-8 0 -16 -6l-187 -134q-6 -6 -14 -6q-10 0 -16 13l-39 67q-4 8 -4 12q0 10 14 17l211 90q14 6 14 18t-14 19l-211 96 q-14 6 -14 16q0 4 4 13l39 65q6 12 16 13q4 0 14 -7l183 -137q8 -6 16 -6q16 0 16 21v4l-24 229v4q0 18 20 19h78q20 0 21 -19v-4l-27 -229v-4q0 -20 16 -21q6 0 17 6l192 137q8 6 15 7q10 0 16 -13l39 -65q4 -8 4 -13q0 -10 -14 -16l-219 -96q-16 -6 -17 -19q0 -12 17 -18 l219 -92q14 -6 14 -17q0 -4 -4 -12z" />
<glyph unicode="+" d="M954 457q0 -20 -20 -21h-342q-20 0 -21 -20v-342q0 -20 -20 -21h-53q-20 0 -21 21v342q0 20 -20 20h-344q-20 0 -21 21v55q0 20 21 20h344q20 0 20 21v342q0 20 21 20h53q20 0 20 -20v-342q0 -20 21 -21h342q20 0 20 -20v-55z" />
<glyph unicode="," horiz-adv-x="428" d="M315 51q0 -74 -18 -134t-46 -103t-59.5 -66.5t-56.5 -23.5q-10 0 -14 10l-21 33q-4 8 -4 12q0 8 6 14q41 39 61.5 91.5t20.5 107.5q0 33 -20 33h-29q-20 0 -20 20v121q0 20 20 20h160q20 0 20 -20v-115z" />
<glyph unicode="-" horiz-adv-x="534" d="M434 403q0 -20 -20 -20h-291q-20 0 -21 20v99q0 20 21 20h291q20 0 20 -20v-99z" />
<glyph unicode="." horiz-adv-x="428" d="M315 70q0 -43 -28.5 -72t-73.5 -29q-41 0 -69.5 30t-28.5 71t28.5 70.5t69.5 29.5q45 0 73.5 -28.5t28.5 -71.5z" />
<glyph unicode="/" horiz-adv-x="624" d="M98 12q-6 -12 -18 -12h-70q-23 0 -22 16q0 4 4 13l534 1249q2 6 19 12h69q23 0 23 -16q0 -4 -4 -12z" />
<glyph unicode="0" d="M774 975q0 45 -17.5 85t-46 68.5t-69.5 46t-86 17.5h-63q-47 0 -86 -16.5t-69 -46t-46.5 -69.5t-16.5 -85v-660q0 -47 17.5 -87t46.5 -68.5t68.5 -46t85.5 -17.5h63q45 0 85 17.5t69.5 47t47 69.5t17.5 85v660zM913 315q0 -152 -97 -243.5t-261 -91.5h-63 q-164 0 -260.5 92t-96.5 243v660q0 152 96.5 244t260.5 92h63q82 0 147.5 -24.5t112.5 -68.5t72.5 -106.5t25.5 -136.5v-660z" />
<glyph unicode="1" d="M887 20q0 -20 -21 -20h-608q-20 0 -20 20v76q0 20 20 21h215q20 0 21 20v867q0 23 -17 22q-10 0 -18 -8l-135 -135q-8 -8 -15 -9q-8 0 -14 9l-51 57q-6 8 -6 14q0 8 6 15l313 313l14 6h39q20 0 21 -20v-1131q0 -20 20 -20h215q20 0 21 -21v-76z" />
<glyph unicode="2" d="M541 1311q82 0 147.5 -24.5t112.5 -68.5t72.5 -106.5t25.5 -136.5q0 -88 -39 -167t-110 -136q-53 -43 -116 -81l-128 -81q-100 -66 -149.5 -131.5t-49.5 -157.5v-84q0 -20 21 -20h532q20 0 21 -21v-76q0 -20 -21 -20h-672q-20 0 -20 20v201q0 76 19.5 137.5t57.5 113.5 t95 98t133 94l119 75q53 35 90 71t57.5 75t20.5 90q0 45 -17.5 85t-47 69.5t-69.5 46t-85 16.5h-82q-68 0 -109 -33t-82 -78q-10 -10 -16 -10q-4 0 -8 2l-86 43q-12 6 -13 17q0 25 22.5 56.5t63.5 58t98.5 45t129.5 18.5h82z" />
<glyph unicode="3" d="M881 332q0 -162 -96.5 -257t-262.5 -95h-63q-72 0 -130.5 18t-99.5 45t-63.5 58.5t-22.5 58.5q0 10 13 16l86 43q4 2 10 2q4 0 14 -10q20 -25 40 -45.5t42.5 -35.5t49 -24.5t61.5 -9.5h63q45 0 85 17.5t70 47t47 69.5t17 85v74q0 45 -17 84t-47 68.5t-70 47t-85 17.5 h-143q-20 0 -21 21v75q0 20 21 21h143q45 0 86 17.5t70 47t46 69.5t17 87v31q0 45 -17 85t-46 68.5t-70 46t-86 17.5h-63q-35 0 -61.5 -9t-49 -24.5t-42.5 -36.5l-40 -43q-10 -10 -16 -10t-10 2l-86 45q-12 6 -13 14q0 25 22.5 57t63.5 59.5t100.5 46t131.5 18.5h63 q166 0 262.5 -96.5t96.5 -260.5v-32q0 -82 -49.5 -146.5t-145.5 -105.5v-8q92 -39 143.5 -112t51.5 -155v-63z" />
<glyph unicode="4" d="M647 1051q0 25 -18 24q-12 0 -19 -12l-401 -604q-6 -10 -6 -17q0 -16 22 -16h402q20 0 20 20v605zM977 330q0 -20 -21 -21h-151q-20 0 -21 -20v-269q0 -20 -20 -20h-96q-20 0 -21 20v269q0 20 -20 20h-535q-20 0 -20 21l4 116l549 834l16 8h123q20 0 20 -20v-822 q0 -20 21 -20h151q20 0 21 -20v-76z" />
<glyph unicode="5" d="M915 332q0 -162 -96 -257t-262 -95h-63q-74 0 -132.5 18t-99.5 46t-63.5 59.5t-22.5 56.5q0 8 12 14l86 45q4 2 11 2q6 0 9 -3l7 -7l41 -43q20 -20 42 -36.5t48.5 -26t61.5 -9.5h63q45 0 85 17.5t69.5 47t47 69.5t17.5 85v74q0 45 -17.5 84t-47 68.5t-69.5 47t-85 17.5 h-313q-20 0 -21 21v641q0 20 21 20h628q20 0 21 -20v-76q0 -20 -21 -21h-491q-20 0 -21 -20v-408q0 -20 21 -20h176q166 0 262 -94t96 -256v-41z" />
<glyph unicode="6" d="M772 401q0 45 -17.5 84t-47 69t-69.5 47t-85 17h-61q-47 0 -86 -16t-69 -46t-46.5 -70t-16.5 -85v-86q0 -45 17.5 -85t47.5 -69.5t68.5 -47t84.5 -17.5h61q45 0 85 17.5t69.5 47t47 69.5t17.5 85v86zM911 315q0 -152 -97 -243.5t-261 -91.5h-61q-164 0 -259.5 91 t-95.5 244v660q0 154 96.5 245t258.5 91h61q72 0 130 -18.5t100 -45t65.5 -58.5t23.5 -56q0 -10 -14 -17l-86 -43q-4 -2 -8 -2q-6 0 -16 10l-39 42q-18 19 -41 35t-50.5 25t-64.5 9h-61q-47 0 -86 -16.5t-69 -46t-46.5 -69.5t-16.5 -85v-342q0 -23 17 -23q10 0 24 14l37 33 q37 31 71 54.5t91 23.5h61q72 0 133.5 -25.5t106.5 -69.5t70.5 -105.5t25.5 -133.5v-86z" />
<glyph unicode="7" d="M903 1069q0 -86 -21.5 -150.5t-61.5 -116.5t-98 -99.5t-130 -96.5q-106 -72 -163.5 -135t-57.5 -156v-295q0 -20 -21 -20h-98q-20 0 -21 20v295q0 72 16.5 127.5t49.5 102.5t81 89t111 85l113 81q51 38 87 78t55.5 86t19.5 105v82q0 20 -21 20h-534q-20 0 -21 21v76 q0 20 21 20h674q20 0 20 -20v-199z" />
<glyph unicode="8" d="M774 379q0 45 -17.5 84t-47 68.5t-69.5 47t-85 17.5h-63q-47 0 -86 -16.5t-69 -46t-46.5 -69.5t-16.5 -85v-64q0 -47 17.5 -87t46.5 -68.5t68.5 -46t85.5 -17.5h63q45 0 85 17.5t69.5 47t47 69.5t17.5 85v64zM774 975q0 45 -17.5 85t-46 68.5t-69.5 46t-86 17.5h-63 q-47 0 -86 -16.5t-69 -46t-46.5 -69.5t-16.5 -85v-41q0 -47 16.5 -88t46.5 -71t68.5 -46t86.5 -16h63q45 0 86 17.5t69.5 47t46 69.5t17.5 87v41zM913 332q0 -162 -96 -257t-262 -95h-63q-166 0 -261.5 90t-95.5 243v19l2 53q6 178 199 262v10q-98 39 -149.5 104.5 t-51.5 149.5v43q0 164 95.5 260.5t261.5 96.5h63q166 0 262 -96.5t96 -260.5v-43q0 -80 -49 -145.5t-145 -106.5v-8q92 -39 143 -111.5t51 -154.5v-53z" />
<glyph unicode="9" d="M772 975q0 45 -17.5 85t-46 68.5t-69.5 46t-86 17.5h-61q-47 0 -86 -16.5t-69 -46t-46.5 -69.5t-16.5 -85v-160q0 -45 17.5 -85t47.5 -69.5t68.5 -47t84.5 -17.5h61q45 0 85 17.5t69.5 47t47 69.5t17.5 85v160zM911 315q0 -152 -97 -243.5t-261 -91.5h-61 q-72 0 -130.5 18t-99.5 45t-63.5 58.5t-22.5 58.5q0 10 12 16l86 43q4 2 11 2q6 0 16 -10l36 -43q17 -20 38.5 -36.5t49.5 -26t67 -9.5h61q45 0 85 17.5t69.5 47t47 69.5t17.5 85v271q0 23 -16 22q-10 0 -24.5 -14l-37.5 -35q-37 -33 -71.5 -56.5t-90.5 -23.5h-61 q-72 0 -133.5 25.5t-106.5 69.5t-69.5 105.5t-24.5 135.5v160q0 154 96.5 245t258.5 91h61q82 0 147.5 -24.5t112.5 -68.5t72.5 -106.5t25.5 -136.5v-660z" />
<glyph unicode=":" horiz-adv-x="428" d="M315 70q0 -43 -28.5 -72t-73.5 -29q-41 0 -69.5 30t-28.5 71t28.5 70.5t69.5 29.5q45 0 73.5 -28.5t28.5 -71.5zM315 645q0 -41 -29.5 -71.5t-72.5 -30.5q-41 0 -69.5 29.5t-28.5 72.5q0 41 28.5 70.5t69.5 29.5q45 0 73.5 -28.5t28.5 -71.5z" />
<glyph unicode=";" horiz-adv-x="428" d="M315 51q0 -74 -18 -134t-46 -103t-59.5 -66.5t-56.5 -23.5q-10 0 -14 10l-21 33q-4 8 -4 12q0 8 6 14q41 39 61.5 91.5t20.5 107.5q0 33 -20 33h-29q-20 0 -20 20v121q0 20 20 20h160q20 0 20 -20v-115zM315 645q0 -41 -29.5 -71.5t-72.5 -30.5q-41 0 -69.5 29.5 t-28.5 72.5q0 41 28.5 70.5t69.5 29.5q45 0 73.5 -28.5t28.5 -71.5z" />
<glyph unicode="&#x37e;" horiz-adv-x="428" d="M315 51q0 -74 -18 -134t-46 -103t-59.5 -66.5t-56.5 -23.5q-10 0 -14 10l-21 33q-4 8 -4 12q0 8 6 14q41 39 61.5 91.5t20.5 107.5q0 33 -20 33h-29q-20 0 -20 20v121q0 20 20 20h160q20 0 20 -20v-115zM315 645q0 -41 -29.5 -71.5t-72.5 -30.5q-41 0 -69.5 29.5 t-28.5 72.5q0 41 28.5 70.5t69.5 29.5q45 0 73.5 -28.5t28.5 -71.5z" />
<glyph unicode="&#x3c;" d="M844 879q4 -8 4 -13q0 -10 -12 -16l-590 -340q-14 -10 -15 -18q0 -8 15 -19l590 -342q10 -6 10 -16q0 -6 -4 -15l-29 -43q-6 -10 -14 -10q-4 0 -13 4l-639 367l-10 18v105l10 18l641 371q8 4 13 4q10 0 16 -12z" />
<glyph unicode="=" d="M954 266q0 -20 -20 -20h-821q-20 0 -21 20v53q0 20 21 21h821q20 0 20 -21v-53zM954 649q0 -20 -20 -20h-821q-20 0 -21 20v53q0 20 21 21h821q20 0 20 -21v-53z" />
<glyph unicode="&#x3e;" d="M899 420l-639 -369q-8 -4 -12 -4q-10 0 -17 12l-26 43q-4 8 -4 13q0 10 12 16l588 342q14 10 14 19q0 8 -14 18l-588 340q-12 6 -12 16q0 4 4 13l26 43q6 12 17 12q4 0 12 -4l639 -373l10 -18v-101z" />
<glyph unicode="?" d="M561 70q0 -43 -28.5 -72t-73.5 -29q-41 0 -71 30t-30 71t30 70.5t71 29.5q45 0 73.5 -28.5t28.5 -71.5zM547 1311q80 0 146.5 -24.5t112.5 -68.5t71.5 -105.5t25.5 -137.5q0 -72 -15.5 -121t-46 -85t-75.5 -64.5t-104 -57.5q-43 -23 -75 -42t-52.5 -41.5t-30.5 -52.5 t-10 -73q0 -6 1 -14t1 -18q0 -23 -21 -23h-98q-16 0 -19.5 12.5t-3.5 40.5v41q0 84 39 141.5t121 98.5l104 53q47 25 80 52.5t50.5 63.5t17.5 89q0 45 -17.5 85t-47 69.5t-69.5 46t-85 16.5h-82q-70 0 -110 -33t-83 -80q-10 -10 -16 -10t-10 2l-86 45q-12 6 -13 14 q0 25 23 57t63.5 59.5t100 46t131.5 18.5h82z" />
<glyph unicode="@" horiz-adv-x="1433" d="M866 717q0 61 -43 104t-108 43q-61 0 -104.5 -44t-43.5 -103v-135q0 -61 41 -104.5t107 -43.5t108.5 44t42.5 104v135zM1053 322h-13q-82 0 -145 69q-2 2 -6 2q-8 0 -23.5 -11t-39 -24.5t-54.5 -24.5t-70 -11q-106 0 -175.5 67.5t-69.5 177.5v166q0 53 19.5 98.5t52 77 t77.5 49t96 17.5q33 0 61 -8.5t47 -17.5t32.5 -16t19.5 -7q4 0 4 12v8q0 29 29 29h49q31 0 31 -29l-2 -432q0 -35 22.5 -57.5t59.5 -22.5h24q33 0 56.5 23.5t23.5 56.5v424q0 111 -70.5 176.5t-191.5 65.5h-360q-121 0 -192 -65.5t-71 -176.5v-586q0 -111 71 -176t192 -65 h522q31 0 31 -31v-49q0 -31 -31 -31h-522q-84 0 -153 25.5t-118 71.5t-75.5 110.5t-26.5 144.5v586q0 80 26.5 144.5t75.5 110.5t118 71.5t153 25.5h360q84 0 152.5 -25.5t118 -71.5t76 -110.5t26.5 -144.5v-434q0 -166 -191 -180z" />
<glyph unicode="A" horiz-adv-x="917" d="M487 979q-2 6 -7 25.5t-15 54.5h-8q-6 -25 -12.5 -44.5t-10.5 -35.5l-145 -526q0 -4 -1 -5.5t-1 -3.5q0 -18 22 -18h295q23 0 23 18q0 2 -1 4.5t-1 4.5zM897 27q0 -4 1 -5.5t1 -3.5q0 -18 -22 -18h-105q-18 0 -20 14l-80 283q-2 12 -21 12h-385q-18 0 -20 -12l-80 -283 q-2 -14 -21 -14h-104q-23 0 -23 18q0 2 1 3.5t1 5.5l379 1247q6 14 21 14h78q14 0 20 -14z" />
<glyph unicode="B" horiz-adv-x="1067" d="M807 379q0 45 -17.5 85t-47 68.5t-70.5 46t-86 17.5h-260q-20 0 -21 -21v-438q0 -20 21 -20h260q47 0 87 17.5t69.5 46t47 68.5t17.5 87v43zM807 954q0 45 -17.5 85t-47 69t-70.5 46t-86 17h-260q-20 0 -21 -20v-418q0 -20 21 -20h260q94 0 157.5 63.5t63.5 157.5v20z M944 354q0 -164 -96 -259t-262 -95h-398q-20 0 -20 20v1248q0 20 20 20h398q166 0 262 -96t96 -258v-23q0 -37 -16.5 -81t-50.5 -89q-33 -41 -67 -57t-34 -29q0 -8 4 -11t8 -7l64 -51.5t49.5 -54t31.5 -64.5t11 -82v-31z" />
<glyph unicode="C" horiz-adv-x="950" d="M860 176q12 -4 12 -16q0 -25 -22.5 -56.5t-64.5 -59.5t-100 -46t-130 -18h-63q-164 0 -260.5 92t-96.5 243v660q0 152 96.5 244t260.5 92h63q70 0 129 -18.5t101 -45t65.5 -58.5t23.5 -56q0 -10 -14 -17l-86 -43q-4 -2 -10 -2t-14 8l-44 43q-22 20 -44.5 36t-48 25 t-58.5 9h-63q-47 0 -86 -16.5t-69 -46t-46.5 -69.5t-16.5 -85v-660q0 -47 17.5 -87t46.5 -68.5t68.5 -46t85.5 -17.5h63q35 0 72 14.5t61 36.5q35 33 50.5 53.5t25.5 20.5q6 0 10 -2z" />
<glyph unicode="D" horiz-adv-x="1077" d="M807 954q0 45 -17.5 85t-47 69t-70.5 46t-86 17h-260q-20 0 -21 -20v-1014q0 -20 21 -20h260q47 0 87 17.5t69.5 46t47 68.5t17.5 87v618zM944 358q0 -166 -96 -262t-262 -96h-398q-20 0 -20 20v1248q0 20 20 20h398q166 0 262 -96t96 -258v-576z" />
<glyph unicode="E" horiz-adv-x="980" d="M881 20q0 -20 -21 -20h-672q-20 0 -20 20v1248q0 20 20 20h672q20 0 21 -20v-76q0 -20 -21 -21h-534q-20 0 -21 -20v-418q0 -20 21 -20h438q20 0 20 -21v-76q0 -20 -20 -20h-438q-20 0 -21 -21v-438q0 -20 21 -20h534q20 0 21 -21v-76z" />
<glyph unicode="F" horiz-adv-x="927" d="M881 1192q0 -20 -21 -21h-534q-20 0 -21 -20v-418q0 -20 21 -20h438q20 0 20 -21v-76q0 -20 -20 -20h-438q-20 0 -21 -21v-555q0 -20 -20 -20h-97q-20 0 -20 20v1248q0 20 20 20h672q20 0 21 -20v-76z" />
<glyph unicode="G" d="M913 315q0 -152 -97 -243.5t-261 -91.5h-63q-164 0 -260.5 92t-96.5 243v660q0 152 96.5 244t260.5 92h102q72 0 130 -18.5t100 -45t64.5 -58.5t22.5 -56q0 -10 -14 -17l-86 -43q-4 -2 -10 -2q-8 0 -15 8q-43 45 -82.5 79t-109.5 34h-102q-47 0 -86 -16.5t-69 -46 t-46.5 -69.5t-16.5 -85v-660q0 -47 17.5 -87t46.5 -68.5t68.5 -46t85.5 -17.5h63q45 0 85 17.5t69.5 47t47 69.5t17.5 85v164q0 20 -20 21h-215q-20 0 -21 20v78q0 20 21 20h354q20 0 20 -20v-283z" />
<glyph unicode="H" horiz-adv-x="1140" d="M977 20q0 -20 -21 -20h-98q-20 0 -20 20v555q0 20 -21 21h-491q-20 0 -21 -21v-555q0 -20 -20 -20h-97q-20 0 -20 20v1248q0 20 20 20h97q20 0 20 -20v-535q0 -20 21 -20h491q20 0 21 20v535q0 20 20 20h98q20 0 21 -20v-1248z" />
<glyph unicode="I" horiz-adv-x="471" d="M305 20q0 -20 -20 -20h-97q-20 0 -20 20v1248q0 20 20 20h97q20 0 20 -20v-1248z" />
<glyph unicode="J" horiz-adv-x="854" d="M721 336q0 -66 -26.5 -132.5t-78.5 -119.5q-98 -104 -243 -104q-88 0 -187 49q-74 37 -108.5 75.5t-34.5 57.5q0 8 14 16l86 43q2 0 6.5 1t8.5 1q31 0 48 -21.5t36 -51.5q35 -53 110 -54q49 0 91 17.5t73 47t48.5 69.5t17.5 85v953q0 20 20 20h98q20 0 21 -20v-932z" />
<glyph unicode="K" horiz-adv-x="1077" d="M1034 31q4 -8 4 -15q0 -16 -22 -16h-123l-19 10l-374 613q-10 14 -17 14q-8 0 -18 -10l-160 -201v-406q0 -20 -20 -20h-97q-20 0 -20 20v1248q0 20 20 20h97q20 0 20 -20v-615q0 -25 19 -24q8 0 18 12l487 639l17 8h108q23 0 23 -16q0 -8 -6 -17l-385 -475q-4 -8 -4 -10 q0 -4 4 -12z" />
<glyph unicode="L" horiz-adv-x="927" d="M881 20q0 -20 -21 -20h-672q-20 0 -20 20v1248q0 20 20 20h97q20 0 20 -20v-1131q0 -20 21 -20h534q20 0 21 -21v-76z" />
<glyph unicode="M" horiz-adv-x="1335" d="M702 205q-4 -10 -18 -12h-33q-12 0 -18 12l-340 809l12 -994q0 -20 -20 -20h-97q-20 0 -20 20v1248q0 20 20 20h95q14 -2 18 -12l365 -860h6l362 860q2 8 19 12h96q20 0 20 -20v-1248q0 -20 -20 -20h-96q-20 0 -21 20l12 998z" />
<glyph unicode="N" horiz-adv-x="1140" d="M977 20q0 -20 -21 -20h-90l-18 10l-549 1010h-4l10 -1000q0 -20 -20 -20h-97q-20 0 -20 20v1248q0 20 20 20h88l19 -10l551 -1016h4l-12 1006q0 20 20 20h98q20 0 21 -20v-1248z" />
<glyph unicode="O" d="M774 975q0 45 -17.5 85t-46 68.5t-69.5 46t-86 17.5h-63q-47 0 -86 -16.5t-69 -46t-46.5 -69.5t-16.5 -85v-660q0 -47 17.5 -87t46.5 -68.5t68.5 -46t85.5 -17.5h63q45 0 85 17.5t69.5 47t47 69.5t17.5 85v660zM913 315q0 -152 -97 -243.5t-261 -91.5h-63 q-164 0 -260.5 92t-96.5 243v660q0 152 96.5 244t260.5 92h63q82 0 147.5 -24.5t112.5 -68.5t72.5 -106.5t25.5 -136.5v-660z" />
<glyph unicode="P" horiz-adv-x="991" d="M807 954q0 45 -17.5 85t-47 69t-70.5 46t-86 17h-260q-20 0 -21 -20v-418q0 -20 21 -20h260q94 0 157.5 63.5t63.5 157.5v20zM586 1288q82 0 147.5 -25.5t112.5 -71.5t72.5 -108.5t25.5 -138.5q0 -78 -25.5 -141.5t-72.5 -109.5t-113.5 -71.5t-146.5 -25.5h-260 q-20 0 -21 -21v-555q0 -20 -20 -20h-97q-20 0 -20 20v1248q0 20 20 20h398z" />
<glyph unicode="Q" d="M774 975q0 45 -17.5 85t-46 68.5t-69.5 46t-86 17.5h-63q-47 0 -86 -16.5t-69 -46t-46.5 -69.5t-16.5 -85v-660q0 -41 16.5 -79.5t42 -68.5t57.5 -47.5t63 -17.5q12 0 12 21v100q0 20 20 21h76q20 0 21 -21v-98q0 -18 10 -19q33 0 64.5 17.5t58 46.5t43 66.5t16.5 78.5 v660zM913 315q0 -63 -21.5 -114t-62.5 -107q-29 -41 -84 -70.5t-104 -29.5q-4 0 -13.5 -1t-19.5 -4t-18 -9.5t-8 -18.5v-133q0 -20 -21 -21h-76q-20 0 -20 21v133q0 12 -12.5 17.5t-34 9.5t-49 10t-58.5 22q-176 92 -176 295v660q0 152 96.5 244t260.5 92h63 q82 0 147.5 -24.5t112.5 -68.5t72.5 -106.5t25.5 -136.5v-660z" />
<glyph unicode="R" d="M807 954q0 45 -17.5 85t-47 69t-70.5 46t-86 17h-260q-20 0 -21 -20v-418q0 -20 21 -20h260q94 0 157.5 63.5t63.5 157.5v20zM944 27q2 -4 2 -11q0 -16 -20 -16h-111q-16 6 -18 14l-197 570q-4 6 -16 12h-258q-20 0 -21 -21v-555q0 -20 -20 -20h-97q-20 0 -20 20v1248 q0 20 20 20h398q166 0 262 -96t96 -258v-23q0 -53 -31.5 -113.5t-91.5 -111.5q-35 -29 -59.5 -37t-24.5 -24q0 -2 1 -3t1 -4z" />
<glyph unicode="S" horiz-adv-x="897" d="M449 1192q-45 0 -85 -16.5t-69 -45t-46.5 -66.5t-17.5 -83q0 -70 48.5 -122t146.5 -99l146 -70q69 -33 124 -74q143 -111 144 -301q0 -152 -96.5 -243.5t-262.5 -91.5h-88q-74 0 -132 18t-99 46t-63.5 58.5t-22.5 55.5q0 10 12 16l86 45q4 2 10 2t10 -3l7 -7l41 -43 q20 -20 41.5 -36.5t48 -26t61.5 -9.5h88q45 0 86 16.5t71 46t47 69.5t17 87q0 51 -19 89t-55 69t-87.5 58.5t-116.5 58.5q-80 39 -141.5 73.5t-103.5 77.5t-64.5 99.5t-22.5 134.5q0 152 96.5 244t260.5 92h32q72 0 131.5 -19.5t101.5 -47t64.5 -58.5t22.5 -56q0 -8 -15 -14 l-86 -43q-4 -2 -10 -2q-8 0 -14 8q-43 45 -84 79t-111 34h-32z" />
<glyph unicode="T" horiz-adv-x="811" d="M764 1192q0 -20 -21 -21h-247q-20 0 -21 -20v-1131q0 -20 -20 -20h-97q-20 0 -20 20v1131q0 20 -21 20h-247q-20 0 -21 21v76q0 20 21 20h673q20 0 21 -20v-76z" />
<glyph unicode="U" d="M913 315q0 -152 -97 -243.5t-261 -91.5h-63q-164 0 -260.5 92t-96.5 243v953q0 20 21 20h98q20 0 20 -20v-953q0 -47 17.5 -87t46.5 -68.5t68.5 -46t85.5 -17.5h63q45 0 85 17.5t69.5 47t47 69.5t17.5 85v953q0 20 21 20h98q20 0 20 -20v-953z" />
<glyph unicode="V" horiz-adv-x="917" d="M520 14q-6 -14 -20 -14h-82q-14 0 -21 14l-377 1248q0 4 -1 5t-1 3q0 18 23 18h98q18 0 21 -14l299 -1043h10l289 1043q2 14 20 14h99q23 0 22 -18q0 -2 -1 -3t-1 -5z" />
<glyph unicode="W" horiz-adv-x="1380" d="M1073 16q-4 -16 -20 -16h-74q-18 0 -21 14l-270 932l-268 -932q-2 -14 -21 -14h-73q-16 0 -21 16l-270 1248q0 2 -1 4t-1 4q0 16 22 16h105q16 0 20 -16l197 -1000l278 1002q4 16 13 16q2 0 4 -1t4 -1h29q8 0 13 -2t7 -12l274 -1002l201 1000q4 16 21 16h104q23 0 23 -16 q0 -2 -1 -4t-1 -4z" />
<glyph unicode="X" horiz-adv-x="935" d="M881 29q4 -8 4 -13q0 -16 -23 -16h-125q-14 2 -18 12l-225 488q-6 14 -19 14q-12 0 -18 -14l-240 -488l-18 -12h-125q-23 0 -23 16q0 2 4 15l312 606v18l-310 602q-4 12 -4 15q0 16 23 16h123l18 -12l240 -490q6 -14 18 -14t19 14l225 490q4 10 18 12h123q23 0 23 -16 q0 -4 -4 -12l-304 -603v-20z" />
<glyph unicode="Y" horiz-adv-x="917" d="M528 596v-576q0 -20 -20 -20h-100q-20 0 -21 20v576l-350 661q-4 6 -4 15q0 16 22 16h117l18 -12l252 -516q6 -14 19 -15q12 0 18 15l248 516l18 12h117q23 0 23 -16q0 -2 -4 -15z" />
<glyph unicode="Z" horiz-adv-x="897" d="M807 20q0 -20 -21 -20h-694q-23 0 -22 16q0 4 4 13l497 1114q4 8 4 12q0 16 -22 16h-440q-20 0 -21 21v76q0 20 21 20h647q23 0 22 -16q0 -4 -4 -12l-502 -1115q-4 -8 -4 -12q0 -16 23 -16h491q20 0 21 -21v-76z" />
<glyph unicode="[" horiz-adv-x="724" d="M528 -362q0 -20 -20 -21h-289q-20 0 -20 21v1843q0 20 20 20h289q20 0 20 -20v-76q0 -20 -20 -21h-150q-20 0 -20 -20v-1610q0 -20 20 -20h150q20 0 20 -21v-75z" />
<glyph unicode="\" horiz-adv-x="624" d="M633 29q4 -8 4 -13q0 -16 -23 -16h-69q-14 2 -19 12l-534 1250q-4 8 -4 12q0 16 22 16h70q12 0 18 -12z" />
<glyph unicode="]" horiz-adv-x="724" d="M528 -362q0 -20 -20 -21h-289q-20 0 -20 21v75q0 20 20 21h152q20 0 20 20v1610q0 20 -20 20h-152q-20 0 -20 21v76q0 20 20 20h289q20 0 20 -20v-1843z" />
<glyph unicode="^" horiz-adv-x="1517" d="M727 1077q-84 115 -195 115q-47 0 -86.5 -17.5t-68.5 -46t-45.5 -68.5t-16.5 -85v-146q0 -20 21 -20h360q20 0 21 20v125q0 53 14 105zM1047 713q0 -20 -21 -21h-149q-20 0 -21 -20v-652q0 -20 -20 -20h-99q-20 0 -20 20v652q0 20 -21 20h-360q-20 0 -21 -20v-652 q0 -20 -20 -20h-96q-20 0 -21 20v652q0 20 -20 20h-56q-20 0 -20 21v75q0 20 20 21h56q20 0 20 20v125q0 143 103 252q47 49 112.5 77t138.5 28q131 0 209 -64q27 -20 40.5 -33.5t23.5 -13.5q6 0 12 6q125 100 211 101q18 0 19 -21v-80q0 -10 -4.5 -13t-12.5 -7l-78 -38 q-33 -15 -49 -38q-47 -63 -47 -135v-146q0 -20 21 -20h149q20 0 21 -21v-75zM1389 20q0 -20 -21 -20h-96q-20 0 -21 20v865q0 20 21 20h96q20 0 21 -20v-865zM1411 1221q0 -39 -27.5 -66t-64.5 -27q-39 0 -64.5 26t-25.5 67q0 39 25.5 64.5t64.5 25.5t65.5 -25.5t26.5 -64.5 z" />
<glyph unicode="_" horiz-adv-x="409" d="M440 -440q0 -20 -20 -21h-430q-20 0 -21 21v51q0 20 21 20h430q20 0 20 -20v-51z" />
<glyph unicode="`" horiz-adv-x="1024" d="M590 1055q6 -10 6 -19q0 -14 -23 -14l-55 4l-242 215q-10 10 -10 19q0 16 25 16h139l16 -8z" />
<glyph unicode="a" horiz-adv-x="929" d="M647 373q0 20 -20 20h-271q-51 0 -85.5 -34.5t-34.5 -86.5v-32q0 -51 35.5 -87t84.5 -36h82q123 0 207 176l2 43v37zM786 20q0 -20 -20 -20h-76q-20 0 -20 20v89q0 25 -17 24q-16 0 -43.5 -28.5t-77.5 -69.5q-20 -16 -46.5 -25.5t-47.5 -9.5h-82q-117 0 -187.5 67.5 t-70.5 172.5v12q0 104 71 170.5t187 66.5h271q20 0 20 21l-2 82q-2 92 -62.5 152.5t-154.5 60.5q-80 0 -137 -53q-33 -29 -47.5 -49.5t-24.5 -20.5q-6 0 -10 2l-86 45q-12 6 -12 14q0 25 22.5 55.5t63.5 58.5t99 46.5t132 18.5q166 0 262 -90.5t96 -239.5v-572z" />
<glyph unicode="b" horiz-adv-x="970" d="M721 571q0 43 -17.5 83t-46 70t-69.5 47t-86 17q-47 0 -87 -17t-69 -46t-45 -69t-16 -85v-235q0 -45 16 -85t46 -69.5t69 -47t86 -17.5q45 0 86 17.5t69.5 47t46 69.5t17.5 85v235zM860 336q0 -74 -26.5 -135.5t-72.5 -106.5t-107.5 -69.5t-133.5 -24.5q-41 0 -68.5 7 t-43.5 18q-55 35 -84 68.5t-45 33.5t-17 -23v-84q0 -20 -20 -20h-76q-20 0 -21 20v1248q0 20 21 20h98q20 0 21 -20v-463q0 -23 14 -23q10 0 25 14l36 33q35 29 71 52.5t108 23.5q135 0 223 -94q98 -104 98 -240v-235z" />
<glyph unicode="c" horiz-adv-x="870" d="M774 176q12 -4 12 -16q0 -25 -22.5 -56.5t-64.5 -59.5t-100 -46t-130 -18q-164 0 -259 91t-95 244v277q0 154 95 244t259 90q72 0 130 -18.5t100 -45t65.5 -57.5t23.5 -55q0 -10 -14 -17l-86 -43q-4 -2 -8 -2q-8 0 -16 8l-43 41q-20 20 -43 37t-48.5 26t-60.5 9 q-47 0 -87 -17.5t-68.5 -46t-45 -68.5t-16.5 -85v-277q0 -45 16.5 -85t46 -69.5t68.5 -47t86 -17.5q76 0 135 56q33 31 48.5 50t25.5 19q6 0 10 -2z" />
<glyph unicode="d" horiz-adv-x="970" d="M688 571q0 43 -17.5 83t-46 70t-69.5 47t-86 17q-47 0 -87 -17t-68.5 -46t-45 -69t-16.5 -85v-235q0 -45 16.5 -85t46 -69.5t68.5 -47t86 -17.5q45 0 86 17.5t69.5 47t46 69.5t17.5 85v235zM827 20q0 -20 -20 -20h-76q-20 0 -20 20v89q0 23 -17 22q-10 0 -24.5 -14.5 t-38.5 -36.5q-35 -31 -72 -55.5t-110 -24.5q-72 0 -132.5 24.5t-105.5 68.5t-70.5 106.5t-25.5 136.5v235q0 72 24.5 133.5t67.5 105.5t101.5 69.5t125.5 25.5q37 0 64.5 -7t44.5 -17q55 -37 83.5 -70t45.5 -33q16 0 16 23v467q0 20 21 20h98q20 0 20 -20v-1248z" />
<glyph unicode="e" horiz-adv-x="937" d="M688 592q0 43 -17.5 83t-46 69.5t-69.5 47t-86 17.5q-47 0 -87 -17.5t-68.5 -46t-45 -68.5t-16.5 -85v-29q0 -20 20 -20h396q20 0 20 20v29zM827 467q0 -20 -20 -21h-535q-20 0 -20 -20v-111q0 -45 16.5 -85t46 -69.5t68.5 -47t86 -17.5q76 0 135 56q33 31 48.5 50 t25.5 19q6 0 10 -2l86 -43q12 -4 12 -16q0 -25 -22.5 -56.5t-64.5 -59.5t-100 -46t-130 -18q-164 0 -259 91t-95 244v277q0 57 24.5 116.5t71.5 108.5q102 109 258 109q74 0 139.5 -28t114.5 -74t76.5 -106.5t27.5 -125.5v-125z" />
<glyph unicode="f" horiz-adv-x="565" d="M588 1204l-19 -14q-16 0 -24 1t-13 1q-96 0 -156.5 -62.5t-60.5 -154.5v-146q0 -20 21 -20h151q20 0 21 -21v-75q0 -20 -21 -21h-151q-20 0 -21 -20v-652q0 -20 -20 -20h-96q-20 0 -21 20v652q0 20 -20 20h-56q-20 0 -20 21v75q0 20 20 21h56q20 0 20 20v125 q0 68 25.5 133.5t77.5 118.5q98 104 239 105q51 0 73.5 -2t22.5 -17q0 -6 -2 -10z" />
<glyph unicode="g" horiz-adv-x="937" d="M662 -344q51 0 86.5 36t35.5 89t-35.5 88t-86.5 35h-289q-51 0 -86 -35t-35 -88q0 -55 35 -90t86 -35h289zM688 571q0 43 -17.5 83t-46 70t-69.5 47t-86 17q-47 0 -87 -17t-68.5 -46t-45 -69t-16.5 -85v-20q0 -45 16.5 -85t46 -69.5t68.5 -47t86 -17.5q45 0 86 17.5 t69.5 47t46 69.5t17.5 85v20zM662 23q117 0 189.5 -69t72.5 -173q0 -53 -19.5 -97t-54.5 -76t-83 -50.5t-105 -18.5h-289q-55 0 -103.5 18.5t-82 50.5t-53 75t-19.5 92q0 41 13 77.5t38 59.5q39 39 62.5 56.5t23.5 27.5q0 16 -20.5 47t-20.5 78q0 31 8 54.5t17.5 40.5 t17.5 28.5t8 19.5q0 6 -26 35l-78 88q-16 18 -29.5 61.5t-13.5 102.5v20q0 70 26.5 131.5t72.5 106.5t107.5 70.5t131.5 25.5q76 0 110 -24q57 -37 86 -71t45 -34t17 23v86q0 20 20 20h76q20 0 20 -20v-334q0 -72 -26.5 -132.5t-73.5 -106.5t-112.5 -71.5t-145.5 -25.5 q-16 0 -32.5 1t-33.5 3q-76 -39 -75 -98q0 -66 73 -98h261z" />
<glyph unicode="h" horiz-adv-x="991" d="M860 20q0 -20 -20 -20h-99q-20 0 -20 20v551q0 43 -17.5 83t-46 70t-69.5 47t-86 17q-47 0 -87 -17t-69 -46t-45 -69t-16 -85v-551q0 -20 -21 -20h-98q-20 0 -21 20v1248q0 20 21 20h98q20 0 21 -20v-463q0 -23 14 -23q10 0 25 14l36 33l35 28q16 13 36 23.5t45.5 17.5 t60.5 7q68 0 127 -25.5t102 -69.5t68.5 -105.5t25.5 -133.5v-551z" />
<glyph unicode="i" horiz-adv-x="428" d="M285 20q0 -20 -21 -20h-98q-20 0 -21 20v865q0 20 21 20h98q20 0 21 -20v-865zM305 1221q0 -37 -26.5 -65t-65.5 -28q-37 0 -62.5 26t-25.5 67q0 37 26.5 63.5t61.5 26.5q41 0 66.5 -25.5t25.5 -64.5z" />
<glyph unicode="j" horiz-adv-x="428" d="M285 -127q0 -115 -86 -229q-47 -59 -104.5 -92t-119.5 -33q-20 0 -20 20v78q0 10 4 13t12 8l75 36q34 16 52 41q47 66 47 135v1035q0 20 21 20h98q20 0 21 -20v-1012zM305 1221q0 -37 -26.5 -65t-65.5 -28q-37 0 -62.5 26t-25.5 67q0 37 26.5 63.5t61.5 26.5 q41 0 66.5 -25.5t25.5 -64.5z" />
<glyph unicode="k" horiz-adv-x="915" d="M872 31q4 -8 5 -15q0 -16 -23 -16h-123l-18 10l-283 463q-6 12 -16 12t-17 -8l-112 -115v-342q0 -20 -21 -20h-98q-20 0 -21 20v1248q0 20 21 20h98q20 0 21 -20v-705q0 -23 16 -22q10 0 18 8l318 350l14 6h113q23 0 22 -18q0 -8 -8 -17l-250 -252q-6 -6 -6 -14 q0 -6 2 -10z" />
<glyph unicode="l" horiz-adv-x="428" d="M285 20q0 -20 -21 -20h-98q-20 0 -21 20v1248q0 20 21 20h98q20 0 21 -20v-1248z" />
<glyph unicode="m" horiz-adv-x="1492" d="M1350 20q0 -20 -21 -20h-98q-20 0 -21 20v551q0 43 -17 82t-45 70t-63.5 48t-72.5 17q-35 0 -70 -18t-62.5 -48t-45 -69t-17.5 -82v-551q0 -20 -20 -20h-99q-20 0 -20 20v551q0 43 -17.5 82t-45 70t-63.5 48t-73 17t-71.5 -17t-62.5 -48t-44 -70t-16 -82v-551 q0 -20 -21 -20h-98q-20 0 -21 20v865q0 20 21 20h76q20 0 20 -20v-82q0 -25 14 -25q10 0 26 14l42 35q37 29 73 53.5t97 24.5q80 0 137 -47q45 -37 66.5 -60.5t30.5 -23.5q8 0 28.5 22.5t63.5 57.5q63 51 172 51q74 0 136 -24.5t106 -69.5t70 -105.5t26 -134.5v-551z" />
<glyph unicode="n" horiz-adv-x="1003" d="M860 20q0 -20 -20 -20h-99q-20 0 -20 20v551q0 43 -17.5 83t-46 70t-69.5 47t-86 17q-47 0 -87 -17t-69 -46t-45 -69t-16 -85v-551q0 -20 -21 -20h-98q-20 0 -21 20v865q0 20 21 20h76q20 0 20 -20v-82q0 -23 17 -23q10 0 24 14l37 33q35 29 70.5 53.5t109.5 24.5 q72 0 133.5 -24.5t107.5 -68.5t72.5 -105.5t26.5 -135.5v-551z" />
<glyph unicode="o" horiz-adv-x="937" d="M688 592q0 43 -17.5 83t-46 69.5t-69.5 47t-86 17.5q-47 0 -87 -17.5t-68.5 -46t-45 -68.5t-16.5 -85v-277q0 -45 16.5 -85t46 -69.5t68.5 -47t86 -17.5q45 0 86 17.5t69.5 47t46 69.5t17.5 85v277zM827 315q0 -152 -97 -243.5t-261 -91.5t-259 91t-95 244v277 q0 154 95 244t259 90q82 0 147.5 -24.5t112.5 -69t72.5 -105.5t25.5 -135v-277z" />
<glyph unicode="p" horiz-adv-x="970" d="M721 571q0 43 -17.5 83t-46 70t-69.5 47t-86 17q-47 0 -87 -17t-69 -46t-45 -69t-16 -85v-235q0 -45 16 -85t46 -69.5t69 -47t86 -17.5q45 0 86 17.5t69.5 47t46 69.5t17.5 85v235zM860 336q0 -137 -98 -242q-90 -94 -219 -94q-39 0 -69 8t-46 19q-53 35 -83 67.5 t-46 32.5q-14 0 -14 -25v-542q0 -20 -21 -21h-98q-20 0 -21 21v1325q0 20 21 20h76q20 0 20 -20v-82q0 -23 17 -23q10 0 24 14l37 33q35 29 70.5 53.5t109.5 24.5q72 0 133.5 -24.5t107.5 -68.5t72.5 -105.5t26.5 -135.5v-235z" />
<glyph unicode="q" horiz-adv-x="970" d="M688 571q0 43 -17.5 83t-46 70t-69.5 47t-86 17q-47 0 -87 -17t-68.5 -46t-45 -69t-16.5 -85v-235q0 -45 16.5 -85t46 -69.5t68.5 -47t86 -17.5q45 0 86 17.5t69.5 47t46 69.5t17.5 85v235zM827 -440q0 -20 -20 -21h-98q-20 0 -21 21v546q0 23 -16 23q-10 0 -24.5 -14.5 t-41.5 -36.5l-33 -29q-16 -14 -35.5 -24.5t-44 -17.5t-61.5 -7q-133 0 -221 94q-47 49 -71.5 111.5t-24.5 130.5v235q0 74 25.5 135.5t70.5 105.5t105.5 68.5t132.5 24.5q80 0 114 -24q57 -37 86 -71t45 -34t17 23v86q0 20 20 20h76q20 0 20 -20v-1325z" />
<glyph unicode="r" horiz-adv-x="610" d="M598 780q0 -20 -18 -20q-12 0 -32 3t-46 3q-47 0 -87 -16.5t-69 -46t-45 -68.5t-16 -84v-531q0 -20 -21 -20h-98q-20 0 -21 20v865q0 20 21 20h76q20 0 20 -20v-103q0 -23 17 -22q16 0 44.5 32.5t84.5 77.5q16 14 43.5 24.5t50.5 10.5h76q20 0 20 -20v-105z" />
<glyph unicode="s" horiz-adv-x="897" d="M410 817q-90 0 -136.5 -36t-46.5 -99t49.5 -97t155.5 -57q88 -18 156.5 -36.5t115 -45t71 -67.5t24.5 -105q0 -131 -88 -212.5t-238 -81.5h-63q-72 0 -130.5 18t-99.5 46t-63.5 58.5t-22.5 55.5q0 8 15 14l79 39q4 2 11 2q6 0 16 -10l39 -43q18 -20 40.5 -37t50.5 -26 t65 -9h63q86 0 137.5 43t51.5 107q0 109 -201 149q-90 18 -157.5 34.5t-115 43.5t-71 67.5t-23.5 108.5q0 127 86 206t230 79h63q70 0 127 -18.5t99 -45t64.5 -57.5t22.5 -53q0 -8 -14 -15l-78 -39q-4 -2 -8 -2q-6 0 -16 11q-43 47 -85 78.5t-112 31.5h-63z" />
<glyph unicode="t" horiz-adv-x="630" d="M518 2q0 -20 -22 -20q-57 0 -112.5 24.5t-98.5 68.5t-70 105.5t-27 134.5v453q0 20 -20 20h-119q-20 0 -20 21v39l231 244l14 6h33q20 0 21 -21v-151q0 -20 20 -21h150q20 0 20 -20v-76q0 -20 -20 -21h-150q-20 0 -20 -20v-453q0 -72 45 -135q16 -23 50 -39l79 -39 q16 -6 16 -20v-80z" />
<glyph unicode="u" horiz-adv-x="980" d="M838 20q0 -20 -21 -20h-76q-20 0 -20 20v89q0 23 -16 22q-14 0 -31 -20.5t-45 -49.5q-66 -61 -170 -61q-70 0 -131.5 24.5t-106.5 68.5t-70.5 106.5t-25.5 136.5v549q0 20 20 20h97q20 0 20 -20v-549q0 -45 17.5 -85t46 -69.5t68.5 -47t85 -17.5q47 0 88 17.5t71 47 t46 69.5t16 85v549q0 20 21 20h96q20 0 21 -20v-865z" />
<glyph unicode="v" horiz-adv-x="874" d="M500 12q-10 -10 -19 -12h-86q-12 0 -18 12l-348 865q-4 8 -4 12q0 16 22 16h100q6 0 19 -12l268 -684h8l267 684q2 12 18 12h102q23 0 23 -16q0 -4 -4 -12z" />
<glyph unicode="w" horiz-adv-x="1251" d="M946 14q-6 -14 -20 -14h-74q-14 0 -21 14l-86 295l-114 396h-8q-53 -174 -88 -306l-59 -220q-24 -89 -41 -134t-36 -45h-73q-18 0 -21 14l-264 865q0 4 -1 5t-1 3q0 18 22 18h107q18 0 33.5 -44t36.5 -132l49 -217q29 -129 73 -301h5l76 302l55 217q23 87 40 131t33 44 h115q18 0 34.5 -44t38.5 -131l52 -217q31 -130 78 -302h4q45 172 74 302l49 217q20 87 35.5 131t33.5 44h107q23 0 22 -18q0 -2 -1 -3t-1 -5z" />
<glyph unicode="x" horiz-adv-x="827" d="M782 31q4 -6 4 -15q0 -16 -20 -16h-113l-18 10l-205 332q-6 10 -16 10q-12 0 -17 -10l-207 -332l-16 -10h-115q-23 0 -22 16q0 4 6 15l270 415v23l-266 405q-6 6 -6 15q0 16 22 16h111l16 -10l207 -330q6 -10 19 -10q10 0 16 10l205 330l16 10h111q20 0 20 -16 q0 -8 -4 -15l-266 -407v-21z" />
<glyph unicode="y" horiz-adv-x="980" d="M838 -123q0 -168 -95.5 -263t-263.5 -95q-72 0 -130 18.5t-99 46t-63.5 59t-22.5 56.5q0 12 12 16l86 43q4 2 10 2q4 0 15 -10q43 -47 84 -81t108 -34q47 0 88 17.5t71 47.5t46 70t16 85v243q0 23 -16 23q-10 0 -23.5 -13.5t-35.5 -33.5l-33 -28q-16 -13 -34.5 -23.5 t-43.5 -16.5t-57 -6q-68 0 -128.5 24.5t-105.5 68.5t-71.5 106.5t-26.5 136.5v549q0 20 20 20h97q20 0 20 -20v-549q0 -45 17.5 -85t46 -69.5t68.5 -47t85 -17.5q47 0 88 17.5t71 47t46 69.5t16 85v549q0 20 21 20h96q20 0 21 -20v-1008z" />
<glyph unicode="z" horiz-adv-x="874" d="M793 20q0 -20 -21 -20h-672q-23 0 -22 16q0 8 4 15l432 725q4 8 4 14q0 16 -22 16h-394q-20 0 -20 21v76q0 20 20 20h633q23 0 23 -16q0 -6 -4 -15l-437 -725q-4 -12 -4 -14q0 -16 23 -16h436q20 0 21 -21v-76z" />
<glyph unicode="{" horiz-adv-x="724" d="M528 -360q0 -20 -22 -21q-53 0 -115.5 33t-109.5 86q-82 94 -82 237v308q0 72 -47 135q-18 25 -52 40l-75 36q-8 4 -12.5 7t-4.5 13v90q0 10 4 13.5t13 7.5l77 39q33 16 50 38q47 66 47 136v309q0 143 82 237q45 53 108.5 84t116.5 31q23 0 22 -20v-80q0 -14 -16 -21 l-80 -39q-33 -16 -49 -36q-45 -63 -45 -136v-352q0 -33 -11.5 -68.5t-33 -68.5t-53 -61.5t-70.5 -49.5v-8q39 -20 70.5 -52t53 -69t33 -75.5t11.5 -73.5v-336q0 -72 45 -135q16 -23 50 -39l79 -39q16 -6 16 -21v-79z" />
<glyph unicode="|" horiz-adv-x="1538" d="M733 1067q-88 125 -201 125q-47 0 -86.5 -17.5t-68.5 -46t-45.5 -68.5t-16.5 -85v-146q0 -20 21 -20h360q20 0 21 20v105q0 33 4 61.5t14 55.5zM1395 20q0 -20 -21 -20h-96q-20 0 -21 20v1131q0 20 -20 20h-164q-47 0 -86 -16t-68.5 -46t-46 -70t-16.5 -85v-125 q0 -20 21 -20h149q20 0 21 -21v-75q0 -20 -21 -21h-149q-20 0 -21 -20v-652q0 -20 -20 -20h-99q-20 0 -20 20v652q0 20 -21 20h-360q-20 0 -21 -20v-652q0 -20 -20 -20h-96q-20 0 -21 20v652q0 20 -20 20h-56q-20 0 -20 21v75q0 20 20 21h56q20 0 20 20v125q0 76 26.5 140.5 t76 112.5t116 76t146.5 28q53 0 100 -13.5t82 -35.5q37 -25 56.5 -49.5t31.5 -24.5q6 0 26.5 16.5t59.5 38.5q35 20 79 32.5t95 12.5h301q20 0 21 -20v-1248z" />
<glyph unicode="}" horiz-adv-x="724" d="M721 514q0 -14 -16 -20l-80 -38q-33 -15 -50 -38q-45 -59 -45 -135v-308q0 -139 -81 -237q-47 -53 -111 -86t-115 -33q-23 0 -22 21v79q0 10 4 13.5t12 7.5l75 35.5t52 42.5q47 66 47 135v336q0 37 12.5 75.5t34 74.5t53 68t70.5 52v8q-80 37 -125 107.5t-45 140.5v352 q0 72 -47 136q-16 23 -50 38t-77 37q-8 4 -12 7.5t-4 13.5v80q0 20 22 20q51 0 114.5 -30.5t111.5 -84.5q82 -94 81 -237v-309q0 -72 45 -136q14 -18 49 -35l81 -42q8 -4 12 -7.5t4 -13.5v-90z" />
<glyph unicode="~" horiz-adv-x="1105" d="M727 1077q-84 115 -195 115q-47 0 -86.5 -17.5t-68.5 -46t-45.5 -68.5t-16.5 -85v-146q0 -20 21 -20h360q20 0 21 20v125q0 53 14 105zM1128 1204q-12 -14 -22 -14q-6 0 -14.5 1t-18.5 1q-47 0 -87 -17.5t-68.5 -46t-45 -68.5t-16.5 -85v-146q0 -20 21 -20h149 q20 0 21 -21v-75q0 -20 -21 -21h-149q-20 0 -21 -20v-652q0 -20 -20 -20h-99q-20 0 -20 20v652q0 20 -21 20h-360q-20 0 -21 -20v-652q0 -20 -20 -20h-96q-20 0 -21 20v652q0 20 -20 20h-56q-20 0 -20 21v75q0 20 20 21h56q20 0 20 20v125q0 143 103 252q47 49 112.5 77 t138.5 28q131 0 209 -64q27 -20 40.5 -33.5t23.5 -13.5q6 0 12 6q123 104 246 105q51 0 72.5 -2t21.5 -17q0 -6 -2 -10z" />
<glyph unicode="&#xa1;" horiz-adv-x="534" d="M305 -362q0 -20 -20 -21h-101q-20 0 -20 21v526l43 340q2 18 20 18h13q16 0 20 -18l45 -338v-528zM338 838q0 -41 -31 -72t-71 -31q-43 0 -72 29t-29 74q0 41 30 69.5t71 28.5t71.5 -29.5t30.5 -68.5z" />
<glyph unicode="&#xa2;" d="M483 967q0 20 -14 20q-29 0 -56.5 -16.5t-49 -44t-36 -64.5t-14.5 -78v-276q0 -41 14.5 -78t37 -65.5t50 -46t54.5 -17.5q14 0 14 21v645zM836 367q10 -6 10 -19q0 -82 -199 -155q-35 -12 -53.5 -16.5t-18.5 -22.5v-134q0 -20 -20 -20h-51q-20 0 -21 20v136q0 12 -11 18 t-31 11l-45 13q-26 7 -56 21q-76 35 -121 111t-45 178v276q0 100 46 177t120 112q63 29 103 35t40 29v133q0 20 21 20h51q20 0 20 -20v-133q0 -18 18.5 -21.5t53.5 -17.5q201 -74 201 -158q0 -8 -12 -14l-84 -45q-8 -4 -13 -4q-4 0 -14 10q-41 45 -69.5 72.5t-57.5 27.5 q-23 0 -23 -24v-641q0 -18 13 -19q27 0 50.5 17.5t42.5 39l33.5 39t22.5 17.5q4 0 13 -4z" />
<glyph unicode="&#xa3;" d="M295 954q0 76 27.5 141.5t77 112.5t117 75t149.5 28q63 0 118.5 -18.5t96.5 -46t64.5 -58.5t23.5 -55q0 -10 -15 -17l-86 -43q-4 -2 -10 -2q-8 0 -14 8l-42 43q-19 20 -42 36t-48.5 25t-60.5 9q-96 0 -156.5 -62.5t-60.5 -154.5v-242q0 -20 21 -20h149q20 0 21 -21v-76 q0 -20 -21 -20h-149q-20 0 -21 -21v-260q0 -31 -11 -57.5t-25 -49.5l-24 -42q-11 -18 -12 -33q0 -16 23 -16h508q20 0 20 -21v-76q0 -20 -20 -20h-864q-20 0 -21 20v76q0 20 21 21l75 2q94 27 142.5 83t48.5 134v239q0 20 -21 21h-55q-20 0 -20 20v76q0 20 20 21h55 q20 0 21 20v221z" />
<glyph unicode="&#xa4;" horiz-adv-x="1241" d="M944 887q0 66 -24.5 124t-68.5 102t-102.5 69.5t-125.5 25.5q-68 0 -126.5 -25.5t-103.5 -69.5t-70.5 -102.5t-25.5 -123.5q0 -68 25.5 -126.5t70.5 -103.5t103.5 -70.5t126.5 -25.5t126 25.5t102 70.5t68.5 104.5t24.5 125.5zM360 1210q119 90 261 90q147 0 262 -90 l204 205l66 -65l-205 -205q88 -119 88 -260q0 -139 -88 -258l205 -207l-66 -66l-204 205q-119 -90 -262 -90q-139 0 -261 90l-204 -205l-66 66l205 207q-43 59 -66.5 122.5t-23.5 135.5t23.5 136t66.5 124l-205 205l66 65z" />
<glyph unicode="&#xa5;" d="M954 213q0 -20 -20 -20h-320q-20 0 -20 -21v-152q0 -20 -21 -20h-98q-20 0 -20 20v152q0 20 -21 21h-321q-20 0 -21 20v74q0 20 21 20h321q20 0 21 21v184q0 20 -21 20h-321q-20 0 -21 21v76q0 20 21 20h276q23 0 23 17q0 2 -4 14l-308 577q-4 6 -4 17q0 14 23 14h117 l18 -12l252 -516q6 -14 18 -15q12 0 19 15l248 516l18 12h117q23 0 22 -16q0 -2 -4 -15l-307 -577q-4 -12 -4 -14q0 -16 22 -17h279q20 0 20 -20v-76q0 -20 -20 -21h-320q-20 0 -20 -20v-184q0 -20 20 -21h320q20 0 20 -20v-74z" />
<glyph unicode="&#xa6;" horiz-adv-x="1024" d="M567 -350h-108v758h108v-758zM567 674h-108v758h108v-758z" />
<glyph unicode="&#xa7;" d="M776 315q0 59 -31.5 107.5t-95.5 89.5q-121 78 -201.5 110.5t-85.5 32.5q-14 0 -35.5 -37.5t-21.5 -99.5q0 -82 76 -143q10 -8 23.5 -17.5t29.5 -19.5q119 -70 189.5 -107.5t101.5 -37.5q12 0 31.5 35.5t19.5 86.5zM522 1192q-92 0 -154.5 -60.5t-62.5 -156.5 q0 -47 22.5 -80t62.5 -59.5t96 -52.5l124 -58q156 -76 230.5 -168t74.5 -242q0 -51 -11 -89t-25.5 -64.5t-25.5 -43t-11 -22.5t11 -23.5t25.5 -47t25.5 -71.5t11 -97q0 -74 -25.5 -136.5t-72.5 -106.5t-112.5 -68.5t-147.5 -24.5h-90q-72 0 -130 18.5t-99 46t-63.5 59 t-22.5 56.5q0 12 12 16l86 43q2 0 6 1t8 1q23 0 37 -11t24.5 -26.5t18.5 -32t18 -24.5q37 -31 101 -30h94q45 0 85 17t69.5 46t47 69t17.5 87q0 53 -22.5 90t-62.5 66.5t-96 56.5l-124 59q-78 37 -135 76t-94 85t-55.5 101t-18.5 127q0 55 12.5 95t25.5 68t25.5 44t12.5 23 q0 8 -12.5 23t-25.5 43t-25.5 67t-12.5 94q0 76 25.5 137.5t71.5 105.5t111.5 68.5t145.5 24.5h35q72 0 130 -19.5t100 -47t66 -58.5t24 -56q0 -8 -15 -14l-86 -43q-4 -2 -8 -2q-8 0 -16 8q-45 43 -86 78t-109 35h-35z" />
<glyph unicode="&#xa8;" horiz-adv-x="1024" d="M434 1153q0 -41 -25.5 -66.5t-64.5 -25.5t-64.5 25.5t-25.5 66.5q0 39 24.5 63.5t65.5 24.5q39 0 64.5 -24.5t25.5 -63.5zM768 1153q0 -37 -27.5 -64.5t-64.5 -27.5q-39 0 -63.5 25.5t-24.5 66.5q0 39 24.5 63.5t63.5 24.5q41 0 66.5 -25.5t25.5 -62.5z" />
<glyph unicode="&#xa9;" horiz-adv-x="1433" d="M936 459q10 -6 10 -19q0 -18 -16.5 -40.5t-46 -42t-72.5 -33t-96 -13.5q-119 0 -189.5 67.5t-70.5 178.5v203q0 111 69.5 176t190.5 65q53 0 95 -14t71.5 -33.5t46 -42t16.5 -39.5q0 -8 -10 -14l-60 -31q-8 -4 -12 -4q-6 0 -17 13.5t-28.5 30t-43 29.5t-58.5 13 q-66 0 -109 -43t-43 -106v-203q0 -61 43 -106t109 -45q33 0 58.5 14t43 30.5t28.5 31t19 14.5q2 0 10 -4zM1178 942q0 115 -75 185.5t-202 70.5h-369q-127 0 -201.5 -69.5t-74.5 -186.5v-594q0 -117 75 -186.5t201 -69.5h369q127 0 202 70.5t75 185.5v594zM1270 348 q0 -78 -26.5 -141.5t-75 -109.5t-116 -71.5t-151.5 -25.5h-369q-84 0 -151.5 24.5t-115.5 70.5t-74.5 110.5t-26.5 142.5v594q0 78 26.5 142.5t74.5 110.5t116 70.5t151 24.5h369q84 0 151.5 -25.5t116 -71.5t75 -109.5t26.5 -141.5v-594z" />
<glyph unicode="&#xaa;" horiz-adv-x="651" d="M442 915l-4 5h-188q-33 0 -54.5 -21.5t-21.5 -52.5v-23q0 -33 21.5 -54t54.5 -21h57q39 0 74 28.5t59 85.5l2 29v24zM561 670q0 -25 -24 -25h-54q-25 0 -24 25v61l-8 4q-41 -47 -78 -68.5t-66 -21.5h-57q-86 0 -138.5 50t-52.5 128v8q0 78 52.5 127.5t138.5 49.5h188l4 4 l-2 57q-2 61 -41 100t-100 39q-70 0 -127 -71q-8 -14 -16 -15q-2 0 -15 4l-59 31q-14 6 -14 19q0 20 16 43.5t46 44t73 34t96 13.5q121 0 191.5 -65.5t70.5 -176.5v-399z" />
<glyph unicode="&#xab;" horiz-adv-x="1138" d="M543 236q0 -23 -17 -23q-8 0 -16 6l-387 277l-8 16v113l8 16l387 277q8 6 16 6q16 0 17 -23v-86l-8 -16l-297 -213q-10 -8 -11 -17q0 -8 11 -16l297 -215l8 -16v-86zM1004 233q0 -23 -17 -22q-8 0 -16 6l-391 279l-9 16v113l9 16l391 277q8 6 16 6q16 0 17 -23v-86 l-9 -16l-297 -213q-10 -8 -10 -17q0 -8 10 -16l297 -215l9 -16v-89z" />
<glyph unicode="&#xac;" horiz-adv-x="1705" d="M1452 356h-96v402h-1102v100h1198v-502z" />
<glyph unicode="&#xad;" horiz-adv-x="534" d="M434 403q0 -20 -20 -20h-291q-20 0 -21 20v99q0 20 21 20h291q20 0 20 -20v-99z" />
<glyph unicode="&#xae;" horiz-adv-x="860" d="M516 999q0 29 -17.5 47.5t-45.5 18.5h-66q-20 0 -20 -21v-96q0 -20 20 -20h66q29 0 46 18.5t17 46.5v6zM582 985q0 -23 -9.5 -39t-21.5 -28.5t-21.5 -23.5t-9.5 -20q0 -4 2 -6l51 -102q4 -8 5 -12q0 -16 -23 -17h-33q-12 0 -18 13l-47 108q-6 12 -19 12h-51 q-20 0 -20 -20v-92q0 -20 -21 -21h-22q-20 0 -21 21v344q0 20 21 20h129q59 0 94 -34.5t35 -94.5v-8zM741 942q0 129 -83 208t-224 79h-8q-141 0 -224 -79t-83 -208v-41q0 -129 83 -208t224 -79h8q141 0 224 79t83 208v41zM803 901q0 -78 -26.5 -142.5t-75 -110.5 t-116 -70.5t-151.5 -24.5h-8q-84 0 -151.5 24.5t-115.5 70.5t-75 110.5t-27 142.5v41q0 78 27 142.5t75 110.5t115.5 70.5t151.5 24.5h8q84 0 151.5 -25.5t116 -71.5t75 -109.5t26.5 -141.5v-41z" />
<glyph unicode="&#xaf;" horiz-adv-x="1024" d="M729 1116q0 -20 -20 -20h-398q-20 0 -20 20v76q0 20 20 20h398q20 0 20 -20v-76z" />
<glyph unicode="&#x2c9;" horiz-adv-x="1024" d="M729 1116q0 -20 -20 -20h-398q-20 0 -20 20v76q0 20 20 20h398q20 0 20 -20v-76z" />
<glyph unicode="&#xb0;" horiz-adv-x="428" d="M303 1161q0 35 -23.5 56.5t-66.5 21.5q-41 0 -63.5 -21.5t-22.5 -56.5v-59q0 -37 22.5 -58.5t63.5 -21.5t65.5 22.5t24.5 57.5v59zM381 1102q0 -70 -45 -114t-123 -44q-76 0 -120 43t-44 115v59q0 70 44 113t120 43q78 0 123 -44t45 -112v-59z" />
<glyph unicode="&#xb1;" horiz-adv-x="1705" d="M1452 51h-1198v99h1198v-99zM903 821h549v-98h-549v-348h-98v348h-551v98h551v348h98v-348z" />
<glyph unicode="&#xb2;" horiz-adv-x="690" d="M356 1303q109 0 173.5 -55.5t64.5 -145.5q0 -53 -25.5 -100.5t-72.5 -81.5q-37 -27 -78 -49.5t-84 -49.5q-66 -39 -98.5 -79t-32.5 -93v-51q0 -12 14 -12h350q14 0 15 -13v-45q0 -12 -15 -12h-442q-14 0 -14 12v121q0 92 51 149.5t149 114.5q88 51 139.5 89t51.5 100 q0 55 -43 92t-103 37h-53q-45 0 -71.5 -19.5t-55.5 -46.5q-6 -6 -10 -6h-4l-58 27q-8 2 -8 10q0 14 14.5 33.5t42 35t65.5 27t85 11.5h53z" />
<glyph unicode="&#xb3;" horiz-adv-x="690" d="M582 715q0 -98 -63.5 -154.5t-174.5 -56.5h-41q-47 0 -86 11t-66.5 27.5t-42 35t-14.5 34.5q0 2 8 11l58 24q2 2 4 2h2q4 0 10 -6q29 -29 54.5 -49.5t72.5 -20.5h41q59 0 102 39t43 93v45q0 53 -43 92t-102 39h-94q-12 0 -12 12v45q0 12 12 12h94q61 0 103 38t42 95v19 q0 53 -41.5 91t-103.5 38h-41q-47 0 -72.5 -19.5t-54.5 -48.5q-6 -6 -10 -6t-8 2l-56 27q-8 2 -8 8q0 14 14.5 33.5t42 36t66.5 28t86 11.5h41q111 0 174.5 -57.5t63.5 -155.5v-21q0 -100 -129 -151v-5q61 -23 95 -66.5t34 -92.5v-39z" />
<glyph unicode="&#xb4;" horiz-adv-x="1024" d="M510 1026l-53 -4q-23 0 -23 14q0 8 6 19l144 213l16 8h139q25 0 25 -16q0 -8 -10 -19z" />
<glyph unicode="&#xb5;" horiz-adv-x="1110" d="M219 473q-8 -35 -12 -69.5t-4 -69.5q0 -117 57 -180.5t168 -63.5q123 0 213 104.5t135 313.5l121 557h139l-164 -770q-10 -47 -16 -80t-6 -53q0 -66 68 -66h12q8 0 24 2l-20 -110q-23 -6 -45.5 -8.5t-40.5 -2.5q-137 0 -137 146v14q-41 -78 -119 -120t-180 -42 q-92 0 -161 40t-108 116l-114 -557h-140l316 1491h139z" />
<glyph unicode="&#x3bc;" horiz-adv-x="1110" d="M219 473q-8 -35 -12 -69.5t-4 -69.5q0 -117 57 -180.5t168 -63.5q123 0 213 104.5t135 313.5l121 557h139l-164 -770q-10 -47 -16 -80t-6 -53q0 -66 68 -66h12q8 0 24 2l-20 -110q-23 -6 -45.5 -8.5t-40.5 -2.5q-137 0 -137 146v14q-41 -78 -119 -120t-180 -42 q-92 0 -161 40t-108 116l-114 -557h-140l316 1491h139z" />
<glyph unicode="&#xb6;" horiz-adv-x="1269" d="M1104 -440q0 -20 -21 -21h-96q-20 0 -20 21v1591q0 20 -21 20h-205q-20 0 -20 -20v-1591q0 -20 -21 -21h-98q-20 0 -20 21v612q0 20 -21 21h-69q-80 0 -146.5 24.5t-113 68.5t-72 106.5t-25.5 135.5v406q0 164 96.5 259t260.5 95h591q20 0 21 -20v-1708z" />
<glyph unicode="&#xb7;" horiz-adv-x="428" d="M315 647q0 -41 -29.5 -71.5t-72.5 -30.5q-39 0 -68.5 30.5t-29.5 71.5t28.5 71t69.5 30q45 0 73.5 -29t28.5 -72z" />
<glyph unicode="&#x2219;" horiz-adv-x="428" d="M315 647q0 -41 -29.5 -71.5t-72.5 -30.5q-39 0 -68.5 30.5t-29.5 71.5t28.5 71t69.5 30q45 0 73.5 -29t28.5 -72z" />
<glyph unicode="&#xb8;" horiz-adv-x="1024" d="M639 -307q0 -74 -52 -123t-138 -49h-74q-20 0 -21 20v33q0 20 21 20h74q41 0 69.5 29t28.5 70v18q0 51 -26.5 66.5t-71.5 29.5q-23 6 -23 17l4 12l82 172h88l-63 -131q-4 -8 -5 -12q0 -10 13 -19q94 -55 94 -135v-18z" />
<glyph unicode="&#xb9;" horiz-adv-x="690" d="M586 528q0 -12 -15 -12h-401q-12 0 -12 12v45q0 12 12 13h141q14 0 15 12v520q0 14 -11 15q-6 0 -12 -7l-90 -79q-6 -6 -8 -7q-8 0 -10 7l-33 32q-4 4 -4 11q0 6 4 8l207 188l8 2h26q12 0 13 -12v-678q0 -12 14 -12h141q14 0 15 -13v-45z" />
<glyph unicode="&#xba;" horiz-adv-x="657" d="M471 1067q0 57 -41 99t-102 42t-101.5 -41t-40.5 -100v-193q0 -59 41 -101t101 -42q61 0 102 42t41 101v193zM590 874q0 -111 -72 -178t-190 -67q-117 0 -187.5 66.5t-70.5 178.5v193q0 111 70.5 177.5t187.5 66.5q119 0 190.5 -66.5t71.5 -177.5v-193z" />
<glyph unicode="&#xbb;" horiz-adv-x="1138" d="M561 496l-391 -277q-10 -6 -16 -6q-16 0 -17 23v86l8 16l297 215q10 6 11 16q0 10 -11 17l-297 213l-8 16v86q0 23 17 23q6 0 16 -6l391 -277l8 -16v-113zM1018 496l-387 -277q-10 -6 -17 -6q-16 0 -16 23v86l8 16l297 215q10 6 10 16t-10 17l-297 213l-8 16v86 q0 23 16 23q6 0 17 -6l387 -277l8 -16v-113z" />
<glyph unicode="&#xbc;" horiz-adv-x="1912" d="M1661 588q0 14 -12 14q-8 0 -11 -6l-254 -340q-4 -4 -4 -8q0 -10 15 -10h254q12 0 12 12v338zM1870 184q0 -10 -15 -10h-94q-14 0 -14 -12v-150q0 -12 -12 -12h-62q-12 0 -12 12v150q0 12 -12 12h-338q-12 0 -13 10l2 66l347 467l10 4h78q12 0 12 -10v-461q0 -12 14 -12 h94q14 0 15 -11v-43zM731 12q-4 -10 -18 -12h-49q-23 0 -23 16q0 4 4 13l535 1249q2 6 18 12h49q23 0 23 -16q0 -4 -4 -12zM559 580q0 -12 -14 -13h-383q-12 0 -12 13v41q0 12 12 12h137q12 0 12 12v483q0 14 -10 15q-6 0 -12 -6l-84 -76q-8 -4 -10 -4q-4 0 -9 4l-32 33 l-4 8q0 4 4 8l196 176l10 2h25q12 0 12 -10v-633q0 -12 13 -12h135q14 0 14 -12v-41z" />
<glyph unicode="&#xbd;" horiz-adv-x="1912" d="M1593 733q104 0 166 -51t62 -135q0 -49 -24.5 -94t-70.5 -76q-35 -25 -73 -46l-80 -46q-63 -35 -95 -72t-32 -90v-45q0 -12 14 -12h336q12 0 12 -13v-41q0 -12 -12 -12h-424q-12 0 -12 12v111q0 86 48 140t144 108q82 47 131.5 82.5t49.5 93.5q0 51 -41 86t-99 35h-51 q-43 0 -67.5 -18.5t-51.5 -43.5q-6 -6 -12 -6h-4l-53 25q-8 2 -8 10q0 14 14 30.5t39.5 32t61.5 25.5t81 10h51zM731 12q-4 -10 -18 -12h-49q-23 0 -23 16q0 4 4 13l535 1249q2 6 18 12h49q23 0 23 -16q0 -4 -4 -12zM559 580q0 -12 -14 -13h-383q-12 0 -12 13v41q0 12 12 12 h137q12 0 12 12v483q0 14 -10 15q-6 0 -12 -6l-84 -76q-8 -4 -10 -4q-4 0 -9 4l-32 33l-4 8q0 4 4 8l196 176l10 2h25q12 0 12 -10v-633q0 -12 13 -12h135q14 0 14 -12v-41z" />
<glyph unicode="&#xbe;" horiz-adv-x="1912" d="M1661 588q0 14 -12 14q-8 0 -11 -6l-254 -340q-4 -4 -4 -8q0 -10 15 -10h254q12 0 12 12v338zM1870 184q0 -10 -15 -10h-94q-14 0 -14 -12v-150q0 -12 -12 -12h-62q-12 0 -12 12v150q0 12 -12 12h-338q-12 0 -13 10l2 66l347 467l10 4h78q12 0 12 -10v-461q0 -12 14 -12 h94q14 0 15 -11v-43zM731 12q-4 -10 -18 -12h-49q-23 0 -23 16q0 4 4 13l535 1249q2 6 18 12h49q23 0 23 -16q0 -4 -4 -12zM555 754q0 -92 -60.5 -145.5t-164.5 -53.5h-41q-45 0 -82 10t-62.5 25.5t-40 33t-14.5 33.5q0 6 8 9l54 24h6q2 0 10 -4q27 -29 51.5 -47t69.5 -18 h41q55 0 96 35.5t41 86.5v41q0 51 -40 87t-97 36h-90q-14 0 -15 11v43q0 12 15 12h90q57 0 97 34.5t40 88.5v18q0 51 -40 86t-97 35h-41q-45 0 -69.5 -18.5t-51.5 -45.5q-6 -6 -10 -6t-6 2l-56 25q-8 4 -8 8q0 14 14.5 31.5t41 33t63.5 25.5t82 10h41q104 0 164.5 -53 t60.5 -145v-19q0 -94 -123 -141v-4q59 -23 91 -62.5t32 -87.5v-34z" />
<glyph unicode="&#xbf;" d="M885 -209q12 -6 12 -14q0 -20 -21.5 -51t-61.5 -61t-99.5 -50.5t-134.5 -20.5h-80q-164 0 -260.5 93.5t-96.5 244.5q0 111 43 180.5t138 116.5l94 50q43 23 73.5 47t47 56t16.5 79q0 10 -2 19t-2 20q0 23 20 22h97q18 0 21 -20.5t3 -71.5t-13 -89t-39 -67.5t-64.5 -55 t-90.5 -50.5q-98 -49 -150 -98.5t-52 -137.5q0 -96 62.5 -157.5t154.5 -61.5h80q37 0 69.5 13.5t55.5 33.5q37 35 56 57.5t30 22.5q2 0 10 -4zM688 838q0 -41 -30.5 -72t-71.5 -31t-70 30t-29 73q0 41 29 69.5t70 28.5t71.5 -29.5t30.5 -68.5z" />
<glyph unicode="&#xc0;" horiz-adv-x="917" d="M539 1440q6 -10 6 -19q0 -14 -23 -14l-55 4l-242 215q-10 10 -10 19q0 16 25 16h139l16 -8zM487 979q-2 6 -7 25.5t-15 54.5h-8q-6 -25 -12.5 -44.5t-10.5 -35.5l-145 -526q0 -4 -1 -5.5t-1 -3.5q0 -18 22 -18h295q23 0 23 18q0 2 -1 4.5t-1 4.5zM897 27q0 -4 1 -5.5 t1 -3.5q0 -18 -22 -18h-105q-18 0 -20 14l-80 283q-2 12 -21 12h-385q-18 0 -20 -12l-80 -283q-2 -14 -21 -14h-104q-23 0 -23 18q0 2 1 3.5t1 5.5l379 1247q6 14 21 14h78q14 0 20 -14z" />
<glyph unicode="&#xc1;" horiz-adv-x="917" d="M487 979q-2 6 -7 25.5t-15 54.5h-8q-6 -25 -12.5 -44.5t-10.5 -35.5l-145 -526q0 -4 -1 -5.5t-1 -3.5q0 -18 22 -18h295q23 0 23 18q0 2 -1 4.5t-1 4.5zM897 27q0 -4 1 -5.5t1 -3.5q0 -18 -22 -18h-105q-18 0 -20 14l-80 283q-2 12 -21 12h-385q-18 0 -20 -12l-80 -283 q-2 -14 -21 -14h-104q-23 0 -23 18q0 2 1 3.5t1 5.5l379 1247q6 14 21 14h78q14 0 20 -14zM461 1411l-53 -4q-23 0 -23 14q0 8 6 19l144 213l16 8h139q25 0 25 -16q0 -8 -10 -19z" />
<glyph unicode="&#xc2;" horiz-adv-x="917" d="M676 1438q6 -10 6 -17q0 -16 -23 -16h-71l-17 8l-90 127q-8 10 -16 10t-16 -10l-97 -127l-16 -8h-70q-23 0 -22 16q0 6 6 17l164 215l16 8h64l16 -8zM487 979q-2 6 -7 25.5t-15 54.5h-8q-6 -25 -12.5 -44.5t-10.5 -35.5l-145 -526q0 -4 -1 -5.5t-1 -3.5q0 -18 22 -18h295 q23 0 23 18q0 2 -1 4.5t-1 4.5zM897 27q0 -4 1 -5.5t1 -3.5q0 -18 -22 -18h-105q-18 0 -20 14l-80 283q-2 12 -21 12h-385q-18 0 -20 -12l-80 -283q-2 -14 -21 -14h-104q-23 0 -23 18q0 2 1 3.5t1 5.5l379 1247q6 14 21 14h78q14 0 20 -14z" />
<glyph unicode="&#xc3;" horiz-adv-x="917" d="M487 979q-2 6 -7 25.5t-15 54.5h-8q-6 -25 -12.5 -44.5t-10.5 -35.5l-145 -526q0 -4 -1 -5.5t-1 -3.5q0 -18 22 -18h295q23 0 23 18q0 2 -1 4.5t-1 4.5zM897 27q0 -4 1 -5.5t1 -3.5q0 -18 -22 -18h-105q-18 0 -20 14l-80 283q-2 12 -21 12h-385q-18 0 -20 -12l-80 -283 q-2 -14 -21 -14h-104q-23 0 -23 18q0 2 1 3.5t1 5.5l379 1247q6 14 21 14h78q14 0 20 -14zM744 1571q10 -10 10 -15q0 -12 -14.5 -34.5t-38 -45t-53 -39t-60.5 -16.5q-61 0 -127 54l-41 26q-49 31 -86 31q-25 0 -44.5 -9.5t-33.5 -20.5t-24.5 -20.5t-16.5 -9.5q-10 0 -14 5 l-21 14q-8 8 -8 16q0 6 2 11q72 121 166 120q31 0 57.5 -12t57.5 -35l43 -32q16 -12 41.5 -21.5t48.5 -9.5q25 0 45 9t35.5 21.5l26 21.5t16.5 9q10 0 14 -4z" />
<glyph unicode="&#xc4;" horiz-adv-x="917" d="M487 979q-2 6 -7 25.5t-15 54.5h-8q-6 -25 -12.5 -44.5t-10.5 -35.5l-145 -526q0 -4 -1 -5.5t-1 -3.5q0 -18 22 -18h295q23 0 23 18q0 2 -1 4.5t-1 4.5zM897 27q0 -4 1 -5.5t1 -3.5q0 -18 -22 -18h-105q-18 0 -20 14l-80 283q-2 12 -21 12h-385q-18 0 -20 -12l-80 -283 q-2 -14 -21 -14h-104q-23 0 -23 18q0 2 1 3.5t1 5.5l379 1247q6 14 21 14h78q14 0 20 -14zM385 1538q0 -41 -25.5 -66.5t-64.5 -25.5t-64.5 25.5t-25.5 66.5q0 39 24.5 63.5t65.5 24.5q39 0 64.5 -24.5t25.5 -63.5zM719 1538q0 -37 -27.5 -64.5t-64.5 -27.5 q-39 0 -63.5 25.5t-24.5 66.5q0 39 24.5 63.5t63.5 24.5q41 0 66.5 -25.5t25.5 -62.5z" />
<glyph unicode="&#xc5;" horiz-adv-x="917" d="M553 1597q0 35 -23.5 56.5t-66.5 21.5q-41 0 -63.5 -21.5t-22.5 -56.5v-59q0 -37 22.5 -58.5t63.5 -21.5t65.5 22.5t24.5 57.5v59zM629 1538q0 -70 -45 -114t-121 -44t-120 44t-44 114v59q0 70 45 113t119 43q76 0 121 -43t45 -113v-59zM487 979q-2 6 -7 25.5t-15 54.5 h-8q-6 -25 -12.5 -44.5t-10.5 -35.5l-145 -526q0 -4 -1 -5.5t-1 -3.5q0 -18 22 -18h295q23 0 23 18q0 2 -1 4.5t-1 4.5zM897 27q0 -4 1 -5.5t1 -3.5q0 -18 -22 -18h-105q-18 0 -20 14l-80 283q-2 12 -21 12h-385q-18 0 -20 -12l-80 -283q-2 -14 -21 -14h-104q-23 0 -23 18 q0 2 1 3.5t1 5.5l379 1247q6 14 21 14h78q14 0 20 -14z" />
<glyph unicode="&#xc6;" horiz-adv-x="1445" d="M629 1059l-22 -42l-15 -30l-303 -530q-4 -12 -4 -15q0 -16 22 -16h303q20 0 21 20v136q0 119 1 236.5t5 238.5zM1346 20q0 -20 -21 -20h-674q-20 0 -20 20v269q0 20 -21 20h-393l-20 -8l-162 -291l-19 -10h-94q-23 0 -22 16q0 2 4 15l737 1247l18 10h666q20 0 21 -20v-76 q0 -20 -21 -21h-534q-20 0 -21 -20v-418q0 -20 21 -20h438q20 0 20 -21v-76q0 -20 -20 -20h-438q-20 0 -21 -21v-438q0 -20 21 -20h534q20 0 21 -21v-76z" />
<glyph unicode="&#xc7;" horiz-adv-x="950" d="M653 -307q0 -74 -52 -123t-138 -49h-74q-20 0 -20 20v33q0 20 20 20h74q43 0 70.5 29t27.5 70v18q0 51 -25.5 66.5t-72.5 29.5q-23 6 -23 17l4 12l68 144h-20q-164 0 -260.5 92t-96.5 243v660q0 152 96.5 244t260.5 92h63q70 0 129 -18.5t101 -45t65.5 -58.5t23.5 -56 q0 -10 -14 -17l-86 -43q-4 -2 -10 -2t-14 8l-44 43q-22 20 -44.5 36t-48 25t-58.5 9h-63q-47 0 -86 -16.5t-69 -46t-46.5 -69.5t-16.5 -85v-660q0 -47 17.5 -87t46.5 -68.5t68.5 -46t85.5 -17.5h63q35 0 72 14.5t61 36.5q35 33 50.5 53.5t25.5 20.5q6 0 10 -2l86 -43 q12 -4 12 -16q0 -20 -18 -48t-53 -54.5t-85 -48t-114 -27.5l-51 -105q-4 -8 -4 -12q0 -10 12 -19q94 -55 94 -135v-18z" />
<glyph unicode="&#xc8;" horiz-adv-x="980" d="M594 1440q6 -10 6 -19q0 -14 -22 -14l-56 4l-241 215q-10 10 -11 19q0 16 25 16h139l17 -8zM881 20q0 -20 -21 -20h-672q-20 0 -20 20v1248q0 20 20 20h672q20 0 21 -20v-76q0 -20 -21 -21h-534q-20 0 -21 -20v-418q0 -20 21 -20h438q20 0 20 -21v-76q0 -20 -20 -20h-438 q-20 0 -21 -21v-438q0 -20 21 -20h534q20 0 21 -21v-76z" />
<glyph unicode="&#xc9;" horiz-adv-x="980" d="M881 20q0 -20 -21 -20h-672q-20 0 -20 20v1248q0 20 20 20h672q20 0 21 -20v-76q0 -20 -21 -21h-534q-20 0 -21 -20v-418q0 -20 21 -20h438q20 0 20 -21v-76q0 -20 -20 -20h-438q-20 0 -21 -21v-438q0 -20 21 -20h534q20 0 21 -21v-76zM514 1411l-53 -4q-23 0 -23 14 q0 8 6 19l144 213l16 8h139q25 0 25 -16q0 -8 -10 -19z" />
<glyph unicode="&#xca;" horiz-adv-x="980" d="M731 1438q6 -10 6 -17q0 -16 -22 -16h-72l-16 8l-90 127q-8 10 -17 10q-8 0 -16 -10l-96 -127l-17 -8h-69q-23 0 -23 16q0 6 6 17l164 215l16 8h64l16 -8zM881 20q0 -20 -21 -20h-672q-20 0 -20 20v1248q0 20 20 20h672q20 0 21 -20v-76q0 -20 -21 -21h-534 q-20 0 -21 -20v-418q0 -20 21 -20h438q20 0 20 -21v-76q0 -20 -20 -20h-438q-20 0 -21 -21v-438q0 -20 21 -20h534q20 0 21 -21v-76z" />
<glyph unicode="&#xcb;" horiz-adv-x="980" d="M881 20q0 -20 -21 -20h-672q-20 0 -20 20v1248q0 20 20 20h672q20 0 21 -20v-76q0 -20 -21 -21h-534q-20 0 -21 -20v-418q0 -20 21 -20h438q20 0 20 -21v-76q0 -20 -20 -20h-438q-20 0 -21 -21v-438q0 -20 21 -20h534q20 0 21 -21v-76zM438 1538q0 -41 -25.5 -66.5 t-64.5 -25.5t-64.5 25.5t-25.5 66.5q0 39 24.5 63.5t65.5 24.5q39 0 64.5 -24.5t25.5 -63.5zM772 1538q0 -37 -27.5 -64.5t-64.5 -27.5q-39 0 -63.5 25.5t-24.5 66.5q0 39 24.5 63.5t63.5 24.5q41 0 66.5 -25.5t25.5 -62.5z" />
<glyph unicode="&#xcc;" horiz-adv-x="471" d="M315 1440q6 -10 7 -19q0 -14 -23 -14l-55 4l-242 215q-10 10 -10 19q0 16 24 16h140l16 -8zM305 20q0 -20 -20 -20h-97q-20 0 -20 20v1248q0 20 20 20h97q20 0 20 -20v-1248z" />
<glyph unicode="&#xcd;" horiz-adv-x="471" d="M305 20q0 -20 -20 -20h-97q-20 0 -20 20v1248q0 20 20 20h97q20 0 20 -20v-1248zM238 1411l-53 -4q-23 0 -23 14q0 8 6 19l144 213l16 8h139q25 0 25 -16q0 -8 -10 -19z" />
<glyph unicode="&#xce;" horiz-adv-x="471" d="M453 1438q6 -10 6 -17q0 -16 -23 -16h-71l-17 8l-90 127q-8 10 -16 10t-17 -10l-96 -127l-16 -8h-70q-23 0 -23 16q0 6 7 17l163 215l17 8h63l17 -8zM305 20q0 -20 -20 -20h-97q-20 0 -20 20v1248q0 20 20 20h97q20 0 20 -20v-1248z" />
<glyph unicode="&#xcf;" horiz-adv-x="471" d="M305 20q0 -20 -20 -20h-97q-20 0 -20 20v1248q0 20 20 20h97q20 0 20 -20v-1248zM162 1538q0 -41 -25.5 -66.5t-64.5 -25.5t-64.5 25.5t-25.5 66.5q0 39 24.5 63.5t65.5 24.5q39 0 64.5 -24.5t25.5 -63.5zM496 1538q0 -37 -27.5 -64.5t-64.5 -27.5q-39 0 -63.5 25.5 t-24.5 66.5q0 39 24.5 63.5t63.5 24.5q41 0 66.5 -25.5t25.5 -62.5z" />
<glyph unicode="&#xd0;" horiz-adv-x="1077" d="M807 954q0 45 -17.5 85t-47 69t-70.5 46t-86 17h-260q-20 0 -21 -20v-418q0 -20 21 -20h182q20 0 20 -21v-96q0 -20 -20 -21h-182q-20 0 -21 -20v-418q0 -20 21 -20h260q47 0 87 17.5t69.5 46t47 68.5t17.5 87v618zM944 358q0 -166 -96 -262t-262 -96h-398q-20 0 -20 20 v535q0 20 -21 20h-71q-20 0 -21 21v96q0 20 21 21h71q20 0 21 20v535q0 20 20 20h398q166 0 262 -96t96 -258v-576z" />
<glyph unicode="&#xd1;" horiz-adv-x="1140" d="M977 20q0 -20 -21 -20h-90l-18 10l-549 1010h-4l10 -1000q0 -20 -20 -20h-97q-20 0 -20 20v1248q0 20 20 20h88l19 -10l551 -1016h4l-12 1006q0 20 20 20h98q20 0 21 -20v-1248zM854 1571q10 -10 10 -15q0 -12 -14.5 -34.5t-38 -45t-53 -39t-60.5 -16.5q-61 0 -127 54 l-41 26q-49 31 -86 31q-25 0 -44.5 -9.5t-33.5 -20.5t-24.5 -20.5t-16.5 -9.5q-10 0 -14 5l-21 14q-8 8 -8 16q0 6 2 11q72 121 166 120q31 0 57.5 -12t57.5 -35l43 -32q16 -12 41.5 -21.5t48.5 -9.5q25 0 45 9t35.5 21.5l26 21.5t16.5 9q10 0 14 -4z" />
<glyph unicode="&#xd2;" d="M602 1440q6 -10 6 -19q0 -14 -22 -14l-56 4l-241 215q-10 10 -10 19q0 16 24 16h139l17 -8zM774 975q0 45 -17.5 85t-46 68.5t-69.5 46t-86 17.5h-63q-47 0 -86 -16.5t-69 -46t-46.5 -69.5t-16.5 -85v-660q0 -47 17.5 -87t46.5 -68.5t68.5 -46t85.5 -17.5h63 q45 0 85 17.5t69.5 47t47 69.5t17.5 85v660zM913 315q0 -152 -97 -243.5t-261 -91.5h-63q-164 0 -260.5 92t-96.5 243v660q0 152 96.5 244t260.5 92h63q82 0 147.5 -24.5t112.5 -68.5t72.5 -106.5t25.5 -136.5v-660z" />
<glyph unicode="&#xd3;" d="M774 975q0 45 -17.5 85t-46 68.5t-69.5 46t-86 17.5h-63q-47 0 -86 -16.5t-69 -46t-46.5 -69.5t-16.5 -85v-660q0 -47 17.5 -87t46.5 -68.5t68.5 -46t85.5 -17.5h63q45 0 85 17.5t69.5 47t47 69.5t17.5 85v660zM913 315q0 -152 -97 -243.5t-261 -91.5h-63 q-164 0 -260.5 92t-96.5 243v660q0 152 96.5 244t260.5 92h63q82 0 147.5 -24.5t112.5 -68.5t72.5 -106.5t25.5 -136.5v-660zM522 1411l-53 -4q-23 0 -23 14q0 8 6 19l144 213l16 8h139q25 0 25 -16q0 -8 -10 -19z" />
<glyph unicode="&#xd4;" d="M739 1438q6 -10 6 -17q0 -16 -22 -16h-72l-16 8l-90 127q-8 10 -17 10q-8 0 -16 -10l-96 -127l-17 -8h-69q-23 0 -23 16q0 6 6 17l164 215l17 8h63l16 -8zM774 975q0 45 -17.5 85t-46 68.5t-69.5 46t-86 17.5h-63q-47 0 -86 -16.5t-69 -46t-46.5 -69.5t-16.5 -85v-660 q0 -47 17.5 -87t46.5 -68.5t68.5 -46t85.5 -17.5h63q45 0 85 17.5t69.5 47t47 69.5t17.5 85v660zM913 315q0 -152 -97 -243.5t-261 -91.5h-63q-164 0 -260.5 92t-96.5 243v660q0 152 96.5 244t260.5 92h63q82 0 147.5 -24.5t112.5 -68.5t72.5 -106.5t25.5 -136.5v-660z" />
<glyph unicode="&#xd5;" d="M774 975q0 45 -17.5 85t-46 68.5t-69.5 46t-86 17.5h-63q-47 0 -86 -16.5t-69 -46t-46.5 -69.5t-16.5 -85v-660q0 -47 17.5 -87t46.5 -68.5t68.5 -46t85.5 -17.5h63q45 0 85 17.5t69.5 47t47 69.5t17.5 85v660zM913 315q0 -152 -97 -243.5t-261 -91.5h-63 q-164 0 -260.5 92t-96.5 243v660q0 152 96.5 244t260.5 92h63q82 0 147.5 -24.5t112.5 -68.5t72.5 -106.5t25.5 -136.5v-660zM805 1571q10 -10 10 -15q0 -12 -14.5 -34.5t-38 -45t-53 -39t-60.5 -16.5q-61 0 -127 54l-41 26q-49 31 -86 31q-25 0 -44.5 -9.5t-33.5 -20.5 t-24.5 -20.5t-16.5 -9.5q-10 0 -14 5l-21 14q-8 8 -8 16q0 6 2 11q72 121 166 120q31 0 57.5 -12t57.5 -35l43 -32q16 -12 41.5 -21.5t48.5 -9.5q25 0 45 9t35.5 21.5l26 21.5t16.5 9q10 0 14 -4z" />
<glyph unicode="&#xd6;" d="M774 975q0 45 -17.5 85t-46 68.5t-69.5 46t-86 17.5h-63q-47 0 -86 -16.5t-69 -46t-46.5 -69.5t-16.5 -85v-660q0 -47 17.5 -87t46.5 -68.5t68.5 -46t85.5 -17.5h63q45 0 85 17.5t69.5 47t47 69.5t17.5 85v660zM913 315q0 -152 -97 -243.5t-261 -91.5h-63 q-164 0 -260.5 92t-96.5 243v660q0 152 96.5 244t260.5 92h63q82 0 147.5 -24.5t112.5 -68.5t72.5 -106.5t25.5 -136.5v-660zM446 1538q0 -41 -25.5 -66.5t-64.5 -25.5t-64.5 25.5t-25.5 66.5q0 39 24.5 63.5t65.5 24.5q39 0 64.5 -24.5t25.5 -63.5zM780 1538 q0 -37 -27.5 -64.5t-64.5 -27.5q-39 0 -63.5 25.5t-24.5 66.5q0 39 24.5 63.5t63.5 24.5q41 0 66.5 -25.5t25.5 -62.5z" />
<glyph unicode="&#xd7;" horiz-adv-x="1705" d="M1337 1161l70 -69l-481 -482l481 -481l-70 -70l-481 482l-481 -482l-70 70l481 481l-481 482l70 69l481 -481z" />
<glyph unicode="&#xd8;" d="M774 975q0 66 -20 65q-12 0 -63 -117l-148 -339q-80 -199 -132.5 -305.5t-52.5 -128.5q0 -14 37 -34t97 -20h63q45 0 85 17.5t69.5 47t47 69.5t17.5 85v660zM684 1133q0 2 1 3t1 3q0 18 -36 35.5t-95 17.5h-63q-47 0 -86 -16.5t-69 -46t-46.5 -69.5t-16.5 -85v-660v-12 q0 -8 2 -20q8 -20 21 -21q12 0 18 17zM913 315q0 -152 -97 -243.5t-261 -91.5h-63q-164 0 -260.5 92t-96.5 243v660q0 152 96.5 244t260.5 92h63q82 0 147.5 -24.5t112.5 -68.5t72.5 -106.5t25.5 -136.5v-660z" />
<glyph unicode="&#xd9;" d="M602 1440q6 -10 6 -19q0 -14 -22 -14l-56 4l-241 215q-10 10 -10 19q0 16 24 16h139l17 -8zM913 315q0 -152 -97 -243.5t-261 -91.5h-63q-164 0 -260.5 92t-96.5 243v953q0 20 21 20h98q20 0 20 -20v-953q0 -47 17.5 -87t46.5 -68.5t68.5 -46t85.5 -17.5h63q45 0 85 17.5 t69.5 47t47 69.5t17.5 85v953q0 20 21 20h98q20 0 20 -20v-953z" />
<glyph unicode="&#xda;" d="M913 315q0 -152 -97 -243.5t-261 -91.5h-63q-164 0 -260.5 92t-96.5 243v953q0 20 21 20h98q20 0 20 -20v-953q0 -47 17.5 -87t46.5 -68.5t68.5 -46t85.5 -17.5h63q45 0 85 17.5t69.5 47t47 69.5t17.5 85v953q0 20 21 20h98q20 0 20 -20v-953zM522 1411l-53 -4 q-23 0 -23 14q0 8 6 19l144 213l16 8h139q25 0 25 -16q0 -8 -10 -19z" />
<glyph unicode="&#xdb;" d="M739 1438q6 -10 6 -17q0 -16 -22 -16h-72l-16 8l-90 127q-8 10 -17 10q-8 0 -16 -10l-96 -127l-17 -8h-69q-23 0 -23 16q0 6 6 17l164 215l17 8h63l16 -8zM913 315q0 -152 -97 -243.5t-261 -91.5h-63q-164 0 -260.5 92t-96.5 243v953q0 20 21 20h98q20 0 20 -20v-953 q0 -47 17.5 -87t46.5 -68.5t68.5 -46t85.5 -17.5h63q45 0 85 17.5t69.5 47t47 69.5t17.5 85v953q0 20 21 20h98q20 0 20 -20v-953z" />
<glyph unicode="&#xdc;" d="M913 315q0 -152 -97 -243.5t-261 -91.5h-63q-164 0 -260.5 92t-96.5 243v953q0 20 21 20h98q20 0 20 -20v-953q0 -47 17.5 -87t46.5 -68.5t68.5 -46t85.5 -17.5h63q45 0 85 17.5t69.5 47t47 69.5t17.5 85v953q0 20 21 20h98q20 0 20 -20v-953zM446 1538 q0 -41 -25.5 -66.5t-64.5 -25.5t-64.5 25.5t-25.5 66.5q0 39 24.5 63.5t65.5 24.5q39 0 64.5 -24.5t25.5 -63.5zM780 1538q0 -37 -27.5 -64.5t-64.5 -27.5q-39 0 -63.5 25.5t-24.5 66.5q0 39 24.5 63.5t63.5 24.5q41 0 66.5 -25.5t25.5 -62.5z" />
<glyph unicode="&#xdd;" horiz-adv-x="917" d="M528 596v-576q0 -20 -20 -20h-100q-20 0 -21 20v576l-350 661q-4 6 -4 15q0 16 22 16h117l18 -12l252 -516q6 -14 19 -15q12 0 18 15l248 516l18 12h117q23 0 23 -16q0 -2 -4 -15zM461 1411l-53 -4q-23 0 -23 14q0 8 6 19l144 213l16 8h139q25 0 25 -16q0 -8 -10 -19z " />
<glyph unicode="&#xde;" horiz-adv-x="991" d="M807 762q0 45 -17.5 85t-47 69.5t-69.5 46t-87 16.5h-260q-20 0 -21 -21v-415q0 -20 21 -21h260q47 0 87 17.5t69.5 46t47 68.5t17.5 87v21zM586 1098q164 0 261 -97.5t97 -259.5q0 -74 -25.5 -135t-72.5 -106t-113.5 -69.5t-146.5 -24.5h-260q-20 0 -21 -21v-365 q0 -20 -20 -20h-97q-20 0 -20 20v1248q0 20 20 20h97q20 0 20 -20v-150q0 -20 21 -20h260z" />
<glyph unicode="&#xdf;" horiz-adv-x="997" d="M893 332q0 -145 -82 -236q-47 -51 -110.5 -82.5t-116.5 -31.5q-23 0 -23 20v80q0 14 17 20l78 39q34 16 51 39q47 61 47 135v64q0 74 -47 135q-16 23 -50 38l-79 38q-16 6 -17 20v88q0 10 4 13.5t13 7.5l78 39q34 16 51 39q47 61 47 137v41q0 45 -16.5 84t-46 68.5 t-69.5 47t-87 17.5q-98 0 -158 -60.5t-60 -156.5v-955q0 -20 -20 -20h-98q-20 0 -21 20v652q0 20 -20 20h-56q-20 0 -20 21v75q0 20 20 21h56q20 0 20 20v125q0 76 27.5 140.5t77 112.5t117 76t147.5 28q76 0 140.5 -25.5t109.5 -72t70.5 -113t25.5 -146.5v-43 q0 -80 -42 -132t-114 -105q-6 -4 -11 -8t-5 -11q0 -6 5 -10t11 -8q74 -55 115 -111.5t41 -140.5v-53z" />
<glyph unicode="&#xe0;" horiz-adv-x="929" d="M518 1055q6 -10 6 -19q0 -14 -22 -14l-56 4l-241 215q-10 10 -10 19q0 16 24 16h139l17 -8zM647 373q0 20 -20 20h-271q-51 0 -85.5 -34.5t-34.5 -86.5v-32q0 -51 35.5 -87t84.5 -36h82q123 0 207 176l2 43v37zM786 20q0 -20 -20 -20h-76q-20 0 -20 20v89q0 25 -17 24 q-16 0 -43.5 -28.5t-77.5 -69.5q-20 -16 -46.5 -25.5t-47.5 -9.5h-82q-117 0 -187.5 67.5t-70.5 172.5v12q0 104 71 170.5t187 66.5h271q20 0 20 21l-2 82q-2 92 -62.5 152.5t-154.5 60.5q-80 0 -137 -53q-33 -29 -47.5 -49.5t-24.5 -20.5q-6 0 -10 2l-86 45q-12 6 -12 14 q0 25 22.5 55.5t63.5 58.5t99 46.5t132 18.5q166 0 262 -90.5t96 -239.5v-572z" />
<glyph unicode="&#xe1;" horiz-adv-x="929" d="M647 373q0 20 -20 20h-271q-51 0 -85.5 -34.5t-34.5 -86.5v-32q0 -51 35.5 -87t84.5 -36h82q123 0 207 176l2 43v37zM786 20q0 -20 -20 -20h-76q-20 0 -20 20v89q0 25 -17 24q-16 0 -43.5 -28.5t-77.5 -69.5q-20 -16 -46.5 -25.5t-47.5 -9.5h-82q-117 0 -187.5 67.5 t-70.5 172.5v12q0 104 71 170.5t187 66.5h271q20 0 20 21l-2 82q-2 92 -62.5 152.5t-154.5 60.5q-80 0 -137 -53q-33 -29 -47.5 -49.5t-24.5 -20.5q-6 0 -10 2l-86 45q-12 6 -12 14q0 25 22.5 55.5t63.5 58.5t99 46.5t132 18.5q166 0 262 -90.5t96 -239.5v-572zM440 1026 l-53 -4q-23 0 -23 14q0 8 6 19l144 213l16 8h139q25 0 25 -16q0 -8 -10 -19z" />
<glyph unicode="&#xe2;" horiz-adv-x="929" d="M655 1053q6 -10 7 -17q0 -16 -23 -16h-72l-16 8l-90 127q-8 10 -17 10q-8 0 -16 -10l-96 -127l-17 -8h-69q-23 0 -23 16q0 6 6 17l164 215l17 8h63l16 -8zM647 373q0 20 -20 20h-271q-51 0 -85.5 -34.5t-34.5 -86.5v-32q0 -51 35.5 -87t84.5 -36h82q123 0 207 176l2 43 v37zM786 20q0 -20 -20 -20h-76q-20 0 -20 20v89q0 25 -17 24q-16 0 -43.5 -28.5t-77.5 -69.5q-20 -16 -46.5 -25.5t-47.5 -9.5h-82q-117 0 -187.5 67.5t-70.5 172.5v12q0 104 71 170.5t187 66.5h271q20 0 20 21l-2 82q-2 92 -62.5 152.5t-154.5 60.5q-80 0 -137 -53 q-33 -29 -47.5 -49.5t-24.5 -20.5q-6 0 -10 2l-86 45q-12 6 -12 14q0 25 22.5 55.5t63.5 58.5t99 46.5t132 18.5q166 0 262 -90.5t96 -239.5v-572z" />
<glyph unicode="&#xe3;" horiz-adv-x="929" d="M647 373q0 20 -20 20h-271q-51 0 -85.5 -34.5t-34.5 -86.5v-32q0 -51 35.5 -87t84.5 -36h82q123 0 207 176l2 43v37zM786 20q0 -20 -20 -20h-76q-20 0 -20 20v89q0 25 -17 24q-16 0 -43.5 -28.5t-77.5 -69.5q-20 -16 -46.5 -25.5t-47.5 -9.5h-82q-117 0 -187.5 67.5 t-70.5 172.5v12q0 104 71 170.5t187 66.5h271q20 0 20 21l-2 82q-2 92 -62.5 152.5t-154.5 60.5q-80 0 -137 -53q-33 -29 -47.5 -49.5t-24.5 -20.5q-6 0 -10 2l-86 45q-12 6 -12 14q0 25 22.5 55.5t63.5 58.5t99 46.5t132 18.5q166 0 262 -90.5t96 -239.5v-572zM723 1186 q10 -10 10 -15q0 -12 -14.5 -34.5t-38 -45t-53 -39t-60.5 -16.5q-61 0 -127 54l-41 26q-49 31 -86 31q-25 0 -44.5 -9.5t-33.5 -20.5t-24.5 -20.5t-16.5 -9.5q-10 0 -14 5l-21 14q-8 8 -8 16q0 6 2 11q72 121 166 120q31 0 57.5 -12t57.5 -35l43 -32q16 -12 41.5 -21.5 t48.5 -9.5q25 0 45 9t35.5 21.5l26 21.5t16.5 9q10 0 14 -4z" />
<glyph unicode="&#xe4;" horiz-adv-x="929" d="M647 373q0 20 -20 20h-271q-51 0 -85.5 -34.5t-34.5 -86.5v-32q0 -51 35.5 -87t84.5 -36h82q123 0 207 176l2 43v37zM786 20q0 -20 -20 -20h-76q-20 0 -20 20v89q0 25 -17 24q-16 0 -43.5 -28.5t-77.5 -69.5q-20 -16 -46.5 -25.5t-47.5 -9.5h-82q-117 0 -187.5 67.5 t-70.5 172.5v12q0 104 71 170.5t187 66.5h271q20 0 20 21l-2 82q-2 92 -62.5 152.5t-154.5 60.5q-80 0 -137 -53q-33 -29 -47.5 -49.5t-24.5 -20.5q-6 0 -10 2l-86 45q-12 6 -12 14q0 25 22.5 55.5t63.5 58.5t99 46.5t132 18.5q166 0 262 -90.5t96 -239.5v-572zM364 1153 q0 -41 -25.5 -66.5t-64.5 -25.5t-64.5 25.5t-25.5 66.5q0 39 24.5 63.5t65.5 24.5q39 0 64.5 -24.5t25.5 -63.5zM698 1153q0 -37 -27.5 -64.5t-64.5 -27.5q-39 0 -63.5 25.5t-24.5 66.5q0 39 24.5 63.5t63.5 24.5q41 0 66.5 -25.5t25.5 -62.5z" />
<glyph unicode="&#xe5;" horiz-adv-x="929" d="M532 1237q0 35 -23.5 56.5t-66.5 21.5q-86 0 -86 -78v-59q0 -37 22.5 -58.5t63.5 -21.5t65.5 22.5t24.5 57.5v59zM608 1178q0 -70 -45 -114t-121 -44t-119.5 43t-43.5 115v59q0 70 45 113t118 43q76 0 121 -43t45 -113v-59zM647 373q0 20 -20 20h-271q-51 0 -85.5 -34.5 t-34.5 -86.5v-32q0 -51 35.5 -87t84.5 -36h82q123 0 207 176l2 43v37zM786 20q0 -20 -20 -20h-76q-20 0 -20 20v89q0 25 -17 24q-16 0 -43.5 -28.5t-77.5 -69.5q-20 -16 -46.5 -25.5t-47.5 -9.5h-82q-117 0 -187.5 67.5t-70.5 172.5v12q0 104 71 170.5t187 66.5h271 q20 0 20 21l-2 82q-2 92 -62.5 152.5t-154.5 60.5q-37 0 -73 -13.5t-64 -41.5q-31 -29 -46.5 -48.5t-25.5 -19.5q-6 0 -10 2l-86 45q-12 6 -12 14q0 25 22.5 55.5t63.5 58.5t99 46.5t132 18.5q166 0 262 -90.5t96 -239.5v-572z" />
<glyph unicode="&#xe6;" horiz-adv-x="1513" d="M688 383q0 20 -20 20h-295q-51 0 -86 -34.5t-35 -85.5v-64q0 -51 36 -87t85 -36h106q123 0 207 176q0 16 1 27.5t1 15.5v68zM1264 592q0 43 -17.5 83t-46.5 69.5t-69.5 47t-86.5 17.5q-47 0 -86.5 -17.5t-68.5 -46t-45.5 -68.5t-16.5 -85v-29q0 -20 21 -20h395 q20 0 21 20v29zM1403 467q0 -20 -21 -21h-534q-20 0 -21 -20v-111q0 -45 16.5 -85t46.5 -69.5t68.5 -47t85.5 -17.5q78 0 138 56q33 31 48 50t23 19q6 0 11 -2l86 -43q14 -6 14 -16q0 -25 -22.5 -55.5t-64.5 -58.5t-101.5 -47t-131.5 -19q-68 0 -116.5 15t-75.5 38 q-59 51 -88 79.5t-39 28.5q-6 0 -26.5 -27.5t-65.5 -70.5q-29 -29 -71 -46t-83 -17h-106q-117 0 -187.5 67.5t-70.5 171.5v64q0 100 68.5 158.5t189.5 58.5h295q20 0 20 20v68q0 43 -17.5 83t-46 70.5t-69.5 49t-86 18.5q-39 0 -74 -15.5t-63 -41.5q-33 -29 -47.5 -49.5 t-24.5 -20.5q-6 0 -10 2l-86 45q-12 6 -12 14q0 25 22.5 55.5t63.5 59.5t100 48.5t131 19.5q61 0 112.5 -15.5t92.5 -42.5q43 -29 64.5 -47t27.5 -18t29.5 19.5t68.5 51.5q74 51 180 52q74 0 139.5 -27t115 -73t77 -106.5t27.5 -127.5v-125z" />
<glyph unicode="&#xe7;" horiz-adv-x="870" d="M774 176q12 -4 12 -16q0 -43 -63.5 -95.5t-187.5 -80.5l-52 -107q-4 -8 -4 -12q0 -10 13 -19q94 -55 94 -135v-18q0 -74 -52.5 -123t-138.5 -49h-73q-20 0 -21 20v33q0 20 21 20h73q41 0 70 29t29 70v18q0 51 -27 66.5t-72 29.5q-23 6 -22 17l4 12l67 144 q-158 12 -243.5 101t-85.5 234v277q0 154 95 244t259 90q72 0 130 -18.5t100 -45t65.5 -57.5t23.5 -55q0 -10 -14 -17l-86 -43q-4 -2 -8 -2q-8 0 -16 8l-43 41q-20 20 -43 37t-48.5 26t-60.5 9q-47 0 -87 -17.5t-68.5 -46t-45 -68.5t-16.5 -85v-277q0 -45 16.5 -85t46 -69.5 t68.5 -47t86 -17.5q76 0 135 56q33 31 48.5 50t25.5 19q6 0 10 -2z" />
<glyph unicode="&#xe8;" horiz-adv-x="937" d="M547 1055q6 -10 6 -19q0 -14 -23 -14l-55 4l-242 215q-10 10 -10 19q0 16 25 16h139l16 -8zM688 592q0 43 -17.5 83t-46 69.5t-69.5 47t-86 17.5q-47 0 -87 -17.5t-68.5 -46t-45 -68.5t-16.5 -85v-29q0 -20 20 -20h396q20 0 20 20v29zM827 467q0 -20 -20 -21h-535 q-20 0 -20 -20v-111q0 -45 16.5 -85t46 -69.5t68.5 -47t86 -17.5q76 0 135 56q33 31 48.5 50t25.5 19q6 0 10 -2l86 -43q12 -4 12 -16q0 -25 -22.5 -56.5t-64.5 -59.5t-100 -46t-130 -18q-164 0 -259 91t-95 244v277q0 57 24.5 116.5t71.5 108.5q102 109 258 109 q74 0 139.5 -28t114.5 -74t76.5 -106.5t27.5 -125.5v-125z" />
<glyph unicode="&#xe9;" horiz-adv-x="937" d="M688 592q0 43 -17.5 83t-46 69.5t-69.5 47t-86 17.5q-47 0 -87 -17.5t-68.5 -46t-45 -68.5t-16.5 -85v-29q0 -20 20 -20h396q20 0 20 20v29zM827 467q0 -20 -20 -21h-535q-20 0 -20 -20v-111q0 -45 16.5 -85t46 -69.5t68.5 -47t86 -17.5q76 0 135 56q33 31 48.5 50 t25.5 19q6 0 10 -2l86 -43q12 -4 12 -16q0 -25 -22.5 -56.5t-64.5 -59.5t-100 -46t-130 -18q-164 0 -259 91t-95 244v277q0 57 24.5 116.5t71.5 108.5q102 109 258 109q74 0 139.5 -28t114.5 -74t76.5 -106.5t27.5 -125.5v-125zM469 1026l-53 -4q-23 0 -23 14q0 8 6 19 l144 213l16 8h139q25 0 25 -16q0 -8 -10 -19z" />
<glyph unicode="&#xea;" horiz-adv-x="937" d="M684 1053q6 -10 6 -17q0 -16 -22 -16h-72l-16 8l-91 127q-8 10 -16 10t-16 -10l-97 -127l-16 -8h-70q-23 0 -22 16q0 6 6 17l164 215l16 8h64l16 -8zM688 592q0 43 -17.5 83t-46 69.5t-69.5 47t-86 17.5q-47 0 -87 -17.5t-68.5 -46t-45 -68.5t-16.5 -85v-29q0 -20 20 -20 h396q20 0 20 20v29zM827 467q0 -20 -20 -21h-535q-20 0 -20 -20v-111q0 -45 16.5 -85t46 -69.5t68.5 -47t86 -17.5q76 0 135 56q33 31 48.5 50t25.5 19q6 0 10 -2l86 -43q12 -4 12 -16q0 -25 -22.5 -56.5t-64.5 -59.5t-100 -46t-130 -18q-164 0 -259 91t-95 244v277 q0 57 24.5 116.5t71.5 108.5q102 109 258 109q74 0 139.5 -28t114.5 -74t76.5 -106.5t27.5 -125.5v-125z" />
<glyph unicode="&#xeb;" horiz-adv-x="937" d="M688 592q0 43 -17.5 83t-46 69.5t-69.5 47t-86 17.5q-47 0 -87 -17.5t-68.5 -46t-45 -68.5t-16.5 -85v-29q0 -20 20 -20h396q20 0 20 20v29zM827 467q0 -20 -20 -21h-535q-20 0 -20 -20v-111q0 -45 16.5 -85t46 -69.5t68.5 -47t86 -17.5q76 0 135 56q33 31 48.5 50 t25.5 19q6 0 10 -2l86 -43q12 -4 12 -16q0 -25 -22.5 -56.5t-64.5 -59.5t-100 -46t-130 -18q-164 0 -259 91t-95 244v277q0 57 24.5 116.5t71.5 108.5q102 109 258 109q74 0 139.5 -28t114.5 -74t76.5 -106.5t27.5 -125.5v-125zM393 1153q0 -41 -25.5 -66.5t-64.5 -25.5 t-64.5 25.5t-25.5 66.5q0 39 24.5 63.5t65.5 24.5q39 0 64.5 -24.5t25.5 -63.5zM727 1153q0 -37 -27.5 -64.5t-64.5 -27.5q-39 0 -63.5 25.5t-24.5 66.5q0 39 24.5 63.5t63.5 24.5q41 0 66.5 -25.5t25.5 -62.5z" />
<glyph unicode="&#xec;" horiz-adv-x="428" d="M291 1055q6 -10 6 -19q0 -14 -23 -14l-55 4l-242 215q-10 10 -10 19q0 16 25 16h139l16 -8zM285 20q0 -20 -21 -20h-98q-20 0 -21 20v865q0 20 21 20h98q20 0 21 -20v-865z" />
<glyph unicode="&#xed;" horiz-adv-x="428" d="M285 20q0 -20 -21 -20h-98q-20 0 -21 20v865q0 20 21 20h98q20 0 21 -20v-865zM213 1026l-53 -4q-23 0 -23 14q0 8 6 19l144 213l16 8h139q25 0 25 -16q0 -8 -10 -19z" />
<glyph unicode="&#xee;" horiz-adv-x="428" d="M428 1053q6 -10 6 -17q0 -16 -22 -16h-72l-16 8l-91 127q-8 10 -16 10t-16 -10l-97 -127l-16 -8h-70q-23 0 -22 16q0 6 6 17l164 215l16 8h64l16 -8zM285 20q0 -20 -21 -20h-98q-20 0 -21 20v865q0 20 21 20h98q20 0 21 -20v-865z" />
<glyph unicode="&#xef;" horiz-adv-x="428" d="M285 20q0 -20 -21 -20h-98q-20 0 -21 20v865q0 20 21 20h98q20 0 21 -20v-865zM137 1153q0 -41 -25.5 -66.5t-64.5 -25.5t-64.5 25.5t-25.5 66.5q0 39 24.5 63.5t65.5 24.5q39 0 64.5 -24.5t25.5 -63.5zM471 1153q0 -37 -27.5 -64.5t-64.5 -27.5q-39 0 -63.5 25.5 t-24.5 66.5q0 39 24.5 63.5t63.5 24.5q41 0 66.5 -25.5t25.5 -62.5z" />
<glyph unicode="&#xf0;" d="M741 401q0 43 -17 83t-46 70t-70 47t-86 17q-47 0 -87 -17t-68.5 -46t-45 -69t-16.5 -85v-86q0 -45 17.5 -85t46 -69.5t68.5 -47t85 -17.5t86 17.5t70 48.5t46 70.5t17 82.5v86zM1018 1237q4 -4 4 -12q0 -10 -8 -17l-140 -98q-8 -8 -8 -20q0 -10 7.5 -38t7.5 -77v-660 q0 -152 -97.5 -243.5t-261.5 -91.5q-162 0 -258 91t-96 244v86q0 72 24.5 133.5t67.5 105.5t101.5 69.5t125.5 25.5q37 0 65 -7t44 -17q55 -37 84 -70t45 -33t16 23v348q0 23 -16 22q-8 0 -16 -6l-144 -102q-4 -4 -12 -4q-10 0 -16 10l-19 29q-4 8 -4 12q0 8 8 14l172 119 q10 6 11 14q0 12 -14.5 31t-39 35t-58.5 27.5t-71 11.5q-90 0 -145 -55q-29 -29 -41 -47.5t-21 -18.5q-6 0 -10 2l-86 43q-14 6 -14 14q0 25 22.5 57t63.5 59.5t100.5 46t130.5 18.5q133 0 211 -60q43 -35 64.5 -56t31.5 -21q6 0 13 6l129 88q8 6 14 6q8 0 14 -10z" />
<glyph unicode="&#xf1;" horiz-adv-x="1003" d="M860 20q0 -20 -20 -20h-99q-20 0 -20 20v551q0 43 -17.5 83t-46 70t-69.5 47t-86 17q-47 0 -87 -17t-69 -46t-45 -69t-16 -85v-551q0 -20 -21 -20h-98q-20 0 -21 20v865q0 20 21 20h76q20 0 20 -20v-82q0 -23 17 -23q10 0 24 14l37 33q35 29 70.5 53.5t109.5 24.5 q72 0 133.5 -24.5t107.5 -68.5t72.5 -105.5t26.5 -135.5v-551zM785 1186q10 -10 10 -15q0 -12 -14.5 -34.5t-38 -45t-53 -39t-60.5 -16.5q-61 0 -127 54l-41 26q-49 31 -86 31q-25 0 -44.5 -9.5t-33.5 -20.5t-24.5 -20.5t-16.5 -9.5q-10 0 -14 5l-21 14q-8 8 -8 16q0 6 2 11 q72 121 166 120q31 0 57.5 -12t57.5 -35l43 -32q16 -12 41.5 -21.5t48.5 -9.5q25 0 45 9t35.5 21.5l26 21.5t16.5 9q10 0 14 -4z" />
<glyph unicode="&#xf2;" horiz-adv-x="937" d="M547 1055q6 -10 6 -19q0 -14 -23 -14l-55 4l-242 215q-10 10 -10 19q0 16 25 16h139l16 -8zM688 592q0 43 -17.5 83t-46 69.5t-69.5 47t-86 17.5q-47 0 -87 -17.5t-68.5 -46t-45 -68.5t-16.5 -85v-277q0 -45 16.5 -85t46 -69.5t68.5 -47t86 -17.5q45 0 86 17.5t69.5 47 t46 69.5t17.5 85v277zM827 315q0 -152 -97 -243.5t-261 -91.5t-259 91t-95 244v277q0 154 95 244t259 90q82 0 147.5 -24.5t112.5 -69t72.5 -105.5t25.5 -135v-277z" />
<glyph unicode="&#xf3;" horiz-adv-x="937" d="M688 592q0 43 -17.5 83t-46 69.5t-69.5 47t-86 17.5q-47 0 -87 -17.5t-68.5 -46t-45 -68.5t-16.5 -85v-277q0 -45 16.5 -85t46 -69.5t68.5 -47t86 -17.5q45 0 86 17.5t69.5 47t46 69.5t17.5 85v277zM827 315q0 -152 -97 -243.5t-261 -91.5t-259 91t-95 244v277 q0 154 95 244t259 90q82 0 147.5 -24.5t112.5 -69t72.5 -105.5t25.5 -135v-277zM469 1026l-53 -4q-23 0 -23 14q0 8 6 19l144 213l16 8h139q25 0 25 -16q0 -8 -10 -19z" />
<glyph unicode="&#xf4;" horiz-adv-x="937" d="M684 1053q6 -10 6 -17q0 -16 -22 -16h-72l-16 8l-91 127q-8 10 -16 10t-16 -10l-97 -127l-16 -8h-70q-23 0 -22 16q0 6 6 17l164 215l16 8h64l16 -8zM688 592q0 43 -17.5 83t-46 69.5t-69.5 47t-86 17.5q-47 0 -87 -17.5t-68.5 -46t-45 -68.5t-16.5 -85v-277 q0 -45 16.5 -85t46 -69.5t68.5 -47t86 -17.5q45 0 86 17.5t69.5 47t46 69.5t17.5 85v277zM827 315q0 -152 -97 -243.5t-261 -91.5t-259 91t-95 244v277q0 154 95 244t259 90q82 0 147.5 -24.5t112.5 -69t72.5 -105.5t25.5 -135v-277z" />
<glyph unicode="&#xf5;" horiz-adv-x="937" d="M688 592q0 43 -17.5 83t-46 69.5t-69.5 47t-86 17.5q-47 0 -87 -17.5t-68.5 -46t-45 -68.5t-16.5 -85v-277q0 -45 16.5 -85t46 -69.5t68.5 -47t86 -17.5q45 0 86 17.5t69.5 47t46 69.5t17.5 85v277zM827 315q0 -152 -97 -243.5t-261 -91.5t-259 91t-95 244v277 q0 154 95 244t259 90q82 0 147.5 -24.5t112.5 -69t72.5 -105.5t25.5 -135v-277zM752 1186q10 -10 10 -15q0 -12 -14.5 -34.5t-38 -45t-53 -39t-60.5 -16.5q-61 0 -127 54l-41 26q-49 31 -86 31q-25 0 -44.5 -9.5t-33.5 -20.5t-24.5 -20.5t-16.5 -9.5q-10 0 -14 5l-21 14 q-8 8 -8 16q0 6 2 11q72 121 166 120q31 0 57.5 -12t57.5 -35l43 -32q16 -12 41.5 -21.5t48.5 -9.5q25 0 45 9t35.5 21.5l26 21.5t16.5 9q10 0 14 -4z" />
<glyph unicode="&#xf6;" horiz-adv-x="937" d="M688 592q0 43 -17.5 83t-46 69.5t-69.5 47t-86 17.5q-47 0 -87 -17.5t-68.5 -46t-45 -68.5t-16.5 -85v-277q0 -45 16.5 -85t46 -69.5t68.5 -47t86 -17.5q45 0 86 17.5t69.5 47t46 69.5t17.5 85v277zM827 315q0 -152 -97 -243.5t-261 -91.5t-259 91t-95 244v277 q0 154 95 244t259 90q82 0 147.5 -24.5t112.5 -69t72.5 -105.5t25.5 -135v-277zM393 1153q0 -41 -25.5 -66.5t-64.5 -25.5t-64.5 25.5t-25.5 66.5q0 39 24.5 63.5t65.5 24.5q39 0 64.5 -24.5t25.5 -63.5zM727 1153q0 -37 -27.5 -64.5t-64.5 -27.5q-39 0 -63.5 25.5 t-24.5 66.5q0 39 24.5 63.5t63.5 24.5q41 0 66.5 -25.5t25.5 -62.5z" />
<glyph unicode="&#xf7;" horiz-adv-x="1705" d="M854 365q45 0 76 -31t31 -76q0 -43 -30 -74.5t-77 -31.5q-45 0 -75.5 30.5t-30.5 75.5t31.5 76t74.5 31zM1452 561h-1198v98h1198v-98zM854 1071q45 0 76 -31.5t31 -76.5q0 -43 -30 -75t-77 -32t-76.5 31t-29.5 76t31.5 76.5t74.5 31.5z" />
<glyph unicode="&#xf8;" horiz-adv-x="937" d="M545 772q2 4 2 10q0 27 -78 27q-47 0 -87 -17.5t-68.5 -46t-45 -68.5t-16.5 -85v-277q0 -49 14.5 -77.5t24.5 -28.5q12 0 18 16zM688 592q0 57 -20.5 94t-34.5 37q-10 0 -17 -16l-239 -566q0 -2 -1 -4t-1 -4q0 -12 14 -18q43 -18 80 -19q45 0 86 17.5t69.5 47t46 69.5 t17.5 85v277zM827 315q0 -152 -97 -243.5t-261 -91.5t-259 91t-95 244v277q0 154 95 244t259 90q82 0 147.5 -24.5t112.5 -69t72.5 -105.5t25.5 -135v-277z" />
<glyph unicode="&#xf9;" horiz-adv-x="980" d="M567 1055q6 -10 6 -19q0 -14 -22 -14l-55 4l-242 215q-10 10 -10 19q0 16 24 16h140l16 -8zM838 20q0 -20 -21 -20h-76q-20 0 -20 20v89q0 23 -16 22q-14 0 -31 -20.5t-45 -49.5q-66 -61 -170 -61q-70 0 -131.5 24.5t-106.5 68.5t-70.5 106.5t-25.5 136.5v549q0 20 20 20 h97q20 0 20 -20v-549q0 -45 17.5 -85t46 -69.5t68.5 -47t85 -17.5q47 0 88 17.5t71 47t46 69.5t16 85v549q0 20 21 20h96q20 0 21 -20v-865z" />
<glyph unicode="&#xfa;" horiz-adv-x="980" d="M838 20q0 -20 -21 -20h-76q-20 0 -20 20v89q0 23 -16 22q-14 0 -31 -20.5t-45 -49.5q-66 -61 -170 -61q-70 0 -131.5 24.5t-106.5 68.5t-70.5 106.5t-25.5 136.5v549q0 20 20 20h97q20 0 20 -20v-549q0 -45 17.5 -85t46 -69.5t68.5 -47t85 -17.5q47 0 88 17.5t71 47 t46 69.5t16 85v549q0 20 21 20h96q20 0 21 -20v-865zM490 1026l-53 -4q-23 0 -23 14q0 8 6 19l144 213l16 8h139q25 0 25 -16q0 -8 -10 -19z" />
<glyph unicode="&#xfb;" horiz-adv-x="980" d="M705 1053q6 -10 6 -17q0 -16 -23 -16h-72l-16 8l-90 127q-8 10 -16 10t-17 -10l-96 -127l-16 -8h-70q-23 0 -23 16q0 6 7 17l163 215l17 8h63l17 -8zM838 20q0 -20 -21 -20h-76q-20 0 -20 20v89q0 23 -16 22q-14 0 -31 -20.5t-45 -49.5q-66 -61 -170 -61 q-70 0 -131.5 24.5t-106.5 68.5t-70.5 106.5t-25.5 136.5v549q0 20 20 20h97q20 0 20 -20v-549q0 -45 17.5 -85t46 -69.5t68.5 -47t85 -17.5q47 0 88 17.5t71 47t46 69.5t16 85v549q0 20 21 20h96q20 0 21 -20v-865z" />
<glyph unicode="&#xfc;" horiz-adv-x="980" d="M838 20q0 -20 -21 -20h-76q-20 0 -20 20v89q0 23 -16 22q-14 0 -31 -20.5t-45 -49.5q-66 -61 -170 -61q-70 0 -131.5 24.5t-106.5 68.5t-70.5 106.5t-25.5 136.5v549q0 20 20 20h97q20 0 20 -20v-549q0 -45 17.5 -85t46 -69.5t68.5 -47t85 -17.5q47 0 88 17.5t71 47 t46 69.5t16 85v549q0 20 21 20h96q20 0 21 -20v-865zM414 1153q0 -41 -25.5 -66.5t-64.5 -25.5t-64.5 25.5t-25.5 66.5q0 39 24.5 63.5t65.5 24.5q39 0 64.5 -24.5t25.5 -63.5zM748 1153q0 -37 -27.5 -64.5t-64.5 -27.5q-39 0 -63.5 25.5t-24.5 66.5q0 39 24.5 63.5 t63.5 24.5q41 0 66.5 -25.5t25.5 -62.5z" />
<glyph unicode="&#xfd;" horiz-adv-x="980" d="M838 -123q0 -168 -95.5 -263t-263.5 -95q-72 0 -130 18.5t-99 46t-63.5 59t-22.5 56.5q0 12 12 16l86 43q4 2 10 2q4 0 15 -10q43 -47 84 -81t108 -34q47 0 88 17.5t71 47.5t46 70t16 85v243q0 23 -16 23q-10 0 -23.5 -13.5t-35.5 -33.5l-33 -28q-16 -13 -34.5 -23.5 t-43.5 -16.5t-57 -6q-68 0 -128.5 24.5t-105.5 68.5t-71.5 106.5t-26.5 136.5v549q0 20 20 20h97q20 0 20 -20v-549q0 -45 17.5 -85t46 -69.5t68.5 -47t85 -17.5q47 0 88 17.5t71 47t46 69.5t16 85v549q0 20 21 20h96q20 0 21 -20v-1008zM490 1026l-53 -4q-23 0 -23 14 q0 8 6 19l144 213l16 8h139q25 0 25 -16q0 -8 -10 -19z" />
<glyph unicode="&#xfe;" horiz-adv-x="970" d="M721 571q0 43 -17.5 83t-46 70t-69.5 47t-86 17q-47 0 -87 -17t-69 -46t-45 -69t-16 -85v-235q0 -45 16 -85t46 -69.5t69 -47t86 -17.5q45 0 86 17.5t69.5 47t46 69.5t17.5 85v235zM860 336q0 -137 -98 -242q-90 -94 -219 -94q-39 0 -69 8t-46 19q-53 35 -83 67.5 t-46 32.5q-14 0 -14 -25v-542q0 -20 -21 -21h-98q-20 0 -21 21v1708q0 20 21 20h98q20 0 21 -20v-465q0 -23 16 -23q10 0 25.5 13.5t35.5 33.5l32 29q15 14 35 24.5t45.5 17.5t64.5 7q49 0 105 -24.5t104.5 -68.5t80 -105.5t31.5 -135.5v-235z" />
<glyph unicode="&#xff;" horiz-adv-x="980" d="M412 1153q0 -41 -26 -66.5t-64 -25.5q-39 0 -65 25.5t-26 66.5q0 39 25 63.5t66 24.5q39 0 64.5 -24.5t25.5 -63.5zM745 1153q0 -37 -27.5 -64.5t-64.5 -27.5q-39 0 -63.5 25.5t-24.5 66.5q0 39 24.5 63.5t63.5 24.5q41 0 66.5 -25.5t25.5 -62.5zM838 -123 q0 -168 -95.5 -263t-263.5 -95q-72 0 -130 18.5t-99 46t-63.5 59t-22.5 56.5q0 12 12 16l86 43q4 2 10 2q4 0 15 -10q43 -47 84 -81t108 -34q47 0 88 17.5t71 47.5t46 70t16 85v243q0 23 -16 23q-10 0 -23.5 -13.5t-35.5 -33.5l-33 -28q-16 -13 -34.5 -23.5t-43.5 -16.5 t-57 -6q-68 0 -128.5 24.5t-105.5 68.5t-71.5 106.5t-26.5 136.5v549q0 20 20 20h97q20 0 20 -20v-549q0 -45 17.5 -85t46 -69.5t68.5 -47t85 -17.5q47 0 88 17.5t71 47t46 69.5t16 85v549q0 20 21 20h96q20 0 21 -20v-1008z" />
<glyph unicode="&#x131;" horiz-adv-x="428" d="M285 20q0 -20 -21 -20h-98q-20 0 -21 20v865q0 20 21 20h98q20 0 21 -20v-865z" />
<glyph unicode="&#x152;" horiz-adv-x="1589" d="M774 975q0 45 -17.5 85t-46 68.5t-69.5 46t-86 17.5h-63q-47 0 -86 -16.5t-69 -46t-46.5 -69.5t-16.5 -85v-660q0 -47 17.5 -87t46.5 -68.5t68.5 -46t85.5 -17.5h63q45 0 85 17.5t69.5 47t47 69.5t17.5 85v660zM1487 20q0 -20 -21 -20h-780q-59 -20 -131 -20h-63 q-164 0 -260.5 92t-96.5 243v660q0 152 96.5 244t260.5 92h63q66 0 133 -21l778 -2q20 0 21 -20v-76q0 -20 -21 -21h-577q-20 0 -21 -14q0 -23 22.5 -68t22.5 -114v-242q0 -20 21 -20h438q20 0 21 -21v-76q0 -20 -21 -20h-438q-20 0 -21 -21v-260q0 -35 -7 -63.5t-15 -51 t-15.5 -40t-7.5 -29.5q0 -14 21 -14h577q20 0 21 -21v-76z" />
<glyph unicode="&#x153;" horiz-adv-x="1513" d="M688 592q0 43 -17.5 83t-46 69.5t-69.5 47t-86 17.5q-47 0 -87 -17.5t-68.5 -46t-45 -68.5t-16.5 -85v-277q0 -45 16.5 -85t46 -69.5t68.5 -47t86 -17.5q45 0 86 17.5t69.5 47t46 69.5t17.5 85v277zM1264 592q0 43 -17.5 83t-46.5 69.5t-69.5 47t-86.5 17.5 q-143 0 -219 -174q2 -14 2 -25v-18v-29q0 -20 21 -20h395q20 0 21 20v29zM1403 467q0 -20 -21 -21h-534q-20 0 -21 -20v-111v-12q0 -10 -2 -31q86 -176 219 -176q78 0 138 56q33 31 48 50t23 19q6 0 11 -2l86 -43q14 -6 14 -16q0 -25 -22.5 -55.5t-64.5 -58.5t-101.5 -47 t-131.5 -19q-59 0 -103 11t-73 32q-51 35 -76.5 54t-33.5 19q-6 0 -31 -19.5t-74 -51.5q-72 -45 -184 -45q-164 0 -259 91t-95 244v277q0 154 95 244t259 90q121 0 195 -47q47 -31 71.5 -50.5t32.5 -19.5q10 0 23.5 12.5t39.5 28.5q39 27 83 51.5t130 24.5q74 0 139.5 -27 t115 -73t77 -106.5t27.5 -127.5v-125z" />
<glyph unicode="&#x178;" horiz-adv-x="917" d="M383 1538q0 -41 -25.5 -66.5t-64.5 -25.5t-64.5 25.5t-25.5 66.5q0 39 24.5 63.5t65.5 24.5q39 0 64.5 -24.5t25.5 -63.5zM717 1538q0 -37 -27.5 -64.5t-64.5 -27.5q-39 0 -63.5 25.5t-24.5 66.5q0 39 24.5 63.5t63.5 24.5q41 0 66.5 -25.5t25.5 -62.5zM528 596v-576 q0 -20 -20 -20h-100q-20 0 -21 20v576l-350 661q-4 6 -4 15q0 16 22 16h117l18 -12l252 -516q6 -14 19 -15q12 0 18 15l248 516l18 12h117q23 0 23 -16q0 -2 -4 -15z" />
<glyph unicode="&#x2c6;" horiz-adv-x="1024" d="M727 1053q6 -10 6 -17q0 -16 -22 -16h-72l-16 8l-91 127q-8 10 -16 10t-16 -10l-97 -127l-16 -8h-70q-23 0 -22 16q0 6 6 17l164 215l16 8h64l16 -8z" />
<glyph unicode="&#x2dc;" horiz-adv-x="1024" d="M793 1186q10 -10 10 -15q0 -12 -14.5 -34.5t-38 -45t-53 -39t-60.5 -16.5q-61 0 -127 54l-41 26q-49 31 -86 31q-25 0 -44.5 -9.5t-33.5 -20.5t-24.5 -20.5t-16.5 -9.5q-10 0 -14 5l-21 14q-8 8 -8 16q0 6 2 11q72 121 166 120q31 0 57.5 -12t57.5 -35l43 -32 q16 -12 41.5 -21.5t48.5 -9.5q25 0 45 9t35.5 21.5l26 21.5t16.5 9q10 0 14 -4z" />
<glyph unicode="&#x2000;" horiz-adv-x="876" />
<glyph unicode="&#x2001;" horiz-adv-x="1753" />
<glyph unicode="&#x2002;" horiz-adv-x="876" />
<glyph unicode="&#x2003;" horiz-adv-x="1753" />
<glyph unicode="&#x2004;" horiz-adv-x="583" />
<glyph unicode="&#x2005;" horiz-adv-x="438" />
<glyph unicode="&#x2006;" horiz-adv-x="290" />
<glyph unicode="&#x2007;" horiz-adv-x="290" />
<glyph unicode="&#x2008;" horiz-adv-x="219" />
<glyph unicode="&#x2009;" horiz-adv-x="350" />
<glyph unicode="&#x200a;" horiz-adv-x="96" />
<glyph unicode="&#x2010;" horiz-adv-x="534" d="M434 403q0 -20 -20 -20h-291q-20 0 -21 20v99q0 20 21 20h291q20 0 20 -20v-99z" />
<glyph unicode="&#x2011;" horiz-adv-x="534" d="M434 403q0 -20 -20 -20h-291q-20 0 -21 20v99q0 20 21 20h291q20 0 20 -20v-99z" />
<glyph unicode="&#x2012;" horiz-adv-x="534" d="M434 403q0 -20 -20 -20h-291q-20 0 -21 20v99q0 20 21 20h291q20 0 20 -20v-99z" />
<glyph unicode="&#x2013;" d="M1008 457q0 -20 -21 -21h-928q-20 0 -20 21v55q0 20 20 20h928q20 0 21 -20v-55z" />
<glyph unicode="&#x2014;" horiz-adv-x="1619" d="M1583 457q0 -20 -20 -21h-1504q-20 0 -20 21v55q0 20 20 20h1504q20 0 20 -20v-55z" />
<glyph unicode="&#x2018;" horiz-adv-x="335" d="M268 1339q2 -4 2 -8q0 -6 -13 -19.5t-28.5 -37t-29 -60t-13.5 -90.5q0 -18 3.5 -25t17.5 -7h24q20 0 21 -21v-110q0 -20 -21 -21h-129q-20 0 -20 21v108q0 74 16.5 132.5t40 98t51 61t50.5 21.5q8 0 14 -12z" />
<glyph unicode="&#x2019;" horiz-adv-x="335" d="M256 1171q0 -76 -16.5 -133t-41 -96t-51 -58.5t-45.5 -19.5q-8 0 -14 13l-16 28q-2 4 -2 10q0 8 8 17q76 84 76 168q0 47 -23 47h-25q-20 0 -20 20v111q0 20 20 20h130q20 0 20 -20v-107z" />
<glyph unicode="&#x201a;" horiz-adv-x="335" d="M256 63q0 -74 -16.5 -132t-40 -98t-50 -60.5t-47.5 -20.5q-10 0 -14 10l-16 31q-4 8 -4 12q0 8 10 15q76 84 76 170q0 49 -23 49h-25q-20 0 -20 20v111q0 20 20 20h130q20 0 20 -20v-107z" />
<glyph unicode="&#x201c;" horiz-adv-x="600" d="M268 1339q2 -4 2 -8q0 -6 -13 -19.5t-28.5 -37t-29 -60t-13.5 -90.5q0 -18 3.5 -25t17.5 -7h24q20 0 21 -21v-110q0 -20 -21 -21h-129q-20 0 -20 21v108q0 74 16.5 132.5t40 98t51 61t50.5 21.5q8 0 14 -12zM530 1339q2 -2 2 -14q0 -16 -9 -29.5t-21 -24.5l-24 -22 q-11 -10 -13 -22q-10 -35 -13 -61.5t-3 -43.5q0 -31 20 -30h25q20 0 20 -21v-110q0 -20 -20 -21h-127q-20 0 -21 21v108q0 74 16.5 132.5t39 98t49 61t49.5 21.5q6 0 14 -12z" />
<glyph unicode="&#x201d;" horiz-adv-x="600" d="M256 1171q0 -76 -16.5 -133t-41 -96t-51 -58.5t-45.5 -19.5q-8 0 -14 13l-16 28q-2 4 -2 10q0 8 8 17q76 84 76 168q0 47 -23 47h-25q-20 0 -20 20v111q0 20 20 20h130q20 0 20 -20v-107zM520 1171q0 -74 -16.5 -131t-39 -96t-49 -59.5t-46.5 -20.5q-6 0 -15 13l-18 28 q-4 8 -4 15q0 6 13 19t29.5 36.5t30 54.5t13.5 70q0 47 -23 47h-24q-20 0 -21 20v111q0 20 21 20h129q20 0 20 -20v-107z" />
<glyph unicode="&#x201e;" horiz-adv-x="600" d="M256 63q0 -74 -16.5 -132t-40 -98t-50 -60.5t-47.5 -20.5q-10 0 -14 10l-16 31q-4 8 -4 12q0 8 10 15q76 84 76 170q0 49 -23 49h-25q-20 0 -20 20v111q0 20 20 20h130q20 0 20 -20v-107zM520 63q0 -72 -15.5 -130t-38 -98t-49 -61.5t-48.5 -21.5q-8 0 -15 12l-18 29 q-4 8 -4 14t13 19.5t28.5 37t29 58.5t13.5 84q0 33 -21 33h-24q-20 0 -21 20v111q0 20 21 20h129q20 0 20 -20v-107z" />
<glyph unicode="&#x2022;" horiz-adv-x="897" d="M745 625q0 -123 -78.5 -198t-213.5 -75h-9q-135 0 -213.5 75t-78.5 198v43q0 123 78.5 196.5t213.5 73.5h9q135 0 213.5 -73.5t78.5 -196.5v-43z" />
<glyph unicode="&#x2026;" horiz-adv-x="907" d="M848 176q12 -6 12 -18q0 -27 -22.5 -58.5t-63.5 -58.5t-99.5 -44t-129.5 -17h-64q-166 0 -262 94t-96 258v53q0 84 51 155.5t143 110.5v8q-98 41 -146 105.5t-48 146.5v43q0 164 96 260.5t262 96.5h64q72 0 130 -18.5t100 -46t64.5 -59.5t22.5 -57q0 -8 -12 -14l-86 -45 q-4 -2 -10 -2t-10 3l-7 7q-43 47 -83 80t-109 33h-64q-47 0 -87 -17.5t-68.5 -46t-46 -68.5t-17.5 -85v-41q0 -47 17.5 -87t46 -69.5t68.5 -47t87 -17.5h144q20 0 20 -21v-76q0 -20 -20 -20h-144q-45 0 -85 -17.5t-69.5 -47t-47 -68.5t-17.5 -84v-64q0 -45 17.5 -85 t47 -69.5t69.5 -47t85 -17.5h64q39 0 76.5 15.5t64.5 40.5q29 29 42 49t24 20q6 0 10 -2z" />
<glyph unicode="&#x202f;" horiz-adv-x="350" />
<glyph unicode="&#x2039;" horiz-adv-x="665" d="M543 236q0 -23 -17 -23q-8 0 -16 6l-387 277l-8 16v113l8 16l387 277q8 6 16 6q16 0 17 -23v-86l-8 -16l-297 -213q-10 -8 -11 -17q0 -8 11 -16l297 -215l8 -16v-86z" />
<glyph unicode="&#x203a;" horiz-adv-x="665" d="M561 496l-391 -277q-10 -6 -16 -6q-16 0 -17 23v86l8 16l297 215q10 6 11 16q0 10 -11 17l-297 213l-8 16v86q0 23 17 23q6 0 16 -6l391 -277l8 -16v-113z" />
<glyph unicode="&#x205f;" horiz-adv-x="438" />
<glyph unicode="&#x2122;" horiz-adv-x="794" d="M299 1079q0 -20 -20 -20h-56q-20 0 -20 -21v-280q0 -20 -21 -21h-24q-20 0 -21 21v280q0 20 -20 21h-56q-20 0 -20 20v23q0 20 20 20h218q20 0 20 -20v-23zM733 758q0 -20 -20 -21h-25q-20 0 -20 21v147q0 25 -21 25q-8 0 -18 -15l-51 -84l-19 -10h-8l-16 10l-56 84 q-10 12 -20 13q-16 0 -17 -23v-147q0 -20 -20 -21h-25q-20 0 -20 21v344q0 20 20 20h25l18 -10l97 -166q10 -14 18 -14t18 14l97 166l18 10h25q20 0 20 -20v-344z" />
<glyph unicode="&#xe000;" horiz-adv-x="905" d="M0 905h905v-905h-905v905z" />
<glyph unicode="&#xfb01;" horiz-adv-x="993" d="M508 713q0 -20 -21 -21h-151q-20 0 -21 -20v-652q0 -20 -20 -20h-96q-20 0 -21 20v652q0 20 -20 20h-56q-20 0 -20 21v75q0 20 20 21h56q20 0 20 20v125q0 55 21.5 115.5t62.5 114.5q94 123 221 123q25 0 25 -21v-78q0 -10 -4 -13t-12 -7l-79 -39q-34 -16 -51 -39 q-47 -61 -47 -135v-146q0 -20 21 -20h151q20 0 21 -21v-75zM850 20q0 -20 -21 -20h-98q-20 0 -20 20v865q0 20 20 20h98q20 0 21 -20v-865zM870 1221q0 -37 -27.5 -65t-64.5 -28t-62.5 26t-25.5 67q0 37 26.5 63.5t61.5 26.5q41 0 66.5 -25.5t25.5 -64.5z" />
<glyph unicode="&#xfb02;" horiz-adv-x="999" d="M856 20q0 -20 -20 -20h-99q-20 0 -20 20v1131q0 20 -21 20h-164q-47 0 -85.5 -16t-68.5 -46t-46.5 -70t-16.5 -85v-125q0 -20 21 -20h151q20 0 21 -21v-75q0 -20 -21 -21h-151q-20 0 -21 -20v-652q0 -20 -20 -20h-96q-20 0 -21 20v652q0 20 -20 20h-56q-20 0 -20 21v75 q0 20 20 21h56q20 0 20 20v105q0 147 103 250q104 104 251 104h304q20 0 20 -20v-1248z" />
<glyph unicode="&#xfb03;" horiz-adv-x="1558" d="M1415 20q0 -20 -21 -20h-98q-20 0 -21 20v865q0 20 21 20h98q20 0 21 -20v-865zM1435 1221q0 -37 -26.5 -65t-65.5 -28q-37 0 -62.5 26t-25.5 67q0 37 26.5 63.5t61.5 26.5q41 0 66.5 -25.5t25.5 -64.5zM1153 1204l-19 -14q-16 0 -24 1t-13 1q-96 0 -156.5 -62.5 t-60.5 -154.5v-146q0 -20 21 -20h151q20 0 21 -21v-75q0 -20 -21 -21h-151q-20 0 -21 -20v-652q0 -20 -20 -20h-96q-20 0 -21 20v652q0 20 -20 20h-56q-20 0 -20 21v75q0 20 20 21h56q20 0 20 20v125q0 68 25.5 133.5t77.5 118.5q98 104 239 105q51 0 73.5 -2t22.5 -17 q0 -6 -2 -10zM588 1204l-19 -14q-16 0 -24 1t-13 1q-96 0 -156.5 -62.5t-60.5 -154.5v-146q0 -20 21 -20h151q20 0 21 -21v-75q0 -20 -21 -21h-151q-20 0 -21 -20v-652q0 -20 -20 -20h-96q-20 0 -21 20v652q0 20 -20 20h-56q-20 0 -20 21v75q0 20 20 21h56q20 0 20 20v125 q0 68 25.5 133.5t77.5 118.5q98 104 239 105q51 0 73.5 -2t22.5 -17q0 -6 -2 -10z" />
<glyph unicode="&#xfb04;" horiz-adv-x="1558" d="M1415 20q0 -20 -21 -20h-98q-20 0 -21 20v1248q0 20 21 20h98q20 0 21 -20v-1248zM1153 1204l-19 -14q-16 0 -24 1t-13 1q-96 0 -156.5 -62.5t-60.5 -154.5v-146q0 -20 21 -20h151q20 0 21 -21v-75q0 -20 -21 -21h-151q-20 0 -21 -20v-652q0 -20 -20 -20h-96 q-20 0 -21 20v652q0 20 -20 20h-56q-20 0 -20 21v75q0 20 20 21h56q20 0 20 20v125q0 68 25.5 133.5t77.5 118.5q98 104 239 105q51 0 73.5 -2t22.5 -17q0 -6 -2 -10zM588 1204l-19 -14q-16 0 -24 1t-13 1q-96 0 -156.5 -62.5t-60.5 -154.5v-146q0 -20 21 -20h151 q20 0 21 -21v-75q0 -20 -21 -21h-151q-20 0 -21 -20v-652q0 -20 -20 -20h-96q-20 0 -21 20v652q0 20 -20 20h-56q-20 0 -20 21v75q0 20 20 21h56q20 0 20 20v125q0 68 25.5 133.5t77.5 118.5q98 104 239 105q51 0 73.5 -2t22.5 -17q0 -6 -2 -10z" />
</font>
</defs>
</svg>
