<?xml version="1.0" standalone="no"?>
<!DOCTYPE svg PUBLIC "-//W3C//DTD SVG 1.1//EN" "http://www.w3.org/Graphics/SVG/1.1/DTD/svg11.dtd" >
<svg xmlns="http://www.w3.org/2000/svg">
<metadata>
This is a custom SVG webfont generated by Font Squirrel.
Copyright   : c Copyright 19951997 International Typeface Corporation  All rights reserved
Foundry     : International Typeface Corporation
</metadata>
<defs>
<font id="webfontEl5U6wZd" horiz-adv-x="1044" >
<font-face units-per-em="2048" ascent="1638" descent="-410" />
<missing-glyph horiz-adv-x="366" />
<glyph unicode=" "  horiz-adv-x="366" />
<glyph unicode="&#x09;" horiz-adv-x="366" />
<glyph unicode="&#xa0;" horiz-adv-x="366" />
<glyph unicode="!" horiz-adv-x="552" d="M322 111q0 -53 -40 -92t-96 -39q-43 0 -68.5 25.5t-25.5 66.5q0 53 40 93t95 40q41 0 68 -25.5t27 -68.5zM414 741l-107 -354q-6 -18 -22 -18h-56q-18 0 -18 18l18 354l93 529q6 20 24 20h143q16 0 17 -14v-6z" />
<glyph unicode="&#x22;" horiz-adv-x="634" d="M272 940q-6 -18 -24 -18h-55q-16 0 -17 18l14 328q0 23 25 22h139q18 0 19 -14q0 -2 -1 -4t-1 -4zM559 940q-6 -18 -24 -18h-56q-16 0 -16 18l14 328q0 23 25 22h139q18 0 18 -14q0 -2 -1 -4t-1 -4z" />
<glyph unicode="#" horiz-adv-x="1148" d="M735 733q0 2 1 3t1 3q0 18 -22 19h-230q-18 0 -20 -13l-53 -186q0 -2 -1 -4t-1 -4q0 -18 22 -19h232q14 0 20 17zM1040 778q-6 -20 -26 -20h-140q-18 0 -20 -13l-53 -186q0 -2 -1 -4t-1 -4q0 -18 22 -19h144q16 0 16 -12q0 -2 -1 -3t-1 -5l-33 -123q-6 -20 -26 -20h-156 q-18 0 -21 -13l-98 -342q-2 -14 -20 -14h-68q-23 0 -22 18q0 2 1 3.5t1 5.5l88 317q0 2 1 3t1 3q0 18 -23 19h-231q-18 0 -21 -13l-96 -342q-2 -14 -20 -14h-68q-23 0 -23 18q0 2 1 3.5t1 5.5l91 317q0 2 1 3t1 3q0 18 -23 19h-127q-16 0 -16 12q0 2 1 3t1 5l33 123 q6 20 26 20h139q14 0 21 17l53 184q0 2 1 3t1 3q0 18 -22 19h-144q-16 0 -16 12q0 2 1 3t1 5l33 123q6 20 26 21h158q14 0 21 16l96 338q6 14 20 14h68q23 0 22 -18q0 -2 -1 -4t-1 -4l-88 -316q0 -2 -1 -4t-1 -4q0 -18 23 -18h229q14 0 21 16l98 338q2 14 20 14h68 q23 0 23 -18q0 -2 -1.5 -4t-1.5 -4l-88 -316q0 -2 -1 -4t-1 -4q0 -18 23 -18h125q16 0 16 -13q0 -2 -1 -3t-1 -5z" />
<glyph unicode="$" d="M487 162q0 -14 17 -15q31 0 62.5 17.5t57 47.5t42 67.5t16.5 78.5q0 33 -13.5 62t-32 50.5t-37.5 33.5t-34 12q-16 0 -20 -22l-58 -326v-6zM563 1120q0 14 -8 15q-27 0 -56.5 -16.5t-54 -44t-40 -62.5t-15.5 -72q0 -29 11.5 -53.5t27.5 -43t33.5 -29.5t30.5 -11 q16 0 20 22l51 289v6zM692 1323q0 -12 11.5 -13t35.5 -7q117 -27 176.5 -83.5t59.5 -115.5q0 -10 -14 -17l-142 -65q-12 -4 -14 -4q-8 0 -17.5 17.5t-29.5 51.5q-16 25 -38 39.5t-42 14.5t-23 -21l-63 -360v-2q0 -16 32.5 -29.5t86.5 -46.5q162 -102 161 -266 q0 -133 -60 -233.5t-157 -139.5q-45 -18 -81 -29l-62 -17q-27 -7 -42 -14.5t-17 -21.5l-13 -63q-2 -20 -24 -21h-51q-16 0 -17 14v7l10 61q2 4 2 10t-12 11h-10q-68 0 -122 19t-91 50t-57.5 68t-20.5 71q0 10 14 17l140 65q4 2 10 2t16 -12q31 -51 56.5 -84t81.5 -33 q29 0 30 21l70 397q0 20 -29.5 33.5t-83.5 42.5q-72 41 -112.5 106.5t-40.5 137.5q0 131 60 231t163 145q76 33 125 40.5t53 29.5l12 66q2 20 25 20h51q16 0 17 -14v-6l-13 -64v-6z" />
<glyph unicode="%" d="M776 379q0 4 1 7t1 7q0 25 -16.5 41.5t-44.5 16.5q-33 0 -55.5 -20.5t-28.5 -51.5l-37 -205q0 -4 -1 -7t-1 -7q0 -25 16.5 -41.5t44.5 -16.5q33 0 55.5 20.5t28.5 51.5zM444 1116q0 4 1 7t1 7q0 25 -16 41.5t-45 16.5q-31 0 -54.5 -20.5t-29.5 -51.5l-37 -205 q-2 -6 -2 -14q0 -27 16.5 -42t45.5 -15q31 0 54 20.5t30 50.5zM852 174q-14 -78 -71.5 -126t-143.5 -48q-74 0 -116 37t-42 100q0 10 1 18.5t3 18.5l37 205q14 78 71.5 126t143.5 48q74 0 116 -38t42 -101q0 -8 -1 -16.5t-3 -18.5zM184 12q-10 -10 -20 -12h-49q-20 0 -21 12 q0 6 6 17l756 1249q8 8 21 12h49q18 0 18 -14q0 -8 -4 -14zM520 911q-14 -78 -71.5 -126t-143.5 -48q-74 0 -116 37t-42 100q0 10 1.5 18.5t3.5 18.5l36 205q14 78 71.5 126t143.5 48q74 0 116 -36.5t42 -102.5q0 -8 -1 -16.5t-3 -18.5z" />
<glyph unicode="&#x26;" horiz-adv-x="1269" d="M668 285q-53 90 -117 156.5t-143 113.5l-21 2q-113 -68 -129 -168l-10 -61q-2 -10 -2 -31q0 -66 43 -110t110 -44h62q109 0 205 123zM729 963q2 10 3 17t1 17q0 61 -44 105.5t-111 44.5q-43 0 -83 -18.5t-71 -48t-48.5 -68.5t-17.5 -80q0 -53 36 -101.5t108 -101.5 q190 49 219 193zM1212 573q-2 -20 -22 -20h-53q-37 0 -73 -14.5t-65.5 -39t-50 -58t-28.5 -72.5l-9 -41l4 -15q51 -70 106.5 -98.5t102.5 -48.5q14 -6 15 -21l-27 -143q-2 -20 -27 -20q-80 0 -150.5 34.5t-141.5 106.5q-10 6 -15 6q-6 0 -16 -10l-66 -58q-31 -27 -63 -41 q-49 -20 -98.5 -30t-102.5 -10h-61q-147 0 -228.5 74.5t-81.5 209.5q0 37 7 80l8 51q6 35 29.5 80t64.5 96q33 41 62.5 58.5t29.5 29.5q0 10 -11 25l-28 37l-38 60q-19 32 -19 91q0 92 32.5 172t91 139.5t139.5 93.5t177 34q147 0 228 -77t81 -216q0 -37 -6 -76l-6 -41 q-6 -41 -33.5 -89t-74.5 -95q-23 -23 -45.5 -37t-41 -23.5t-29.5 -16.5t-11 -15q0 -16 15 -28.5t32 -33.5q27 -29 42 -50t27 -21q4 0 19 18l73 98q32 45 78 70q104 59 230 59h37q18 0 18 -16v-4z" />
<glyph unicode="'" horiz-adv-x="348" d="M272 940q-6 -18 -24 -18h-55q-16 0 -17 18l14 328q0 23 25 22h139q18 0 19 -14q0 -2 -1 -4t-1 -4z" />
<glyph unicode="(" horiz-adv-x="737" d="M674 1350q-2 -12 -7 -14.5t-14 -6.5l-73 -31q-33 -14 -58.5 -34.5t-42 -48t-24.5 -68.5l-207 -1167q-2 -8 -2 -17v-16q0 -55 35.5 -95t103.5 -55q12 -6 12 -16v-4l-22 -123q-4 -14 -12.5 -17.5t-28.5 -3.5q-57 0 -107.5 20.5t-87.5 58.5t-57.5 91.5t-20.5 120.5 q0 35 7 76l198 1126q27 162 135 258q57 51 130 80t126 29q39 0 39 -14v-6z" />
<glyph unicode=")" horiz-adv-x="737" d="M436 0q-14 -84 -54 -151.5t-93 -115.5t-118 -74t-128 -26q-37 0 -37 15v6l23 123q2 10 7 13t13 7q39 14 72 29.5t58.5 35t43 47.5t25.5 71l207 1167q2 10 3 20.5t1 18.5q0 59 -39 86.5t-103 56.5q-12 6 -12 14v7l23 123q4 14 12 17t29 3q57 0 107 -20.5t87 -58.5 t57.5 -91t20.5 -121q0 -37 -6 -76z" />
<glyph unicode="*" horiz-adv-x="794" d="M827 1196q2 -4 2 -8q0 -14 -18 -21l-207 -84q-18 -6 -18 -18t12 -18l178 -82q12 -6 12 -15q0 -6 -6 -14l-69 -90q-8 -10 -19 -10q-10 0 -14 4l-150 116q-6 6 -14 7q-20 0 -20 -25l-13 -205q0 -23 -24 -22h-107q-18 0 -18 14q0 2 1 4t1 4l61 205q2 4 2 10q0 14 -14 15 q-6 0 -18 -7l-185 -116q-10 -6 -14 -6q-12 0 -14 12l-37 92q0 2 -1 4t-1 4q0 14 16 21l203 80q18 6 18 18t-12 18l-174 84q-10 6 -10 15q0 4 6 14l69 90q8 12 15 12q10 0 16 -6l141 -121q6 -6 17 -6q14 0 18 25l15 203q4 23 24 22h107q18 0 18 -14q0 -2 -1 -4t-1 -4 l-59 -203q0 -2 -1 -4t-1 -4q0 -16 16 -17q6 0 16 6l189 121q8 6 14 6q12 0 17 -12z" />
<glyph unicode="+" d="M915 451q-2 -20 -24 -21h-328q-23 0 -24 -20l-58 -328q-2 -20 -24 -21h-82q-16 0 -17 15v6l58 328v4q0 16 -17 16h-327q-16 0 -17 14v7l15 81q2 20 24 21h328q20 0 22 20l60 328q2 20 22 21h82q18 0 19 -17v-4l-60 -328v-4q0 -16 19 -16h327q16 0 17 -14v-7z" />
<glyph unicode="," horiz-adv-x="450" d="M256 201l-27 -143q-12 -62 -32 -109q-23 -49 -53.5 -89t-62.5 -68t-59.5 -43t-46.5 -15q-10 0 -14 14l-18 59v7q0 10 14 19t35 30q35 35 54.5 76t19.5 77q0 16 -17 17h-26q-18 0 -19 12q0 2 1 3t1 5l25 148q2 20 24 20h185q16 0 16 -14v-6z" />
<glyph unicode="-" horiz-adv-x="552" d="M412 389q-2 -20 -23 -20h-328q-18 0 -18 16v4l27 143q2 20 24 21h328q16 0 16 -14v-7z" />
<glyph unicode="." horiz-adv-x="450" d="M240 111q0 -53 -40 -92t-96 -39q-43 0 -68.5 25.5t-25.5 66.5q0 53 40 93t95 40q41 0 68 -25.5t27 -68.5z" />
<glyph unicode="/" horiz-adv-x="665" d="M20 16q-12 -16 -28 -16h-68q-29 0 -28 23q0 8 6 20l737 1231q12 16 29 16h67q29 0 29 -22q0 -8 -6 -21z" />
<glyph unicode="0" d="M791 963q2 8 2 16v16q0 63 -43 107.5t-111 44.5h-61q-78 0 -140.5 -53.5t-77.5 -130.5l-112 -635q-2 -8 -2 -17v-16q0 -66 43 -109t110 -43h62q78 0 140.5 53.5t76.5 131.5zM862 328q-14 -78 -51 -141.5t-93 -109.5t-129 -71.5t-157 -25.5h-61q-147 0 -230.5 74.5 t-83.5 201.5q0 35 6 72l113 635q14 78 51 142t93.5 110.5t129 71t156.5 24.5h62q147 0 230 -75t83 -202q0 -35 -6 -71z" />
<glyph unicode="1" d="M784 20q-2 -20 -24 -20h-635q-16 0 -16 14v6l20 123q6 20 25 21h204q23 0 25 20l131 740v6q0 16 -14 16q-10 0 -19 -8l-116 -100q-8 -8 -17 -9q-6 0 -12 9l-74 88q-6 6 -6 14q0 4 10 14l389 330l15 6h71q16 0 17 -14v-6l-191 -1086v-6q0 -14 17 -14h204q16 0 17 -14v-7z " />
<glyph unicode="2" d="M653 1311q147 0 230.5 -75t83.5 -198q0 -147 -81 -256.5t-247 -203.5l-141 -79q-66 -36 -115 -73t-81 -82t-40 -106l-8 -54v-6q0 -14 16 -14h512q16 0 17 -14v-7l-21 -123q-2 -20 -24 -20h-697q-16 0 -16 14v6l37 218q14 84 49 150.5t89 121.5t127 103.5t165 97.5 q129 70 199.5 131t70.5 151q0 68 -44 111t-109 43h-78q-37 0 -71 -12.5t-54 -32.5q-37 -35 -55.5 -58.5t-30.5 -23.5q-8 0 -10 2l-117 65q-10 6 -10 15q0 16 33.5 58t111.5 91q41 27 100.5 43.5t130.5 16.5h78z" />
<glyph unicode="3" d="M934 911q-6 -29 -22.5 -63.5t-41.5 -65.5q-49 -59 -83.5 -84.5t-34.5 -33.5q0 -12 22.5 -33t38.5 -56q35 -68 35 -137v-16q0 -8 -2 -16l-10 -62q-29 -168 -145 -266t-290 -98h-61q-72 0 -128 19t-95 50t-58.5 68t-19.5 71q0 10 14 17l140 65q8 4 12 4q8 0 14 -14 q43 -117 150 -117h61q78 0 140.5 53.5t76.5 131.5l12 71q2 8 3 17v16q0 63 -43.5 107.5t-110.5 44.5h-164q-16 0 -16 14v6l22 123q2 20 23 21h164q76 0 138 53t79 131l6 31q2 10 3 17t1 17q0 63 -44 106.5t-112 43.5h-61q-37 0 -71 -12.5t-54 -32.5q-37 -35 -55.5 -58.5 t-30.5 -23.5q-8 0 -10 2l-117 65q-10 6 -10 15q0 16 33.5 58t111.5 91q41 27 100.5 43.5t130.5 16.5h62q147 0 230 -76t83 -205q0 -37 -10 -88z" />
<glyph unicode="4" d="M664 952q0 18 -15 19q-10 0 -18 -13l-393 -464q-8 -8 -9 -19q0 -14 21 -14h309q20 0 23 20l82 465v6zM922 317q-2 -20 -23 -20h-143q-23 0 -25 -21l-45 -256q-2 -20 -24 -20h-144q-16 0 -16 14v6l45 256v7q0 14 -17 14h-512q-18 0 -18 16v4l31 144l686 821l18 8h154 q16 0 16 -14v-6l-139 -789v-4q0 -16 18 -16h144q16 0 16 -17v-4z" />
<glyph unicode="5" d="M989 1147q-2 -20 -24 -21h-471q-23 0 -25 -20l-59 -338v-6q0 -14 16 -14h143q147 0 229.5 -77t82.5 -212q0 -37 -7 -76l-6 -39q-27 -168 -143.5 -266t-290.5 -98h-61q-72 0 -128.5 19t-95 50t-59 68t-20.5 71q0 10 16 17l139 65q8 4 13 4q8 0 14 -14q43 -117 149 -117h62 q78 0 140.5 53.5t76.5 131.5l12 71q2 8 2 17v16q0 63 -43 107.5t-110 44.5h-328q-16 0 -16 14v6l116 666q6 20 25 20h655q16 0 17 -14v-6z" />
<glyph unicode="6" d="M692 410q2 8 2 16v16q0 66 -43 109t-110 43h-62q-78 0 -140.5 -53.5t-76.5 -130.5l-14 -82q-2 -8 -2 -17v-16q0 -66 43 -109t110 -43h62q94 18 149.5 65.5t67.5 119.5zM668 1311q70 0 125 -18.5t95 -47t61.5 -66.5t21.5 -75q0 -10 -13 -17l-141 -65q-12 -4 -14 -4 q-6 0 -12 14l-27 46q-12 22 -27.5 37t-39 23.5t-58.5 8.5h-61q-78 0 -140.5 -53.5t-77.5 -130.5l-45 -250v-6q0 -16 13 -17q8 0 25 10l42 24q25 13 58.5 23.5t74.5 10.5h62q135 0 214 -78t79 -203q0 -35 -6 -67l-15 -82q-14 -78 -51 -142.5t-93 -110.5t-129 -70.5 t-157 -24.5h-61q-147 0 -230.5 74.5t-83.5 201.5q0 35 6 72l113 635q14 78 51 142t93.5 110.5t129 71t156.5 24.5h62z" />
<glyph unicode="7" d="M981 1053q-41 -231 -387 -465l-87 -58q-42 -27 -77 -55.5t-58.5 -63t-31.5 -83.5l-53 -308q-2 -20 -25 -20h-143q-16 0 -17 14v6l54 308q14 86 57 160.5t109 129.5q55 47 123 90l147 89q92 55 142 116.5t63 139.5l8 53v6q0 14 -17 14h-512q-16 0 -16 15v6l21 123 q2 20 24 20h696q16 0 17 -14v-6z" />
<glyph unicode="8" d="M688 389q2 8 2 15v14q0 66 -44 110.5t-109 44.5h-62q-39 0 -74.5 -14t-65.5 -39.5t-50.5 -59.5t-26.5 -71l-10 -61q-2 -10 -2 -31q0 -66 43 -110t110 -44h62q39 0 74.5 14.5t65.5 39t50.5 58.5t26.5 73zM791 963q2 10 3 17t1 17q0 61 -44 105.5t-112 44.5h-61 q-76 0 -138.5 -53.5t-79.5 -130.5l-8 -41q-2 -10 -3 -17.5t-1 -17.5q0 -63 44 -106.5t112 -43.5h61q37 0 73 13.5t64.5 38t50 58.5t29.5 75zM965 901q-4 -29 -19.5 -62.5t-42.5 -66.5q-47 -59 -85 -83.5t-38 -35.5q0 -10 15.5 -24.5t31.5 -38.5q25 -33 37.5 -76t12.5 -84 v-17q0 -7 -3 -18l-8 -51q-29 -170 -144.5 -267t-289.5 -97h-61q-150 0 -230 75.5t-80 210.5q0 37 7 78l8 51q4 29 20.5 64t42.5 69q51 63 87 90t36 35q0 12 -15.5 24.5t-31.5 35.5q-23 31 -37 76t-14 85v14q0 7 2 13l6 41q12 84 49 151.5t94.5 115.5t131 75t159.5 27h62 q147 0 228 -77t81 -214q0 -39 -6 -78z" />
<glyph unicode="9" d="M791 963q2 8 2 16v16q0 66 -43 109t-111 43h-61q-78 0 -140.5 -53.5t-77.5 -130.5l-26 -154q-2 -8 -2 -16v-17q0 -66 43 -108.5t110 -42.5h62q78 0 140.5 53t76.5 131zM862 328q-14 -78 -51 -141.5t-93 -109.5t-129 -71.5t-157 -25.5h-61q-72 0 -128.5 19t-95 50t-58 68 t-19.5 71q0 10 14 17l139 65q8 4 13 4q8 0 14 -14q39 -117 149 -117h62q39 0 74.5 14.5t65.5 39t50.5 58.5t26.5 73l33 178v4q0 18 -13 18q-10 0 -27 -10l-42 -23q-25 -13 -57.5 -23.5t-73.5 -10.5h-62q-135 0 -214 77.5t-79 202.5q0 33 7 68l26 154q14 78 51 142 t93.5 110.5t129 71t156.5 24.5h62q147 0 230 -75t83 -202q0 -35 -6 -71z" />
<glyph unicode=":" horiz-adv-x="450" d="M240 111q0 -53 -40 -92t-96 -39q-43 0 -68.5 25.5t-25.5 66.5q0 53 40 93t95 40q41 0 68 -25.5t27 -68.5zM336 662q0 -53 -40 -91.5t-93 -38.5q-43 0 -68.5 25t-25.5 68q0 53 38.5 93t94.5 40q43 0 68.5 -26.5t25.5 -69.5z" />
<glyph unicode=";" horiz-adv-x="450" d="M256 201l-27 -143q-12 -62 -32 -109q-23 -49 -53.5 -89t-62.5 -68t-59.5 -43t-46.5 -15q-10 0 -14 14l-18 59v7q0 10 14 19t35 30q35 35 54.5 76t19.5 77q0 16 -17 17h-26q-18 0 -19 12q0 2 1 3t1 5l25 148q2 20 24 20h185q16 0 16 -14v-6zM336 662q0 -53 -40 -91.5 t-93 -38.5q-43 0 -68.5 25t-25.5 68q0 53 38.5 93t94.5 40q43 0 68.5 -26.5t25.5 -69.5z" />
<glyph unicode="&#x37e;" horiz-adv-x="450" d="M256 201l-27 -143q-12 -62 -32 -109q-23 -49 -53.5 -89t-62.5 -68t-59.5 -43t-46.5 -15q-10 0 -14 14l-18 59v7q0 10 14 19t35 30q35 35 54.5 76t19.5 77q0 16 -17 17h-26q-18 0 -19 12q0 2 1 3t1 5l25 148q2 20 24 20h185q16 0 16 -14v-6zM336 662q0 -53 -40 -91.5 t-93 -38.5q-43 0 -68.5 25t-25.5 68q0 53 38.5 93t94.5 40q43 0 68.5 -26.5t25.5 -69.5z" />
<glyph unicode="&#x3c;" d="M885 862q2 -2 2 -8q0 -14 -15 -20l-608 -320q-16 -8 -16 -18q0 -14 10 -19l498 -319q8 -6 8 -15q0 -6 -6 -14l-56 -70q-10 -12 -18 -12q-4 0 -12 4l-570 367l-6 18l21 117l12 18l700 369q8 4 13 4q10 0 14 -12z" />
<glyph unicode="=" d="M883 266q-2 -20 -25 -20h-819q-16 0 -16 14v6l14 82q2 20 24 21h820q16 0 16 -17v-4zM948 635q-2 -20 -24 -21h-820q-18 0 -18 13q0 2 1 4t1 4l14 82q2 20 23 20h819q18 0 19 -16v-4z" />
<glyph unicode="&#x3e;" d="M870 436l-14 -18l-698 -367q-8 -4 -13 -4q-8 0 -14 12l-31 70q0 2 -1 4t-1 4q0 10 17 21l606 319q16 10 16 19q0 12 -10 18l-494 320q-10 6 -10 14q0 4 6 14l56 70q8 12 18 12q4 0 12 -4l568 -369l8 -18z" />
<glyph unicode="?" d="M475 111q0 -53 -40 -92t-95 -39q-43 0 -68.5 25.5t-25.5 66.5q0 53 40 93t95 40q41 0 67.5 -25.5t26.5 -68.5zM659 1311q147 0 230.5 -75t83.5 -196q0 -88 -20.5 -150.5t-59.5 -110.5t-98.5 -84t-135.5 -70q-45 -20 -78.5 -41t-57 -45.5t-35 -57t-11.5 -78.5v-12 q-4 -23 -24 -22h-142q-12 0 -15 5t-3 19q0 123 51 201t160 135q53 29 103 51.5t90 50t63.5 65.5t23.5 97q0 68 -44 111t-109 43h-78q-37 0 -70.5 -12.5t-54.5 -32.5q-37 -35 -55.5 -58.5t-30.5 -23.5q-8 0 -10 2l-117 65q-10 6 -10 15q0 16 33.5 58t111.5 91 q41 27 100.5 43.5t131.5 16.5h77z" />
<glyph unicode="@" horiz-adv-x="1474" d="M885 721q2 8 2 22q0 47 -31 78t-84 31q-57 0 -104 -41t-58 -98l-24 -133q-2 -8 -2 -25q0 -47 30.5 -78t79.5 -31q59 0 107.5 42t58.5 100zM924 944q8 37 43 37h47q37 0 37 -35v-8l-78 -426v-12q0 -23 14 -38.5t41 -15.5h25q29 0 54.5 21.5t29.5 52.5l73 416q2 12 3 24.5 t1 22.5q0 84 -54 131t-152 47h-359q-117 0 -194.5 -63.5t-96.5 -167.5l-100 -576q-2 -12 -3 -24.5t-1 -22.5q0 -84 54 -131t153 -47h516q37 0 37 -45q0 -84 -53 -84h-515q-152 0 -237.5 79t-85.5 210q0 35 6 71l100 576q14 80 52 144.5t94.5 111.5t130.5 72.5t160 25.5h356 q319 0 319 -321q0 -121 -61 -406q-27 -127 -84 -186.5t-160 -59.5h-26q-94 0 -152 70q-51 -35 -97 -52.5t-93 -17.5q-98 0 -156.5 56.5t-58.5 148.5q0 12 1 24.5t3 24.5l26 164q8 51 35 96.5t65 79t87 52t102 18.5q80 0 148 -47v-4z" />
<glyph unicode="A" horiz-adv-x="921" d="M526 872q0 10 -3 33t-5 58h-8q-14 -29 -24 -52l-17 -41l-168 -383q-2 -4 -2 -12q0 -14 18 -14h215q25 0 25 22v4zM805 20q0 -20 -25 -20h-153q-18 0 -19 14l-26 271q0 12 -19 12h-332q-18 0 -22 -12l-125 -271q-6 -14 -23 -14h-153q-20 0 -21 14q0 4 4 13l603 1249 q6 14 22 14h111q16 0 18 -14l160 -1249v-7z" />
<glyph unicode="B" horiz-adv-x="1064" d="M719 389q2 8 2 15v14q0 66 -44 110.5t-110 44.5h-225q-20 0 -23 -20l-65 -369v-6q0 -14 16 -14h226q39 0 75.5 14.5t66.5 40t49.5 59t25.5 70.5zM817 942q2 10 3 17.5t1 17.5q0 61 -44 105t-111 44h-226q-23 0 -24 -20l-62 -348v-6q0 -14 17 -15h225q37 0 73 13.5 t64.5 38t50 58.5t29.5 75zM995 901q-4 -27 -18 -60.5t-43 -68.5q-49 -59 -86 -83.5t-37 -35.5q0 -12 23.5 -32.5t39.5 -55.5q35 -74 35 -133q0 -10 -1 -18t-3 -19l-6 -30q-35 -172 -149.5 -268.5t-282.5 -96.5h-410q-16 0 -16 14v6l219 1250q2 20 25 20h409 q150 0 227.5 -78.5t77.5 -230.5v-29q0 -14 -2 -30z" />
<glyph unicode="C" horiz-adv-x="952" d="M668 1311q68 0 124 -17.5t96 -46t61.5 -64.5t21.5 -73q0 -16 -15 -23l-143 -65q-4 -2 -10 -2q-8 0 -15 12q-29 51 -57.5 83t-91.5 32h-61q-78 0 -140.5 -53.5t-77.5 -130.5l-112 -635q-2 -8 -2 -17v-16q0 -66 43 -109t110 -43h62q37 0 71.5 13.5t57.5 36.5q37 35 54.5 57 t27.5 22q8 0 12 -2l119 -65q8 -2 8 -12q0 -14 -34 -58.5t-111 -95.5q-41 -29 -101.5 -44t-132.5 -15h-61q-147 0 -230.5 74.5t-83.5 201.5q0 35 6 72l113 635q14 78 51 142t93.5 110.5t129 71t156.5 24.5h62z" />
<glyph unicode="D" horiz-adv-x="1075" d="M817 942q2 8 2 16v17q0 66 -43 108.5t-110 42.5h-226q-23 0 -24 -20l-162 -922v-6q0 -14 16 -14h226q78 0 140 53t77 131zM901 369q-14 -86 -52 -154t-94.5 -116t-129 -73.5t-158.5 -25.5h-410q-16 0 -16 14v6l219 1250q2 20 25 20h409q147 0 229.5 -75.5t82.5 -210.5 q0 -20 -2.5 -40t-6.5 -42z" />
<glyph unicode="E" horiz-adv-x="940" d="M657 1311q72 0 128.5 -20.5t95.5 -51.5t59.5 -66.5t20.5 -68.5q0 -10 -15 -17l-141 -65q-4 -2 -10 -2q-8 0 -17 12l-28.5 45.5t-27.5 35.5t-36.5 24.5t-56.5 9.5h-62q-76 0 -138 -53.5t-79 -130.5l-6 -31q-2 -10 -3 -17.5t-1 -17.5q0 -61 44 -105t112 -44h163 q18 0 19 -17v-4l-23 -123q-2 -20 -24 -20h-164q-78 0 -140.5 -53.5t-76.5 -131.5l-12 -71q-2 -8 -2 -17v-16q0 -66 43 -109t110 -43h62q37 0 70.5 13.5t56.5 36.5q35 35 53 57t31 22q6 0 10 -2l119 -65q8 -4 8 -12q0 -10 -33 -56.5t-111 -97.5q-41 -27 -101 -43t-132 -16 h-62q-147 0 -229 74.5t-82 207.5q0 20 2 40t6 42l11 62q4 29 21 64.5t42 68.5q51 66 87 91t36 34q0 12 -22.5 30.5t-41.5 50.5q-39 74 -38 132q0 14 4 34l6 31q16 86 55 154.5t95.5 116t128 73t155.5 25.5h61z" />
<glyph unicode="F" horiz-adv-x="931" d="M977 1147q-2 -20 -25 -21h-512q-23 0 -24 -20l-62 -348v-6q0 -14 17 -15h420q18 0 18 -16v-4l-23 -123q-2 -20 -24 -21h-420q-20 0 -23 -20l-94 -533q-2 -20 -24 -20h-144q-16 0 -16 14v6l219 1250q2 20 25 20h696q16 0 16 -14v-6z" />
<glyph unicode="G" d="M705 1311q68 0 124 -18.5t96 -47t61.5 -65.5t21.5 -76q0 -10 -15 -17l-143 -65q-4 -2 -10 -2q-8 0 -15 12q-29 51 -57.5 83t-91.5 32h-98q-78 0 -140.5 -53.5t-77.5 -130.5l-112 -635q-2 -8 -2 -17v-16q0 -66 43 -109t110 -43h62q39 0 74.5 14.5t65.5 39t50.5 58.5 t26.5 73l24 133v4q0 16 -18 16h-205q-16 0 -16 15v6l22 123q2 20 25 20h389q16 0 16 -14v-6l-53 -297q-14 -78 -51 -142.5t-93 -110.5t-129 -70.5t-157 -24.5h-61q-147 0 -230.5 74.5t-83.5 201.5q0 35 6 72l113 635q14 78 51 142t93.5 110.5t129 71t156.5 24.5h99z" />
<glyph unicode="H" horiz-adv-x="1136" d="M870 20q-2 -20 -24 -20h-144q-16 0 -16 14v6l94 533v4q0 16 -18 16h-420q-20 0 -23 -20l-94 -533q-2 -20 -24 -20h-144q-16 0 -16 14v6l219 1250q2 20 25 20h143q16 0 16 -14v-6l-90 -512v-6q0 -14 17 -15h420q23 0 24 21l90 512q6 20 25 20h143q16 0 17 -14v-6z" />
<glyph unicode="I" horiz-adv-x="491" d="M225 20q-2 -20 -24 -20h-144q-16 0 -16 14v6l219 1250q2 20 25 20h143q16 0 16 -14v-6z" />
<glyph unicode="J" horiz-adv-x="860" d="M682 348q-12 -68 -50 -134.5t-104 -125.5q-121 -109 -266 -108q-104 0 -199 59q-121 78 -120 149q0 8 18 19l139 63q4 2 11 2q8 0 14 -12l27 -46q12 -22 28.5 -37t39 -24.5t56.5 -9.5q39 0 75 14.5t65.5 40t50 59.5t27.5 71l165 942q6 20 25 20h143q16 0 17 -14v-6z" />
<glyph unicode="K" horiz-adv-x="1075" d="M635 774q-8 -6 -8 -14q0 -6 2 -8l321 -721q2 -4 2 -11q0 -20 -24 -20h-183l-14 10l-264 596q-41 -39 -82 -83l-88 -93l-72 -410q-2 -20 -24 -20h-144q-16 0 -16 14v6l219 1250q2 20 25 20h143q16 0 16 -14v-6l-94 -539v-6q0 -18 15 -18q8 0 20 12l528 563l19 8h170 q20 0 20 -12q0 -10 -10 -21z" />
<glyph unicode="L" horiz-adv-x="931" d="M778 20q-2 -20 -24 -20h-697q-16 0 -16 14v6l219 1250q2 20 25 20h143q16 0 16 -14v-6l-190 -1086v-6q0 -14 16 -14h512q16 0 17 -14v-7z" />
<glyph unicode="M" horiz-adv-x="1323" d="M1057 20q-2 -20 -25 -20h-143q-16 0 -17 14v6l189 908l-420 -731q-10 -10 -20 -13h-82q-12 2 -17 13l-160 725l-139 -902q-2 -20 -24 -20h-142q-16 0 -16 14v6l219 1250q2 20 25 20h131q16 -6 16 -12l182 -836l490 836q8 12 20 12h140q16 0 16 -14v-6z" />
<glyph unicode="N" horiz-adv-x="1136" d="M870 20q-2 -20 -24 -20h-131q-6 0 -17 10l-186 506q-80 225 -135 406q-80 -463 -115 -692.5t-61 -229.5h-144q-16 0 -16 14v6l219 1250q2 20 25 20h131l16 -10l190 -537l132 -385l64 394l87 518q6 20 25 20h143q16 0 17 -14v-6z" />
<glyph unicode="O" d="M791 963q2 8 2 16v16q0 63 -43 107.5t-111 44.5h-61q-78 0 -140.5 -53.5t-77.5 -130.5l-112 -635q-2 -8 -2 -17v-16q0 -66 43 -109t110 -43h62q78 0 140.5 53.5t76.5 131.5zM862 328q-14 -78 -51 -141.5t-93 -109.5t-129 -71.5t-157 -25.5h-61q-147 0 -230.5 74.5 t-83.5 201.5q0 35 6 72l113 635q14 78 51 142t93.5 110.5t129 71t156.5 24.5h62q147 0 230 -75t83 -202q0 -35 -6 -71z" />
<glyph unicode="P" horiz-adv-x="993" d="M817 942q2 10 3 17.5t1 17.5q0 61 -44 105t-111 44h-226q-23 0 -24 -20l-62 -348v-6q0 -14 17 -15h225q37 0 73 13.5t64.5 38t50 58.5t29.5 75zM694 1290q147 0 229.5 -76.5t82.5 -212.5q0 -119 -64 -227q-53 -92 -153.5 -146.5t-221.5 -54.5h-225q-20 0 -23 -20 l-94 -533q-2 -20 -24 -20h-144q-16 0 -16 14v6l219 1250q2 20 25 20h409z" />
<glyph unicode="Q" d="M791 963q2 8 2 16v16q0 63 -43 107.5t-111 44.5h-61q-78 0 -140.5 -53.5t-77.5 -130.5l-112 -635q-2 -10 -2 -29q0 -57 28.5 -98t63.5 -41q14 0 18 20l15 84q2 20 24 21h123q16 0 17 -15v-6l-15 -84v-8q0 -12 8 -12q20 0 44 13t45.5 35.5t38 53.5t22.5 66zM862 328 q-20 -129 -121 -232q-20 -23 -49.5 -42t-62.5 -35.5t-67 -25.5t-60 -9q-8 0 -13.5 -2t-7.5 -19l-22 -127q-2 -20 -25 -20h-123q-16 0 -16 14v6l22 127v2q0 16 -31.5 24.5t-90.5 28.5q-55 18 -96.5 83t-41.5 157q0 33 6 70l113 635q14 78 51 142t93.5 110.5t129 71 t156.5 24.5h62q147 0 230 -75t83 -202q0 -35 -6 -71z" />
<glyph unicode="R" d="M817 942q2 10 3 17.5t1 17.5q0 61 -44 105t-111 44h-226q-23 0 -24 -20l-62 -348v-6q0 -14 17 -15h225q37 0 73 13.5t64.5 38t50 58.5t29.5 75zM995 901q-4 -53 -45 -115.5t-112 -117.5q-35 -27 -59.5 -37t-24.5 -25v-6l96 -573v-4q0 -23 -23 -23h-157q-8 0 -17 14 l-94 547l-14 12h-203q-20 0 -23 -20l-94 -533q-2 -20 -24 -20h-144q-16 0 -16 14v6l219 1250q2 20 25 20h409q150 0 227.5 -78.5t77.5 -230.5v-29q0 -14 -2 -30z" />
<glyph unicode="S" horiz-adv-x="901" d="M598 1311q68 0 124 -17.5t96 -46t61.5 -64.5t21.5 -73q0 -16 -14 -23l-144 -65q-4 -2 -10 -2q-8 0 -14 12q-29 51 -57.5 83t-92.5 32h-32q-41 0 -81 -17.5t-71 -46t-49.5 -65.5t-18.5 -78q0 -66 49.5 -102.5t141.5 -83.5q72 -35 127 -71t92 -76t55.5 -87t18.5 -108 q0 -94 -33 -173t-91.5 -136.5t-138 -90t-176.5 -32.5h-86q-72 0 -128 19t-95 50t-58.5 68t-19.5 71q0 10 15 17l139 65q8 4 12 4q8 0 15 -14q43 -117 149 -117h86q43 0 83 17.5t69.5 47.5t48 69.5t18.5 82.5q0 57 -37.5 99.5t-115.5 83.5l-132 69q-60 33 -104.5 70t-69 84 t-24.5 113q0 94 33 172.5t91 136t138 90.5t176 33h33z" />
<glyph unicode="T" horiz-adv-x="819" d="M864 1147q-2 -20 -24 -21h-236q-23 0 -24 -20l-191 -1086q-2 -20 -24 -20h-144q-16 0 -16 14v6l190 1086v6q0 14 -16 14h-236q-16 0 -16 15v6l20 123q6 20 25 20h696q16 0 17 -14v-6z" />
<glyph unicode="U" d="M862 328q-14 -78 -51 -142.5t-93 -110.5t-129 -70.5t-157 -24.5h-61q-147 0 -230.5 75.5t-83.5 200.5q0 35 6 72l166 942q2 20 25 20h143q16 0 17 -14v-6l-166 -942q-2 -8 -2 -17v-16q0 -66 43 -109t110 -43h62q78 0 140.5 53.5t76.5 131.5l166 942q2 20 24 20h144 q16 0 16 -14v-6z" />
<glyph unicode="V" horiz-adv-x="921" d="M422 14q-6 -14 -23 -14h-110q-16 0 -19 14l-159 1250v6q0 20 24 20h150q18 0 18 -14l90 -963l438 963q6 14 23 14h154q20 0 20 -14q0 -4 -4 -12z" />
<glyph unicode="W" horiz-adv-x="1366" d="M958 16q-6 -16 -22 -16h-111q-18 0 -18 14l-82 885l-395 -885q-6 -14 -23 -14h-110q-16 0 -19 16l-49 1250q0 25 25 24h149q18 0 19 -16l8 -938l409 940q6 16 15 16q2 0 4 -1t4 -1h63q18 0 19 -14l76 -940l342 938q6 16 22 16h150q18 0 18 -14q0 -6 -2 -10z" />
<glyph unicode="X" horiz-adv-x="940" d="M602 655l-2 -18l197 -608q2 -4 2 -9q0 -20 -25 -20h-178l-16 12l-125 432q-4 16 -17 17q-10 0 -20 -17l-287 -432q-12 -12 -20 -12h-177q-18 0 -18 12q0 2 1 7.5t5 11.5l416 606l2 18l-203 605q-2 4 -2 10q0 20 27 20h174q6 0 16 -12l135 -438q4 -16 19 -17q8 0 18 17 l281 438q2 4 20 12h176q18 0 19 -14q0 -10 -4 -14z" />
<glyph unicode="Y" horiz-adv-x="921" d="M541 592l-101 -572q-2 -20 -24 -20h-144q-16 0 -16 14v6l100 572l-239 668q-2 4 -2 10q0 20 26 20h168q6 0 17 -12l143 -467q6 -14 14 -14q14 0 23 14l307 467q12 10 21 12h167q20 0 21 -12q0 -6 -2 -10t-6 -8z" />
<glyph unicode="Z" horiz-adv-x="901" d="M244 193q-6 -10 -6 -17q0 -12 18 -12h455q16 0 16 -14v-7l-20 -123q-2 -20 -25 -20h-729q-18 0 -19 14q0 8 5 15l669 1069q6 8 6 14q0 14 -20 14h-410q-16 0 -16 15v6l20 123q6 20 25 20h686q18 0 19 -14q0 -8 -5 -14z" />
<glyph unicode="[" horiz-adv-x="737" d="M674 1352q-2 -20 -23 -21h-143q-27 0 -32 -43t-21 -141l-205 -1163l-23 -120q-8 -42 -8 -52q0 -16 17 -17h143q18 0 18 -16v-4l-22 -123q-2 -20 -25 -21h-327q-16 0 -17 17q0 18 17 105l45 247l198 1126q16 96 26.5 166t18.5 115t16.5 66.5t24.5 21.5h328q16 0 16 -16v-4 z" />
<glyph unicode="\" horiz-adv-x="665" d="M442 0q-20 0 -24 20l-299 1229q0 4 -1 6t-1 5q0 31 33 30h67q20 0 25 -20l299 -1229q0 -4 1 -5t1 -5q0 -31 -33 -31h-68z" />
<glyph unicode="]" horiz-adv-x="737" d="M680 1495q16 0 16 -18t-16 -105l-45 -246l-199 -1126q-16 -96 -26.5 -166t-18.5 -115t-17 -66.5t-24 -21.5h-327q-16 0 -17 15v6l23 123q2 20 22 20h144q27 0 31.5 43t23.5 146l205 1163l21 122q7 42 7 46q0 16 -16 16h-143q-18 0 -19 17v4l23 123q2 20 24 20h328z" />
<glyph unicode="^" horiz-adv-x="1538" d="M778 1057q-70 90 -160 90q-39 0 -75.5 -14.5t-65 -39t-49 -58.5t-27.5 -72l-20 -113v-6q0 -14 16 -15h314q23 0 24 21l17 92q4 27 11 51.5t17 46.5zM1159 1165q-2 -10 -6 -13t-12 -7l-72 -30q-33 -13 -59.5 -32.5t-44 -48t-25.5 -71.5l-20 -113v-6q0 -14 16 -15h143 q18 0 19 -16v-4l-23 -123q-2 -20 -24 -20h-144q-20 0 -22 -21l-119 -665q-12 -70 -51 -136.5t-103 -124.5q-121 -109 -278 -108q-109 0 -109 20q0 8 4 15l64 118q8 14 22 15q12 -2 24.5 -3t22.5 -1q78 0 139.5 53t76.5 131l122 686v4q0 16 -18 17h-313q-20 0 -23 -21 l-135 -758q-25 -143 -154 -260q-119 -109 -280 -108q-104 0 -105 20q0 8 4 15l62 118q8 14 22 15q6 0 17.5 -2t29.5 -2q78 0 140.5 54t77.5 130l137 778v4q0 16 -19 17h-51q-16 0 -16 14v6l22 123q2 20 23 20h51q23 0 25 21l16 92q14 78 54 145.5t99.5 116.5t134 78 t158.5 29q115 0 181 -47q31 -23 46 -37.5t19 -14.5q12 0 35 15.5t53.5 34t68.5 34t83 15.5q37 0 37 -17v-6zM1307 20q-2 -20 -25 -20h-143q-16 0 -17 14v6l156 881q2 20 22 21h144q18 0 18 -17v-4zM1536 1217q0 -53 -40 -92.5t-95 -39.5q-41 0 -67.5 27t-26.5 68q0 53 41 92 t94 39q43 0 68.5 -25.5t25.5 -68.5z" />
<glyph unicode="_" horiz-adv-x="450" d="M266 -440q-2 -20 -24 -21h-430q-16 0 -17 15v6l10 51q2 20 23 20h430q18 0 18 -16v-4z" />
<glyph unicode="`" horiz-adv-x="1024" d="M688 1063q0 -4 1 -5t1 -5q0 -20 -24 -21h-88l-13 6l-215 256q-6 6 -6 15q0 20 27 20h180l14 -10z" />
<glyph unicode="a" horiz-adv-x="972" d="M639 573q2 10 2 31q0 66 -43 110t-111 44q-41 0 -76.5 -15.5t-65.5 -40t-49.5 -58.5t-25.5 -71l-39 -225q-2 -10 -2 -31q0 -66 43 -109.5t111 -43.5q39 0 76 14.5t66.5 40t49 59t25.5 70.5zM727 20q-2 -20 -25 -20h-122q-16 0 -17 14v6l4 25v6q0 18 -14 19 q-8 0 -24.5 -11.5t-42 -23.5t-62.5 -23.5t-84 -11.5q-135 0 -217 76t-82 205q0 33 6 67l39 225q12 76 50 140.5t93.5 110.5t126 72t148.5 26q43 0 74.5 -10.5t54 -24t37 -23.5t24.5 -10q12 0 19 23l6 24q4 10 7 15.5t15 5.5h123q18 0 19 -17v-4z" />
<glyph unicode="b" horiz-adv-x="972" d="M670 573q2 10 2 31q0 66 -43 110t-117 44q-37 0 -71.5 -15.5t-64.5 -40t-49.5 -58.5t-25.5 -71l-39 -225q-2 -10 -2 -31q0 -66 43 -109.5t111 -43.5q39 0 75.5 14.5t66.5 40t49.5 59t25.5 70.5zM815 348q-12 -78 -50 -141.5t-93.5 -109.5t-125 -71.5t-149.5 -25.5 q-43 0 -74.5 10t-54 23.5t-38 24t-25.5 10.5q-12 0 -17 -23l-4 -25q-2 -20 -24 -20h-123q-16 0 -17 14v6l220 1250q6 20 24 20h144q16 0 16 -14v-6l-70 -393v-7q0 -18 13 -18q8 0 25.5 11t43 23.5t58 24t73.5 11.5q133 0 213 -79t80 -204q0 -33 -6 -66z" />
<glyph unicode="c" horiz-adv-x="876" d="M90 594q14 78 51 142.5t93.5 110.5t129 70.5t156.5 24.5q68 0 124 -18.5t96 -47t61.5 -64.5t21.5 -71q0 -16 -14 -22l-143 -66q-4 -2 -11 -2q-6 0 -14 13q-29 51 -57.5 82.5t-91.5 31.5q-39 0 -76 -14t-65.5 -40t-49 -59.5t-27.5 -70.5l-47 -266q-2 -8 -2 -17v-16 q0 -66 43 -109t111 -43q80 0 135 56q35 33 50.5 54t25.5 21q4 0 12 -4l119 -65q8 -4 8 -10q0 -16 -35 -60.5t-110 -95.5q-41 -27 -101.5 -43t-132.5 -16q-147 0 -230 74.5t-83 201.5q0 35 6 72z" />
<glyph unicode="d" horiz-adv-x="972" d="M639 573q2 10 2 31q0 66 -43 110t-111 44q-41 0 -76.5 -15.5t-65.5 -40t-49.5 -58.5t-25.5 -71l-39 -225q-2 -10 -2 -31q0 -66 43 -109.5t111 -43.5q39 0 76 14.5t66.5 40t49 59t25.5 70.5zM727 20q-2 -20 -25 -20h-122q-16 0 -17 14v6l4 25v6q0 18 -14 19 q-8 0 -24.5 -11.5t-42 -23.5t-62.5 -23.5t-84 -11.5q-135 0 -217 76t-82 205q0 33 6 67l39 225q12 68 49 133.5t96 118.5q109 96 254 97q43 0 74 -10.5t53.5 -24t37 -23.5t24.5 -10q14 0 18 23l70 393q6 20 24 20h144q16 0 16 -14v-6z" />
<glyph unicode="e" horiz-adv-x="942" d="M618 573q29 0 29 56q0 61 -45 105t-110 44q-41 0 -80 -17.5t-70 -45t-49.5 -61t-18.5 -66.5q0 -14 17 -15h327zM803 451q-2 -20 -25 -21h-512q-23 0 -24 -20l-15 -82q-2 -8 -2 -17v-16q0 -63 43 -107.5t111 -44.5q80 0 135 56q35 33 50.5 54t25.5 21q4 0 12 -4l119 -65 q8 -4 8 -10q0 -16 -35 -60.5t-110 -95.5q-41 -27 -101.5 -43t-132.5 -16q-147 0 -230 74.5t-83 201.5q0 35 6 72l47 266q8 45 29.5 92t56.5 88q68 82 158 125t186 43q70 0 127.5 -22.5t98 -62.5t63 -93t22.5 -115v-27q0 -13 -4 -28z" />
<glyph unicode="f" horiz-adv-x="583" d="M690 1157q-8 -14 -24 -14q-16 2 -28.5 3t-19.5 1q-39 0 -75.5 -14.5t-65 -40t-49 -59.5t-27.5 -70l-20 -113v-6q0 -14 16 -15h144q18 0 18 -16v-4l-22 -123q-2 -20 -25 -20h-143q-20 0 -23 -21l-135 -758q-25 -143 -154 -260q-119 -109 -280 -108q-104 0 -105 20 q0 8 4 15l62 118q8 14 22 15q6 0 17.5 -2t29.5 -2q78 0 140.5 54t77.5 130l137 778v4q0 16 -19 17h-51q-16 0 -16 14v6l22 123q2 20 23 20h51q23 0 25 21l16 92q14 78 54 145.5t98.5 116.5t131 78t150.5 29q109 0 109 -23q0 -4 -4 -12z" />
<glyph unicode="g" horiz-adv-x="972" d="M639 573q2 10 2 31q0 66 -43 110t-117 44q-37 0 -71.5 -15.5t-64.5 -40t-49.5 -58.5t-25.5 -71l-39 -225q-2 -10 -2 -31q0 -66 43 -109.5t111 -43.5q39 0 76 14.5t66.5 40t49 59t25.5 70.5zM864 922q18 0 19 -21q0 -57 -13.5 -102t-19.5 -82l-148 -830 q-31 -174 -144.5 -271t-287.5 -97q-74 0 -130 20.5t-95 51t-59.5 67.5t-20.5 68q0 10 15 16l139 65q4 2 10 3q8 0 18 -13l27 -45q12 -20 27.5 -35.5t38 -24.5t59.5 -9q39 0 76 14t66.5 39.5t49 59.5t25.5 71l29 170v6q0 16 -13 16q-10 0 -24 -9t-36.5 -20.5t-53.5 -20.5 t-74 -9q-139 0 -221 76t-82 205q0 33 6 67l39 225q12 76 50 140.5t93.5 110.5t126 72t148.5 26q43 0 74.5 -10.5t54 -24t37 -23.5t24.5 -10q12 0 19 23l6 24q4 10 7 15.5t15 5.5h123z" />
<glyph unicode="h" horiz-adv-x="960" d="M750 20q-2 -20 -25 -20h-143q-16 0 -17 14v6l97 553q2 8 2 17v16q0 63 -43 107.5t-111 44.5q-41 0 -77 -15.5t-65.5 -40t-49 -58.5t-25.5 -71l-96 -553q-2 -20 -25 -20h-143q-16 0 -17 14v6l219 1250q6 20 25 20h143q16 0 17 -14v-6l-70 -393v-7q0 -18 12 -18 q8 0 25.5 11t43.5 23.5t58.5 24t73.5 11.5q135 0 214 -78t79 -203q0 -35 -6 -68z" />
<glyph unicode="i" horiz-adv-x="434" d="M205 20q-2 -20 -25 -20h-143q-16 0 -17 14v6l156 881q2 20 23 21h143q18 0 18 -17v-4zM434 1217q0 -53 -40 -92.5t-95 -39.5q-41 0 -67.5 27t-26.5 68q0 53 41 92t94 39q43 0 68.5 -25.5t25.5 -68.5z" />
<glyph unicode="j" horiz-adv-x="450" d="M180 -115q-10 -59 -46 -123.5t-95 -123.5q-117 -119 -268 -119q-20 0 -21 14v6l23 123q2 10 7 13l13 8q39 14 72 29.5t58.5 35t43 47t25.5 70.5l184 1036q2 20 23 21h143q18 0 18 -17v-4zM434 1217q0 -53 -40 -92.5t-95 -39.5q-41 0 -67.5 27t-26.5 68q0 53 41 92t94 39 q43 0 68.5 -25.5t25.5 -68.5z" />
<glyph unicode="k" horiz-adv-x="919" d="M553 616q-10 -10 -10 -18q0 -4 2 -6l250 -561q2 -4 2 -11q0 -20 -27 -20h-180l-17 10l-184 426q-6 12 -16 13q-8 0 -17 -9l-92 -80l-59 -340q-2 -20 -25 -20h-143q-16 0 -17 14v6l220 1250q6 20 24 20h144q16 0 16 -14v-6l-113 -639v-6q0 -16 15 -17q10 0 18 8l326 299 l14 7h174q20 0 21 -17q0 -6 -13 -18z" />
<glyph unicode="l" horiz-adv-x="442" d="M201 20q-2 -20 -25 -20h-143q-16 0 -17 14v6l220 1250q2 20 24 20h143q16 0 17 -14v-6z" />
<glyph unicode="m" horiz-adv-x="1474" d="M1229 20q-2 -20 -25 -20h-143q-16 0 -17 14v6l97 553q2 10 2 31q0 66 -38 110t-95 44q-31 0 -63 -15.5t-59.5 -40t-48 -58.5t-26.5 -71l-96 -553q-2 -20 -25 -20h-143q-16 0 -17 14v6l97 553q2 10 2 31q0 66 -38 110t-95 44q-31 0 -64 -15.5t-60.5 -40t-47 -58.5 t-25.5 -71l-96 -553q-2 -20 -25 -20h-143q-16 0 -17 14v6l156 881q2 20 23 21h123q20 0 20 -13q0 -2 -1 -4t-1 -4l-6 -27q0 -4 -1 -5t-1 -3q0 -14 12 -14q10 0 28.5 11t44 23.5t60.5 24t76 11.5q55 0 93 -16.5t62.5 -35t38 -35t19.5 -16.5q8 0 27.5 15.5t54.5 37.5 q80 49 190 50q135 0 214 -78t79 -203q0 -35 -6 -68z" />
<glyph unicode="n" horiz-adv-x="995" d="M758 20q-2 -20 -25 -20h-143q-16 0 -17 14v6l97 553q2 8 2 17v16q0 63 -43 107.5t-111 44.5q-41 0 -76.5 -15.5t-65.5 -40t-49.5 -58.5t-25.5 -71l-96 -553q-2 -20 -25 -20h-143q-16 0 -17 14v6l156 881q2 20 23 21h123q18 0 18 -21l-6 -24v-7q0 -18 12 -18q6 0 22.5 11 t43 23.5t63.5 24t86 11.5q135 0 217 -76t82 -203q0 -33 -6 -70z" />
<glyph unicode="o" horiz-adv-x="950" d="M651 594q2 8 2 16v17q0 66 -44 108.5t-115 42.5q-37 0 -72 -15t-64.5 -40t-49 -58.5t-25.5 -70.5l-47 -266q-2 -10 -3 -18v-15q0 -66 43 -109t111 -43q39 0 76 14.5t65.5 40t49 59.5t26.5 71zM788 328q-14 -78 -51 -141.5t-93 -109.5t-129 -71.5t-157 -25.5 q-147 0 -230 74.5t-83 201.5q0 35 6 72l47 266q14 78 51 142.5t93.5 110.5t129 70.5t156.5 24.5q147 0 230.5 -74.5t83.5 -201.5q0 -35 -6 -72z" />
<glyph unicode="p" horiz-adv-x="972" d="M670 573q2 10 2 31q0 66 -43 110t-117 44q-37 0 -71.5 -15.5t-64.5 -40t-49.5 -58.5t-25.5 -71l-39 -225q-2 -10 -2 -31q0 -66 43 -109.5t111 -43.5q39 0 75.5 14.5t66.5 40t49.5 59t25.5 70.5zM815 348q-12 -70 -49 -134t-96 -118q-104 -96 -264 -96q-37 0 -67 10 t-51 24l-37 23q-15 10 -26 11q-12 0 -16 -23l-86 -485q-2 -20 -25 -21h-143q-16 0 -16 15v6l237 1341q2 20 23 21h123q18 0 18 -21l-6 -24v-7q0 -18 12 -18q6 0 22.5 11t43 23.5t63.5 24t86 11.5q135 0 217 -76t82 -205q0 -35 -6 -68z" />
<glyph unicode="q" horiz-adv-x="972" d="M639 573q2 10 2 31q0 66 -43 110t-117 44q-37 0 -71.5 -15.5t-64.5 -40t-49.5 -58.5t-25.5 -71l-39 -225q-2 -10 -2 -31q0 -66 43 -109.5t111 -43.5q39 0 76 15.5t66.5 40t49 58t25.5 70.5zM645 -440q-2 -20 -24 -21h-144q-16 0 -16 15v6l86 485v6q0 18 -15 19 q-10 0 -26.5 -11.5t-42 -23.5t-58 -23.5t-71.5 -11.5q-133 0 -213 79t-80 204q0 31 6 65l39 225q12 76 50 140.5t93.5 110.5t126 72t148.5 26q43 0 74.5 -10.5t54 -24t37 -23.5t24.5 -10q12 0 19 23l6 24q4 10 7 15.5t15 5.5h123q18 0 19 -17v-4z" />
<glyph unicode="r" horiz-adv-x="626" d="M629 741q-4 -20 -17 -20q-14 0 -37.5 7t-60.5 7q-86 0 -142.5 -48t-72.5 -134l-94 -533q-2 -20 -25 -20h-143q-16 0 -17 14v6l156 881q2 20 23 21h123q18 0 18 -17v-4l-12 -65v-7q0 -18 14 -18q8 0 26.5 17.5t46 38t61.5 38t73 17.5q59 0 82.5 -3.5t23.5 -19.5v-4z" />
<glyph unicode="s" horiz-adv-x="901" d="M526 942q70 0 124.5 -17.5t93 -46t59 -65.5t20.5 -76q0 -10 -14 -16l-129 -59l-12 -5q-4 0 -13 13q-31 51 -61.5 82.5t-93.5 31.5h-62q-82 0 -126 -34.5t-44 -87.5q0 -31 15.5 -48.5t45 -30t72.5 -22.5t101 -22q127 -29 189.5 -72t62.5 -131q0 -74 -30 -138.5t-82 -112.5 t-125 -76.5t-161 -28.5h-61q-72 0 -127 18t-93 48t-57.5 65.5t-19.5 72.5q0 10 14 17l129 59l6 3q2 1 7 1q4 0 14 -12l28 -44q13 -22 30.5 -37t40 -24.5t57.5 -9.5h61q78 0 127 40t49 93q0 31 -15.5 48.5t-45 28.5t-74.5 21l-102 21q-125 29 -185.5 70t-60.5 131 q0 74 29.5 137.5t81 111.5t122 75.5t154.5 27.5h61z" />
<glyph unicode="t" horiz-adv-x="645" d="M563 778q-2 -20 -24 -20h-144q-18 0 -24 -21l-72 -409q-2 -10 -2 -18v-15q0 -57 36 -97t103 -53q12 -6 13 -16v-4l-23 -123q-6 -20 -41 -20q-57 0 -107.5 20.5t-88 57t-59 89t-21.5 115.5q0 29 6 64l71 409v6q0 14 -16 15h-113q-18 0 -18 12q0 2 1 4t1 4l16 72l281 250 l14 6h64q16 0 16 -14v-7l-24 -143v-6q0 -14 16 -14h143q18 0 19 -17v-4z" />
<glyph unicode="u" horiz-adv-x="983" d="M737 20q-2 -20 -24 -20h-123q-16 0 -17 14v6l5 25v6q0 18 -15 19q-8 0 -24.5 -11.5t-43 -23.5t-62.5 -23.5t-83 -11.5q-135 0 -217 76t-82 203q0 33 6 69l99 553q2 20 22 21h144q18 0 18 -17v-4l-98 -553q-2 -8 -2 -16v-17q0 -63 43 -107t110 -44q39 0 75 14.5t65.5 40 t50 59t26.5 70.5l99 553q2 20 22 21h143q18 0 19 -17v-4z" />
<glyph unicode="v" horiz-adv-x="880" d="M408 12q-12 -8 -27 -12h-119q-12 2 -16 12l-201 881q0 4 -1 5t-1 3q0 20 25 21h153l17 -13l131 -669l360 669q8 8 21 13h153q18 0 19 -15q0 -8 -4 -14z" />
<glyph unicode="w" horiz-adv-x="1243" d="M836 14q-6 -14 -23 -14h-111q-18 0 -18 14l-55 670l-295 -670q-6 -14 -23 -14h-110q-16 0 -19 14l-116 881v6q0 20 24 21h154q6 0 19 -159t48 -482l206 478q69 163 79 163h135q8 0 17.5 -68t17.5 -166t15 -207.5t16 -191.5q141 311 208.5 472t84.5 161h153q20 0 21 -15 q0 -4 -4 -12z" />
<glyph unicode="x" horiz-adv-x="835" d="M510 473q-4 -4 -4 -14v-6l201 -422q2 -4 2 -11q0 -20 -25 -20h-168l-16 10l-129 291q-8 14 -17 14q-8 0 -20 -14l-232 -291q-8 -6 -20 -10h-164q-18 0 -18 12q0 8 8 19l346 420q4 12 4 18v6l-199 416q-4 8 -4 12q0 18 25 19h166l14 -11l131 -293q6 -12 15 -12q6 0 16 12 l235 293q12 8 19 11h170q20 0 20 -15q0 -4 -8 -16z" />
<glyph unicode="y" horiz-adv-x="983" d="M874 922q18 0 19 -21q0 -57 -14.5 -102t-20.5 -82l-145 -830q-31 -174 -144.5 -271t-287.5 -97q-74 0 -130.5 20.5t-95.5 51t-59.5 67.5t-20.5 68q0 10 15 16l139 65q4 2 10 3q8 0 19 -13l26 -45q12 -20 27.5 -35.5t38 -24.5t59.5 -9q39 0 76 14t65.5 39.5t49 59.5 t26.5 71l29 170v6q0 16 -14 16q-8 0 -22.5 -9t-36 -20.5t-51.5 -20.5t-66 -9q-147 0 -230.5 75t-83.5 201q0 35 6 72l99 553q2 20 22 21h144q18 0 18 -17v-4l-98 -553q-2 -8 -2 -16v-17q0 -63 43 -107t110 -44q39 0 75 14.5t65.5 40t50 59t26.5 70.5l99 553q2 20 22 21h143z " />
<glyph unicode="z" horiz-adv-x="880" d="M289 195q-4 -4 -6 -8.5t-2 -10.5q0 -12 20 -12h397q16 0 17 -14v-7l-21 -123q-2 -20 -24 -20h-715q-20 0 -21 12q0 6 9 19l536 694q8 12 8 18q0 12 -20 13h-358q-16 0 -17 14v6l21 123q2 20 24 21h678q23 0 23 -15q0 -4 -9 -16z" />
<glyph unicode="{" horiz-adv-x="737" d="M674 1350q-2 -12 -7 -14.5t-14 -6.5l-73 -31q-33 -14 -58.5 -34.5t-43 -48t-23.5 -68.5l-60 -338q-4 -29 -20.5 -63.5t-42.5 -65.5q-49 -59 -85 -84t-36 -35t15.5 -25.5t31.5 -37.5q25 -33 37 -76t12 -84v-19q0 -8 -2 -16l-57 -323q-2 -8 -2 -17v-16q0 -55 35.5 -95 t103.5 -55q12 -6 12 -16v-4l-22 -123q-4 -14 -12.5 -17.5t-28.5 -3.5q-55 0 -105.5 20.5t-87.5 57.5t-59.5 88t-22.5 113q0 47 9 88l53 297q2 10 3 20.5t1 18.5q0 59 -38 87t-103 56q-12 6 -13 15v6l23 127q2 12 7 14t13 6q39 14 72 29.5t58.5 35t43 47t25.5 70.5l53 297 q14 80 49 145.5t88 112.5q57 51 129 80t125 29q39 0 39 -14v-6z" />
<glyph unicode="|" horiz-adv-x="1558" d="M782 1047q-63 100 -164 100q-39 0 -75.5 -14.5t-65 -39t-49 -58.5t-27.5 -72l-20 -113v-6q0 -14 16 -15h314q23 0 24 21l13 72q8 61 32 108zM1313 20q-2 -20 -25 -20h-143q-16 0 -17 14v6l191 1086v6q0 14 -16 14h-150q-78 0 -140.5 -53t-76.5 -131l-16 -92v-6 q0 -14 16 -15h143q18 0 19 -16v-4l-23 -123q-2 -20 -24 -20h-144q-20 0 -22 -21l-119 -665q-12 -70 -51 -136.5t-103 -124.5q-121 -109 -278 -108q-109 0 -109 20q0 8 4 15l64 118q8 14 22 15q12 -2 24.5 -3t22.5 -1q78 0 139.5 53t76.5 131l122 686v4q0 16 -18 17h-313 q-20 0 -23 -21l-135 -758q-25 -143 -154 -260q-119 -109 -280 -108q-104 0 -105 20q0 8 4 15l62 118q8 14 22 15q6 0 17.5 -2t29.5 -2q78 0 140.5 54t77.5 130l137 778v4q0 16 -19 17h-51q-16 0 -16 14v6l22 123q2 20 23 20h51q23 0 25 21l16 92q14 78 54 145.5t98.5 116.5 t131 78t150.5 29q53 0 96 -8.5t70 -22.5q47 -25 70.5 -52.5t34.5 -27.5q8 0 28.5 14.5t54 31t78.5 30.5t103 14h334q16 0 16 -14v-6z" />
<glyph unicode="}" horiz-adv-x="737" d="M709 500q-2 -10 -7.5 -13.5t-13.5 -7.5l-72 -29q-33 -13 -58.5 -34t-42.5 -48.5t-26 -70.5l-53 -297q-16 -84 -55 -151.5t-93.5 -115.5t-118 -74t-126.5 -26q-37 0 -37 15v6l23 123q2 10 7 13t13 7q39 14 72 29.5t58.5 35t43 47.5t25.5 71l57 323q4 29 20.5 64.5 t43.5 68.5q49 61 86 88t37 37q0 12 -16.5 24.5t-33.5 35.5q-25 31 -37 71.5t-12 81.5v19q0 8 2 16l60 338q2 10 3 20.5t1 18.5q0 59 -39 86.5t-103 56.5q-12 6 -12 14v7l23 123q4 14 12 17t29 3q57 0 107 -20.5t87 -58.5t57.5 -91t20.5 -121q0 -37 -6 -76l-53 -297 q-2 -10 -3 -20t-1 -21q0 -29 10 -49t28.5 -35.5t44 -28.5t58.5 -28q12 -6 12 -14v-6z" />
<glyph unicode="~" horiz-adv-x="1122" d="M778 1057q-70 90 -160 90q-39 0 -75.5 -14.5t-65 -39t-49 -58.5t-27.5 -72l-20 -113v-6q0 -14 16 -15h314q23 0 24 21l17 92q4 27 11 51.5t17 46.5zM1229 1157q-8 -14 -25 -14q-16 2 -28.5 3t-18.5 1q-39 0 -76 -14.5t-65.5 -40t-49 -59.5t-26.5 -70l-20 -113v-6 q0 -14 16 -15h143q18 0 19 -16v-4l-23 -123q-2 -20 -24 -20h-144q-20 0 -22 -21l-119 -665q-12 -70 -51 -136.5t-103 -124.5q-121 -109 -278 -108q-109 0 -109 20q0 8 4 15l64 118q8 14 22 15q12 -2 24.5 -3t22.5 -1q78 0 139.5 53t76.5 131l122 686v4q0 16 -18 17h-313 q-20 0 -23 -21l-135 -758q-25 -143 -154 -260q-119 -109 -280 -108q-104 0 -105 20q0 8 4 15l62 118q8 14 22 15q6 0 17.5 -2t29.5 -2q78 0 140.5 54t77.5 130l137 778v4q0 16 -19 17h-51q-16 0 -16 14v6l22 123q2 20 23 20h51q23 0 25 21l16 92q14 78 54 145.5t99.5 116.5 t134 78t158.5 29q111 0 179 -47q31 -23 47 -37.5t20 -14.5q10 0 44 20l93 54q20 10 56.5 17.5t87.5 7.5q109 0 108 -23q0 -4 -4 -12z" />
<glyph unicode="&#xa1;" horiz-adv-x="552" d="M254 186l-94 -534q-2 -20 -25 -21h-143q-16 0 -17 15v6l95 534l104 349q6 18 25 18h55q16 0 16 -18zM389 848q0 -53 -40 -92t-93 -39q-43 0 -69.5 25.5t-26.5 68.5q0 53 41 92t94 39q43 0 68.5 -25.5t25.5 -68.5z" />
<glyph unicode="&#xa2;" d="M541 934q0 14 -11 14q-23 0 -46 -13t-45.5 -37t-39 -54.5t-22.5 -65.5l-47 -266q-2 -8 -2 -16v-17q0 -57 29.5 -97t64.5 -40q16 0 18 20l101 566v6zM670 1137q0 -12 12 -14.5t37 -8.5q102 -27 154.5 -82t52.5 -110q0 -12 -13 -19l-141 -65q-4 -2 -10 -2q-8 0 -17 12 q-23 41 -42 69.5t-54 28.5q-14 0 -16 -20l-101 -561v-7q0 -14 11 -14q27 0 50 17.5t42 38.5l33 39q14 17 26 18q8 0 11 -2l116 -66q10 -6 10 -14q0 -10 -12 -30.5t-33.5 -44.5t-51 -46.5t-66.5 -34.5q-80 -29 -124 -39t-48 -33l-23 -127q-2 -20 -24 -20h-52q-16 0 -16 14v6 l22 127v3q0 16 -29.5 22t-82.5 23q-68 23 -110 88t-42 157q0 35 6 72l48 266q25 131 120 232q37 37 98.5 66.5t143.5 45.5l14 7q6 3 9 14l22 127q2 20 25 20h51q16 0 16 -14v-6l-22 -127v-6z" />
<glyph unicode="&#xa3;" d="M326 942q14 78 54 145.5t98.5 116.5t131 78t150.5 29q68 0 124 -18.5t96 -47t61.5 -65.5t21.5 -76q0 -10 -14 -17l-144 -65q-4 -2 -12 -2q-6 0 -12 12q-29 53 -58.5 84t-97.5 31q-37 0 -72 -14.5t-63.5 -40t-49 -59.5t-26.5 -70l-37 -205v-6q0 -14 17 -15h143 q18 0 18 -16v-4l-22 -123q-2 -20 -25 -21h-143q-20 0 -23 -20l-41 -225q-6 -31 -17 -56.5t-23.5 -44l-21.5 -31t-9 -20.5q0 -12 20 -12h463q16 0 16 -14v-7l-20 -123q-2 -20 -25 -20h-880q-16 0 -17 14v6l21 123q2 20 24 21h95q170 47 194 184l37 205v4q0 16 -18 16h-52 q-16 0 -16 15v6l23 123q2 20 22 20h51q23 0 25 21z" />
<glyph unicode="&#xa4;" horiz-adv-x="1241" d="M926 887q0 61 -23.5 116.5t-64.5 97.5t-96.5 65.5t-118.5 23.5t-118.5 -23.5t-96.5 -65.5t-65 -97.5t-24 -116.5q0 -63 24 -118.5t65 -97.5t96 -65.5t119 -23.5q63 0 118.5 23.5t96.5 65.5t64.5 97.5t23.5 118.5zM367 1219q113 86 254 86t256 -86l204 204l82 -80 l-205 -206q82 -109 82 -252q0 -70 -19.5 -132.5t-62.5 -119.5l205 -205l-82 -82l-204 205q-53 -41 -116 -63.5t-138 -22.5q-143 0 -256 86l-205 -205l-82 82l207 205q-35 43 -59.5 106.5t-24.5 145.5q0 139 84 252l-207 206l82 80z" />
<glyph unicode="&#xa5;" d="M684 707q-8 -12 -8 -19q0 -12 20 -12h248q16 0 17 -14v-7l-17 -102q-6 -20 -24 -21h-308q-23 0 -24 -20l-29 -164v-6q0 -14 16 -14h308q16 0 16 -15v-6l-16 -102q-6 -20 -25 -21h-307q-23 0 -25 -20l-24 -144q-2 -20 -25 -20h-143q-16 0 -17 14v6l25 144v6q0 14 -16 14 h-308q-16 0 -16 15v6l16 102q6 20 25 21h307q23 0 25 20l28 164v4q0 16 -16 16h-307q-18 0 -19 13q0 2 1 4t1 4l17 102q6 20 24 21h248q27 0 27 20q0 6 -2 11l-199 553q-2 4 -2 10q0 20 27 20h168l16 -12l143 -467q6 -14 15 -14q14 0 22 14l307 467q12 10 21 12h168 q20 0 20 -12q0 -6 -8 -18z" />
<glyph unicode="&#xa6;" horiz-adv-x="1024" d="M588 -350h-150v758h150v-758zM588 674h-150v758h150v-758z" />
<glyph unicode="&#xa7;" d="M637 244q10 0 27.5 32.5t17.5 81.5q0 86 -86 146q-47 31 -88 53.5t-73 36.5l-50 21.5t-20 7.5q-10 0 -32 -36t-22 -87q0 -70 64 -117q109 -78 182.5 -108.5t79.5 -30.5zM670 1311q68 0 124 -18.5t96 -47t61.5 -65.5t21.5 -76q0 -10 -15 -17l-143 -65q-4 -2 -12 -2 q-6 0 -12 12q-29 51 -57.5 83t-92.5 32h-33q-43 0 -82 -17.5t-69.5 -46t-49 -66.5t-18.5 -79q0 -66 49 -101.5t142 -82.5q72 -35 126 -70t91 -74t55 -87t18 -111q0 -84 -17 -133.5t-48 -94.5l-30 -45q-11 -16 -11 -26q0 -2 1 -3t1 -4q29 -80 29 -139q0 -90 -33 -169 t-91.5 -136t-138 -90t-176.5 -33h-86q-72 0 -128 20.5t-95 51.5t-58.5 66.5t-19.5 68.5q0 10 15 16l139 66q4 2 10 2t17 -12q14 -25 27 -45.5t28.5 -36t37 -24.5t56.5 -9h86q43 0 82 17.5t69.5 47t49 68.5t18.5 82q0 74 -53 116t-154 93q-68 33 -119 65.5t-85.5 69.5t-52 81 t-17.5 99q0 168 104 287q6 8 6 14q0 16 -18 52t-18 90q0 88 32.5 165.5t91 136t139.5 91.5t177 33h33z" />
<glyph unicode="&#xa8;" horiz-adv-x="1024" d="M553 1200q0 -47 -37 -83t-84 -36q-37 0 -61.5 23.5t-24.5 62.5q0 47 38 83t85 36q37 0 60.5 -23.5t23.5 -62.5zM874 1200q0 -47 -37.5 -83t-84.5 -36q-37 0 -61.5 23.5t-24.5 62.5q0 47 37.5 83t84.5 36q37 0 61.5 -23.5t24.5 -62.5z" />
<glyph unicode="&#xa9;" horiz-adv-x="1474" d="M492 760q18 109 99 175t204 66q98 0 152 -40.5t54 -83.5q0 -12 -12 -19l-65 -31q-8 -4 -11 -4q-8 0 -14 11q-49 76 -121 75q-68 0 -118 -43t-60 -106l-35 -203q-2 -8 -2 -27q0 -53 35 -88.5t92 -35.5q35 0 61.5 13t46.5 31l33 30q14 13 25 14q6 0 8 -2l56 -33 q10 -6 10 -15q0 -16 -18.5 -38.5t-52.5 -43t-81 -36t-104 -15.5q-104 0 -162.5 53.5t-58.5 143.5q0 12 1 24.5t3 24.5zM1247 942q2 14 3 26.5t1 24.5q0 94 -62.5 149.5t-172.5 55.5h-369q-129 0 -215 -69.5t-106 -186.5l-105 -594q-4 -14 -4 -26v-25q0 -94 62.5 -149.5 t173.5 -55.5h368q129 0 215 69.5t107 186.5zM1235 348q-14 -78 -51 -141.5t-93.5 -109.5t-129 -71.5t-156.5 -25.5h-369q-147 0 -230 73.5t-83 202.5q0 35 6 72l104 594q14 78 51.5 141.5t93.5 109.5t129 71.5t157 25.5h368q147 0 230.5 -74.5t83.5 -201.5q0 -35 -7 -72z " />
<glyph unicode="&#xaa;" horiz-adv-x="679" d="M516 1044q2 6 2 21q0 41 -28.5 69.5t-71.5 28.5q-51 0 -90 -34.5t-49 -84.5l-29 -157q-2 -6 -2 -21q0 -41 28.5 -69.5t71.5 -28.5q49 0 89 36t50 83zM598 657q-6 -25 -29 -24h-63q-23 0 -23 14q0 4 1 5t1 5l11 58l-21 4q-68 -86 -162 -86q-98 0 -157.5 56t-59.5 149 q0 12 1 24t3 25l29 157q10 55 37 101.5t65.5 80.5t88 53t104.5 19q53 0 85 -19t54 -67l21 5l10 57q6 25 29 24h63q23 0 23 -14q0 -4 -1 -5t-1 -5z" />
<glyph unicode="&#xab;" horiz-adv-x="1134" d="M582 803l-11 -17l-311 -198q-14 -8 -14 -17q0 -10 8 -16l242 -199l4 -16l-21 -117q-4 -23 -18 -22q-10 0 -17 6l-354 287l-4 16l20 121l13 16l454 289q8 6 21 6q8 0 8 -16v-6zM1024 803l-10 -17l-312 -198q-14 -8 -14 -17q0 -10 8 -16l242 -199l4 -16l-20 -117 q-4 -23 -19 -22q-8 0 -16 6l-357 287l-4 16l21 121l12 16l457 289q8 6 20 6q8 0 8 -16v-6z" />
<glyph unicode="&#xac;" horiz-adv-x="1705" d="M1452 358h-137v363h-1061v139h1198v-502z" />
<glyph unicode="&#xad;" horiz-adv-x="552" d="M412 389q-2 -20 -23 -20h-328q-18 0 -18 16v4l27 143q2 20 24 21h328q16 0 16 -14v-7z" />
<glyph unicode="&#xae;" horiz-adv-x="901" d="M596 1006q0 59 -51 59h-66q-23 0 -24 -21l-17 -96v-6q0 -14 17 -14h65q53 0 76 65v13zM659 985q-6 -25 -19 -42t-27 -30l-23 -21q-10 -9 -10 -20v-4l32 -102q0 -2 1 -4t1 -4q0 -20 -26 -21h-33q-12 0 -14 13l-29 108q-10 12 -16 12h-52q-23 0 -24 -20l-17 -92 q-2 -20 -24 -21h-23q-16 0 -16 15v6l61 344q2 20 25 20h129q51 0 81 -28.5t30 -71.5q0 -8 -4 -29zM811 942q2 14 3 27.5t1 25.5q0 109 -68.5 171.5t-191.5 62.5h-8q-72 0 -133.5 -21.5t-108.5 -59.5t-77.5 -90t-39.5 -116l-6 -41q-2 -14 -3 -27.5t-1 -27.5 q0 -109 68.5 -170.5t191.5 -61.5h8q72 0 133.5 21.5t108.5 59.5t77 90.5t40 115.5zM866 901q-12 -78 -48 -141.5t-92 -109.5t-130 -71.5t-160 -25.5h-8q-147 0 -230 76t-83 207q0 31 6 65l6 41q12 76 48 140.5t92.5 110.5t130 71.5t159.5 25.5h8q147 0 230.5 -75.5 t83.5 -206.5q0 -33 -7 -66z" />
<glyph unicode="&#xaf;" horiz-adv-x="1024" d="M823 1126q-2 -20 -24 -20h-430q-16 0 -17 14v6l23 123q2 20 22 21h430q18 0 19 -17v-4z" />
<glyph unicode="&#x2c9;" horiz-adv-x="1024" d="M823 1126q-2 -20 -24 -20h-430q-16 0 -17 14v6l23 123q2 20 22 21h430q18 0 19 -17v-4z" />
<glyph unicode="&#xb0;" horiz-adv-x="450" d="M387 1147q0 27 -17.5 46t-45.5 19q-35 0 -61.5 -23.5t-31.5 -53.5l-10 -60v-10q0 -29 17.5 -47.5t46.5 -18.5q35 0 61.5 24t30.5 54l10 60v10zM483 1075q-12 -78 -69.5 -126t-143.5 -48q-74 0 -116.5 39t-42.5 102q0 10 1 17.5t3 17.5l10 60q14 78 70.5 126t142.5 48 q74 0 117 -38t43 -104q0 -8 -1 -16t-3 -18z" />
<glyph unicode="&#xb1;" horiz-adv-x="1705" d="M1452 29h-1198v141h1198v-141zM924 852h528v-139h-528v-340h-142v340h-528v139h528v340h142v-340z" />
<glyph unicode="&#xb2;" horiz-adv-x="690" d="M432 1303q96 0 151.5 -45.5t55.5 -118.5q0 -88 -53.5 -153.5t-163.5 -123.5l-92 -46q-43 -22 -76 -44t-54.5 -49t-27.5 -64l-4 -32v-4q0 -8 10 -9h338q10 0 10 -8v-4l-12 -74q-4 -12 -16 -12h-461q-10 0 -10 8v4l24 131q10 51 32.5 90t58.5 73t84 62.5t110 57.5 q86 43 132 80t46 90q0 41 -28.5 66.5t-73.5 25.5h-52q-51 0 -81 -26q-25 -23 -36.5 -36.5t-21.5 -13.5h-6l-78 41q-6 2 -6 9q0 10 22.5 34.5t73.5 55.5q29 16 67 25.5t85 9.5h53z" />
<glyph unicode="&#xb3;" horiz-adv-x="690" d="M616 1063q-4 -16 -14 -37.5t-27 -40.5q-35 -35 -57 -51t-22 -21q0 -6 15 -18t26 -33q23 -39 22 -84v-18l-8 -37q-18 -102 -95 -160.5t-192 -58.5h-39q-47 0 -84 11t-62.5 29.5t-38.5 41t-13 43.5q0 8 8 10l92 39q2 2 8 2q4 0 10 -8q27 -70 99 -70h41q51 0 92 32t51 79 l8 43v20q0 37 -27.5 63.5t-72.5 26.5h-109q-10 0 -10 8v5l14 73q2 12 15 13h108q49 0 91 31.5t53 78.5l4 19q2 8 2 20q0 39 -29 64.5t-74 25.5h-41q-51 0 -81 -26q-25 -23 -36.5 -36.5t-21.5 -13.5h-6l-78 41q-6 2 -6 9q0 10 22.5 34.5t73.5 55.5q29 16 67 25.5t85 9.5h41 q98 0 152.5 -45.5t54.5 -122.5q0 -27 -6 -54z" />
<glyph unicode="&#xb4;" horiz-adv-x="1024" d="M608 1040l-16 -6h-88q-18 0 -19 15q0 8 9 16l213 256q4 4 18 10h180q20 0 21 -14q0 -12 -13 -21z" />
<glyph unicode="&#xb5;" horiz-adv-x="1150" d="M256 471q-14 -63 -14 -133q0 -100 52 -153.5t148 -53.5q137 0 212 98.5t120 305.5l115 536h178l-156 -731q-10 -45 -16 -78t-6 -55q0 -37 16.5 -52.5t55.5 -15.5h15q7 0 17 2l-30 -143q-29 -6 -55.5 -8t-53.5 -2q-66 0 -98.5 29.5t-50.5 99.5q-88 -131 -271 -131 q-82 0 -142.5 27.5t-113.5 88.5l-110 -530h-181l318 1499h180z" />
<glyph unicode="&#x3bc;" horiz-adv-x="1150" d="M256 471q-14 -63 -14 -133q0 -100 52 -153.5t148 -53.5q137 0 212 98.5t120 305.5l115 536h178l-156 -731q-10 -45 -16 -78t-6 -55q0 -37 16.5 -52.5t55.5 -15.5h15q7 0 17 2l-30 -143q-29 -6 -55.5 -8t-53.5 -2q-66 0 -98.5 29.5t-50.5 99.5q-88 -131 -271 -131 q-82 0 -142.5 27.5t-113.5 88.5l-110 -530h-181l318 1499h180z" />
<glyph unicode="&#xb6;" horiz-adv-x="1259" d="M911 -440q-2 -20 -24 -21h-144q-16 0 -16 15v6l272 1546v6q0 14 -16 14h-143q-23 0 -25 -20l-272 -1546q-2 -20 -25 -21h-143q-16 0 -17 15v6l107 604v4q0 16 -16 16h-41q-143 0 -227.5 75t-84.5 190q0 70 21 184l49 280q8 45 22.5 85t32.5 75q59 104 157.5 160.5 t223.5 56.5h594q10 0 14 -4q2 -2 2 -16z" />
<glyph unicode="&#xb7;" horiz-adv-x="450" d="M336 664q0 -53 -40 -91t-93 -38q-43 0 -68.5 24.5t-25.5 67.5q0 53 38.5 93t94.5 40q43 0 68.5 -26.5t25.5 -69.5z" />
<glyph unicode="&#x2219;" horiz-adv-x="450" d="M336 664q0 -53 -40 -91t-93 -38q-43 0 -68.5 24.5t-25.5 67.5q0 53 38.5 93t94.5 40q43 0 68.5 -26.5t25.5 -69.5z" />
<glyph unicode="&#xb8;" horiz-adv-x="1024" d="M475 -270q-12 -82 -78.5 -136.5t-163.5 -54.5h-98q-16 0 -16 15v6l14 82q2 20 25 20h98q31 0 53.5 19.5t26.5 48.5l2 16v12q0 25 -15.5 41.5t-39.5 16.5h-39q-18 0 -19 14q0 4 6 14l105 162h141l-59 -88q-4 -4 -4 -12q0 -6 10 -15.5t22.5 -26t22.5 -40t10 -53.5 q0 -16 -2 -25z" />
<glyph unicode="&#xb9;" horiz-adv-x="690" d="M518 528q-4 -12 -16 -12h-420q-10 0 -10 8v4l14 74q2 12 16 12h136q14 0 14 13l88 444v2q0 10 -10 10q-8 0 -13 -4l-77 -61q-4 -4 -11 -4l-8 4l-49 53q-2 2 -2 8q0 4 6 11l256 196l10 4h47q10 0 11 -8v-4l-125 -651v-4q0 -8 10 -9h135q10 0 10 -8v-4z" />
<glyph unicode="&#xba;" horiz-adv-x="659" d="M518 1057q0 4 1 9t1 9q0 41 -28.5 71t-71.5 30q-51 0 -90 -35t-49 -84l-33 -187q0 -4 -1 -9t-1 -9q0 -41 28.5 -70.5t71.5 -29.5q51 0 91 35.5t48 82.5zM635 870q-20 -115 -105.5 -184.5t-207.5 -69.5q-109 0 -168.5 54.5t-59.5 146.5v27q0 12 4 26l33 187 q20 115 105.5 184.5t207.5 69.5q109 0 168.5 -55.5t59.5 -147.5v-25q0 -12 -4 -26z" />
<glyph unicode="&#xbb;" horiz-adv-x="1134" d="M555 510l-12 -16l-455 -287q-12 -6 -18 -6q-12 0 -13 16v6l21 117l12 16l311 199q14 10 15 16q0 10 -8 17l-242 198l-6 17l20 117q4 23 21 22q10 0 16 -6l354 -289l4 -16zM995 510l-12 -16l-453 -287q-12 -6 -18 -6q-12 0 -12 16v6l20 117l12 16l312 199q14 10 14 16 q0 10 -8 17l-242 198l-6 17l21 117q4 23 20 22q10 0 16 -6l353 -289l4 -16z" />
<glyph unicode="&#xbc;" horiz-adv-x="1953" d="M1712 532q0 10 -8 11q-6 0 -12 -6l-248 -261q-4 -4 -4 -10q0 -8 12 -8h195q10 0 14 12l51 260v2zM1874 178q0 -12 -12 -12h-93q-12 0 -14 -10l-29 -144q-4 -12 -16 -12h-90q-10 0 -10 8v4l28 144v2q0 8 -10 8h-321q-12 0 -13 10v2l19 80l432 461l12 4h96q10 0 11 -8v-4 l-86 -441v-4q0 -8 10 -8h90q10 0 10 -8v-4zM670 20q-14 -20 -37 -20h-47q-37 0 -37 33q0 12 6 24l721 1213q14 20 37 20h47q37 0 37 -35q0 -10 -6 -22zM494 580q0 -12 -15 -13h-401q-10 0 -10 8v5l14 67q2 12 14 12h129q14 0 17 11l82 415v2q0 10 -9 11q-6 0 -12 -6l-74 -56 q-4 -4 -10 -4q-4 0 -8 4l-45 49q-4 2 -4 9q0 2 6 8l246 184l8 4h45q10 0 10 -8v-4l-119 -608v-2q0 -8 11 -9h129q10 0 10 -8v-4z" />
<glyph unicode="&#xbd;" horiz-adv-x="1953" d="M1706 733q92 0 144.5 -42t52.5 -109q0 -84 -50.5 -144.5t-154.5 -113.5l-90 -44q-41 -19 -72 -41t-50.5 -46.5t-25.5 -59.5l-6 -31v-2q0 -8 10 -8h324q10 0 10 -8v-4l-14 -68q0 -12 -15 -12h-438q-10 0 -10 8v4l22 121q18 94 87 151.5t184 112.5q82 41 126 75t44 85 q0 37 -27.5 61.5t-68.5 24.5h-50q-51 0 -77 -27q-23 -20 -35.5 -32.5t-20.5 -12.5h-6l-74 37q-6 2 -6 8q0 10 21.5 33t70.5 51q55 33 146 33h49zM670 20q-14 -20 -37 -20h-47q-37 0 -37 33q0 12 6 24l721 1213q14 20 37 20h47q37 0 37 -35q0 -10 -6 -22zM494 580 q0 -12 -15 -13h-401q-10 0 -10 8v5l14 67q2 12 14 12h129q14 0 17 11l82 415v2q0 10 -9 11q-6 0 -12 -6l-74 -56q-4 -4 -10 -4q-4 0 -8 4l-45 49q-4 2 -4 9q0 2 6 8l246 184l8 4h45q10 0 10 -8v-4l-119 -608v-2q0 -8 11 -9h129q10 0 10 -8v-4z" />
<glyph unicode="&#xbe;" horiz-adv-x="1953" d="M1712 532q0 10 -8 11q-6 0 -12 -6l-248 -261q-4 -4 -4 -10q0 -8 12 -8h195q10 0 14 12l51 260v2zM1874 178q0 -12 -12 -12h-93q-12 0 -14 -10l-29 -144q-4 -12 -16 -12h-90q-10 0 -10 8v4l28 144v2q0 8 -10 8h-321q-12 0 -13 10v2l19 80l432 461l12 4h96q10 0 11 -8v-4 l-86 -441v-4q0 -8 10 -8h90q10 0 10 -8v-4zM670 20q-14 -20 -37 -20h-47q-37 0 -37 33q0 12 6 24l721 1213q14 20 37 20h47q37 0 37 -35q0 -10 -6 -22zM588 1077q-4 -16 -13.5 -35.5t-25.5 -35.5q-31 -35 -53.5 -49.5t-22.5 -18.5q0 -6 14.5 -17.5t24.5 -31.5q23 -37 23 -76 q0 -12 -3 -18l-6 -35q-16 -94 -90 -149.5t-184 -55.5h-37q-92 0 -141 39t-49 80q0 6 8 8l88 37q2 0 4 1t4 1q6 0 8 -8q29 -66 94 -66h39q49 0 88 31t50 74l8 39v18q0 35 -27 60.5t-70 25.5h-102q-10 0 -10 8v2l14 70q0 10 15 10h102q47 0 87 29.5t50 75.5l4 16q0 6 1 10 t1 10q0 35 -27.5 59.5t-70.5 24.5h-39q-51 0 -78 -26q-23 -20 -35 -32.5t-20 -12.5h-6l-74 37q-6 2 -6 8q0 10 21.5 32.5t70.5 51.5q55 33 145 32h39q92 0 144.5 -41.5t52.5 -113.5q0 -25 -6 -49z" />
<glyph unicode="&#xbf;" d="M760 -166q8 -2 8 -14q0 -20 -35 -60.5t-108 -89.5q-41 -29 -100.5 -44t-131.5 -15h-78q-147 0 -231 74.5t-84 195.5q0 195 131 314q53 47 119.5 72.5t126.5 58.5q57 31 84.5 69.5t32.5 98.5q4 33 6 46t22 13h142q12 0 14 -6t2 -23q0 -121 -51 -197.5t-160 -133.5 q-53 -29 -104.5 -51.5t-90 -49t-62.5 -64.5t-24 -98q0 -70 44 -112.5t112 -42.5h78q104 0 188 114q8 12 19 13q6 0 10 -2zM727 848q0 -53 -40 -92t-93 -39q-43 0 -69.5 25.5t-26.5 68.5q0 53 41 92t94 39q43 0 68.5 -25.5t25.5 -68.5z" />
<glyph unicode="&#xc0;" horiz-adv-x="921" d="M696 1432q0 -4 1 -5.5t1 -5.5q0 -20 -24 -20h-88l-13 6l-215 256q-6 6 -6 14q0 20 27 21h180l14 -10zM526 872q0 10 -3 33t-5 58h-8q-14 -29 -24 -52l-17 -41l-168 -383q-2 -4 -2 -12q0 -14 18 -14h215q25 0 25 22v4zM805 20q0 -20 -25 -20h-153q-18 0 -19 14l-26 271 q0 12 -19 12h-332q-18 0 -22 -12l-125 -271q-6 -14 -23 -14h-153q-20 0 -21 14q0 4 4 13l603 1249q6 14 22 14h111q16 0 18 -14l160 -1249v-7z" />
<glyph unicode="&#xc1;" horiz-adv-x="921" d="M526 872q0 10 -3 33t-5 58h-8q-14 -29 -24 -52l-17 -41l-168 -383q-2 -4 -2 -12q0 -14 18 -14h215q25 0 25 22v4zM805 20q0 -20 -25 -20h-153q-18 0 -19 14l-26 271q0 12 -19 12h-332q-18 0 -22 -12l-125 -271q-6 -14 -23 -14h-153q-20 0 -21 14q0 4 4 13l603 1249 q6 14 22 14h111q16 0 18 -14l160 -1249v-7zM616 1409l-16 -6h-88q-18 0 -19 15q0 8 9 16l213 256q4 4 18 10h180q20 0 21 -14q0 -12 -13 -21z" />
<glyph unicode="&#xc2;" horiz-adv-x="921" d="M834 1436q4 -8 4 -15q0 -18 -27 -18h-98l-15 10l-65 139q-6 12 -15 13q-8 0 -16 -13l-113 -139l-18 -10h-98q-20 0 -21 14q0 4 10 19l228 256l18 8h74l14 -8zM526 872q0 10 -3 33t-5 58h-8q-14 -29 -24 -52l-17 -41l-168 -383q-2 -4 -2 -12q0 -14 18 -14h215q25 0 25 22 v4zM805 20q0 -20 -25 -20h-153q-18 0 -19 14l-26 271q0 12 -19 12h-332q-18 0 -22 -12l-125 -271q-6 -14 -23 -14h-153q-20 0 -21 14q0 4 4 13l603 1249q6 14 22 14h111q16 0 18 -14l160 -1249v-7z" />
<glyph unicode="&#xc3;" horiz-adv-x="921" d="M526 872q0 10 -3 33t-5 58h-8q-14 -29 -24 -52l-17 -41l-168 -383q-2 -4 -2 -12q0 -14 18 -14h215q25 0 25 22v4zM805 20q0 -20 -25 -20h-153q-18 0 -19 14l-26 271q0 12 -19 12h-332q-18 0 -22 -12l-125 -271q-6 -14 -23 -14h-153q-20 0 -21 14q0 4 4 13l603 1249 q6 14 22 14h111q16 0 18 -14l160 -1249v-7zM909 1588q6 -6 6 -15q0 -4 -4 -12q-47 -72 -100 -105.5t-101 -33.5q-66 0 -120 53l-35 27q-33 27 -70 26q-25 0 -44 -10t-34 -23l-25 -22q-11 -10 -22 -10q-2 0 -10 4l-39 32q-8 6 -8 13q0 16 57 74q76 76 148 75q66 0 121 -49 l34 -31q29 -25 70 -24q27 0 48.5 10t36.5 23.5l25.5 23.5t16.5 10q10 0 14 -4z" />
<glyph unicode="&#xc4;" horiz-adv-x="921" d="M526 872q0 10 -3 33t-5 58h-8q-14 -29 -24 -52l-17 -41l-168 -383q-2 -4 -2 -12q0 -14 18 -14h215q25 0 25 22v4zM805 20q0 -20 -25 -20h-153q-18 0 -19 14l-26 271q0 12 -19 12h-332q-18 0 -22 -12l-125 -271q-6 -14 -23 -14h-153q-20 0 -21 14q0 4 4 13l603 1249 q6 14 22 14h111q16 0 18 -14l160 -1249v-7zM561 1569q0 -47 -37 -83t-84 -36q-37 0 -61.5 23.5t-24.5 62.5q0 47 38 83t85 36q37 0 60.5 -23.5t23.5 -62.5zM882 1569q0 -47 -37.5 -83t-84.5 -36q-37 0 -61.5 23.5t-24.5 62.5q0 47 37.5 83t84.5 36q37 0 61.5 -23.5 t24.5 -62.5z" />
<glyph unicode="&#xc5;" horiz-adv-x="921" d="M698 1620q0 4 1 6t1 6q0 27 -18 45.5t-47 18.5q-33 0 -61.5 -24.5t-32.5 -55.5l-11 -57q0 -4 -1 -7.5t-1 -7.5q0 -29 17.5 -46t46.5 -17q33 0 60.5 23.5t33.5 56.5zM793 1559q-16 -80 -73.5 -127.5t-139.5 -47.5q-76 0 -118 37t-42 103q0 10 1 18t3 19l10 59 q14 78 71.5 126t143.5 48q74 0 117 -39t43 -100q0 -10 -1 -19.5t-3 -19.5zM526 872q0 10 -3 33t-5 58h-8q-14 -29 -24 -52l-17 -41l-168 -383q-2 -4 -2 -12q0 -14 18 -14h215q25 0 25 22v4zM805 20q0 -20 -25 -20h-153q-18 0 -19 14l-26 271q0 12 -19 12h-332q-18 0 -22 -12 l-125 -271q-6 -14 -23 -14h-153q-20 0 -21 14q0 4 4 13l603 1249q6 14 22 14h111q16 0 18 -14l160 -1249v-7z" />
<glyph unicode="&#xc6;" horiz-adv-x="1429" d="M649 948l-28 -43q-12 -18 -23 -31l-285 -382q-6 -10 -6 -17q0 -14 21 -14h217q20 0 22 20l29 158l30 162q13 76 29 145zM1423 1147q-2 -20 -24 -21h-512q-23 0 -25 -20l-61 -348v-6q0 -14 16 -15h420q18 0 18 -16v-4l-22 -123q-2 -20 -25 -21h-420q-20 0 -22 -20 l-66 -369v-6q0 -14 17 -14h512q16 0 16 -14v-7l-20 -123q-2 -20 -25 -20h-696q-16 0 -17 14v6l45 256v7q0 14 -16 14h-334l-22 -8l-205 -279q-8 -6 -21 -10h-149q-20 0 -21 12q0 10 9 19l956 1249q4 4 10 6t11 4h677q16 0 17 -14v-6z" />
<glyph unicode="&#xc7;" horiz-adv-x="952" d="M475 -270q-12 -82 -78.5 -136.5t-163.5 -54.5h-98q-16 0 -16 15v6l14 82q2 20 25 20h98q31 0 53.5 19.5t26.5 48.5l2 16v12q0 25 -15.5 41.5t-39.5 16.5h-39q-18 0 -19 14q0 4 6 14l88 138q-129 16 -195.5 87.5t-66.5 186.5q0 35 6 72l113 635q14 78 51 142t93.5 110.5 t129 71t156.5 24.5h62q68 0 124 -17.5t96 -46t61.5 -64.5t21.5 -73q0 -16 -15 -23l-143 -65q-4 -2 -10 -2q-8 0 -15 12q-29 51 -57.5 83t-91.5 32h-61q-78 0 -140.5 -53.5t-77.5 -130.5l-112 -635q-2 -8 -2 -17v-16q0 -66 43 -109t110 -43h62q37 0 71.5 13.5t57.5 36.5 q37 35 54.5 57t27.5 22q8 0 12 -2l119 -65q8 -2 8 -12q0 -6 -16.5 -33t-55.5 -66q-43 -45 -111.5 -71.5t-166.5 -42.5l-43 -62q-4 -4 -4 -12q0 -6 10 -15.5t22.5 -26t22.5 -40t10 -53.5q0 -16 -2 -25z" />
<glyph unicode="&#xc8;" horiz-adv-x="940" d="M737 1432q0 -4 1 -5.5t1 -5.5q0 -20 -24 -20h-88l-13 6l-215 256q-6 6 -6 14q0 20 27 21h180l14 -10zM657 1311q72 0 128.5 -20.5t95.5 -51.5t59.5 -66.5t20.5 -68.5q0 -10 -15 -17l-141 -65q-4 -2 -10 -2q-8 0 -17 12l-28.5 45.5t-27.5 35.5t-36.5 24.5t-56.5 9.5h-62 q-76 0 -138 -53.5t-79 -130.5l-6 -31q-2 -10 -3 -17.5t-1 -17.5q0 -61 44 -105t112 -44h163q18 0 19 -17v-4l-23 -123q-2 -20 -24 -20h-164q-78 0 -140.5 -53.5t-76.5 -131.5l-12 -71q-2 -8 -2 -17v-16q0 -66 43 -109t110 -43h62q37 0 70.5 13.5t56.5 36.5q35 35 53 57 t31 22q6 0 10 -2l119 -65q8 -4 8 -12q0 -10 -33 -56.5t-111 -97.5q-41 -27 -101 -43t-132 -16h-62q-147 0 -229 74.5t-82 207.5q0 20 2 40t6 42l11 62q4 29 21 64.5t42 68.5q51 66 87 91t36 34q0 12 -22.5 30.5t-41.5 50.5q-39 74 -38 132q0 14 4 34l6 31q16 86 55 154.5 t95.5 116t128 73t155.5 25.5h61z" />
<glyph unicode="&#xc9;" horiz-adv-x="940" d="M657 1311q72 0 128.5 -20.5t95.5 -51.5t59.5 -66.5t20.5 -68.5q0 -10 -15 -17l-141 -65q-4 -2 -10 -2q-8 0 -17 12l-28.5 45.5t-27.5 35.5t-36.5 24.5t-56.5 9.5h-62q-76 0 -138 -53.5t-79 -130.5l-6 -31q-2 -10 -3 -17.5t-1 -17.5q0 -61 44 -105t112 -44h163 q18 0 19 -17v-4l-23 -123q-2 -20 -24 -20h-164q-78 0 -140.5 -53.5t-76.5 -131.5l-12 -71q-2 -8 -2 -17v-16q0 -66 43 -109t110 -43h62q37 0 70.5 13.5t56.5 36.5q35 35 53 57t31 22q6 0 10 -2l119 -65q8 -4 8 -12q0 -10 -33 -56.5t-111 -97.5q-41 -27 -101 -43t-132 -16 h-62q-147 0 -229 74.5t-82 207.5q0 20 2 40t6 42l11 62q4 29 21 64.5t42 68.5q51 66 87 91t36 34q0 12 -22.5 30.5t-41.5 50.5q-39 74 -38 132q0 14 4 34l6 31q16 86 55 154.5t95.5 116t128 73t155.5 25.5h61zM657 1409l-16 -6h-88q-18 0 -19 15q0 8 9 16l213 256q4 4 18 10 h180q20 0 21 -14q0 -12 -13 -21z" />
<glyph unicode="&#xca;" horiz-adv-x="940" d="M874 1436q4 -8 5 -15q0 -18 -27 -18h-98l-15 10l-65 139q-6 12 -15 13q-8 0 -16 -13l-113 -139l-18 -10h-98q-20 0 -21 14q0 4 10 19l228 256l18 8h74l14 -8zM657 1311q72 0 128.5 -20.5t95.5 -51.5t59.5 -66.5t20.5 -68.5q0 -10 -15 -17l-141 -65q-4 -2 -10 -2 q-8 0 -17 12l-28.5 45.5t-27.5 35.5t-36.5 24.5t-56.5 9.5h-62q-76 0 -138 -53.5t-79 -130.5l-6 -31q-2 -10 -3 -17.5t-1 -17.5q0 -61 44 -105t112 -44h163q18 0 19 -17v-4l-23 -123q-2 -20 -24 -20h-164q-78 0 -140.5 -53.5t-76.5 -131.5l-12 -71q-2 -8 -2 -17v-16 q0 -66 43 -109t110 -43h62q37 0 70.5 13.5t56.5 36.5q35 35 53 57t31 22q6 0 10 -2l119 -65q8 -4 8 -12q0 -10 -33 -56.5t-111 -97.5q-41 -27 -101 -43t-132 -16h-62q-147 0 -229 74.5t-82 207.5q0 20 2 40t6 42l11 62q4 29 21 64.5t42 68.5q51 66 87 91t36 34 q0 12 -22.5 30.5t-41.5 50.5q-39 74 -38 132q0 14 4 34l6 31q16 86 55 154.5t95.5 116t128 73t155.5 25.5h61z" />
<glyph unicode="&#xcb;" horiz-adv-x="940" d="M657 1311q72 0 128.5 -20.5t95.5 -51.5t59.5 -66.5t20.5 -68.5q0 -10 -15 -17l-141 -65q-4 -2 -10 -2q-8 0 -17 12l-28.5 45.5t-27.5 35.5t-36.5 24.5t-56.5 9.5h-62q-76 0 -138 -53.5t-79 -130.5l-6 -31q-2 -10 -3 -17.5t-1 -17.5q0 -61 44 -105t112 -44h163 q18 0 19 -17v-4l-23 -123q-2 -20 -24 -20h-164q-78 0 -140.5 -53.5t-76.5 -131.5l-12 -71q-2 -8 -2 -17v-16q0 -66 43 -109t110 -43h62q37 0 70.5 13.5t56.5 36.5q35 35 53 57t31 22q6 0 10 -2l119 -65q8 -4 8 -12q0 -10 -33 -56.5t-111 -97.5q-41 -27 -101 -43t-132 -16 h-62q-147 0 -229 74.5t-82 207.5q0 20 2 40t6 42l11 62q4 29 21 64.5t42 68.5q51 66 87 91t36 34q0 12 -22.5 30.5t-41.5 50.5q-39 74 -38 132q0 14 4 34l6 31q16 86 55 154.5t95.5 116t128 73t155.5 25.5h61zM602 1569q0 -47 -37 -83t-84 -36q-37 0 -61.5 23.5t-24.5 62.5 q0 47 38 83t85 36q37 0 60.5 -23.5t23.5 -62.5zM923 1569q0 -47 -37.5 -83t-84.5 -36q-37 0 -61.5 23.5t-24.5 62.5q0 47 37.5 83t84.5 36q37 0 61.5 -23.5t24.5 -62.5z" />
<glyph unicode="&#xcc;" horiz-adv-x="491" d="M475 1432q0 -4 1 -5.5t1 -5.5q0 -20 -24 -20h-88l-13 6l-215 256q-6 6 -6 14q0 20 27 21h180l14 -10zM225 20q-2 -20 -24 -20h-144q-16 0 -16 14v6l219 1250q2 20 25 20h143q16 0 16 -14v-6z" />
<glyph unicode="&#xcd;" horiz-adv-x="491" d="M225 20q-2 -20 -24 -20h-144q-16 0 -16 14v6l219 1250q2 20 25 20h143q16 0 16 -14v-6zM397 1409l-16 -6h-88q-18 0 -19 15q0 8 9 16l213 256q4 4 18 10h180q20 0 21 -14q0 -12 -13 -21z" />
<glyph unicode="&#xce;" horiz-adv-x="491" d="M612 1436q4 -8 4 -15q0 -18 -26 -18h-98l-15 10l-65 139q-6 12 -15 13q-8 0 -16 -13l-113 -139l-18 -10h-98q-20 0 -21 14q0 4 10 19l228 256l18 8h74l14 -8zM225 20q-2 -20 -24 -20h-144q-16 0 -16 14v6l219 1250q2 20 25 20h143q16 0 16 -14v-6z" />
<glyph unicode="&#xcf;" horiz-adv-x="491" d="M225 20q-2 -20 -24 -20h-144q-16 0 -16 14v6l219 1250q2 20 25 20h143q16 0 16 -14v-6zM342 1569q0 -47 -37 -83t-84 -36q-37 0 -61.5 23.5t-24.5 62.5q0 47 38 83t85 36q37 0 60.5 -23.5t23.5 -62.5zM663 1569q0 -47 -37.5 -83t-84.5 -36q-37 0 -61.5 23.5t-24.5 62.5 q0 47 37.5 83t84.5 36q37 0 61.5 -23.5t24.5 -62.5z" />
<glyph unicode="&#xd0;" horiz-adv-x="1075" d="M817 942q2 8 2 16v17q0 66 -43 108.5t-110 42.5h-226q-23 0 -24 -20l-62 -348v-6q0 -14 17 -15h174q18 0 18 -16v-4l-26 -144q-2 -20 -23 -20h-174q-23 0 -25 -21l-61 -348v-6q0 -14 16 -14h226q78 0 140 53t77 131zM901 369q-14 -86 -52 -154t-94.5 -116t-129 -73.5 t-158.5 -25.5h-410q-16 0 -16 14v6l90 512v7q0 14 -16 14h-66q-18 0 -18 16v4l26 144q2 20 23 20h65q23 0 25 21l90 512q2 20 25 20h409q147 0 229.5 -75.5t82.5 -210.5q0 -20 -2.5 -40t-6.5 -42z" />
<glyph unicode="&#xd1;" horiz-adv-x="1136" d="M870 20q-2 -20 -24 -20h-131q-6 0 -17 10l-186 506q-80 225 -135 406q-80 -463 -115 -692.5t-61 -229.5h-144q-16 0 -16 14v6l219 1250q2 20 25 20h131l16 -10l190 -537l132 -385l64 394l87 518q6 20 25 20h143q16 0 17 -14v-6zM960 1588q6 -6 6 -15q0 -4 -4 -12 q-47 -72 -100 -105.5t-101 -33.5q-66 0 -120 53l-35 27q-33 27 -70 26q-25 0 -44 -10t-34 -23l-25 -22q-11 -10 -22 -10q-2 0 -10 4l-39 32q-8 6 -8 13q0 16 57 74q76 76 148 75q66 0 121 -49l34 -31q29 -25 70 -24q27 0 48.5 10t36.5 23.5l25.5 23.5t16.5 10q10 0 14 -4z " />
<glyph unicode="&#xd2;" d="M756 1432q0 -4 1 -5.5t1 -5.5q0 -20 -25 -20h-88l-12 6l-215 256q-6 6 -6 14q0 20 26 21h180l15 -10zM791 963q2 8 2 16v16q0 63 -43 107.5t-111 44.5h-61q-78 0 -140.5 -53.5t-77.5 -130.5l-112 -635q-2 -8 -2 -17v-16q0 -66 43 -109t110 -43h62q78 0 140.5 53.5 t76.5 131.5zM862 328q-14 -78 -51 -141.5t-93 -109.5t-129 -71.5t-157 -25.5h-61q-147 0 -230.5 74.5t-83.5 201.5q0 35 6 72l113 635q14 78 51 142t93.5 110.5t129 71t156.5 24.5h62q147 0 230 -75t83 -202q0 -35 -6 -71z" />
<glyph unicode="&#xd3;" d="M791 963q2 8 2 16v16q0 63 -43 107.5t-111 44.5h-61q-78 0 -140.5 -53.5t-77.5 -130.5l-112 -635q-2 -8 -2 -17v-16q0 -66 43 -109t110 -43h62q78 0 140.5 53.5t76.5 131.5zM862 328q-14 -78 -51 -141.5t-93 -109.5t-129 -71.5t-157 -25.5h-61q-147 0 -230.5 74.5 t-83.5 201.5q0 35 6 72l113 635q14 78 51 142t93.5 110.5t129 71t156.5 24.5h62q147 0 230 -75t83 -202q0 -35 -6 -71zM676 1409l-16 -6h-88q-18 0 -19 15q0 8 9 16l213 256q4 4 18 10h180q20 0 21 -14q0 -12 -13 -21z" />
<glyph unicode="&#xd4;" d="M893 1436q4 -8 4 -15q0 -18 -27 -18h-98l-14 10l-66 139q-6 12 -14 13q-8 0 -16 -13l-113 -139l-19 -10h-98q-20 0 -20 14q0 4 10 19l227 256l19 8h73l15 -8zM791 963q2 8 2 16v16q0 63 -43 107.5t-111 44.5h-61q-78 0 -140.5 -53.5t-77.5 -130.5l-112 -635q-2 -8 -2 -17 v-16q0 -66 43 -109t110 -43h62q78 0 140.5 53.5t76.5 131.5zM862 328q-14 -78 -51 -141.5t-93 -109.5t-129 -71.5t-157 -25.5h-61q-147 0 -230.5 74.5t-83.5 201.5q0 35 6 72l113 635q14 78 51 142t93.5 110.5t129 71t156.5 24.5h62q147 0 230 -75t83 -202q0 -35 -6 -71z " />
<glyph unicode="&#xd5;" d="M791 963q2 8 2 16v16q0 63 -43 107.5t-111 44.5h-61q-78 0 -140.5 -53.5t-77.5 -130.5l-112 -635q-2 -8 -2 -17v-16q0 -66 43 -109t110 -43h62q78 0 140.5 53.5t76.5 131.5zM862 328q-14 -78 -51 -141.5t-93 -109.5t-129 -71.5t-157 -25.5h-61q-147 0 -230.5 74.5 t-83.5 201.5q0 35 6 72l113 635q14 78 51 142t93.5 110.5t129 71t156.5 24.5h62q147 0 230 -75t83 -202q0 -35 -6 -71zM969 1588q6 -6 6 -15q0 -4 -4 -12q-47 -72 -100 -105.5t-101 -33.5q-66 0 -120 53l-35 27q-33 27 -70 26q-25 0 -44 -10t-34 -23l-25 -22 q-11 -10 -22 -10q-2 0 -10 4l-39 32q-8 6 -8 13q0 16 57 74q76 76 148 75q66 0 121 -49l34 -31q29 -25 70 -24q27 0 48.5 10t36.5 23.5l25.5 23.5t16.5 10q10 0 14 -4z" />
<glyph unicode="&#xd6;" d="M791 963q2 8 2 16v16q0 63 -43 107.5t-111 44.5h-61q-78 0 -140.5 -53.5t-77.5 -130.5l-112 -635q-2 -8 -2 -17v-16q0 -66 43 -109t110 -43h62q78 0 140.5 53.5t76.5 131.5zM862 328q-14 -78 -51 -141.5t-93 -109.5t-129 -71.5t-157 -25.5h-61q-147 0 -230.5 74.5 t-83.5 201.5q0 35 6 72l113 635q14 78 51 142t93.5 110.5t129 71t156.5 24.5h62q147 0 230 -75t83 -202q0 -35 -6 -71zM621 1569q0 -47 -37 -83t-84 -36q-37 0 -61.5 23.5t-24.5 62.5q0 47 38 83t85 36q37 0 60.5 -23.5t23.5 -62.5zM942 1569q0 -47 -37.5 -83t-84.5 -36 q-37 0 -61.5 23.5t-24.5 62.5q0 47 37.5 83t84.5 36q37 0 61.5 -23.5t24.5 -62.5z" />
<glyph unicode="&#xd7;" horiz-adv-x="1705" d="M1329 1178l98 -99l-469 -469l469 -469l-98 -96l-469 467l-469 -467l-98 96l469 469l-469 469l98 99l469 -469z" />
<glyph unicode="&#xd8;" d="M791 958q2 6 2 21q0 16 -2 27l-488 -807q-4 -6 -4 -13q0 -12 27.5 -27.5t72.5 -15.5h62q78 0 140.5 53.5t76.5 131.5zM741 1085q4 8 4 13q0 16 -29.5 32.5t-76.5 16.5h-61q-78 0 -140.5 -53.5t-77.5 -130.5l-112 -639v-9q0 -10 8 -10q12 0 18 12zM862 328 q-14 -78 -51 -141.5t-93 -109.5t-129 -71.5t-157 -25.5h-61q-147 0 -230.5 74.5t-83.5 201.5q0 35 6 72l113 635q14 78 51 142t93.5 110.5t129 71t156.5 24.5h62q147 0 230 -75t83 -202q0 -35 -6 -71z" />
<glyph unicode="&#xd9;" d="M758 1432q0 -4 1 -5.5t1 -5.5q0 -20 -25 -20h-88l-12 6l-215 256q-6 6 -6 14q0 20 26 21h181l14 -10zM862 328q-14 -78 -51 -142.5t-93 -110.5t-129 -70.5t-157 -24.5h-61q-147 0 -230.5 75.5t-83.5 200.5q0 35 6 72l166 942q2 20 25 20h143q16 0 17 -14v-6l-166 -942 q-2 -8 -2 -17v-16q0 -66 43 -109t110 -43h62q78 0 140.5 53.5t76.5 131.5l166 942q2 20 24 20h144q16 0 16 -14v-6z" />
<glyph unicode="&#xda;" d="M862 328q-14 -78 -51 -142.5t-93 -110.5t-129 -70.5t-157 -24.5h-61q-147 0 -230.5 75.5t-83.5 200.5q0 35 6 72l166 942q2 20 25 20h143q16 0 17 -14v-6l-166 -942q-2 -8 -2 -17v-16q0 -66 43 -109t110 -43h62q78 0 140.5 53.5t76.5 131.5l166 942q2 20 24 20h144 q16 0 16 -14v-6zM678 1409l-16 -6h-88q-18 0 -19 15q0 8 9 16l213 256q4 4 18 10h180q20 0 21 -14q0 -12 -13 -21z" />
<glyph unicode="&#xdb;" d="M895 1436q4 -8 4 -15q0 -18 -27 -18h-98l-14 10l-66 139q-6 12 -14 13q-8 0 -16 -13l-113 -139l-19 -10h-98q-20 0 -20 14q0 4 10 19l227 256l19 8h73l15 -8zM862 328q-14 -78 -51 -142.5t-93 -110.5t-129 -70.5t-157 -24.5h-61q-147 0 -230.5 75.5t-83.5 200.5 q0 35 6 72l166 942q2 20 25 20h143q16 0 17 -14v-6l-166 -942q-2 -8 -2 -17v-16q0 -66 43 -109t110 -43h62q78 0 140.5 53.5t76.5 131.5l166 942q2 20 24 20h144q16 0 16 -14v-6z" />
<glyph unicode="&#xdc;" d="M862 328q-14 -78 -51 -142.5t-93 -110.5t-129 -70.5t-157 -24.5h-61q-147 0 -230.5 75.5t-83.5 200.5q0 35 6 72l166 942q2 20 25 20h143q16 0 17 -14v-6l-166 -942q-2 -8 -2 -17v-16q0 -66 43 -109t110 -43h62q78 0 140.5 53.5t76.5 131.5l166 942q2 20 24 20h144 q16 0 16 -14v-6zM623 1569q0 -47 -37 -83t-84 -36q-37 0 -61.5 23.5t-24.5 62.5q0 47 38 83t85 36q37 0 60.5 -23.5t23.5 -62.5zM944 1569q0 -47 -37.5 -83t-84.5 -36q-37 0 -61.5 23.5t-24.5 62.5q0 47 37.5 83t84.5 36q37 0 61.5 -23.5t24.5 -62.5z" />
<glyph unicode="&#xdd;" horiz-adv-x="921" d="M541 592l-101 -572q-2 -20 -24 -20h-144q-16 0 -16 14v6l100 572l-239 668q-2 4 -2 10q0 20 26 20h168q6 0 17 -12l143 -467q6 -14 14 -14q14 0 23 14l307 467q12 10 21 12h167q20 0 21 -12q0 -6 -2 -10t-6 -8zM610 1409l-16 -6h-88q-18 0 -19 15q0 8 9 16l213 256 q4 4 18 10h180q20 0 21 -14q0 -12 -13 -21z" />
<glyph unicode="&#xde;" horiz-adv-x="993" d="M784 758q2 10 3 17t1 18q0 61 -44 105t-111 44h-225q-23 0 -25 -20l-61 -349v-4q0 -16 18 -16h225q37 0 72 13.5t64.5 38t50 58t28.5 74.5zM662 1106q147 0 229 -77t82 -212q0 -119 -64 -227q-53 -92 -153.5 -146.5t-220.5 -54.5h-226q-20 0 -22 -20l-62 -349 q-2 -20 -24 -20h-144q-16 0 -16 14v6l219 1250q2 20 25 20h143q16 0 16 -14v-6l-24 -144v-6q0 -14 16 -14h226z" />
<glyph unicode="&#xdf;" horiz-adv-x="966" d="M924 901q-4 -29 -19.5 -62.5t-42.5 -66.5q-49 -59 -86 -83.5t-37 -35.5q0 -10 14.5 -24.5t32.5 -38.5q23 -31 36.5 -76t13.5 -86q0 -23 -2 -33l-9 -51q-12 -82 -51 -148.5t-93 -114.5t-118.5 -73.5t-130.5 -25.5q-37 0 -37 14v6l23 123q2 10 7 13t13 7q39 14 73 29.5 t59.5 35t43 47.5t23.5 71l10 61q2 10 2 19v16q0 102 -114 141q-16 6 -25.5 8t-9.5 13v6l22 127q2 12 7.5 14t13.5 6q76 29 129 64t69 119l9 41q2 10 3 17t1 17q0 63 -45 106.5t-119 43.5q-76 0 -135.5 -53.5t-73.5 -130.5l-191 -1076q-14 -80 -53 -147.5t-96 -116.5 t-130 -76.5t-155 -27.5q-104 0 -104 20q0 8 4 15l61 118q8 14 23 15q6 0 18.5 -2t28.5 -2q39 0 75 14t65.5 39.5t50 59.5t26.5 71l189 1075q14 78 54 145.5t98 116.5t131 78t151 29q147 0 228 -77t81 -216q0 -37 -6 -76z" />
<glyph unicode="&#xe0;" horiz-adv-x="972" d="M662 1063q0 -4 1 -5t1 -5q0 -20 -25 -21h-88l-12 6l-215 256q-6 6 -7 15q0 20 27 20h180l15 -10zM639 573q2 10 2 31q0 66 -43 110t-111 44q-41 0 -76.5 -15.5t-65.5 -40t-49.5 -58.5t-25.5 -71l-39 -225q-2 -10 -2 -31q0 -66 43 -109.5t111 -43.5q39 0 76 14.5t66.5 40 t49 59t25.5 70.5zM727 20q-2 -20 -25 -20h-122q-16 0 -17 14v6l4 25v6q0 18 -14 19q-8 0 -24.5 -11.5t-42 -23.5t-62.5 -23.5t-84 -11.5q-135 0 -217 76t-82 205q0 33 6 67l39 225q12 76 50 140.5t93.5 110.5t126 72t148.5 26q43 0 74.5 -10.5t54 -24t37 -23.5t24.5 -10 q12 0 19 23l6 24q4 10 7 15.5t15 5.5h123q18 0 19 -17v-4z" />
<glyph unicode="&#xe1;" horiz-adv-x="972" d="M639 573q2 10 2 31q0 66 -43 110t-111 44q-41 0 -76.5 -15.5t-65.5 -40t-49.5 -58.5t-25.5 -71l-39 -225q-2 -10 -2 -31q0 -66 43 -109.5t111 -43.5q39 0 76 14.5t66.5 40t49 59t25.5 70.5zM727 20q-2 -20 -25 -20h-122q-16 0 -17 14v6l4 25v6q0 18 -14 19 q-8 0 -24.5 -11.5t-42 -23.5t-62.5 -23.5t-84 -11.5q-135 0 -217 76t-82 205q0 33 6 67l39 225q12 76 50 140.5t93.5 110.5t126 72t148.5 26q43 0 74.5 -10.5t54 -24t37 -23.5t24.5 -10q12 0 19 23l6 24q4 10 7 15.5t15 5.5h123q18 0 19 -17v-4zM583 1040l-16 -6h-88 q-18 0 -19 15q0 8 9 16l213 256q4 4 18 10h180q20 0 21 -14q0 -12 -13 -21z" />
<glyph unicode="&#xe2;" horiz-adv-x="972" d="M799 1067q4 -8 4 -14q0 -18 -27 -19h-98l-14 10l-66 140q-6 12 -14 12t-17 -12l-112 -140l-19 -10h-98q-20 0 -21 15q0 4 11 18l227 256l18 8h74l15 -8zM639 573q2 10 2 31q0 66 -43 110t-111 44q-41 0 -76.5 -15.5t-65.5 -40t-49.5 -58.5t-25.5 -71l-39 -225 q-2 -10 -2 -31q0 -66 43 -109.5t111 -43.5q39 0 76 14.5t66.5 40t49 59t25.5 70.5zM727 20q-2 -20 -25 -20h-122q-16 0 -17 14v6l4 25v6q0 18 -14 19q-8 0 -24.5 -11.5t-42 -23.5t-62.5 -23.5t-84 -11.5q-135 0 -217 76t-82 205q0 33 6 67l39 225q12 76 50 140.5t93.5 110.5 t126 72t148.5 26q43 0 74.5 -10.5t54 -24t37 -23.5t24.5 -10q12 0 19 23l6 24q4 10 7 15.5t15 5.5h123q18 0 19 -17v-4z" />
<glyph unicode="&#xe3;" horiz-adv-x="972" d="M639 573q2 10 2 31q0 66 -43 110t-111 44q-41 0 -76.5 -15.5t-65.5 -40t-49.5 -58.5t-25.5 -71l-39 -225q-2 -10 -2 -31q0 -66 43 -109.5t111 -43.5q39 0 76 14.5t66.5 40t49 59t25.5 70.5zM727 20q-2 -20 -25 -20h-122q-16 0 -17 14v6l4 25v6q0 18 -14 19 q-8 0 -24.5 -11.5t-42 -23.5t-62.5 -23.5t-84 -11.5q-135 0 -217 76t-82 205q0 33 6 67l39 225q12 76 50 140.5t93.5 110.5t126 72t148.5 26q43 0 74.5 -10.5t54 -24t37 -23.5t24.5 -10q12 0 19 23l6 24q4 10 7 15.5t15 5.5h123q18 0 19 -17v-4zM876 1219q6 -6 6 -15 q0 -4 -4 -12q-47 -72 -100 -105.5t-101 -33.5q-66 0 -120 53l-35 27q-33 27 -70 26q-25 0 -44 -10t-34 -23l-25 -22q-11 -10 -22 -10q-2 0 -10 4l-39 32q-8 6 -8 13q0 16 57 74q76 76 148 75q66 0 121 -49l34 -31q29 -25 70 -24q27 0 48.5 10t36.5 23.5l25.5 23.5t16.5 10 q10 0 14 -4z" />
<glyph unicode="&#xe4;" horiz-adv-x="972" d="M639 573q2 10 2 31q0 66 -43 110t-111 44q-41 0 -76.5 -15.5t-65.5 -40t-49.5 -58.5t-25.5 -71l-39 -225q-2 -10 -2 -31q0 -66 43 -109.5t111 -43.5q39 0 76 14.5t66.5 40t49 59t25.5 70.5zM727 20q-2 -20 -25 -20h-122q-16 0 -17 14v6l4 25v6q0 18 -14 19 q-8 0 -24.5 -11.5t-42 -23.5t-62.5 -23.5t-84 -11.5q-135 0 -217 76t-82 205q0 33 6 67l39 225q12 76 50 140.5t93.5 110.5t126 72t148.5 26q43 0 74.5 -10.5t54 -24t37 -23.5t24.5 -10q12 0 19 23l6 24q4 10 7 15.5t15 5.5h123q18 0 19 -17v-4zM528 1200q0 -47 -37 -83 t-84 -36q-37 0 -61.5 23.5t-24.5 62.5q0 47 38 83t85 36q37 0 60.5 -23.5t23.5 -62.5zM849 1200q0 -47 -37.5 -83t-84.5 -36q-37 0 -61.5 23.5t-24.5 62.5q0 47 37.5 83t84.5 36q37 0 61.5 -23.5t24.5 -62.5z" />
<glyph unicode="&#xe5;" horiz-adv-x="972" d="M676 1270q0 4 1 6t1 6q0 27 -18.5 45.5t-47.5 18.5q-33 0 -59.5 -24t-32.5 -56l-12 -60q0 -4 -1 -7t-1 -7q0 -27 17.5 -44.5t45.5 -17.5q35 0 60.5 23t34.5 57zM770 1206q-16 -78 -73.5 -126t-139.5 -48q-76 0 -118 38t-42 104q0 10 1 18t3 18l11 60q12 76 70.5 124 t144.5 48q74 0 116.5 -39t42.5 -100q0 -10 -1 -18.5t-3 -18.5zM639 573q2 10 2 31q0 66 -43 110t-117 44q-37 0 -71.5 -15.5t-64.5 -40t-49.5 -58.5t-25.5 -71l-39 -225q-2 -10 -2 -31q0 -66 43 -109.5t111 -43.5q39 0 76 14.5t66.5 40t49 59t25.5 70.5zM727 20 q-2 -20 -25 -20h-122q-16 0 -17 14v6l4 25v6q0 18 -14 19q-8 0 -24.5 -11.5t-42 -23.5t-62.5 -23.5t-84 -11.5q-135 0 -217 76t-82 205q0 33 6 67l39 225q12 76 50 140.5t93.5 110.5t126 72t148.5 26q43 0 74.5 -10.5t54 -24t37 -23.5t24.5 -10q12 0 19 23l6 24q4 10 7 15.5 t15 5.5h123q18 0 19 -17v-4z" />
<glyph unicode="&#xe6;" horiz-adv-x="1495" d="M600 352q0 16 -16 17h-256q-37 0 -69 -27t-40 -66l-8 -40q-2 -6 -2 -17q0 -33 21.5 -54.5t56.5 -21.5h102q98 0 197 144l10 41l4 20v4zM1171 573q29 0 29 56q0 63 -45 104t-111 41q-41 0 -79.5 -17.5t-69.5 -44t-49.5 -59t-18.5 -65.5q0 -14 17 -15h327zM1356 451 q-2 -20 -25 -21h-512q-23 0 -24 -20l-15 -82q-2 -8 -2 -17v-16q0 -66 43 -109t111 -43q80 0 135 56q35 33 50.5 54t25.5 21q4 0 12 -4l119 -65q8 -4 8 -12q0 -10 -34 -56.5t-111 -97.5q-41 -27 -101.5 -43t-132.5 -16q-88 0 -151.5 26.5t-114.5 89.5q-10 10 -14 10 q-10 0 -26.5 -19t-49.5 -40q-109 -68 -187 -67h-102q-111 0 -173 56t-62 148v26q0 13 4 26l8 40q23 106 105.5 171t211.5 65h256q23 0 25 20l10 58q2 8 2 16v17q0 63 -43 107t-110 44q-35 0 -62 -9t-48.5 -24.5t-40.5 -37.5l-40 -44q-12 -12 -20 -12q-6 0 -11 2l-116 66 q-10 6 -11 14q0 16 34 58t112 92q41 27 100.5 43t130.5 16q78 0 138.5 -21.5t111.5 -74.5q12 -8 14 -8q6 0 15 8q68 51 135 73.5t139 22.5q70 0 127 -22.5t98 -61.5t63.5 -91t22.5 -114v-27q0 -13 -4 -28z" />
<glyph unicode="&#xe7;" horiz-adv-x="876" d="M90 594q14 78 51 142.5t93.5 110.5t129 70.5t156.5 24.5q68 0 124 -18.5t96 -47t61.5 -64.5t21.5 -71q0 -16 -14 -22l-143 -66q-4 -2 -11 -2q-6 0 -14 13q-29 51 -57.5 82.5t-91.5 31.5q-39 0 -76 -14t-65.5 -40t-49 -59.5t-27.5 -70.5l-47 -266q-2 -8 -2 -17v-16 q0 -66 43 -109t111 -43q80 0 135 56q35 33 50.5 54t25.5 21q4 0 12 -4l119 -65q8 -4 8 -10q0 -16 -18.5 -45t-55.5 -60t-90 -58.5t-121 -43.5l-47 -70q-4 -4 -4 -12q0 -6 10.5 -15.5t22.5 -25t22.5 -40t10.5 -56.5q0 -4 -1 -10.5t-1 -12.5l-2 -16q-4 -39 -24.5 -74 t-52.5 -60.5t-74 -41t-91 -15.5h-98q-16 0 -17 15v6l15 82q2 20 24 20h99q31 0 53 19.5t26 48.5l2 16v12q0 25 -15 41.5t-40 16.5h-39q-18 0 -18 14q0 4 6 14l90 140q-129 16 -196.5 85.5t-67.5 184.5q0 33 6 74z" />
<glyph unicode="&#xe8;" horiz-adv-x="942" d="M633 1063q0 -4 1 -5t1 -5q0 -20 -25 -21h-88l-12 6l-215 256q-6 6 -6 15q0 20 26 20h181l14 -10zM618 573q29 0 29 56q0 61 -45 105t-110 44q-41 0 -80 -17.5t-70 -45t-49.5 -61t-18.5 -66.5q0 -14 17 -15h327zM803 451q-2 -20 -25 -21h-512q-23 0 -24 -20l-15 -82 q-2 -8 -2 -17v-16q0 -63 43 -107.5t111 -44.5q80 0 135 56q35 33 50.5 54t25.5 21q4 0 12 -4l119 -65q8 -4 8 -10q0 -16 -35 -60.5t-110 -95.5q-41 -27 -101.5 -43t-132.5 -16q-147 0 -230 74.5t-83 201.5q0 35 6 72l47 266q8 45 29.5 92t56.5 88q68 82 158 125t186 43 q70 0 127.5 -22.5t98 -62.5t63 -93t22.5 -115v-27q0 -13 -4 -28z" />
<glyph unicode="&#xe9;" horiz-adv-x="942" d="M618 573q29 0 29 56q0 61 -45 105t-110 44q-41 0 -80 -17.5t-70 -45t-49.5 -61t-18.5 -66.5q0 -14 17 -15h327zM803 451q-2 -20 -25 -21h-512q-23 0 -24 -20l-15 -82q-2 -8 -2 -17v-16q0 -63 43 -107.5t111 -44.5q80 0 135 56q35 33 50.5 54t25.5 21q4 0 12 -4l119 -65 q8 -4 8 -10q0 -16 -35 -60.5t-110 -95.5q-41 -27 -101.5 -43t-132.5 -16q-147 0 -230 74.5t-83 201.5q0 35 6 72l47 266q8 45 29.5 92t56.5 88q68 82 158 125t186 43q70 0 127.5 -22.5t98 -62.5t63 -93t22.5 -115v-27q0 -13 -4 -28zM555 1040l-16 -6h-88q-18 0 -19 15 q0 8 9 16l213 256q4 4 18 10h180q20 0 21 -14q0 -12 -13 -21z" />
<glyph unicode="&#xea;" horiz-adv-x="942" d="M770 1067q4 -8 4 -14q0 -18 -26 -19h-99l-14 10l-66 140q-6 12 -14 12t-16 -12l-113 -140l-18 -10h-99q-20 0 -20 15q0 4 10 18l227 256l19 8h73l15 -8zM618 573q29 0 29 56q0 61 -45 105t-110 44q-41 0 -80 -17.5t-70 -45t-49.5 -61t-18.5 -66.5q0 -14 17 -15h327z M803 451q-2 -20 -25 -21h-512q-23 0 -24 -20l-15 -82q-2 -8 -2 -17v-16q0 -63 43 -107.5t111 -44.5q80 0 135 56q35 33 50.5 54t25.5 21q4 0 12 -4l119 -65q8 -4 8 -10q0 -16 -35 -60.5t-110 -95.5q-41 -27 -101.5 -43t-132.5 -16q-147 0 -230 74.5t-83 201.5q0 35 6 72 l47 266q8 45 29.5 92t56.5 88q68 82 158 125t186 43q70 0 127.5 -22.5t98 -62.5t63 -93t22.5 -115v-27q0 -13 -4 -28z" />
<glyph unicode="&#xeb;" horiz-adv-x="942" d="M618 573q29 0 29 56q0 61 -45 105t-110 44q-41 0 -80 -17.5t-70 -45t-49.5 -61t-18.5 -66.5q0 -14 17 -15h327zM803 451q-2 -20 -25 -21h-512q-23 0 -24 -20l-15 -82q-2 -8 -2 -17v-16q0 -63 43 -107.5t111 -44.5q80 0 135 56q35 33 50.5 54t25.5 21q4 0 12 -4l119 -65 q8 -4 8 -10q0 -16 -35 -60.5t-110 -95.5q-41 -27 -101.5 -43t-132.5 -16q-147 0 -230 74.5t-83 201.5q0 35 6 72l47 266q8 45 29.5 92t56.5 88q68 82 158 125t186 43q70 0 127.5 -22.5t98 -62.5t63 -93t22.5 -115v-27q0 -13 -4 -28zM500 1200q0 -47 -37 -83t-84 -36 q-37 0 -61.5 23.5t-24.5 62.5q0 47 38 83t85 36q37 0 60.5 -23.5t23.5 -62.5zM821 1200q0 -47 -37.5 -83t-84.5 -36q-37 0 -61.5 23.5t-24.5 62.5q0 47 37.5 83t84.5 36q37 0 61.5 -23.5t24.5 -62.5z" />
<glyph unicode="&#xec;" horiz-adv-x="450" d="M401 1063q0 -4 1 -5t1 -5q0 -20 -24 -21h-88l-12 6l-216 256q-6 6 -6 15q0 20 27 20h180l15 -10zM205 20q-2 -20 -25 -20h-143q-16 0 -17 14v6l156 881q2 20 23 21h143q18 0 18 -17v-4z" />
<glyph unicode="&#xed;" horiz-adv-x="450" d="M205 20q-2 -20 -25 -20h-143q-16 0 -17 14v6l156 881q2 20 23 21h143q18 0 18 -17v-4zM323 1040l-16 -6h-88q-18 0 -19 15q0 8 9 16l213 256q4 4 18 10h180q20 0 21 -14q0 -12 -13 -21z" />
<glyph unicode="&#xee;" horiz-adv-x="450" d="M539 1067q4 -8 4 -14q0 -18 -27 -19h-98l-15 10l-65 140q-6 12 -14 12t-17 -12l-112 -140l-19 -10h-98q-20 0 -21 15q0 4 11 18l227 256l18 8h74l14 -8zM205 20q-2 -20 -25 -20h-143q-16 0 -17 14v6l156 881q2 20 23 21h143q18 0 18 -17v-4z" />
<glyph unicode="&#xef;" horiz-adv-x="450" d="M205 20q-2 -20 -25 -20h-143q-16 0 -17 14v6l156 881q2 20 23 21h143q18 0 18 -17v-4zM268 1200q0 -47 -37 -83t-84 -36q-37 0 -61.5 23.5t-24.5 62.5q0 47 38 83t85 36q37 0 60.5 -23.5t23.5 -62.5zM589 1200q0 -47 -37.5 -83t-84.5 -36q-37 0 -61.5 23.5t-24.5 62.5 q0 47 37.5 83t84.5 36q37 0 61.5 -23.5t24.5 -62.5z" />
<glyph unicode="&#xf0;" d="M662 410q2 8 2 16v16q0 66 -43 109t-111 43q-41 0 -77 -14.5t-65.5 -40t-49 -59.5t-25.5 -70l-14 -82q-2 -8 -3 -17v-16q0 -66 43 -109t111 -43q39 0 76 14.5t66.5 40t49 59.5t25.5 71zM1128 1208q2 -4 2 -10q0 -8 -10 -18l-157 -99l-13 -20v-27q0 -39 -6 -71l-113 -635 q-14 -78 -51 -141.5t-93 -109.5t-129 -71.5t-157 -25.5q-147 0 -230 74.5t-83 201.5q0 35 6 72l15 82q12 68 49 132t96 117q111 98 264 99q37 0 65.5 -10.5t50.5 -23.5l37 -24q15 -10 25 -10q14 0 19 23l37 202v7q0 16 -13 16q-10 0 -18 -6l-131 -84q-10 -6 -15 -6 q-8 0 -14 10l-33 68q-2 4 -2 10q0 8 13 18l182 115q8 6 8 16t-4 17q-25 29 -52.5 40t-64.5 11q-84 0 -137 -53q-33 -33 -47 -54.5t-25 -21.5q-4 0 -12 4l-117 65q-10 6 -10 15q0 12 34 55t112 94q41 27 100 43.5t131 16.5q127 0 188 -49q41 -35 61.5 -55.5t28.5 -20.5 q4 0 15 6l137 86q8 6 14 6q10 0 15 -10z" />
<glyph unicode="&#xf1;" horiz-adv-x="995" d="M758 20q-2 -20 -25 -20h-143q-16 0 -17 14v6l97 553q2 8 2 17v16q0 63 -43 107.5t-111 44.5q-41 0 -76.5 -15.5t-65.5 -40t-49.5 -58.5t-25.5 -71l-96 -553q-2 -20 -25 -20h-143q-16 0 -17 14v6l156 881q2 20 23 21h123q18 0 18 -21l-6 -24v-7q0 -18 12 -18q6 0 22.5 11 t43 23.5t63.5 24t86 11.5q135 0 217 -76t82 -203q0 -33 -6 -70zM889 1219q6 -6 6 -15q0 -4 -4 -12q-47 -72 -100 -105.5t-101 -33.5q-66 0 -120 53l-35 27q-33 27 -70 26q-25 0 -44 -10t-34 -23l-25 -22q-11 -10 -22 -10q-2 0 -10 4l-39 32q-8 6 -8 13q0 16 57 74 q76 76 148 75q66 0 121 -49l34 -31q29 -25 70 -24q27 0 48.5 10t36.5 23.5l25.5 23.5t16.5 10q10 0 14 -4z" />
<glyph unicode="&#xf2;" horiz-adv-x="950" d="M651 1063q0 -4 1 -5t1 -5q0 -20 -24 -21h-88l-13 6l-215 256q-6 6 -6 15q0 20 27 20h180l14 -10zM651 594q2 8 2 16v17q0 66 -44 108.5t-115 42.5q-37 0 -72 -15t-64.5 -40t-49 -58.5t-25.5 -70.5l-47 -266q-2 -10 -3 -18v-15q0 -66 43 -109t111 -43q39 0 76 14.5 t65.5 40t49 59.5t26.5 71zM788 328q-14 -78 -51 -141.5t-93 -109.5t-129 -71.5t-157 -25.5q-147 0 -230 74.5t-83 201.5q0 35 6 72l47 266q14 78 51 142.5t93.5 110.5t129 70.5t156.5 24.5q147 0 230.5 -74.5t83.5 -201.5q0 -35 -6 -72z" />
<glyph unicode="&#xf3;" horiz-adv-x="950" d="M651 594q2 8 2 16v17q0 66 -44 108.5t-115 42.5q-37 0 -72 -15t-64.5 -40t-49 -58.5t-25.5 -70.5l-47 -266q-2 -10 -3 -18v-15q0 -66 43 -109t111 -43q39 0 76 14.5t65.5 40t49 59.5t26.5 71zM788 328q-14 -78 -51 -141.5t-93 -109.5t-129 -71.5t-157 -25.5 q-147 0 -230 74.5t-83 201.5q0 35 6 72l47 266q14 78 51 142.5t93.5 110.5t129 70.5t156.5 24.5q147 0 230.5 -74.5t83.5 -201.5q0 -35 -6 -72zM573 1040l-16 -6h-88q-18 0 -19 15q0 8 9 16l213 256q4 4 18 10h180q20 0 21 -14q0 -12 -13 -21z" />
<glyph unicode="&#xf4;" horiz-adv-x="950" d="M788 1067q4 -8 5 -14q0 -18 -27 -19h-98l-15 10l-65 140q-6 12 -15 12q-8 0 -16 -12l-113 -140l-18 -10h-98q-20 0 -21 15q0 4 10 18l228 256l18 8h74l14 -8zM651 594q2 8 2 16v17q0 66 -44 108.5t-115 42.5q-37 0 -72 -15t-64.5 -40t-49 -58.5t-25.5 -70.5l-47 -266 q-2 -10 -3 -18v-15q0 -66 43 -109t111 -43q39 0 76 14.5t65.5 40t49 59.5t26.5 71zM788 328q-14 -78 -51 -141.5t-93 -109.5t-129 -71.5t-157 -25.5q-147 0 -230 74.5t-83 201.5q0 35 6 72l47 266q14 78 51 142.5t93.5 110.5t129 70.5t156.5 24.5q147 0 230.5 -74.5 t83.5 -201.5q0 -35 -6 -72z" />
<glyph unicode="&#xf5;" horiz-adv-x="950" d="M651 594q2 8 2 16v17q0 66 -44 108.5t-115 42.5q-37 0 -72 -15t-64.5 -40t-49 -58.5t-25.5 -70.5l-47 -266q-2 -10 -3 -18v-15q0 -66 43 -109t111 -43q39 0 76 14.5t65.5 40t49 59.5t26.5 71zM788 328q-14 -78 -51 -141.5t-93 -109.5t-129 -71.5t-157 -25.5 q-147 0 -230 74.5t-83 201.5q0 35 6 72l47 266q14 78 51 142.5t93.5 110.5t129 70.5t156.5 24.5q147 0 230.5 -74.5t83.5 -201.5q0 -35 -6 -72zM866 1219q6 -6 6 -15q0 -4 -4 -12q-47 -72 -100 -105.5t-101 -33.5q-66 0 -120 53l-35 27q-33 27 -70 26q-25 0 -44 -10t-34 -23 l-25 -22q-11 -10 -22 -10q-2 0 -10 4l-39 32q-8 6 -8 13q0 16 57 74q76 76 148 75q66 0 121 -49l34 -31q29 -25 70 -24q27 0 48.5 10t36.5 23.5l25.5 23.5t16.5 10q10 0 14 -4z" />
<glyph unicode="&#xf6;" horiz-adv-x="950" d="M651 594q2 8 2 16v17q0 66 -44 108.5t-115 42.5q-37 0 -72 -15t-64.5 -40t-49 -58.5t-25.5 -70.5l-47 -266q-2 -10 -3 -18v-15q0 -66 43 -109t111 -43q39 0 76 14.5t65.5 40t49 59.5t26.5 71zM788 328q-14 -78 -51 -141.5t-93 -109.5t-129 -71.5t-157 -25.5 q-147 0 -230 74.5t-83 201.5q0 35 6 72l47 266q14 78 51 142.5t93.5 110.5t129 70.5t156.5 24.5q147 0 230.5 -74.5t83.5 -201.5q0 -35 -6 -72zM518 1200q0 -47 -37 -83t-84 -36q-37 0 -61.5 23.5t-24.5 62.5q0 47 38 83t85 36q37 0 60.5 -23.5t23.5 -62.5zM839 1200 q0 -47 -37.5 -83t-84.5 -36q-37 0 -61.5 23.5t-24.5 62.5q0 47 37.5 83t84.5 36q37 0 61.5 -23.5t24.5 -62.5z" />
<glyph unicode="&#xf7;" horiz-adv-x="1705" d="M854 367q51 0 88 -36t37 -89q0 -51 -36 -88t-89 -37t-89 35.5t-36 89.5q0 53 37 89t88 36zM1452 541h-1198v139h1198v-139zM854 1106q51 0 88 -37t37 -90q0 -51 -36 -88t-89 -37t-89 36t-36 89t37 90t88 37z" />
<glyph unicode="&#xf8;" horiz-adv-x="942" d="M643 594q0 4 1 16.5t1 32.5q0 23 -7 36t-17 13q-8 0 -19 -16l-293 -494q-4 -8 -4 -10q0 -6 10 -16q31 -12 64 -13q78 0 140.5 54.5t76.5 130.5zM553 741q4 8 4 13q0 8 -12 14q-31 10 -53 10q-78 0 -140.5 -54t-77.5 -130l-47 -266q-2 -10 -3 -19.5t-1 -17.5q0 -39 21 -39 q10 0 20 16zM780 328q-14 -78 -51 -141.5t-93 -109.5t-129 -71.5t-157 -25.5q-147 0 -230 74.5t-83 201.5q0 35 6 72l47 266q14 78 51 142.5t93.5 110.5t129 70.5t156.5 24.5q147 0 230.5 -74.5t83.5 -201.5q0 -35 -7 -72z" />
<glyph unicode="&#xf9;" horiz-adv-x="983" d="M653 1063q0 -4 1 -5t1 -5q0 -20 -24 -21h-88l-13 6l-215 256q-6 6 -6 15q0 20 27 20h180l14 -10zM737 20q-2 -20 -24 -20h-123q-16 0 -17 14v6l5 25v6q0 18 -15 19q-8 0 -24.5 -11.5t-43 -23.5t-62.5 -23.5t-83 -11.5q-135 0 -217 76t-82 203q0 33 6 69l99 553 q2 20 22 21h144q18 0 18 -17v-4l-98 -553q-2 -8 -2 -16v-17q0 -63 43 -107t110 -44q39 0 75 14.5t65.5 40t50 59t26.5 70.5l99 553q2 20 22 21h143q18 0 19 -17v-4z" />
<glyph unicode="&#xfa;" horiz-adv-x="983" d="M737 20q-2 -20 -24 -20h-123q-16 0 -17 14v6l5 25v6q0 18 -15 19q-8 0 -24.5 -11.5t-43 -23.5t-62.5 -23.5t-83 -11.5q-135 0 -217 76t-82 203q0 33 6 69l99 553q2 20 22 21h144q18 0 18 -17v-4l-98 -553q-2 -8 -2 -16v-17q0 -63 43 -107t110 -44q39 0 75 14.5t65.5 40 t50 59t26.5 70.5l99 553q2 20 22 21h143q18 0 19 -17v-4zM575 1040l-16 -6h-88q-18 0 -19 15q0 8 9 16l213 256q4 4 18 10h180q20 0 21 -14q0 -12 -13 -21z" />
<glyph unicode="&#xfb;" horiz-adv-x="983" d="M791 1067q4 -8 4 -14q0 -18 -27 -19h-98l-15 10l-65 140q-6 12 -15 12q-8 0 -16 -12l-113 -140l-18 -10h-98q-20 0 -21 15q0 4 10 18l228 256l18 8h74l14 -8zM737 20q-2 -20 -24 -20h-123q-16 0 -17 14v6l5 25v6q0 18 -15 19q-8 0 -24.5 -11.5t-43 -23.5t-62.5 -23.5 t-83 -11.5q-135 0 -217 76t-82 203q0 33 6 69l99 553q2 20 22 21h144q18 0 18 -17v-4l-98 -553q-2 -8 -2 -16v-17q0 -63 43 -107t110 -44q39 0 75 14.5t65.5 40t50 59t26.5 70.5l99 553q2 20 22 21h143q18 0 19 -17v-4z" />
<glyph unicode="&#xfc;" horiz-adv-x="983" d="M737 20q-2 -20 -24 -20h-123q-16 0 -17 14v6l5 25v6q0 18 -15 19q-8 0 -24.5 -11.5t-43 -23.5t-62.5 -23.5t-83 -11.5q-135 0 -217 76t-82 203q0 33 6 69l99 553q2 20 22 21h144q18 0 18 -17v-4l-98 -553q-2 -8 -2 -16v-17q0 -63 43 -107t110 -44q39 0 75 14.5t65.5 40 t50 59t26.5 70.5l99 553q2 20 22 21h143q18 0 19 -17v-4zM520 1200q0 -47 -37 -83t-84 -36q-37 0 -61.5 23.5t-24.5 62.5q0 47 38 83t85 36q37 0 60.5 -23.5t23.5 -62.5zM841 1200q0 -47 -37.5 -83t-84.5 -36q-37 0 -61.5 23.5t-24.5 62.5q0 47 37.5 83t84.5 36 q37 0 61.5 -23.5t24.5 -62.5z" />
<glyph unicode="&#xfd;" horiz-adv-x="983" d="M874 922q18 0 19 -21q0 -57 -14.5 -102t-20.5 -82l-145 -830q-31 -174 -144.5 -271t-287.5 -97q-74 0 -130.5 20.5t-95.5 51t-59.5 67.5t-20.5 68q0 10 15 16l139 65q4 2 10 3q8 0 19 -13l26 -45q12 -20 27.5 -35.5t38 -24.5t59.5 -9q39 0 76 14t65.5 39.5t49 59.5 t26.5 71l29 170v6q0 16 -14 16q-8 0 -22.5 -9t-36 -20.5t-51.5 -20.5t-66 -9q-147 0 -230.5 75t-83.5 201q0 35 6 72l99 553q2 20 22 21h144q18 0 18 -17v-4l-98 -553q-2 -8 -2 -16v-17q0 -63 43 -107t110 -44q39 0 75 14.5t65.5 40t50 59t26.5 70.5l99 553q2 20 22 21h143z M575 1040l-16 -6h-88q-18 0 -19 15q0 8 9 16l213 256q4 4 18 10h180q20 0 21 -14q0 -12 -13 -21z" />
<glyph unicode="&#xfe;" horiz-adv-x="972" d="M670 573q2 10 2 31q0 66 -43 110t-117 44q-37 0 -71.5 -15.5t-64.5 -40t-49.5 -58.5t-25.5 -71l-39 -225q-2 -10 -2 -31q0 -66 43 -109.5t111 -43.5q39 0 75.5 14.5t66.5 40t49.5 59t25.5 70.5zM815 348q-12 -70 -49 -134t-96 -118q-104 -96 -264 -96q-37 0 -67 10 t-51 24l-37 23q-15 10 -26 11q-12 0 -16 -23l-86 -485q-2 -20 -25 -21h-143q-16 0 -16 15v6l301 1710q6 20 24 20h144q16 0 16 -14v-6l-70 -393v-7q0 -18 13 -18q8 0 21 11t35.5 23.5t56.5 24t81 11.5q135 0 217 -76t82 -205q0 -35 -6 -68z" />
<glyph unicode="&#xff;" horiz-adv-x="983" d="M518 1200q0 -47 -37 -83t-84 -36q-37 0 -61.5 23.5t-24.5 62.5q0 47 38 83t85 36q37 0 60.5 -23.5t23.5 -62.5zM840 1200q0 -47 -38 -83t-85 -36q-37 0 -61.5 23.5t-24.5 62.5q0 47 38 83t85 36q37 0 61.5 -23.5t24.5 -62.5zM874 922q18 0 19 -21q0 -57 -14.5 -102 t-20.5 -82l-145 -830q-31 -174 -144.5 -271t-287.5 -97q-74 0 -130.5 20.5t-95.5 51t-59.5 67.5t-20.5 68q0 10 15 16l139 65q4 2 10 3q8 0 19 -13l26 -45q12 -20 27.5 -35.5t38 -24.5t59.5 -9q39 0 76 14t65.5 39.5t49 59.5t26.5 71l29 170v6q0 16 -14 16q-8 0 -22.5 -9 t-36 -20.5t-51.5 -20.5t-66 -9q-147 0 -230.5 75t-83.5 201q0 35 6 72l99 553q2 20 22 21h144q18 0 18 -17v-4l-98 -553q-2 -8 -2 -16v-17q0 -63 43 -107t110 -44q39 0 75 14.5t65.5 40t50 59t26.5 70.5l99 553q2 20 22 21h143z" />
<glyph unicode="&#x131;" horiz-adv-x="450" d="M205 20q-2 -20 -25 -20h-143q-16 0 -17 14v6l156 881q2 20 23 21h143q18 0 18 -17v-4z" />
<glyph unicode="&#x152;" horiz-adv-x="1566" d="M791 963q2 8 2 16v16q0 63 -43 107.5t-111 44.5h-61q-78 0 -140.5 -53.5t-77.5 -130.5l-112 -635q-2 -8 -2 -17v-16q0 -66 43 -109t110 -43h62q78 0 140.5 53.5t76.5 131.5zM1561 1147q-2 -20 -25 -21h-537q-23 0 -22 -22q0 -20 2 -36.5t2 -33.5q0 -35 -6 -71l-37 -205 v-6q0 -14 16 -15h420q18 0 19 -16v-4l-23 -123q-2 -20 -24 -21h-420q-20 0 -23 -20l-41 -225q-12 -68 -31.5 -106t-19.5 -48t18 -10h537q16 0 16 -14v-7l-20 -123q-2 -20 -25 -20h-764q-35 -10 -70.5 -15t-70.5 -5h-61q-147 0 -230.5 74.5t-83.5 201.5q0 35 6 72l113 635 q14 78 51 142t93.5 110.5t129 71t156.5 24.5h62q70 0 125 -21h772q16 0 16 -14v-6z" />
<glyph unicode="&#x153;" horiz-adv-x="1495" d="M643 594q2 8 2 16v17q0 63 -43 107t-110 44q-39 0 -76 -14t-65.5 -40t-49 -59.5t-27.5 -70.5l-47 -266q-2 -8 -2 -17v-16q0 -66 43 -109t111 -43q39 0 76 14.5t65.5 40t49 59.5t26.5 71zM1171 573q29 0 29 56q0 63 -45 106t-111 43q-123 0 -210 -143q0 -10 -3 -21l-4 -20 v-6q0 -14 17 -15h327zM1356 451q-2 -20 -25 -21h-512q-23 0 -24 -20l-15 -82l-4 -19.5l-4 -19.5q43 -145 164 -146q76 0 131 56q35 33 50.5 54t25.5 21q4 0 12 -4l119 -65q8 -4 8 -12q0 -10 -34 -56.5t-111 -97.5q-41 -27 -101.5 -43t-132.5 -16q-47 0 -79.5 6t-57.5 16 t-43 23l-37 24q-16 10 -26.5 19.5t-16.5 9.5q-8 0 -35.5 -16.5t-81.5 -45.5q-31 -16 -74.5 -26t-101.5 -10q-147 0 -230 73.5t-83 202.5q0 35 6 72l47 266q14 78 51 141.5t93.5 109.5t129 71.5t156.5 25.5q59 0 102.5 -8t71.5 -31q41 -29 64.5 -47t27.5 -18q8 0 23.5 15 t50.5 34q98 55 213 55q70 0 127 -22.5t98 -62.5t63.5 -93t22.5 -115v-27q0 -13 -4 -28z" />
<glyph unicode="&#x178;" horiz-adv-x="921" d="M555 1569q0 -47 -37 -83t-84 -36q-37 0 -61.5 23.5t-24.5 62.5q0 47 38 83t85 36q37 0 60.5 -23.5t23.5 -62.5zM877 1569q0 -47 -38 -83t-85 -36q-37 0 -61.5 23.5t-24.5 62.5q0 47 37.5 83t85.5 36q37 0 61.5 -23.5t24.5 -62.5zM541 592l-101 -572q-2 -20 -24 -20h-144 q-16 0 -16 14v6l100 572l-239 668q-2 4 -2 10q0 20 26 20h168q6 0 17 -12l143 -467q6 -14 14 -14q14 0 23 14l307 467q12 10 21 12h167q20 0 21 -12q0 -6 -2 -10t-6 -8z" />
<glyph unicode="&#x2c6;" horiz-adv-x="1024" d="M825 1067q4 -8 4 -14q0 -18 -26 -19h-98l-15 10l-65 140q-6 12 -15 12q-8 0 -16 -12l-113 -140l-18 -10h-98q-20 0 -21 15q0 4 10 18l228 256l18 8h74l14 -8z" />
<glyph unicode="&#x2dc;" horiz-adv-x="1024" d="M901 1219q6 -6 6 -15q0 -4 -4 -12q-47 -72 -100 -105.5t-101 -33.5q-66 0 -120 53l-35 27q-33 27 -70 26q-25 0 -44 -10t-34 -23l-25 -22q-11 -10 -22 -10q-2 0 -10 4l-39 32q-8 6 -8 13q0 16 57 74q76 76 148 75q66 0 121 -49l34 -31q29 -25 70 -24q27 0 48.5 10 t36.5 23.5l25.5 23.5t16.5 10q10 0 14 -4z" />
<glyph unicode="&#x2000;" horiz-adv-x="897" />
<glyph unicode="&#x2001;" horiz-adv-x="1794" />
<glyph unicode="&#x2002;" horiz-adv-x="897" />
<glyph unicode="&#x2003;" horiz-adv-x="1794" />
<glyph unicode="&#x2004;" horiz-adv-x="598" />
<glyph unicode="&#x2005;" horiz-adv-x="448" />
<glyph unicode="&#x2006;" horiz-adv-x="299" />
<glyph unicode="&#x2007;" horiz-adv-x="299" />
<glyph unicode="&#x2008;" horiz-adv-x="223" />
<glyph unicode="&#x2009;" horiz-adv-x="358" />
<glyph unicode="&#x200a;" horiz-adv-x="98" />
<glyph unicode="&#x2010;" horiz-adv-x="552" d="M412 389q-2 -20 -23 -20h-328q-18 0 -18 16v4l27 143q2 20 24 21h328q16 0 16 -14v-7z" />
<glyph unicode="&#x2011;" horiz-adv-x="552" d="M412 389q-2 -20 -23 -20h-328q-18 0 -18 16v4l27 143q2 20 24 21h328q16 0 16 -14v-7z" />
<glyph unicode="&#x2012;" horiz-adv-x="552" d="M412 389q-2 -20 -23 -20h-328q-18 0 -18 16v4l27 143q2 20 24 21h328q16 0 16 -14v-7z" />
<glyph unicode="&#x2013;" d="M967 451q-2 -20 -25 -21h-922q-16 0 -16 14v7l14 81q2 20 25 21h922q16 0 16 -14v-7z" />
<glyph unicode="&#x2014;" horiz-adv-x="1597" d="M1520 451q-2 -20 -25 -21h-1475q-16 0 -16 14v7l14 81q2 20 25 21h1475q16 0 16 -14v-7z" />
<glyph unicode="&#x2018;" horiz-adv-x="362" d="M410 1307q0 -4 1 -5.5t1 -3.5q0 -8 -4.5 -11l-10.5 -7q-53 -41 -78.5 -81t-25.5 -91q0 -16 16 -16h23q16 0 16 -15v-6l-24 -137q-2 -20 -23 -21h-154q-12 0 -15 5.5t-3 15.5t5 27.5t9 46.5l17 85q8 42 24 81q18 47 44 84.5t53.5 63.5t53 39t44.5 13q10 0 14 -12z" />
<glyph unicode="&#x2019;" horiz-adv-x="362" d="M387 1270q-12 -109 -38.5 -192t-62.5 -138t-74 -83t-71 -28q-12 0 -14 13l-18 55q0 2 -1.5 3t-1.5 3q0 8 5.5 12.5t11.5 8.5q102 80 102 174q0 14 -16 14h-23q-18 0 -18 12q0 2 1 4t1 5l23 137q6 20 24 20h154q16 0 16 -14v-6z" />
<glyph unicode="&#x201a;" horiz-adv-x="362" d="M182 225q12 0 15.5 -5t3.5 -15t-5.5 -26.5t-9.5 -45.5l-16 -83q-8 -42 -25 -85q-18 -49 -45.5 -86t-55.5 -63.5t-53.5 -40t-39.5 -13.5q-10 0 -12 15l-17 55q-2 2 -2 6q0 10 13.5 20.5t33.5 28.5q35 33 52.5 71t17.5 73q0 16 -17 16h-22q-16 0 -16 14v7l24 137 q2 20 23 20h153z" />
<glyph unicode="&#x201c;" horiz-adv-x="645" d="M410 1307q0 -4 1 -5.5t1 -3.5q0 -8 -4.5 -11l-10.5 -7q-53 -41 -78.5 -81t-25.5 -91q0 -16 16 -16h23q16 0 16 -15v-6l-24 -137q-2 -20 -23 -21h-154q-12 0 -15 5.5t-3 15.5t5 27.5t9 46.5l17 85q8 42 24 81q18 47 44 84.5t53.5 63.5t53 39t44.5 13q10 0 14 -12z M692 1307q0 -4 1 -5.5t1 -3.5q0 -8 -4 -11t-10 -7q-53 -41 -79 -81t-26 -91q0 -16 17 -16h22q16 0 17 -15v-6l-25 -137q-2 -20 -22 -21h-154q-12 0 -15 5.5t-3 15.5q0 2 8 54t31 134q14 57 41.5 104.5t57.5 80t59.5 50t52.5 17.5q10 0 14 -12z" />
<glyph unicode="&#x201d;" horiz-adv-x="645" d="M387 1270q-12 -109 -38.5 -192t-62.5 -138t-74 -83t-71 -28q-12 0 -14 13l-18 55q0 2 -1.5 3t-1.5 3q0 8 5.5 12.5t11.5 8.5q102 80 102 174q0 14 -16 14h-23q-18 0 -18 12q0 2 1 4t1 5l23 137q6 20 24 20h154q16 0 16 -14v-6zM653 1290q16 0 17 -16q0 -4 -7.5 -56.5 t-29.5 -134.5q-16 -59 -43 -106t-57.5 -80t-59.5 -50.5t-47 -17.5q-14 0 -16 13l-19 55q0 2 -1 3t-1 3q0 8 5 12.5t12 8.5q102 80 102 174q0 14 -16 14h-23q-18 0 -18 12q0 2 1 4t1 5l22 137q6 20 25 20h153z" />
<glyph unicode="&#x201e;" horiz-adv-x="645" d="M182 225q12 0 15.5 -5t3.5 -15t-5.5 -26.5t-9.5 -45.5l-16 -83q-8 -42 -25 -85q-18 -49 -45.5 -86t-55.5 -63.5t-53.5 -40t-39.5 -13.5q-10 0 -12 15l-17 55q-2 2 -2 6q0 10 13.5 20.5t33.5 28.5q35 33 52.5 71t17.5 73q0 16 -17 16h-22q-16 0 -16 14v7l24 137 q2 20 23 20h153zM465 225q18 0 18 -20q0 -10 -5 -27.5t-9 -46.5q-6 -37 -14.5 -78t-26.5 -88q-18 -49 -46 -86t-55.5 -63.5t-53 -40t-40.5 -13.5q-10 0 -12 15l-16 55q-2 2 -2 6q0 10 14 19.5t33 27.5q35 35 52 74t17 74q0 14 -16 14h-22q-16 0 -17 14v7l25 137q2 20 22 20 h154z" />
<glyph unicode="&#x2022;" horiz-adv-x="901" d="M756 625q-10 -63 -40 -115.5t-77 -90.5t-108.5 -59.5t-133.5 -21.5h-8q-123 0 -191.5 61.5t-68.5 169.5q0 14 1 27.5t3 28.5l6 41q8 63 39 115.5t78 90t108.5 59t133.5 21.5h8q123 0 191.5 -62.5t68.5 -170.5q0 -12 -1 -25.5t-3 -27.5z" />
<glyph unicode="&#x2026;" horiz-adv-x="983" d="M977 1147q-2 -20 -25 -21h-512q-23 0 -24 -20l-62 -348v-6q0 -14 17 -15h420q18 0 18 -16v-4l-23 -123q-2 -20 -24 -21h-420q-20 0 -23 -20l-65 -369v-6q0 -14 16 -14h512q16 0 17 -14v-7l-21 -123q-2 -20 -24 -20h-697q-16 0 -16 14v6l219 1250q2 20 25 20h696 q16 0 16 -14v-6z" />
<glyph unicode="&#x202f;" horiz-adv-x="358" />
<glyph unicode="&#x2039;" horiz-adv-x="692" d="M582 803l-11 -17l-311 -198q-14 -8 -14 -17q0 -10 8 -16l242 -199l4 -16l-21 -117q-4 -23 -18 -22q-10 0 -17 6l-354 287l-4 16l20 121l13 16l454 289q8 6 21 6q8 0 8 -16v-6z" />
<glyph unicode="&#x203a;" horiz-adv-x="692" d="M555 510l-12 -16l-455 -287q-12 -6 -18 -6q-12 0 -13 16v6l21 117l12 16l311 199q14 10 15 16q0 10 -8 17l-242 198l-6 17l20 117q4 23 21 22q10 0 16 -6l354 -289l4 -16z" />
<glyph unicode="&#x205f;" horiz-adv-x="448" />
<glyph unicode="&#x2122;" horiz-adv-x="835" d="M393 1079q-2 -20 -24 -20h-56q-18 0 -24 -21l-49 -280q-2 -20 -25 -21h-25q-16 0 -16 15v6l49 280v6q0 14 -16 15h-55q-16 0 -17 14v6l4 23q2 20 25 20h217q16 0 16 -14v-6zM770 758q-2 -20 -25 -21h-24q-16 0 -16 15v6l26 147v6q0 18 -14 19q-10 0 -23 -15l-65 -84 q-6 -4 -11.5 -6t-9.5 -4h-8l-14 10l-41 84q-12 12 -23 13q-12 0 -16 -23l-27 -147q-2 -20 -24 -21h-25q-16 0 -16 15v6l61 344q2 20 25 20h24l17 -10l65 -166q6 -14 17 -14q10 0 20 14l127 166l21 10h24q16 0 16 -14v-6z" />
<glyph unicode="&#xe000;" horiz-adv-x="920" d="M0 920h920v-920h-920v920z" />
<glyph unicode="&#xfb01;" horiz-adv-x="1013" d="M621 1165q-2 -10 -6.5 -13t-12.5 -7l-72 -30q-33 -13 -59.5 -32.5t-43.5 -48t-26 -71.5l-20 -113v-6q0 -14 16 -15h144q18 0 18 -16v-4l-22 -123q-2 -20 -25 -20h-143q-20 0 -23 -21l-135 -758q-25 -143 -154 -260q-119 -109 -280 -108q-104 0 -105 20q0 8 4 15l62 118 q8 14 22 15q6 0 17.5 -2t29.5 -2q78 0 140.5 54t77.5 130l137 778v4q0 16 -19 17h-51q-16 0 -16 14v6l22 123q2 20 23 20h51q23 0 25 21l16 92q10 57 46 122.5t95 125.5q117 119 258 119q31 0 31 -15v-6zM768 20q-2 -20 -25 -20h-143q-16 0 -16 14v6l155 881q2 20 23 21h143 q18 0 19 -17v-4zM997 1217q0 -53 -39.5 -92.5t-95.5 -39.5q-41 0 -67.5 27t-26.5 68q0 53 41 92t94 39q43 0 68.5 -25.5t25.5 -68.5z" />
<glyph unicode="&#xfb02;" horiz-adv-x="1019" d="M774 20q-2 -20 -24 -20h-144q-16 0 -16 14v6l190 1086v6q0 14 -16 14h-150q-78 0 -140 -53t-77 -131l-16 -92v-6q0 -14 16 -15h144q18 0 18 -16v-4l-22 -123q-2 -20 -25 -20h-143q-20 0 -23 -21l-135 -758q-25 -143 -154 -260q-119 -109 -280 -108q-104 0 -105 20 q0 8 4 15l62 118q8 14 22 15q6 0 17.5 -2t29.5 -2q78 0 140.5 54t77.5 130l137 778v4q0 16 -19 17h-51q-16 0 -16 14v6l22 123q2 20 23 20h51q23 0 25 21l12 72q12 78 53 145.5t99.5 116.5t131 77.5t150.5 28.5h334q16 0 16 -14v-6z" />
<glyph unicode="&#xfb03;" horiz-adv-x="1601" d="M1372 20q-2 -20 -25 -20h-143q-16 0 -17 14v6l156 881q2 20 23 21h143q18 0 18 -17v-4zM1601 1217q0 -53 -40 -92.5t-95 -39.5q-41 0 -67.5 27t-26.5 68q0 53 41 92t94 39q43 0 68.5 -25.5t25.5 -68.5zM1274 1157q-8 -14 -24 -14q-16 2 -28.5 3t-19.5 1 q-39 0 -75.5 -14.5t-65 -40t-49 -59.5t-27.5 -70l-20 -113v-6q0 -14 16 -15h144q18 0 18 -16v-4l-22 -123q-2 -20 -25 -20h-143q-20 0 -23 -21l-135 -758q-25 -143 -154 -260q-119 -109 -280 -108q-104 0 -105 20q0 8 4 15l62 118q8 14 22 15q6 0 17.5 -2t29.5 -2 q78 0 140.5 54t77.5 130l137 778v4q0 16 -19 17h-51q-16 0 -16 14v6l22 123q2 20 23 20h51q23 0 25 21l16 92q14 78 54 145.5t98.5 116.5t131 78t150.5 29q109 0 109 -23q0 -4 -4 -12zM690 1157q-8 -14 -24 -14q-16 2 -28.5 3t-19.5 1q-39 0 -75.5 -14.5t-65 -40t-49 -59.5 t-27.5 -70l-20 -113v-6q0 -14 16 -15h144q18 0 18 -16v-4l-22 -123q-2 -20 -25 -20h-143q-20 0 -23 -21l-135 -758q-25 -143 -154 -260q-119 -109 -280 -108q-104 0 -105 20q0 8 4 15l62 118q8 14 22 15q6 0 17.5 -2t29.5 -2q78 0 140.5 54t77.5 130l137 778v4q0 16 -19 17 h-51q-16 0 -16 14v6l22 123q2 20 23 20h51q23 0 25 21l16 92q14 78 54 145.5t98.5 116.5t131 78t150.5 29q109 0 109 -23q0 -4 -4 -12z" />
<glyph unicode="&#xfb04;" horiz-adv-x="1609" d="M1368 20q-2 -20 -25 -20h-143q-16 0 -17 14v6l220 1250q2 20 24 20h143q16 0 17 -14v-6zM1274 1157q-8 -14 -24 -14q-16 2 -28.5 3t-19.5 1q-39 0 -75.5 -14.5t-65 -40t-49 -59.5t-27.5 -70l-20 -113v-6q0 -14 16 -15h144q18 0 18 -16v-4l-22 -123q-2 -20 -25 -20h-143 q-20 0 -23 -21l-135 -758q-25 -143 -154 -260q-119 -109 -280 -108q-104 0 -105 20q0 8 4 15l62 118q8 14 22 15q6 0 17.5 -2t29.5 -2q78 0 140.5 54t77.5 130l137 778v4q0 16 -19 17h-51q-16 0 -16 14v6l22 123q2 20 23 20h51q23 0 25 21l16 92q14 78 54 145.5t98.5 116.5 t131 78t150.5 29q109 0 109 -23q0 -4 -4 -12zM690 1157q-8 -14 -24 -14q-16 2 -28.5 3t-19.5 1q-39 0 -75.5 -14.5t-65 -40t-49 -59.5t-27.5 -70l-20 -113v-6q0 -14 16 -15h144q18 0 18 -16v-4l-22 -123q-2 -20 -25 -20h-143q-20 0 -23 -21l-135 -758q-25 -143 -154 -260 q-119 -109 -280 -108q-104 0 -105 20q0 8 4 15l62 118q8 14 22 15q6 0 17.5 -2t29.5 -2q78 0 140.5 54t77.5 130l137 778v4q0 16 -19 17h-51q-16 0 -16 14v6l22 123q2 20 23 20h51q23 0 25 21l16 92q14 78 54 145.5t98.5 116.5t131 78t150.5 29q109 0 109 -23q0 -4 -4 -12z " />
</font>
</defs>
</svg>
