<?xml version="1.0" standalone="no"?>
<!DOCTYPE svg PUBLIC "-//W3C//DTD SVG 1.1//EN" "http://www.w3.org/Graphics/SVG/1.1/DTD/svg11.dtd" >
<svg xmlns="http://www.w3.org/2000/svg">
<metadata></metadata>
<defs>
<font id="antique_olive_romanregular" horiz-adv-x="1139" >
<font-face units-per-em="2048" ascent="1638" descent="-410" />
<missing-glyph horiz-adv-x="569" />
<glyph horiz-adv-x="2048" />
<glyph horiz-adv-x="2048" />
<glyph unicode="&#xd;" horiz-adv-x="2048" />
<glyph unicode=" "  horiz-adv-x="569" />
<glyph unicode="&#x09;" horiz-adv-x="569" />
<glyph unicode="&#xa0;" horiz-adv-x="569" />
<glyph unicode="!" horiz-adv-x="684" d="M192 87q0 123 150 123q141 0 141 -123q0 -119 -146 -119q-145 0 -145 119zM215 1020v389q0 74 26 92q27 19 98 19q72 0 96 -20q25 -20 25 -87v-394l-41 -635h-163z" />
<glyph unicode="&#x22;" horiz-adv-x="909" d="M200 1040v480h191v-480h-191zM524 1040v480h191v-480h-191z" />
<glyph unicode="#" d="M67 444v166h201l34 288h-174v166h197l59 456h173l-57 -445v-11h209l59 456h173l-57 -445v-11h179v-166h-201l-39 -288h179v-166h-197l-59 -444h-173l59 444h-213l-57 -444h-173l57 444h-179zM441 610h209l39 288h-214z" />
<glyph unicode="$" d="M93 1082q0 185 114 317q115 132 286 153v288h131v-288q181 -21 346 -154v-310q-64 95 -166 159t-180 68v-437q234 -58 317 -180q83 -121 83 -268q0 -179 -113 -312q-112 -132 -287 -150v-288h-131v288q-119 10 -215 65q-95 56 -150 102v297q74 -105 165 -170 q91 -64 200 -76v475q-225 64 -313 159q-87 95 -87 262zM336 1107q0 -130 157 -192v400q-157 -50 -157 -208zM624 196q71 18 120 83q50 65 50 148q0 136 -170 197v-428z" />
<glyph unicode="%" horiz-adv-x="1821" d="M208 1151q0 222 69 311q70 90 218 90q147 0 216 -92q70 -92 70 -309q0 -203 -68 -296t-216 -93q-159 0 -224 94q-65 95 -65 295zM365 1151q0 -232 132 -232q127 0 127 228q0 239 -130 239q-129 0 -129 -235zM416 27l800 1533l144 -67l-800 -1533zM1027 357q0 222 68 311 q69 90 219 90q157 0 221 -97q65 -96 65 -304q0 -197 -66 -293q-65 -96 -218 -96q-151 0 -220 90t-69 299zM1184 357q0 -232 132 -232q127 0 127 228q0 239 -130 239q-129 0 -129 -235z" />
<glyph unicode="&#x26;" horiz-adv-x="1366" d="M110 356q0 265 286 462q-174 190 -174 390q0 157 106 250q106 94 285 94q176 0 263 -82q88 -81 88 -222q0 -92 -48 -177q-47 -84 -240 -259l286 -345q48 55 116 198q69 144 110 263v-378q-46 -113 -114 -217l274 -333h-291l-123 162q-165 -194 -401 -194q-181 0 -302 106 q-121 107 -121 282zM340 394q0 -101 61 -167t166 -66q148 0 248 135l-309 389q-166 -164 -166 -291zM452 1194q0 -104 120 -254q177 148 177 268q0 151 -139 151q-78 0 -118 -49q-40 -48 -40 -116z" />
<glyph unicode="'" horiz-adv-x="569" d="M192 1040v480h191v-480h-191z" />
<glyph unicode="(" horiz-adv-x="682" d="M138 772q0 -408 235 -772h191q-208 311 -208 760q0 463 208 760h-191q-235 -331 -235 -748z" />
<glyph unicode=")" horiz-adv-x="682" d="M118 0q208 311 208 760q0 463 -208 760h191q235 -331 235 -748q0 -408 -235 -772h-191z" />
<glyph unicode="*" horiz-adv-x="909" d="M109 1214l64 162l240 -128l-41 272h186l-41 -272l240 128l64 -162l-281 -61l191 -221l-132 -102l-132 240l-136 -240l-132 102l191 221z" />
<glyph unicode="+" horiz-adv-x="1229" d="M96 420v193h416v416h193v-416h416v-193h-416v-416h-193v416h-416z" />
<glyph unicode="," horiz-adv-x="569" d="M141 -273q68 153 68 480h191q0 -246 -114 -480h-145z" />
<glyph unicode="-" horiz-adv-x="797" d="M176 567v204h448v-204h-448z" />
<glyph unicode="." horiz-adv-x="569" d="M144 92q0 123 150 123q141 0 141 -123q0 -119 -146 -119q-145 0 -145 119z" />
<glyph unicode="/" horiz-adv-x="1024" d="M14 47l828 1505l164 -83l-824 -1501z" />
<glyph unicode="0" d="M64 791q0 416 116 588q117 173 390 173q253 0 376 -161t123 -588q0 -490 -126 -663q-126 -172 -373 -172q-257 0 -382 173q-124 174 -124 650zM269 783q0 -363 70 -487q70 -123 228 -123q156 0 226 120q71 121 71 486q0 322 -78 432q-77 111 -220 111q-154 0 -226 -124 q-71 -123 -71 -415z" />
<glyph unicode="1" d="M112 1050q106 58 252 188q147 131 237 282h237v-1520h-230v1232q-130 -146 -480 -384z" />
<glyph unicode="2" d="M83 1288q179 264 475 264q197 0 339 -120q143 -119 143 -307q0 -163 -89 -311q-88 -147 -275 -320l-292 -276h640v-218h-912v218q207 185 452 435q246 250 246 430q0 226 -276 226q-110 0 -213 -69q-102 -69 -225 -280z" />
<glyph unicode="3" d="M112 129v287q44 -102 146 -173q102 -70 224 -70q141 0 226 75q86 75 86 196q0 285 -336 285q-66 0 -128 -8q-61 -8 -122 -40v138l493 458h-589v243h880v-241l-464 -417q60 11 132 11q157 0 260 -118q104 -117 104 -299q0 -216 -149 -352q-148 -136 -385 -136 q-107 0 -208 45t-170 116z" />
<glyph unicode="4" d="M51 270v278l483 972h413v-1045h134v-205h-134v-270h-230v270h-666zM227 475h490v918z" />
<glyph unicode="5" d="M115 126v258q160 -211 370 -211q144 0 225 82t81 215q0 288 -319 288q-160 0 -344 -80v842h832v-243h-627v-391q118 64 271 64q190 0 303 -116q114 -116 114 -348q0 -221 -140 -370q-139 -148 -370 -148q-233 0 -396 158z" />
<glyph unicode="6" d="M74 717q0 404 141 619q142 216 417 216q227 0 376 -134v-272q-143 176 -350 176q-211 0 -289 -168q-78 -167 -78 -466q33 127 125 198q93 71 231 71q207 0 314 -127q108 -126 108 -344q0 -245 -122 -382q-121 -136 -352 -136q-261 0 -391 178t-130 571zM317 453 q0 -280 280 -280q267 0 267 296q0 145 -71 220q-71 76 -188 76q-288 0 -288 -312z" />
<glyph unicode="7" d="M96 1277v243h960v-261l-621 -1259h-246l611 1277h-704z" />
<glyph unicode="8" d="M86 378q0 313 278 397q-262 96 -262 364q0 185 121 299q122 114 352 114q234 0 349 -110q116 -110 116 -316q0 -130 -78 -225q-77 -94 -197 -128q291 -75 291 -374q0 -197 -123 -314q-122 -117 -370 -117q-233 0 -355 116q-122 117 -122 294zM304 411q0 -251 271 -251 q263 0 263 260q0 111 -69 178q-68 67 -198 67q-267 0 -267 -254zM320 1091q0 -104 66 -169t177 -65q107 0 183 62q76 63 76 180q0 223 -245 223q-124 0 -191 -62q-66 -62 -66 -169z" />
<glyph unicode="9" d="M70 1029q0 224 120 373q120 150 354 150q521 0 521 -761q0 -823 -566 -823q-211 0 -375 131v272q143 -198 361 -198q188 0 277 146q89 147 89 507q-29 -128 -123 -208t-246 -80q-203 0 -308 134q-104 134 -104 357zM275 1031q0 -138 66 -220q66 -81 197 -81q143 0 213 83 q71 84 71 227q0 126 -68 204q-67 78 -201 78q-278 0 -278 -291z" />
<glyph unicode=":" horiz-adv-x="569" d="M144 92q0 123 150 123q141 0 141 -123q0 -119 -146 -119q-145 0 -145 119zM144 889q0 123 150 123q141 0 141 -123q0 -119 -146 -119q-145 0 -145 119z" />
<glyph unicode=";" horiz-adv-x="569" d="M141 -273q68 153 68 480h191q0 -246 -114 -480h-145zM144 889q0 123 150 123q141 0 141 -123q0 -119 -146 -119q-145 0 -145 119z" />
<glyph unicode="&#x3c;" horiz-adv-x="1229" d="M93 436l1040 -448v196l-784 333l784 333v196l-1040 -448v-162z" />
<glyph unicode="=" horiz-adv-x="1229" d="M96 206v193h1040v-193h-1040zM96 639v193h1040v-193h-1040z" />
<glyph unicode="&#x3e;" horiz-adv-x="1229" d="M96 -12v196l784 333l-784 333v196l1040 -448v-162z" />
<glyph unicode="?" d="M141 1056v279q59 89 169 153q111 64 244 64q211 0 329 -121t118 -318q0 -141 -72 -236q-72 -94 -250 -203q-73 -44 -92 -82t-19 -109v-113h-191v156q0 108 60 184q40 53 200 160t160 225q0 97 -73 162q-72 65 -186 65q-261 0 -397 -266zM332 87q0 123 150 123 q141 0 141 -123q0 -119 -146 -119q-145 0 -145 119z" />
<glyph unicode="@" horiz-adv-x="1638" d="M64 754q0 333 231 565q232 233 565 233q299 0 511 -185q213 -185 213 -467q0 -257 -178 -430t-351 -173q-50 0 -86 35q-36 36 -36 93q-94 -128 -229 -128q-142 0 -231 107t-89 256q0 203 126 367t322 164q164 0 247 -144l34 119h172l-134 -578q-10 -53 -10 -65 q0 -49 35 -49q102 0 177 117q76 117 76 263q0 245 -159 387t-409 142q-265 0 -435 -175q-170 -174 -170 -453q0 -283 177 -451q178 -167 438 -167q286 0 456 167h177q-93 -144 -259 -240q-165 -96 -382 -96q-338 0 -569 228q-230 229 -230 558zM590 676q0 -79 44 -133 t123 -54q98 0 177 97t79 228q0 87 -42 136t-118 49q-112 0 -188 -98q-75 -98 -75 -225z" />
<glyph unicode="A" horiz-adv-x="1364" d="M0 1552zM26 0l464 1520h370l464 -1520h-246l-121 420h-567l-118 -420h-246zM451 635h444l-220 760zM685 1600zM1162 0z" />
<glyph unicode="B" horiz-adv-x="1364" d="M178 0v1520h616q250 0 346 -103t96 -292q0 -146 -97 -240q-96 -94 -266 -114q374 -14 374 -358q0 -413 -451 -413h-618zM420 215h352q233 0 233 219q0 123 -61 173q-60 50 -204 50h-320v-442zM420 861h305q269 0 269 230q0 187 -247 187h-327v-417z" />
<glyph unicode="C" horiz-adv-x="1364" d="M98 803q0 354 172 551q173 198 473 198q321 0 493 -194v-334q-140 275 -483 275q-212 0 -313 -152q-100 -151 -100 -397q0 -244 107 -406q108 -161 310 -161q153 0 268 72t211 241v-326q-187 -202 -498 -202q-303 0 -472 215q-168 215 -168 620zM698 0zM747 1600z" />
<glyph unicode="D" horiz-adv-x="1479" d="M0 1552zM178 0v1520h624q578 0 578 -701q0 -378 -191 -599q-190 -220 -541 -220h-470zM420 215h272q228 0 337 152t109 421q0 260 -94 375t-307 115h-317v-1063zM676 1600z" />
<glyph unicode="E" horiz-adv-x="1249" d="M0 1552zM178 0v1520h914v-242h-672v-413h672v-215h-672v-435h672v-215h-914zM653 1600zM892 0z" />
<glyph unicode="F" horiz-adv-x="1249" d="M178 0v1520h962v-242h-720v-413h712v-215h-712v-650h-242z" />
<glyph unicode="G" horiz-adv-x="1364" d="M98 810q0 336 168 539t475 203q261 0 447 -182v-330q-152 259 -441 259q-199 0 -303 -145q-104 -144 -104 -378q0 -593 401 -593q156 0 253 87v506h242v-552q-193 -256 -493 -256q-318 0 -482 225q-163 225 -163 617zM737 0zM749 1600z" />
<glyph unicode="H" horiz-adv-x="1479" d="M178 0v1520h242v-613h638v613h242v-1520h-242v665h-638v-665h-242z" />
<glyph unicode="I" horiz-adv-x="569" d="M0 1552zM162 0v1520h242v-1520h-242zM260 0zM283 1600z" />
<glyph unicode="J" horiz-adv-x="909" d="M11 60v231q136 -106 245 -106q233 0 233 240v1095h242v-1090q0 -460 -422 -460q-71 0 -149 22q-78 23 -149 68z" />
<glyph unicode="K" horiz-adv-x="1249" d="M178 0v1520h242v-724l553 724h295l-614 -766l599 -754h-302l-531 701v-701h-242zM657 0z" />
<glyph unicode="L" horiz-adv-x="1024" d="M0 1552zM178 0v1520h242v-1305h560v-215h-802zM303 1600zM566 0z" />
<glyph unicode="M" horiz-adv-x="1819" d="M178 0v1520h400l342 -1146l336 1146h400v-1520h-242v1324l-382 -1324h-230l-382 1306v-1306h-242z" />
<glyph unicode="N" horiz-adv-x="1593" d="M0 1552zM178 0v1520h389l603 -1235v1235h242v-1520h-344l-648 1336v-1336h-242zM781 0zM819 1600z" />
<glyph unicode="O" horiz-adv-x="1479" d="M98 810q0 330 162 536q163 206 479 206q302 0 471 -202q170 -202 170 -547q0 -392 -166 -614q-165 -221 -475 -221q-316 0 -479 225q-162 225 -162 617zM340 776q0 -593 399 -593t399 589q0 527 -399 527t-399 -523zM744 1600z" />
<glyph unicode="P" horiz-adv-x="1364" d="M178 0v1520h618q488 0 488 -487q0 -526 -537 -526h-327v-507h-242zM420 722h343q279 0 279 298q0 258 -284 258h-338v-556z" />
<glyph unicode="Q" horiz-adv-x="1479" d="M98 810q0 336 165 539t476 203q302 0 471 -202q170 -201 170 -544q0 -440 -193 -658l225 -188h-291l-88 71q-129 -63 -292 -63q-319 0 -481 223q-162 224 -162 619zM340 776q0 -593 399 -593q50 0 93 11l-236 197h298l112 -94q132 149 132 473q0 529 -399 529t-399 -523z " />
<glyph unicode="R" horiz-adv-x="1364" d="M0 1552zM178 0v1520h642q214 0 323 -113t109 -321q0 -199 -118 -310t-300 -111h-77l514 -665h-302l-549 744v-744h-242zM420 831h283q179 0 243 57q64 58 64 173q0 217 -254 217h-336v-447zM648 1600zM669 0z" />
<glyph unicode="S" d="M106 1083q0 205 141 337t351 132q109 0 202 -41q93 -40 186 -118v-321q-171 238 -389 238q-115 0 -182 -59t-67 -145q0 -140 168 -193l199 -64q198 -63 258 -166q61 -103 61 -253q0 -195 -133 -329q-133 -133 -336 -133q-136 0 -255 59t-172 108v297q65 -92 180 -171 q116 -78 241 -78q121 0 183 69t62 177q0 137 -183 199l-246 84q-122 44 -196 134q-73 91 -73 237zM588 0zM599 1600z" />
<glyph unicode="T" d="M0 1552zM32 1278v242h1074v-242h-416v-1278h-242v1278h-416zM556 0zM582 1600z" />
<glyph unicode="U" horiz-adv-x="1479" d="M0 1552zM174 508v1012h242v-992q0 -178 83 -254q84 -76 249 -76q322 0 322 320v1002h242v-1019q0 -248 -142 -391q-141 -142 -423 -142q-573 0 -573 540zM725 0zM747 1600z" />
<glyph unicode="V" horiz-adv-x="1364" d="M32 1520h246l412 -1300l413 1300h246l-496 -1520h-325z" />
<glyph unicode="W" horiz-adv-x="1933" d="M16 1520h246l277 -1217l293 1217h268l293 -1217l277 1217h246l-368 -1520h-302l-280 1152l-280 -1152h-302z" />
<glyph unicode="X" horiz-adv-x="1249" d="M15 0l473 760l-462 760h276l326 -564l327 564h276l-458 -754l469 -766h-272l-339 576l-336 -576h-280z" />
<glyph unicode="Y" horiz-adv-x="1249" d="M0 1552zM16 1520h261l340 -718l340 718h261l-480 -950v-570h-242v570zM631 1600z" />
<glyph unicode="Z" d="M0 1552zM68 0v243l724 1022v13h-724v242h992v-291l-712 -997v-17h712v-215h-992zM576 1600z" />
<glyph unicode="[" horiz-adv-x="682" d="M186 0h364v193h-160v1134h160v193h-364v-1520z" />
<glyph unicode="\" horiz-adv-x="1024" d="M14 1473l168 79l824 -1505l-168 -79z" />
<glyph unicode="]" horiz-adv-x="682" d="M132 0v193h160v1134h-160v193h364v-1520h-364z" />
<glyph unicode="^" horiz-adv-x="1229" d="M128 720l400 800h180l400 -800h-199l-291 597l-291 -597h-199z" />
<glyph unicode="_" horiz-adv-x="1024" d="M0 -151h1024v-103h-1024v103z" />
<glyph unicode="`" horiz-adv-x="569" d="M-48 1632h283l229 -224h-216zM338 1408z" />
<glyph unicode="a" d="M90 292q0 137 61 226t283 159l147 48q138 45 171 86t33 97q0 169 -223 169q-114 0 -209 -49q-94 -48 -195 -153v241q116 107 218 149q103 42 234 42q398 0 398 -388v-919h-230v213q-45 -97 -138 -169q-92 -71 -222 -71q-138 0 -233 92q-95 93 -95 227zM320 312 q0 -70 50 -115q51 -45 124 -45q107 0 195 97q89 98 89 246v145q-42 -24 -190 -75q-268 -89 -268 -253zM614 1419zM839 0z" />
<glyph unicode="b" horiz-adv-x="1366" d="M161 0v1584h230v-581q122 304 406 304q474 0 474 -651q0 -297 -137 -490q-136 -193 -368 -193q-279 0 -386 240v-213h-219zM384 617q0 -439 329 -439q166 0 252 123q87 123 87 355q0 421 -326 421q-163 0 -253 -129q-89 -128 -89 -331z" />
<glyph unicode="c" d="M104 656q0 651 574 651q227 0 381 -154v-284q-151 208 -374 208q-362 0 -362 -425q0 -219 89 -347q90 -127 262 -127q269 0 385 269v-261q-135 -213 -388 -213q-284 0 -426 181q-141 181 -141 502zM634 0zM682 1419z" />
<glyph unicode="d" horiz-adv-x="1366" d="M104 645q0 307 127 484q128 178 396 178q239 0 357 -192v469h230v-1584h-219v293q-51 -158 -163 -239t-258 -81q-239 0 -355 182q-115 182 -115 490zM323 592q0 -186 75 -300q76 -114 236 -114q177 0 267 129q90 130 90 366q0 194 -89 299t-242 105q-337 0 -337 -485z " />
<glyph unicode="e" horiz-adv-x="1251" d="M104 661q0 295 150 470q151 176 421 176q234 0 357 -151q123 -150 123 -445v-137h-832q0 -191 93 -300t271 -109q103 0 200 55q98 55 200 217v-256q-156 -208 -419 -208q-280 0 -422 185t-142 503zM323 766h663q0 323 -321 323q-155 0 -244 -86q-88 -85 -98 -237zM679 0z M683 1419z" />
<glyph unicode="f" horiz-adv-x="797" d="M5 835v205h188q-12 106 -14 200q0 157 104 250q104 94 269 94q73 0 144 -25q72 -24 99 -60v-197q-66 64 -203 64q-92 0 -143 -54t-51 -127q0 -67 11 -145h402v-205h-384v-835h-230v835h-192z" />
<glyph unicode="g" horiz-adv-x="1366" d="M104 684q0 260 128 441q128 182 390 182q267 0 378 -208v181h219v-1089q0 -495 -570 -495q-242 0 -430 114v222q148 -157 421 -157q174 0 261 72q88 72 88 240v176q-37 -118 -151 -187t-257 -69q-224 0 -351 154q-126 154 -126 423zM323 679q0 -171 84 -276 q84 -104 248 -104q149 0 238 98q89 99 89 294q0 188 -77 293q-76 105 -237 105q-345 0 -345 -410zM631 1419z" />
<glyph unicode="h" horiz-adv-x="1366" d="M161 0v1584h230v-549q130 272 427 272q182 0 285 -109q104 -108 104 -310v-888h-230v770q0 159 -61 233t-195 74q-160 0 -245 -119t-85 -289v-669h-230z" />
<glyph unicode="i" horiz-adv-x="569" d="M133 1485q0 109 153 109q149 0 149 -111q0 -107 -151 -107t-151 109zM169 0v1280q40 -19 115 -19q74 0 115 19v-1280h-230zM270 0z" />
<glyph unicode="j" horiz-adv-x="569" d="M-78 -112q67 -13 124 -13q148 0 148 148v1257q32 -19 115 -19q74 0 115 19v-1268q0 -316 -339 -316q-74 0 -163 26v166zM158 1485q0 109 153 109q149 0 149 -111q0 -107 -151 -107t-151 109z" />
<glyph unicode="k" d="M161 0v1584h230v-924l453 620h283l-489 -645l500 -635h-294l-453 615v-615h-230zM577 0z" />
<glyph unicode="l" horiz-adv-x="569" d="M169 0v1584h230v-1584h-230zM239 1696zM260 0z" />
<glyph unicode="m" horiz-adv-x="2048" d="M161 0v1280h219v-261q120 288 399 288q139 0 236 -89q98 -88 121 -231q88 320 391 320q368 0 368 -480v-827h-230v719q0 358 -234 358q-144 0 -216 -131q-72 -130 -72 -319v-627h-230v690q0 214 -56 300q-56 87 -183 87q-134 0 -209 -128q-74 -128 -74 -305v-644h-230z " />
<glyph unicode="n" horiz-adv-x="1366" d="M161 0v1280h219v-277q127 304 436 304q175 0 283 -107t108 -317v-883h-230v804q0 273 -254 273q-166 0 -249 -121t-83 -300v-656h-230zM664 0zM696 1419z" />
<glyph unicode="o" horiz-adv-x="1366" d="M104 661q0 646 582 646q581 0 581 -651q0 -329 -147 -506t-435 -177q-286 0 -434 178q-147 179 -147 510zM323 656q0 -478 365 -478q180 0 270 124q90 125 90 350q0 425 -363 425q-362 0 -362 -421zM690 1419z" />
<glyph unicode="p" horiz-adv-x="1366" d="M161 -304v1584h219v-277q136 304 421 304q470 0 470 -657q0 -334 -129 -506q-128 -171 -376 -171q-270 0 -375 208v-485h-230zM384 603q0 -425 334 -425t334 488q0 411 -326 411q-175 0 -259 -137q-83 -136 -83 -337z" />
<glyph unicode="q" horiz-adv-x="1366" d="M104 635q0 320 132 496q133 176 387 176q244 0 372 -208v181h219v-1584h-230v581q-49 -145 -161 -225q-112 -79 -238 -79q-481 0 -481 662zM323 592q0 -209 85 -312q85 -102 223 -102q178 0 269 132t91 370q0 178 -83 287q-82 110 -251 110q-334 0 -334 -485z" />
<glyph unicode="r" horiz-adv-x="909" d="M161 0v1280h223v-299q41 164 101 238q71 88 194 88q115 0 208 -70v-243q-89 70 -205 70q-291 0 -291 -482v-582h-230zM274 0zM533 1419z" />
<glyph unicode="s" horiz-adv-x="1024" d="M108 898q0 177 116 293q117 116 314 116q196 0 345 -100v-252q-115 122 -313 122q-122 0 -177 -43t-55 -112q0 -123 194 -182l134 -42q264 -81 264 -336q0 -168 -125 -279q-125 -110 -298 -110q-215 0 -356 113v239q122 -147 330 -147q97 0 163 40q67 41 67 119 q0 65 -44 111t-161 84l-186 59q-212 70 -212 307zM497 0zM535 1419z" />
<glyph unicode="t" horiz-adv-x="909" d="M29 1042v154q286 54 369 387h90l-12 -336h412v-205h-425v-662q0 -202 177 -202q67 0 123 26q57 26 109 86v-201q-46 -43 -129 -80q-83 -36 -168 -36q-342 0 -342 380v689h-204zM533 0z" />
<glyph unicode="u" horiz-adv-x="1366" d="M0 1307zM161 395v27v858h230v-775v-38q0 -149 63 -219t180 -70q168 0 255 122q88 122 88 339v641h230v-1280h-219v261q-135 -288 -430 -288q-180 0 -289 114q-108 114 -108 308zM688 1419zM1056 0z" />
<glyph unicode="v" d="M16 1280h237l321 -1055l321 1055h237l-400 -1280h-316z" />
<glyph unicode="w" horiz-adv-x="1819" d="M36 1280h237l297 -1060l202 1060h290l201 -1055l298 1055h237l-384 -1280h-290l-207 1060l-207 -1060h-290z" />
<glyph unicode="x" d="M22 0l395 640l-381 640h265l260 -495l284 495h265l-405 -640l398 -640h-265l-274 500l-277 -500h-265z" />
<glyph unicode="y" d="M0 1307zM14 1280h240l333 -965l294 965h237l-534 -1584h-244l121 371zM566 1419z" />
<glyph unicode="z" d="M0 1307zM133 0v240l625 822h-625v218h880v-240l-625 -822h625v-218h-880zM576 1419z" />
<glyph unicode="{" horiz-adv-x="682" d="M80 678v167v2h17q143 0 143 147v336q0 190 202 190h150v-192h-64q-60 0 -78 -28t-18 -97v-230q0 -119 -56 -163t-175 -48q123 -13 177 -58t54 -154v-248q0 -63 23 -87q23 -23 73 -23h64v-192h-141q-211 0 -211 197v335q0 146 -140 146h-20z" />
<glyph unicode="|" horiz-adv-x="455" d="M128 -502v2048h193v-2048h-193z" />
<glyph unicode="}" horiz-adv-x="682" d="M80 0v192h63q58 0 77 24q20 24 20 101v233q0 121 54 164q55 43 177 48q-124 12 -178 58q-53 46 -53 153v245q0 62 -20 86t-77 24h-63v192h140q212 0 212 -196v-332q0 -145 140 -145h20v-169h-20q-140 0 -140 -148v-340q0 -190 -203 -190h-149z" />
<glyph unicode="~" horiz-adv-x="1229" d="M141 500q96 180 255 180q95 0 246 -69q152 -69 200 -69h12q38 0 80 41q43 42 76 109l75 -160q-122 -183 -255 -183h-11q-74 0 -220 69t-213 69q-101 0 -170 -147z" />
<glyph unicode="&#xa1;" horiz-adv-x="684" d="M201 1160q0 119 146 119q145 0 145 -119q0 -123 -150 -123q-141 0 -141 123zM224 -166v394l41 635h163l41 -636v-389q0 -74 -26 -92q-27 -19 -98 -19q-72 0 -96 20q-25 20 -25 87z" />
<glyph unicode="&#xa2;" d="M74 651q0 317 142 486q142 170 419 170q61 0 111 -7l51 183l112 -29l-50 -190q87 -34 169 -111v-281q-102 144 -226 185l-244 -874q41 -10 94 -10q121 0 222 72q102 72 154 196v-261q-67 -106 -171 -159q-103 -53 -223 -53q-70 0 -130 14l-59 -206l-112 22l60 218 q-319 136 -319 635zM292 647q0 -308 161 -417l233 847h-31q-363 0 -363 -430z" />
<glyph unicode="&#xa3;" d="M45 166q173 115 173 322q0 47 -8 114h-142v192h122q-17 85 -22 152q-4 67 -4 129q0 219 129 348t331 129q294 0 426 -224v-416q-127 397 -382 397q-119 0 -197 -69q-77 -68 -77 -207q0 -78 10 -149q10 -70 13 -90h409v-192h-394q4 -46 4 -95q0 -88 -29 -164 q-28 -76 -68 -105q83 31 186 31q63 0 151 -24t144 -24q160 0 252 163v-320q-141 -96 -294 -96q-75 0 -189 41q-114 42 -166 42q-121 0 -247 -83z" />
<glyph unicode="&#xa4;" d="M44 350l118 117q-98 143 -98 293q0 149 99 292l-119 119l115 115l116 -116q155 96 295 96q149 0 297 -98l116 118l110 -113l-119 -117q102 -128 102 -295q0 -150 -98 -295l115 -114l-115 -115l-114 114q-157 -97 -296 -97q-141 0 -294 101l-117 -118zM244 760 q0 -137 92 -232q93 -94 234 -94q140 0 233 94q93 95 93 232q0 136 -93 231t-233 95q-138 0 -232 -93t-94 -233z" />
<glyph unicode="&#xa5;" d="M0 1520h259l308 -718l313 718h259l-360 -767h184v-157h-261l-11 -26v-134h272v-157h-272v-279h-243v279h-272v157h272v134l-11 26h-261v157h183z" />
<glyph unicode="&#xa6;" horiz-adv-x="455" d="M128 358h193v-720h-193v720zM128 662v720h193v-720h-193z" />
<glyph unicode="&#xa7;" d="M100 583q0 175 218 307q-177 89 -177 275q0 177 115 280q116 104 338 104q205 0 376 -117v-283q-159 170 -359 170q-216 0 -216 -141q0 -97 169 -147l205 -64q274 -83 274 -284q0 -161 -202 -292q179 -80 179 -282q0 -191 -137 -302t-356 -111q-111 0 -227 52 q-115 53 -182 120v276q196 -244 413 -244q248 0 248 189q0 98 -176 152l-273 85q-230 71 -230 257zM291 679q0 -108 193 -168l274 -84q103 89 103 167q0 54 -49 89q-48 36 -165 79l-253 92q-103 -83 -103 -175z" />
<glyph unicode="&#xa8;" horiz-adv-x="569" d="M-80 1533q0 108 133 108t133 -109q0 -108 -131 -108q-135 0 -135 109zM288 1408zM378 1533q0 108 133 108t133 -109q0 -108 -131 -108q-135 0 -135 109z" />
<glyph unicode="&#xa9;" horiz-adv-x="1638" d="M16 763q0 339 231 564q232 225 577 225q337 0 572 -224q236 -224 236 -566q0 -349 -239 -569q-238 -220 -569 -220q-341 0 -575 225q-233 225 -233 565zM208 762q0 -268 179 -451t437 -183q252 0 434 180q182 181 182 450q0 267 -180 453q-179 186 -436 186 q-256 0 -436 -185t-180 -450zM400 760q0 209 121 342t328 133q157 0 259 -90q103 -90 124 -246h-166q-15 84 -78 125q-62 42 -135 42q-126 0 -194 -85q-67 -85 -67 -215q0 -125 69 -215q70 -89 194 -89q81 0 140 43q60 43 71 124h172q-27 -159 -131 -248q-103 -88 -252 -88 q-203 0 -329 134t-126 333z" />
<glyph unicode="&#xaa;" horiz-adv-x="739" d="M45 948q0 93 69 147t259 109q123 36 123 92q0 77 -144 77q-129 0 -265 -109v163q127 125 318 125q267 0 267 -237v-550h-179v141q-19 -66 -82 -110q-62 -44 -144 -44q-105 0 -164 53q-58 54 -58 143zM224 996q0 -87 101 -87q78 0 123 60q45 61 45 142v45 q-153 -51 -211 -83q-58 -31 -58 -77z" />
<glyph unicode="&#xab;" horiz-adv-x="909" d="M109 674l198 -352h154l-170 352l170 352h-154zM429 674l198 -352h154l-170 352l170 352h-154z" />
<glyph unicode="&#xac;" horiz-adv-x="1229" d="M96 638v193h1040v-609h-193v416h-847z" />
<glyph unicode="&#xad;" horiz-adv-x="797" d="M176 567v204h448v-204h-448z" />
<glyph unicode="&#xae;" horiz-adv-x="1638" d="M16 763q0 339 231 564q232 225 577 225q337 0 572 -224q236 -224 236 -566q0 -349 -242 -569q-241 -220 -566 -220q-341 0 -575 225q-233 225 -233 565zM208 762q0 -268 179 -451t437 -183q252 0 434 182t182 453q0 265 -180 449q-179 185 -436 185q-260 0 -438 -184 t-178 -451zM512 317v887h335q199 0 276 -68t77 -195q0 -216 -231 -236l234 -388h-183l-214 380h-125v-380h-169zM681 829h185q165 0 165 126q0 117 -186 117h-164v-243z" />
<glyph unicode="&#xb0;" horiz-adv-x="819" d="M112 1263q0 119 84 204q85 85 206 85q119 0 204 -85t85 -205t-85 -205q-84 -84 -205 -84t-205 84t-84 206zM243 1261q0 -66 46 -112q47 -45 114 -45q65 0 111 46q46 47 46 114q0 65 -47 111t-113 46t-112 -47q-45 -47 -45 -113z" />
<glyph unicode="&#xb1;" horiz-adv-x="1229" d="M96 -6v193h1025v-193h-1025zM96 555v193h416v288h193v-288h416v-193h-416v-288h-193v288h-416z" />
<glyph unicode="&#xb2;" horiz-adv-x="739" d="M63 1383q119 168 306 168q141 0 231 -70q90 -69 90 -199q0 -97 -61 -184q-60 -87 -174 -176l-187 -145h399v-169h-585v169q155 137 291 259q137 122 137 218q0 60 -39 94q-38 34 -108 34q-84 0 -149 -48q-65 -47 -143 -167z" />
<glyph unicode="&#xb3;" horiz-adv-x="739" d="M65 694v203q101 -124 248 -124q84 0 136 34q53 34 53 94q0 68 -55 107q-55 40 -137 40q-80 0 -175 -28v112l300 224h-370v180h592v-173l-314 -219q40 11 75 11q264 0 264 -250q0 -143 -97 -228q-97 -84 -240 -84q-174 0 -280 101z" />
<glyph unicode="&#xb4;" horiz-adv-x="569" d="M96 1408l229 224h283l-296 -224h-216zM238 1408z" />
<glyph unicode="&#xb5;" horiz-adv-x="1366" d="M161 -304v1584h230v-767q0 -185 54 -260t189 -75q167 0 255 124t88 337v641h230v-1280h-219v267q-132 -294 -373 -294q-163 0 -224 99v-376h-230z" />
<glyph unicode="&#xb6;" horiz-adv-x="1229" d="M48 1149q0 371 485 371h577v-1h1v-1823h-192v1669h-231v-1669h-192v1088q-205 0 -327 97q-121 98 -121 268z" />
<glyph unicode="&#xb8;" horiz-adv-x="569" d="M128 -269l113 272h191l-88 -272h-216zM305 0z" />
<glyph unicode="&#xb9;" horiz-adv-x="739" d="M64 1283q198 109 317 268h183v-943h-180v715q-140 -131 -309 -220z" />
<glyph unicode="&#xba;" horiz-adv-x="889" d="M48 1161q0 391 394 391q393 0 393 -391q0 -409 -390 -409q-397 0 -397 409zM227 1157q0 -114 54 -181t162 -67q94 0 153 61q60 62 60 182q0 98 -56 159q-56 62 -160 62q-106 0 -160 -63q-53 -62 -53 -153z" />
<glyph unicode="&#xbb;" horiz-adv-x="909" d="M128 322l170 352l-170 352h154l198 -352l-198 -352h-154zM448 322l170 352l-170 352h154l198 -352l-198 -352h-154z" />
<glyph unicode="&#xbc;" horiz-adv-x="1708" d="M64 1283q198 109 317 268h183v-943h-180v715q-140 -131 -309 -220zM383 -32l848 1584h160l-845 -1584h-163zM982 152v193l329 581h279v-619h87v-155h-87v-154h-172v154h-436zM1126 307h292v489z" />
<glyph unicode="&#xbd;" horiz-adv-x="1708" d="M31 1283q198 109 317 268h183v-943h-180v715q-140 -131 -309 -220zM321 -32l848 1584h160l-845 -1584h-163zM1044 773q119 168 306 168q141 0 231 -70q90 -69 90 -199q0 -97 -61 -184q-60 -87 -174 -176l-187 -145h399v-169h-585v169q155 137 291 259q137 122 137 218 q0 60 -39 94q-38 34 -108 34q-84 0 -149 -48q-65 -47 -143 -167z" />
<glyph unicode="&#xbe;" horiz-adv-x="1708" d="M65 694v203q101 -124 248 -124q84 0 136 34q53 34 53 94q0 68 -55 107q-55 40 -137 40q-80 0 -175 -28v112l300 224h-370v180h592v-173l-314 -219q40 11 75 11q264 0 264 -250q0 -143 -97 -228q-97 -84 -240 -84q-174 0 -280 101zM383 -32l848 1584h160l-845 -1584h-163z M982 152v193l329 581h279v-619h87v-155h-87v-154h-172v154h-436zM1126 307h292v489z" />
<glyph unicode="&#xbf;" d="M138 134q0 141 72 236q72 94 250 203q73 44 92 82t19 109v113h191v-156q0 -108 -60 -184q-40 -53 -200 -160t-160 -225q0 -97 73 -162q72 -65 186 -65q261 0 397 266v-279q-59 -89 -169 -153q-111 -64 -244 -64q-211 0 -329 121t-118 318zM516 1160q0 119 146 119 q145 0 145 -119q0 -123 -150 -123q-141 0 -141 123z" />
<glyph unicode="&#xc0;" horiz-adv-x="1364" d="M0 1552zM26 0l464 1520h370l464 -1520h-246l-121 420h-567l-118 -420h-246zM299 1824h283l229 -224h-216zM451 635h444l-220 760zM685 1600zM685 1600zM1162 0z" />
<glyph unicode="&#xc1;" horiz-adv-x="1364" d="M0 1552zM26 0l464 1520h370l464 -1520h-246l-121 420h-567l-118 -420h-246zM451 635h444l-220 760zM543 1600l229 224h283l-296 -224h-216zM685 1600zM685 1600zM1162 0z" />
<glyph unicode="&#xc2;" horiz-adv-x="1364" d="M0 1552zM26 0l464 1520h370l464 -1520h-246l-121 420h-567l-118 -420h-246zM348 1600l192 224h295l176 -224h-196l-130 148l-141 -148h-196zM451 635h444l-220 760zM685 1600zM685 1600zM1162 0z" />
<glyph unicode="&#xc3;" horiz-adv-x="1364" d="M0 1552zM26 0l464 1520h370l464 -1520h-246l-121 420h-567l-118 -420h-246zM398 1583v173q63 78 167 78q63 0 147 -36q84 -35 127 -35q89 0 151 88v-193q-64 -65 -160 -65q-48 0 -139 35q-91 36 -143 36q-80 0 -150 -81zM451 635h444l-220 760zM685 1600zM685 1600z M1162 0z" />
<glyph unicode="&#xc4;" horiz-adv-x="1364" d="M0 1552zM26 0l464 1520h370l464 -1520h-246l-121 420h-567l-118 -420h-246zM317 1725q0 108 133 108t133 -109q0 -108 -131 -108q-135 0 -135 109zM451 635h444l-220 760zM685 1600zM685 1600zM775 1725q0 108 133 108t133 -109q0 -108 -131 -108q-135 0 -135 109z M1162 0z" />
<glyph unicode="&#xc5;" horiz-adv-x="1364" d="M0 1552zM26 0l464 1520h370l464 -1520h-246l-121 420h-567l-118 -420h-246zM451 635h444l-220 760zM481 1774q0 83 61 143t147 60q83 0 143 -61q61 -61 61 -145t-62 -144q-61 -59 -146 -59q-84 0 -144 60q-60 61 -60 146zM589 1772q0 -42 28 -71q29 -28 71 -28 q40 0 68 28q29 29 29 72q0 41 -29 70t-70 29t-69 -29t-28 -71zM685 1600zM685 1600zM1162 0z" />
<glyph unicode="&#xc6;" horiz-adv-x="2048" d="M11 0l784 1520h1090v-242h-624v-413h624v-215h-624v-435h624v-215h-866v420h-532l-204 -420h-272zM587 635h432v695h-76z" />
<glyph unicode="&#xc7;" horiz-adv-x="1364" d="M98 803q0 354 172 551q173 198 473 198q321 0 493 -194v-334q-140 275 -483 275q-212 0 -313 -152q-100 -151 -100 -397q0 -244 107 -406q108 -161 310 -161q153 0 268 72t211 241v-326q-187 -202 -498 -202q-303 0 -472 215q-168 215 -168 620zM521 -269l113 272h191 l-88 -272h-216zM698 0zM698 0zM747 1600z" />
<glyph unicode="&#xc8;" horiz-adv-x="1249" d="M0 1552zM178 0v1520h914v-242h-672v-413h672v-215h-672v-435h672v-215h-914zM267 1824h283l229 -224h-216zM653 1600zM653 1600zM892 0z" />
<glyph unicode="&#xc9;" horiz-adv-x="1249" d="M0 1552zM178 0v1520h914v-242h-672v-413h672v-215h-672v-435h672v-215h-914zM511 1600l229 224h283l-296 -224h-216zM653 1600zM653 1600zM892 0z" />
<glyph unicode="&#xca;" horiz-adv-x="1249" d="M0 1552zM178 0v1520h914v-242h-672v-413h672v-215h-672v-435h672v-215h-914zM316 1600l192 224h295l176 -224h-196l-130 148l-141 -148h-196zM653 1600zM653 1600zM892 0z" />
<glyph unicode="&#xcb;" horiz-adv-x="1249" d="M0 1552zM178 0v1520h914v-242h-672v-413h672v-215h-672v-435h672v-215h-914zM285 1725q0 108 133 108t133 -109q0 -108 -131 -108q-135 0 -135 109zM653 1600zM653 1600zM743 1725q0 108 133 108t133 -109q0 -108 -131 -108q-135 0 -135 109zM892 0z" />
<glyph unicode="&#xcc;" horiz-adv-x="569" d="M-103 1824h283l229 -224h-216zM0 1552zM162 0v1520h242v-1520h-242zM260 0zM283 1600zM283 1600z" />
<glyph unicode="&#xcd;" horiz-adv-x="569" d="M0 1552zM141 1600l229 224h283l-296 -224h-216zM162 0v1520h242v-1520h-242zM260 0zM283 1600zM283 1600z" />
<glyph unicode="&#xce;" horiz-adv-x="569" d="M-54 1600l192 224h295l176 -224h-196l-130 148l-141 -148h-196zM0 1552zM162 0v1520h242v-1520h-242zM260 0zM283 1600zM283 1600z" />
<glyph unicode="&#xcf;" horiz-adv-x="569" d="M-85 1725q0 108 133 108t133 -109q0 -108 -131 -108q-135 0 -135 109zM0 1552zM162 0v1520h242v-1520h-242zM260 0zM283 1600zM283 1600zM373 1725q0 108 133 108t133 -109q0 -108 -131 -108q-135 0 -135 109z" />
<glyph unicode="&#xd0;" horiz-adv-x="1479" d="M16 729v181h162v610h620q582 0 582 -707q0 -369 -188 -591q-187 -222 -549 -222h-465v729h-162zM420 215h272q446 0 446 581q0 244 -93 363q-92 119 -305 119h-320v-368h368v-181h-368v-514z" />
<glyph unicode="&#xd1;" horiz-adv-x="1593" d="M0 1552zM178 0v1520h389l603 -1235v1235h242v-1520h-344l-648 1336v-1336h-242zM532 1583v173q63 78 167 78q63 0 147 -36q84 -35 127 -35q89 0 151 88v-193q-64 -65 -160 -65q-48 0 -139 35q-91 36 -143 36q-80 0 -150 -81zM781 0zM819 1600zM819 1600z" />
<glyph unicode="&#xd2;" horiz-adv-x="1479" d="M98 810q0 330 162 536q163 206 479 206q302 0 471 -202q170 -202 170 -547q0 -392 -166 -614q-165 -221 -475 -221q-316 0 -479 225q-162 225 -162 617zM340 776q0 -593 399 -593t399 589q0 527 -399 527t-399 -523zM358 1824h283l229 -224h-216zM744 1600zM744 1600z " />
<glyph unicode="&#xd3;" horiz-adv-x="1479" d="M98 810q0 330 162 536q163 206 479 206q302 0 471 -202q170 -202 170 -547q0 -392 -166 -614q-165 -221 -475 -221q-316 0 -479 225q-162 225 -162 617zM340 776q0 -593 399 -593t399 589q0 527 -399 527t-399 -523zM602 1600l229 224h283l-296 -224h-216zM744 1600z M744 1600z" />
<glyph unicode="&#xd4;" horiz-adv-x="1479" d="M98 810q0 330 162 536q163 206 479 206q302 0 471 -202q170 -202 170 -547q0 -392 -166 -614q-165 -221 -475 -221q-316 0 -479 225q-162 225 -162 617zM340 776q0 -593 399 -593t399 589q0 527 -399 527t-399 -523zM407 1600l192 224h295l176 -224h-196l-130 148 l-141 -148h-196zM744 1600zM744 1600z" />
<glyph unicode="&#xd5;" horiz-adv-x="1479" d="M98 810q0 330 162 536q163 206 479 206q302 0 471 -202q170 -202 170 -547q0 -392 -166 -614q-165 -221 -475 -221q-316 0 -479 225q-162 225 -162 617zM340 776q0 -593 399 -593t399 589q0 527 -399 527t-399 -523zM457 1583v173q63 78 167 78q63 0 147 -36 q84 -35 127 -35q89 0 151 88v-193q-64 -65 -160 -65q-48 0 -139 35q-91 36 -143 36q-80 0 -150 -81zM744 1600zM744 1600z" />
<glyph unicode="&#xd6;" horiz-adv-x="1479" d="M98 810q0 330 162 536q163 206 479 206q302 0 471 -202q170 -202 170 -547q0 -392 -166 -614q-165 -221 -475 -221q-316 0 -479 225q-162 225 -162 617zM340 776q0 -593 399 -593t399 589q0 527 -399 527t-399 -523zM376 1725q0 108 133 108t133 -109q0 -108 -131 -108 q-135 0 -135 109zM744 1600zM744 1600zM834 1725q0 108 133 108t133 -109q0 -108 -131 -108q-135 0 -135 109z" />
<glyph unicode="&#xd7;" horiz-adv-x="1229" d="M144 178l338 344l-338 340l138 138l343 -343l344 343l135 -135l-344 -345l344 -345l-135 -135l-343 344l-344 -344z" />
<glyph unicode="&#xd8;" horiz-adv-x="1479" d="M98 809q0 333 165 538t476 205q250 0 411 -141l117 152l94 -76l-126 -166q145 -200 145 -517q0 -373 -158 -605q-158 -231 -483 -231q-254 0 -411 143l-117 -154l-94 68l135 176q-154 218 -154 608zM340 775q0 -227 63 -371l598 806q-96 89 -261 89q-400 0 -400 -524z M467 297q100 -114 271 -114q400 0 400 588q0 215 -63 340z" />
<glyph unicode="&#xd9;" horiz-adv-x="1479" d="M0 1552zM174 508v1012h242v-992q0 -178 83 -254q84 -76 249 -76q322 0 322 320v1002h242v-1019q0 -248 -142 -391q-141 -142 -423 -142q-573 0 -573 540zM361 1824h283l229 -224h-216zM725 0zM747 1600zM747 1600z" />
<glyph unicode="&#xda;" horiz-adv-x="1479" d="M0 1552zM174 508v1012h242v-992q0 -178 83 -254q84 -76 249 -76q322 0 322 320v1002h242v-1019q0 -248 -142 -391q-141 -142 -423 -142q-573 0 -573 540zM605 1600l229 224h283l-296 -224h-216zM725 0zM747 1600zM747 1600z" />
<glyph unicode="&#xdb;" horiz-adv-x="1479" d="M0 1552zM174 508v1012h242v-992q0 -178 83 -254q84 -76 249 -76q322 0 322 320v1002h242v-1019q0 -248 -142 -391q-141 -142 -423 -142q-573 0 -573 540zM410 1600l192 224h295l176 -224h-196l-130 148l-141 -148h-196zM725 0zM747 1600zM747 1600z" />
<glyph unicode="&#xdc;" horiz-adv-x="1479" d="M0 1552zM174 508v1012h242v-992q0 -178 83 -254q84 -76 249 -76q322 0 322 320v1002h242v-1019q0 -248 -142 -391q-141 -142 -423 -142q-573 0 -573 540zM379 1725q0 108 133 108t133 -109q0 -108 -131 -108q-135 0 -135 109zM725 0zM747 1600zM747 1600zM837 1725 q0 108 133 108t133 -109q0 -108 -131 -108q-135 0 -135 109z" />
<glyph unicode="&#xdd;" horiz-adv-x="1249" d="M0 1552zM16 1520h261l340 -718l340 718h261l-480 -950v-570h-242v570zM489 1600l229 224h283l-296 -224h-216zM631 1600zM631 1600z" />
<glyph unicode="&#xde;" horiz-adv-x="1364" d="M178 0v1520h242v-182h381q483 0 483 -487q0 -243 -136 -385q-135 -141 -380 -141h-348v-325h-242zM420 540h347q275 0 275 300q0 118 -72 187t-212 69h-338v-556z" />
<glyph unicode="&#xdf;" horiz-adv-x="1251" d="M161 0v1126q0 458 498 458q468 0 468 -383q0 -342 -433 -390q465 0 465 -379q0 -204 -116 -331q-115 -126 -325 -126q-92 0 -183 19v157q73 -19 146 -19q128 0 201 81t73 212q0 133 -97 194q-96 61 -307 61v205q357 0 357 251q0 218 -244 218q-146 0 -210 -70 q-63 -69 -63 -226v-1058h-230z" />
<glyph unicode="&#xe0;" d="M90 292q0 137 61 226t283 159l147 48q138 45 171 86t33 97q0 169 -223 169q-114 0 -209 -49q-94 -48 -195 -153v241q116 107 218 149q103 42 234 42q398 0 398 -388v-919h-230v213q-45 -97 -138 -169q-92 -71 -222 -71q-138 0 -233 92q-95 93 -95 227zM228 1643h283 l229 -224h-216zM320 312q0 -70 50 -115q51 -45 124 -45q107 0 195 97q89 98 89 246v145q-42 -24 -190 -75q-268 -89 -268 -253zM614 1419zM614 1419zM839 0z" />
<glyph unicode="&#xe1;" d="M90 292q0 137 61 226t283 159l147 48q138 45 171 86t33 97q0 169 -223 169q-114 0 -209 -49q-94 -48 -195 -153v241q116 107 218 149q103 42 234 42q398 0 398 -388v-919h-230v213q-45 -97 -138 -169q-92 -71 -222 -71q-138 0 -233 92q-95 93 -95 227zM320 312 q0 -70 50 -115q51 -45 124 -45q107 0 195 97q89 98 89 246v145q-42 -24 -190 -75q-268 -89 -268 -253zM472 1419l229 224h283l-296 -224h-216zM614 1419zM614 1419zM839 0z" />
<glyph unicode="&#xe2;" d="M90 292q0 137 61 226t283 159l147 48q138 45 171 86t33 97q0 169 -223 169q-114 0 -209 -49q-94 -48 -195 -153v241q116 107 218 149q103 42 234 42q398 0 398 -388v-919h-230v213q-45 -97 -138 -169q-92 -71 -222 -71q-138 0 -233 92q-95 93 -95 227zM277 1419l192 224 h295l176 -224h-196l-130 148l-141 -148h-196zM320 312q0 -70 50 -115q51 -45 124 -45q107 0 195 97q89 98 89 246v145q-42 -24 -190 -75q-268 -89 -268 -253zM614 1419zM614 1419zM839 0z" />
<glyph unicode="&#xe3;" d="M90 292q0 137 61 226t283 159l147 48q138 45 171 86t33 97q0 169 -223 169q-114 0 -209 -49q-94 -48 -195 -153v241q116 107 218 149q103 42 234 42q398 0 398 -388v-919h-230v213q-45 -97 -138 -169q-92 -71 -222 -71q-138 0 -233 92q-95 93 -95 227zM320 312 q0 -70 50 -115q51 -45 124 -45q107 0 195 97q89 98 89 246v145q-42 -24 -190 -75q-268 -89 -268 -253zM327 1402v173q63 78 167 78q63 0 147 -36q84 -35 127 -35q89 0 151 88v-193q-64 -65 -160 -65q-48 0 -139 35q-91 36 -143 36q-80 0 -150 -81zM614 1419zM614 1419z M839 0z" />
<glyph unicode="&#xe4;" d="M90 292q0 137 61 226t283 159l147 48q138 45 171 86t33 97q0 169 -223 169q-114 0 -209 -49q-94 -48 -195 -153v241q116 107 218 149q103 42 234 42q398 0 398 -388v-919h-230v213q-45 -97 -138 -169q-92 -71 -222 -71q-138 0 -233 92q-95 93 -95 227zM246 1544 q0 108 133 108t133 -109q0 -108 -131 -108q-135 0 -135 109zM320 312q0 -70 50 -115q51 -45 124 -45q107 0 195 97q89 98 89 246v145q-42 -24 -190 -75q-268 -89 -268 -253zM614 1419zM614 1419zM704 1544q0 108 133 108t133 -109q0 -108 -131 -108q-135 0 -135 109zM839 0z " />
<glyph unicode="&#xe5;" d="M90 292q0 137 61 226t283 159l147 48q138 45 171 86t33 97q0 169 -223 169q-114 0 -209 -49q-94 -48 -195 -153v241q116 107 218 149q103 42 234 42q398 0 398 -388v-919h-230v213q-45 -97 -138 -169q-92 -71 -222 -71q-138 0 -233 92q-95 93 -95 227zM320 312 q0 -70 50 -115q51 -45 124 -45q107 0 195 97q89 98 89 246v145q-42 -24 -190 -75q-268 -89 -268 -253zM410 1593q0 83 61 143t147 60q83 0 143 -61q61 -61 61 -145t-62 -144q-61 -59 -146 -59q-84 0 -144 60q-60 61 -60 146zM518 1591q0 -42 28 -71q29 -28 71 -28 q40 0 68 28q29 29 29 72q0 41 -29 70t-70 29t-69 -29t-28 -71zM614 1419zM614 1419zM839 0z" />
<glyph unicode="&#xe6;" horiz-adv-x="1933" d="M57 297q0 167 93 255q94 89 360 159q128 36 178 68q62 45 62 126q0 77 -57 124q-56 48 -160 48q-125 0 -218 -47t-190 -155v241q108 97 212 144q105 47 242 47q155 0 248 -79t99 -180q59 143 159 201q101 58 266 58q475 0 475 -596v-137h-832q0 -183 90 -296t268 -113 q109 0 208 55t198 217v-256q-154 -208 -419 -208q-356 0 -460 320q-42 -159 -170 -240q-127 -80 -296 -80q-173 0 -265 91q-91 92 -91 233zM287 331q0 -179 196 -179q123 0 216 90q94 91 94 230v195q-46 -37 -192 -92q-190 -70 -252 -123q-62 -52 -62 -121zM998 766h659 q-7 323 -314 323q-157 0 -249 -85t-96 -238z" />
<glyph unicode="&#xe7;" d="M104 656q0 651 574 651q227 0 381 -154v-284q-151 208 -374 208q-362 0 -362 -425q0 -219 89 -347q90 -127 262 -127q269 0 385 269v-261q-135 -213 -388 -213q-284 0 -426 181q-141 181 -141 502zM457 -269l113 272h191l-88 -272h-216zM634 0zM634 0zM682 1419z" />
<glyph unicode="&#xe8;" horiz-adv-x="1251" d="M104 661q0 295 150 470q151 176 421 176q234 0 357 -151q123 -150 123 -445v-137h-832q0 -191 93 -300t271 -109q103 0 200 55q98 55 200 217v-256q-156 -208 -419 -208q-280 0 -422 185t-142 503zM297 1643h283l229 -224h-216zM323 766h663q0 323 -321 323 q-155 0 -244 -86q-88 -85 -98 -237zM679 0zM683 1419zM683 1419z" />
<glyph unicode="&#xe9;" horiz-adv-x="1251" d="M104 661q0 295 150 470q151 176 421 176q234 0 357 -151q123 -150 123 -445v-137h-832q0 -191 93 -300t271 -109q103 0 200 55q98 55 200 217v-256q-156 -208 -419 -208q-280 0 -422 185t-142 503zM323 766h663q0 323 -321 323q-155 0 -244 -86q-88 -85 -98 -237z M541 1419l229 224h283l-296 -224h-216zM679 0zM683 1419zM683 1419z" />
<glyph unicode="&#xea;" horiz-adv-x="1251" d="M104 661q0 295 150 470q151 176 421 176q234 0 357 -151q123 -150 123 -445v-137h-832q0 -191 93 -300t271 -109q103 0 200 55q98 55 200 217v-256q-156 -208 -419 -208q-280 0 -422 185t-142 503zM323 766h663q0 323 -321 323q-155 0 -244 -86q-88 -85 -98 -237z M346 1419l192 224h295l176 -224h-196l-130 148l-141 -148h-196zM679 0zM683 1419zM683 1419z" />
<glyph unicode="&#xeb;" horiz-adv-x="1251" d="M104 661q0 295 150 470q151 176 421 176q234 0 357 -151q123 -150 123 -445v-137h-832q0 -191 93 -300t271 -109q103 0 200 55q98 55 200 217v-256q-156 -208 -419 -208q-280 0 -422 185t-142 503zM315 1544q0 108 133 108t133 -109q0 -108 -131 -108q-135 0 -135 109z M323 766h663q0 323 -321 323q-155 0 -244 -86q-88 -85 -98 -237zM679 0zM683 1419zM683 1419zM773 1544q0 108 133 108t133 -109q0 -108 -131 -108q-135 0 -135 109z" />
<glyph unicode="&#xec;" horiz-adv-x="569" d="M-98 1643h283l229 -224h-216zM0 1307zM169 0v1280q36 -19 115 -19q74 0 115 19v-1280h-230zM288 1419zM288 1419z" />
<glyph unicode="&#xed;" horiz-adv-x="569" d="M0 1307zM146 1419l229 224h283l-296 -224h-216zM169 0v1280q36 -19 115 -19q74 0 115 19v-1280h-230zM288 1419zM288 1419z" />
<glyph unicode="&#xee;" horiz-adv-x="569" d="M-49 1419l192 224h295l176 -224h-196l-130 148l-141 -148h-196zM0 1307zM169 0v1280q36 -19 115 -19q74 0 115 19v-1280h-230zM288 1419zM288 1419z" />
<glyph unicode="&#xef;" horiz-adv-x="569" d="M-80 1544q0 108 133 108t133 -109q0 -108 -131 -108q-135 0 -135 109zM0 1307zM169 0v1280q36 -19 115 -19q74 0 115 19v-1280h-230zM288 1419zM288 1419zM378 1544q0 108 133 108t133 -109q0 -108 -131 -108q-135 0 -135 109z" />
<glyph unicode="&#xf0;" horiz-adv-x="1366" d="M104 590q0 273 143 421q144 149 415 149q184 0 303 -96q-52 98 -113 162q-60 65 -151 137l-320 -155l-108 122l266 130q-102 58 -227 86l100 166q204 -65 333 -149l303 149l108 -122l-259 -128q219 -190 294 -397q76 -206 76 -424q0 -301 -146 -485q-145 -183 -426 -183 q-287 0 -439 169q-152 170 -152 448zM323 563q0 -161 101 -273q102 -112 264 -112q158 0 259 111t101 298q0 151 -90 253q-89 102 -270 102q-189 0 -277 -99q-88 -98 -88 -280z" />
<glyph unicode="&#xf1;" horiz-adv-x="1366" d="M161 0v1280h219v-277q127 304 436 304q175 0 283 -107t108 -317v-883h-230v804q0 273 -254 273q-166 0 -249 -121t-83 -300v-656h-230zM409 1402v173q63 78 167 78q63 0 147 -36q84 -35 127 -35q89 0 151 88v-193q-64 -65 -160 -65q-48 0 -139 35q-91 36 -143 36 q-80 0 -150 -81zM664 0zM696 1419zM696 1419z" />
<glyph unicode="&#xf2;" horiz-adv-x="1366" d="M104 661q0 646 582 646q581 0 581 -651q0 -329 -147 -506t-435 -177q-286 0 -434 178q-147 179 -147 510zM304 1643h283l229 -224h-216zM323 656q0 -478 365 -478q180 0 270 124q90 125 90 350q0 425 -363 425q-362 0 -362 -421zM690 1419zM690 1419z" />
<glyph unicode="&#xf3;" horiz-adv-x="1366" d="M104 661q0 646 582 646q581 0 581 -651q0 -329 -147 -506t-435 -177q-286 0 -434 178q-147 179 -147 510zM323 656q0 -478 365 -478q180 0 270 124q90 125 90 350q0 425 -363 425q-362 0 -362 -421zM548 1419l229 224h283l-296 -224h-216zM690 1419zM690 1419z" />
<glyph unicode="&#xf4;" horiz-adv-x="1366" d="M104 661q0 646 582 646q581 0 581 -651q0 -329 -147 -506t-435 -177q-286 0 -434 178q-147 179 -147 510zM323 656q0 -478 365 -478q180 0 270 124q90 125 90 350q0 425 -363 425q-362 0 -362 -421zM353 1419l192 224h295l176 -224h-196l-130 148l-141 -148h-196z M690 1419zM690 1419z" />
<glyph unicode="&#xf5;" horiz-adv-x="1366" d="M104 661q0 646 582 646q581 0 581 -651q0 -329 -147 -506t-435 -177q-286 0 -434 178q-147 179 -147 510zM323 656q0 -478 365 -478q180 0 270 124q90 125 90 350q0 425 -363 425q-362 0 -362 -421zM403 1402v173q63 78 167 78q63 0 147 -36q84 -35 127 -35q89 0 151 88 v-193q-64 -65 -160 -65q-48 0 -139 35q-91 36 -143 36q-80 0 -150 -81zM690 1419zM690 1419z" />
<glyph unicode="&#xf6;" horiz-adv-x="1366" d="M104 661q0 646 582 646q581 0 581 -651q0 -329 -147 -506t-435 -177q-286 0 -434 178q-147 179 -147 510zM322 1544q0 108 133 108t133 -109q0 -108 -131 -108q-135 0 -135 109zM323 656q0 -478 365 -478q180 0 270 124q90 125 90 350q0 425 -363 425q-362 0 -362 -421z M690 1419zM690 1419zM780 1544q0 108 133 108t133 -109q0 -108 -131 -108q-135 0 -135 109z" />
<glyph unicode="&#xf7;" horiz-adv-x="1229" d="M96 420v193h1029v-193h-1029zM448 98q0 67 47 114q48 48 117 48q66 0 113 -48q48 -47 48 -115q0 -65 -48 -111q-47 -46 -113 -46q-69 0 -117 46q-47 46 -47 112zM448 931q0 67 47 114q48 48 117 48q66 0 113 -48q48 -47 48 -115q0 -65 -48 -111q-47 -46 -113 -46 q-69 0 -117 46q-47 46 -47 112z" />
<glyph unicode="&#xf8;" horiz-adv-x="1366" d="M104 665q0 310 145 476q146 166 438 166q225 0 363 -103l105 135l90 -74l-106 -142q128 -166 128 -470q0 -327 -147 -504q-146 -176 -433 -176q-221 0 -360 105l-98 -121l-100 64l109 142q-134 176 -134 502zM323 655q0 -191 62 -309l520 674q-86 57 -219 57 q-363 0 -363 -422zM459 254q88 -76 230 -76q169 0 264 120t95 346q0 179 -65 286z" />
<glyph unicode="&#xf9;" horiz-adv-x="1366" d="M0 1307zM161 395v27v858h230v-775v-38q0 -149 63 -219t180 -70q168 0 255 122q88 122 88 339v641h230v-1280h-219v261q-135 -288 -430 -288q-180 0 -289 114q-108 114 -108 308zM302 1643h283l229 -224h-216zM688 1419zM688 1419zM1056 0z" />
<glyph unicode="&#xfa;" horiz-adv-x="1366" d="M0 1307zM161 395v27v858h230v-775v-38q0 -149 63 -219t180 -70q168 0 255 122q88 122 88 339v641h230v-1280h-219v261q-135 -288 -430 -288q-180 0 -289 114q-108 114 -108 308zM546 1419l229 224h283l-296 -224h-216zM688 1419zM688 1419zM1056 0z" />
<glyph unicode="&#xfb;" horiz-adv-x="1366" d="M0 1307zM161 395v27v858h230v-775v-38q0 -149 63 -219t180 -70q168 0 255 122q88 122 88 339v641h230v-1280h-219v261q-135 -288 -430 -288q-180 0 -289 114q-108 114 -108 308zM351 1419l192 224h295l176 -224h-196l-130 148l-141 -148h-196zM688 1419zM688 1419z M1056 0z" />
<glyph unicode="&#xfc;" horiz-adv-x="1366" d="M0 1307zM161 395v27v858h230v-775v-38q0 -149 63 -219t180 -70q168 0 255 122q88 122 88 339v641h230v-1280h-219v261q-135 -288 -430 -288q-180 0 -289 114q-108 114 -108 308zM320 1544q0 108 133 108t133 -109q0 -108 -131 -108q-135 0 -135 109zM688 1419zM688 1419z M778 1544q0 108 133 108t133 -109q0 -108 -131 -108q-135 0 -135 109zM1056 0z" />
<glyph unicode="&#xfd;" d="M0 1307zM14 1280h240l333 -965l294 965h237l-534 -1584h-244l121 371zM424 1419l229 224h283l-296 -224h-216zM566 1419zM566 1419z" />
<glyph unicode="&#xfe;" horiz-adv-x="1366" d="M161 -304v1888h230v-565q58 123 161 205q104 83 241 83q478 0 478 -662q0 -310 -126 -491q-125 -181 -379 -181q-271 0 -375 208v-485h-230zM384 603q0 -203 84 -314t240 -111q344 0 344 492q0 407 -321 407q-181 0 -264 -135q-83 -134 -83 -339z" />
<glyph unicode="&#xff;" d="M0 1307zM14 1280h240l333 -965l294 965h237l-534 -1584h-244l121 371zM198 1544q0 108 133 108t133 -109q0 -108 -131 -108q-135 0 -135 109zM566 1419zM566 1419zM656 1544q0 108 133 108t133 -109q0 -108 -131 -108q-135 0 -135 109z" />
<glyph unicode="&#x152;" horiz-adv-x="2048" d="M98 810q0 339 153 540q154 202 421 202q278 0 386 -224v192h832v-242h-598v-413h598v-215h-598v-435h598v-215h-832v176q-156 -208 -394 -208q-283 0 -425 225q-141 225 -141 617zM328 779q0 -282 99 -432q99 -149 288 -149q177 0 267 162q91 162 91 414q0 525 -355 525 q-390 0 -390 -520z" />
<glyph unicode="&#x153;" horiz-adv-x="2048" d="M104 656q0 307 137 479q138 172 406 172q184 0 297 -91t132 -229q44 162 145 241t259 79q480 0 480 -596v-137h-784q10 -207 86 -308q77 -101 244 -101q135 0 231 83q97 84 155 221v-294q-148 -202 -411 -202q-188 0 -298 88q-110 89 -139 248q-42 -166 -143 -251 t-261 -85q-262 0 -399 181t-137 502zM323 656q0 -217 85 -348q85 -130 250 -130q310 0 310 460q0 439 -307 439q-167 0 -253 -115q-85 -114 -85 -306zM1172 766h619q0 146 -82 234q-81 89 -223 89q-291 0 -314 -323z" />
<glyph unicode="&#x178;" horiz-adv-x="1249" d="M0 1552zM16 1520h261l340 -718l340 718h261l-480 -950v-570h-242v570zM263 1725q0 108 133 108t133 -109q0 -108 -131 -108q-135 0 -135 109zM631 1600zM631 1600zM721 1725q0 108 133 108t133 -109q0 -108 -131 -108q-135 0 -135 109z" />
<glyph unicode="&#x2c6;" horiz-adv-x="569" d="M-48 1408l192 224h295l176 -224h-196l-130 148l-141 -148h-196zM289 1408z" />
<glyph unicode="&#x2dc;" horiz-adv-x="569" d="M-16 1391v173q63 78 167 78q63 0 147 -36q84 -35 127 -35q89 0 151 88v-193q-64 -65 -160 -65q-48 0 -139 35q-91 36 -143 36q-80 0 -150 -81zM271 1408z" />
<glyph unicode="&#x2000;" horiz-adv-x="988" />
<glyph unicode="&#x2001;" horiz-adv-x="1977" />
<glyph unicode="&#x2002;" horiz-adv-x="988" />
<glyph unicode="&#x2003;" horiz-adv-x="1977" />
<glyph unicode="&#x2004;" horiz-adv-x="659" />
<glyph unicode="&#x2005;" horiz-adv-x="494" />
<glyph unicode="&#x2006;" horiz-adv-x="329" />
<glyph unicode="&#x2007;" horiz-adv-x="329" />
<glyph unicode="&#x2008;" horiz-adv-x="247" />
<glyph unicode="&#x2009;" horiz-adv-x="395" />
<glyph unicode="&#x200a;" horiz-adv-x="109" />
<glyph unicode="&#x2010;" horiz-adv-x="797" d="M176 567v204h448v-204h-448z" />
<glyph unicode="&#x2011;" horiz-adv-x="797" d="M176 567v204h448v-204h-448z" />
<glyph unicode="&#x2012;" horiz-adv-x="797" d="M176 567v204h448v-204h-448z" />
<glyph unicode="&#x2013;" horiz-adv-x="1024" d="M0 574v193h1024v-193h-1024z" />
<glyph unicode="&#x2014;" horiz-adv-x="2048" d="M0 574v193h2048v-193h-2048z" />
<glyph unicode="&#x2018;" horiz-adv-x="569" d="M173 1040q0 246 114 480h145q-67 -170 -67 -480h-192z" />
<glyph unicode="&#x2019;" horiz-adv-x="569" d="M137 1040q67 170 67 480h192q0 -246 -114 -480h-145z" />
<glyph unicode="&#x201a;" horiz-adv-x="569" d="M137 -275q67 170 67 480h192q0 -246 -114 -480h-145z" />
<glyph unicode="&#x201c;" horiz-adv-x="909" d="M165 1040q0 246 114 480h145q-67 -170 -67 -480h-192zM485 1040q0 246 114 480h145q-67 -170 -67 -480h-192z" />
<glyph unicode="&#x201d;" horiz-adv-x="909" d="M165 1040q67 170 67 480h192q0 -246 -114 -480h-145zM485 1040q67 170 67 480h192q0 -246 -114 -480h-145z" />
<glyph unicode="&#x201e;" horiz-adv-x="909" d="M165 -275q67 170 67 480h192q0 -246 -114 -480h-145zM485 -275q67 170 67 480h192q0 -246 -114 -480h-145z" />
<glyph unicode="&#x2022;" horiz-adv-x="1024" d="M130 751q0 157 109 266q109 110 267 110q157 0 266 -110q110 -109 110 -266q0 -158 -109 -267t-267 -109t-267 109t-109 267z" />
<glyph unicode="&#x2026;" horiz-adv-x="2048" d="M192 92q0 123 150 123q141 0 141 -125q0 -117 -146 -117q-145 0 -145 119zM880 92q0 123 150 123q141 0 141 -123q0 -119 -146 -119q-145 0 -145 119zM1568 92q0 123 150 123q141 0 141 -123q0 -119 -146 -119q-145 0 -145 119z" />
<glyph unicode="&#x202f;" horiz-adv-x="395" />
<glyph unicode="&#x2039;" horiz-adv-x="569" d="M108 674l198 -352h154l-170 352l170 352h-154z" />
<glyph unicode="&#x203a;" horiz-adv-x="569" d="M109 322l170 352l-170 352h154l198 -352l-198 -352h-154z" />
<glyph unicode="&#x205f;" horiz-adv-x="494" />
<glyph unicode="&#x20ac;" d="M13 555l32 150h112q2 35 2 112h-146l32 150h122q29 249 189 417q161 168 394 168q251 0 393 -140v-254q-158 176 -369 176q-181 0 -280 -102q-99 -101 -125 -265h630l-32 -150h-606q-2 -32 -2 -67l2 -45h590l-29 -150h-547q26 -160 130 -271t263 -111q190 0 375 192v-239 q-149 -158 -384 -158q-231 0 -387 158t-202 429h-157z" />
<glyph unicode="&#x2122;" horiz-adv-x="2028" d="M88 1365v155h688v-155h-248v-693h-192v693h-248zM872 672v848h285l201 -557l205 557h282v-848h-192v629l-224 -629h-141l-224 629v-629h-192z" />
<glyph unicode="&#xe000;" horiz-adv-x="1280" d="M0 0v1280h1280v-1280h-1280z" />
<glyph unicode="&#xfb01;" horiz-adv-x="1366" d="M5 835v205h188q-14 100 -14 200q0 157 104 250q105 94 269 94q73 0 144 -25q72 -24 99 -60v-197q-66 64 -203 64q-92 0 -143 -52t-51 -129q0 -67 11 -145h402v-205h-384v-835h-230v835h-192zM929 1485q0 109 153 109q149 0 149 -111q0 -107 -151 -107t-151 109zM965 0 v1280q39 -19 115 -19q74 0 115 19v-1280h-230z" />
<glyph unicode="&#xfb02;" horiz-adv-x="1366" d="M5 835v205h188q-14 116 -14 200q0 157 105 250q106 94 268 94q73 0 144 -25q72 -24 99 -60v-197q-66 64 -203 64q-92 0 -143 -54t-51 -127q0 -67 11 -145h402v-205h-384v-835h-230v835h-192zM965 0v1584h230v-1584h-230z" />
</font>
</defs>
</svg>
