<?xml version="1.0" standalone="no"?>
<!DOCTYPE svg PUBLIC "-//W3C//DTD SVG 1.1//EN" "http://www.w3.org/Graphics/SVG/1.1/DTD/svg11.dtd" >
<svg xmlns="http://www.w3.org/2000/svg">
<metadata></metadata>
<defs>
<font id="antique_olive_romanbold" horiz-adv-x="1366" >
<font-face units-per-em="2048" ascent="1638" descent="-410" />
<missing-glyph horiz-adv-x="569" />
<glyph horiz-adv-x="2048" />
<glyph horiz-adv-x="2048" />
<glyph unicode="&#xd;" horiz-adv-x="2048" />
<glyph unicode=" "  horiz-adv-x="569" />
<glyph unicode="&#x09;" horiz-adv-x="569" />
<glyph unicode="&#xa0;" horiz-adv-x="569" />
<glyph unicode="!" horiz-adv-x="680" d="M160 91q0 139 176 139q170 0 170 -133q0 -137 -172 -137q-174 0 -174 131zM187 1032v375q0 67 28 90q29 23 123 23q86 0 113 -21q28 -20 28 -83v-378l-44 -673h-204z" />
<glyph unicode="&#x22;" horiz-adv-x="909" d="M184 1024v496h222v-496h-222zM508 1024v496h222v-496h-222z" />
<glyph unicode="#" horiz-adv-x="1139" d="M64 427v199h185l31 256h-153v199h182l58 439h198l-58 -439h202l58 439h198l-58 -439h159v-199h-188l-31 -256h156v-199h-184l-56 -427h-198l56 427h-202l-56 -427h-198l56 427h-157zM447 626h202l31 256h-202z" />
<glyph unicode="$" horiz-adv-x="1139" d="M68 1095q0 188 126 315q126 128 317 150v208h135v-208q230 -23 355 -176v-368q-123 235 -388 235q-142 -3 -196 -50q-53 -47 -53 -123q0 -95 181 -162q277 -103 331 -139q180 -117 180 -328q0 -201 -113 -334t-297 -155v-224h-135v224q-238 12 -397 177v351 q53 -113 168 -186q116 -73 244 -73q247 0 247 168q0 121 -182 188q-237 85 -319 127q-98 52 -151 146q-53 95 -53 237z" />
<glyph unicode="%" horiz-adv-x="1821" d="M176 1160q0 198 64 299q65 101 231 101q156 0 223 -96q68 -95 68 -304q0 -207 -78 -307q-77 -100 -213 -100q-143 0 -219 108t-76 299zM362 1159q0 -221 111 -221q103 0 103 226q0 197 -103 197q-111 0 -111 -202zM384 23l893 1545l131 -62l-902 -1554zM1046 367 q0 195 68 297q69 103 227 103q151 0 221 -92q70 -91 70 -308q0 -201 -77 -304q-76 -103 -214 -103q-143 0 -219 108t-76 299zM1232 366q0 -221 111 -221q103 0 103 226q0 197 -103 197q-111 0 -111 -202z" />
<glyph unicode="&#x26;" d="M96 355q0 265 279 462q-167 166 -167 377q0 167 109 266q110 100 304 100q189 0 285 -97q97 -96 97 -225q0 -218 -294 -428l247 -311q130 174 239 533v-490q-60 -117 -115 -203l259 -339h-350l-100 121q-162 -161 -395 -161q-178 0 -288 106t-110 289zM379 390 q0 -74 48 -123q49 -48 130 -48q100 0 197 89l-253 320q-122 -118 -122 -238zM491 1191q0 -108 94 -228q50 41 104 111q55 70 55 128q0 54 -35 88q-35 35 -91 35q-60 0 -94 -43q-33 -42 -33 -91z" />
<glyph unicode="'" horiz-adv-x="569" d="M176 1024v496h222v-496h-222z" />
<glyph unicode="(" horiz-adv-x="682" d="M117 760q0 -428 230 -760h254q-224 237 -224 760q0 489 224 760h-254q-230 -369 -230 -760z" />
<glyph unicode=")" horiz-adv-x="682" d="M81 0q224 237 224 760q0 489 -224 760h254q230 -369 230 -760q0 -428 -230 -760h-254z" />
<glyph unicode="*" horiz-adv-x="909" d="M97 1177l59 215l245 -128l-54 256h222l-54 -256l234 128l70 -215l-272 -31l206 -181l-189 -131l-104 240l-113 -240l-184 131l200 181z" />
<glyph unicode="+" horiz-adv-x="1229" d="M96 404v221h400v400h221v-400h400v-221h-400v-400h-221v400h-400z" />
<glyph unicode="," horiz-adv-x="569" d="M146 -276q38 113 38 308q0 83 -11 188h254q0 -351 -92 -496h-189z" />
<glyph unicode="-" horiz-adv-x="797" d="M128 534v283h544v-283h-544z" />
<glyph unicode="." horiz-adv-x="569" d="M112 93q0 137 174 137q172 0 172 -133q0 -137 -170 -137q-176 0 -176 133z" />
<glyph unicode="/" horiz-adv-x="1024" d="M-16 82l861 1470l195 -110l-867 -1474z" />
<glyph unicode="0" horiz-adv-x="1139" d="M42 766q0 418 123 606q124 188 404 188q290 0 408 -197q119 -197 119 -603q0 -800 -527 -800t-527 806zM312 762q0 -519 259 -519q255 0 255 531q0 243 -52 355q-52 113 -207 113q-144 0 -200 -112q-55 -112 -55 -368z" />
<glyph unicode="1" horiz-adv-x="1139" d="M48 960v247q262 119 542 313h262v-1520h-308v1225q-132 -86 -496 -265z" />
<glyph unicode="2" horiz-adv-x="1139" d="M64 856v393q138 311 474 311q222 0 359 -112q137 -111 137 -322q0 -185 -98 -349q-97 -164 -257 -308l-239 -200h598v-269h-932v238q445 430 532 581q88 151 88 241q0 204 -225 204q-241 -5 -437 -408z" />
<glyph unicode="3" horiz-adv-x="1139" d="M84 189v299q144 -259 370 -259q131 0 212 61t81 160q0 126 -92 182q-92 57 -219 57q-130 0 -238 -49v234l460 350h-566v296h904v-312l-439 -342q39 8 82 8q180 0 298 -105q118 -104 118 -291q0 -213 -147 -366q-146 -152 -384 -152q-296 0 -440 229z" />
<glyph unicode="4" horiz-adv-x="1139" d="M17 254v381l463 885h481v-1010h144v-256h-144v-254h-300v254h-644zM237 510h424v787z" />
<glyph unicode="5" horiz-adv-x="1139" d="M118 158v298q140 -240 348 -240q124 0 202 66t78 186q0 264 -301 264q-165 0 -310 -86v874h848v-296h-595v-315q92 57 220 57q191 0 312 -120q122 -120 122 -348q0 -244 -158 -391t-373 -147q-252 0 -393 198z" />
<glyph unicode="6" horiz-adv-x="1139" d="M63 698q0 424 127 643t425 219q290 0 409 -181v-345q-37 92 -120 161t-228 69q-342 0 -342 -526q110 230 338 230q190 0 298 -139q109 -139 109 -357q0 -244 -142 -378q-141 -134 -346 -134q-528 0 -528 738zM359 463q0 -103 60 -175t167 -72q108 0 165 72q58 72 58 179 q0 113 -60 183q-59 71 -163 71q-113 0 -170 -74t-57 -184z" />
<glyph unicode="7" horiz-adv-x="1139" d="M80 1202v318h992v-362l-557 -1158h-296l532 1202h-671z" />
<glyph unicode="8" horiz-adv-x="1139" d="M46 402q0 329 354 383q-144 5 -241 91t-97 275q0 196 130 302q131 107 373 107q229 0 366 -101q137 -100 137 -309q0 -343 -334 -367q350 -53 350 -383q0 -193 -144 -317q-144 -123 -375 -123q-221 0 -370 119t-149 323zM316 428q0 -97 65 -155q65 -57 186 -57 q118 0 182 57q65 58 65 153q0 100 -64 162t-181 62q-122 0 -188 -60q-65 -60 -65 -162zM345 1079q0 -88 58 -142q58 -53 164 -53q90 0 154 47q64 48 64 148q0 198 -222 198q-218 0 -218 -198z" />
<glyph unicode="9" horiz-adv-x="1139" d="M63 1008q0 237 124 394q125 158 378 158q272 0 394 -173q123 -173 123 -565q0 -381 -135 -622q-134 -240 -433 -240q-214 6 -383 146v295q182 -185 360 -185q312 0 312 528q-64 -119 -141 -168q-77 -48 -183 -48q-210 0 -313 139q-103 140 -103 341zM333 1029 q0 -103 60 -179q60 -75 175 -75q93 0 162 74q69 75 69 176q0 104 -58 171q-58 68 -173 68q-114 0 -175 -68q-60 -67 -60 -167z" />
<glyph unicode=":" horiz-adv-x="569" d="M112 93q0 137 174 137q172 0 172 -133q0 -137 -170 -137q-176 0 -176 133zM112 867q0 137 174 137q172 0 172 -133q0 -137 -170 -137q-176 0 -176 133z" />
<glyph unicode=";" horiz-adv-x="569" d="M112 867q0 137 174 137q172 0 172 -133q0 -137 -170 -137q-176 0 -176 133zM146 -276q38 113 38 308q0 83 -11 188h254q0 -351 -92 -496h-189z" />
<glyph unicode="&#x3c;" horiz-adv-x="1229" d="M92 436l1040 -448v218l-727 312l727 310v218l-1040 -448v-162z" />
<glyph unicode="=" horiz-adv-x="1229" d="M96 190v221h1040v-221h-1040zM96 635v221h1040v-221h-1040z" />
<glyph unicode="&#x3e;" horiz-adv-x="1229" d="M97 -12v218l727 312l-727 310v218l1040 -448v-162z" />
<glyph unicode="?" horiz-adv-x="1139" d="M136 1016v312q58 107 171 169q113 63 255 63q196 0 321 -117q125 -116 125 -305q0 -132 -75 -235q-75 -102 -262 -246q-92 -71 -92 -167q0 -65 11 -116h-211q-11 68 -11 173q0 69 25 129q26 60 156 157q141 107 170 155q29 49 29 98q0 89 -63 140q-62 51 -167 51 q-130 0 -230 -77q-99 -76 -152 -184zM319 93q0 137 174 137q172 0 172 -133q0 -137 -170 -137q-176 0 -176 133z" />
<glyph unicode="@" horiz-adv-x="1638" d="M16 764q0 329 237 562q237 234 590 234q327 0 551 -184q225 -183 225 -468q0 -266 -176 -440q-175 -173 -378 -173q-122 0 -125 128q-55 -60 -109 -94q-53 -34 -133 -34q-145 0 -244 108t-99 257q0 207 132 374t342 167q172 0 261 -144l31 116h187l-130 -541 q-14 -60 -14 -100q0 -57 53 -57q77 0 148 121t71 267q0 250 -154 382q-153 132 -432 132q-280 0 -452 -174q-171 -174 -171 -444q0 -293 171 -451q172 -157 470 -157q295 0 467 169h204q-101 -161 -271 -257q-169 -95 -407 -95q-380 0 -613 216q-232 216 -232 580zM576 690 q0 -77 46 -133q47 -55 121 -55q116 0 196 86q81 87 81 208q0 83 -47 140q-46 58 -128 58q-127 0 -198 -89q-71 -88 -71 -215z" />
<glyph unicode="A" d="M0 1560zM24 0l416 1520h485l416 -1520h-317l-105 372h-475l-103 -372h-317zM496 655h362l-183 657zM693 1608zM1125 0z" />
<glyph unicode="B" d="M154 0v1520h752q355 0 355 -360q0 -363 -461 -377q259 0 372 -80t113 -269q0 -434 -539 -434h-592zM461 259h287q230 0 230 190q0 193 -228 193h-289v-383zM461 887h275q218 0 218 181q0 183 -202 183h-291v-364z" />
<glyph unicode="C" horiz-adv-x="1251" d="M72 766q0 356 160 575t471 219q263 0 446 -185v-423q-120 277 -398 277q-386 0 -386 -493q0 -216 102 -355q102 -138 278 -138q131 0 236 84q106 84 168 209v-331q-175 -245 -446 -245q-306 0 -469 228q-162 228 -162 578zM695 0zM707 1608z" />
<glyph unicode="D" horiz-adv-x="1479" d="M0 1560zM154 0v1520h709q254 0 398 -172q144 -171 144 -523q0 -371 -188 -598q-187 -227 -550 -227h-513zM461 293h234q403 0 403 525q0 409 -366 409h-271v-934zM672 1608z" />
<glyph unicode="E" horiz-adv-x="1251" d="M0 1560zM154 0v1520h979v-307h-672v-302h672v-293h-672v-335h667v-283h-974zM670 1608zM942 0z" />
<glyph unicode="F" horiz-adv-x="1251" d="M154 0v1520h995v-307h-688v-334h688v-293h-688v-586h-307z" />
<glyph unicode="G" d="M72 766q0 353 160 573q161 221 473 221q334 0 492 -204v-404q-137 286 -449 286q-383 0 -383 -521q0 -220 89 -359t271 -139q124 0 213 72v485h307v-516q-119 -166 -241 -233q-121 -67 -300 -67q-292 0 -462 220t-170 586zM705 0zM705 1608z" />
<glyph unicode="H" horiz-adv-x="1479" d="M154 0v1520h307v-580h557v580h307v-1520h-307v618h-557v-618h-307z" />
<glyph unicode="I" horiz-adv-x="569" d="M0 1560zM130 0v1520h307v-1520h-307zM284 1608zM286 0z" />
<glyph unicode="J" horiz-adv-x="909" d="M14 63v241q115 -96 271 -96q87 0 130 67q44 67 44 230v1015h307v-1058q0 -277 -108 -388q-107 -111 -312 -111q-189 0 -332 100z" />
<glyph unicode="K" d="M154 0v1520h307v-671l475 671h389l-571 -760l571 -760h-384l-480 665v-665h-307zM685 0z" />
<glyph unicode="L" horiz-adv-x="1024" d="M0 1560zM154 0v1520h307v-1237h528v-283h-835zM327 1608zM558 0z" />
<glyph unicode="M" horiz-adv-x="1821" d="M154 0v1520h494l263 -1087l262 1087h490v-1520h-293v1164l-315 -1164h-293l-315 1164v-1164h-293z" />
<glyph unicode="N" horiz-adv-x="1479" d="M0 1560zM149 0v1520h461l435 -1033v1033h293v-1520h-389l-507 1164v-1164h-293zM725 0zM762 1608z" />
<glyph unicode="O" horiz-adv-x="1479" d="M82 810q0 383 159 566q160 184 500 184q334 0 496 -181q162 -180 162 -569q0 -379 -164 -615q-163 -235 -495 -235q-319 0 -489 230q-169 231 -169 620zM375 793q0 -254 88 -409q89 -155 278 -155q176 0 270 145q95 145 95 415q0 449 -366 449q-365 0 -365 -445z M741 1608z" />
<glyph unicode="P" d="M154 0v1520h636q269 0 386 -127q117 -126 117 -371q0 -247 -147 -389q-146 -142 -380 -142h-305v-491h-307zM461 760h293q105 0 168 66q64 67 64 173q0 117 -56 172q-55 56 -202 56h-267v-467z" />
<glyph unicode="Q" horiz-adv-x="1479" d="M82 814q0 381 159 563q160 183 500 183q334 0 496 -180q162 -179 162 -567q0 -313 -111 -536t-353 -297l112 -200h-307l-108 188q-284 39 -417 275q-133 237 -133 571zM375 794q0 -262 93 -412q94 -150 273 -150q182 0 273 153q92 154 92 405q0 448 -366 448 q-365 0 -365 -444z" />
<glyph unicode="R" d="M0 1560zM154 0v1520h697q221 0 323 -116q103 -115 103 -302q0 -445 -470 -445l518 -657h-389l-475 652v-652h-307zM461 849h270q239 0 239 193q0 185 -235 185h-274v-378zM606 1608zM672 0z" />
<glyph unicode="S" horiz-adv-x="1139" d="M77 1091q0 205 148 337t372 132q274 0 424 -174v-370q-124 237 -394 237q-257 0 -257 -172q0 -97 182 -163q282 -104 334 -141q183 -116 183 -327q0 -226 -141 -358q-140 -132 -368 -132q-279 0 -435 177v351q58 -121 168 -190q111 -69 245 -69q248 0 248 166 q0 122 -183 187q-274 98 -352 147q-174 109 -174 362zM511 0zM596 1608z" />
<glyph unicode="T" horiz-adv-x="1139" d="M0 1560zM32 1213v307h1075v-307h-384v-1213h-307v1213h-384zM557 0zM570 1608z" />
<glyph unicode="U" horiz-adv-x="1479" d="M0 1560zM144 575v945h307v-908q0 -197 59 -283t228 -86t227 88q59 88 59 286v903h307v-938q0 -622 -594 -622q-593 0 -593 615zM738 0zM738 1608z" />
<glyph unicode="V" d="M16 1520h336l328 -1176l335 1176h331l-464 -1520h-418z" />
<glyph unicode="W" horiz-adv-x="2048" d="M48 1520h322l227 -1164l235 1164h389l222 -1164l234 1164h312l-368 -1520h-374l-221 1182l-247 -1182h-379z" />
<glyph unicode="X" d="M24 0l467 766l-443 754h365l287 -528l292 528h360l-457 -760l457 -760h-368l-297 528l-298 -528h-365z" />
<glyph unicode="Y" d="M0 1560zM32 1520h355l299 -629l311 629h350l-512 -956v-564h-307v564zM700 1608z" />
<glyph unicode="Z" horiz-adv-x="1139" d="M0 1560zM72 0v297l627 901h-627v322h992v-315l-627 -908v-14h627v-283h-992zM541 1608z" />
<glyph unicode="[" horiz-adv-x="682" d="M148 0h420v207h-160v1106h160v207h-420v-1520z" />
<glyph unicode="\" horiz-adv-x="1024" d="M-16 1450l195 110l861 -1486l-189 -114z" />
<glyph unicode="]" horiz-adv-x="682" d="M114 0v207h160v1106h-160v207h420v-1520h-420z" />
<glyph unicode="^" horiz-adv-x="1229" d="M128 633l400 800h180l400 -800h-225l-269 553l-261 -553h-225z" />
<glyph unicode="_" horiz-adv-x="1024" d="M0 -151h1024v-103h-1024v103z" />
<glyph unicode="`" horiz-adv-x="569" d="M-48 1664h310l266 -240h-242zM366 1424z" />
<glyph unicode="a" horiz-adv-x="1251" d="M72 317q0 133 81 227q82 95 449 194q111 33 163 74q53 42 53 95q0 129 -222 129q-289 0 -462 -244v303q103 114 233 169q131 56 269 56q217 0 341 -99q124 -98 124 -298v-923h-278v248q-85 -288 -387 -288q-163 0 -264 102q-100 103 -100 255zM365 335q0 -152 166 -152 q128 0 210 101q82 102 82 269v87q-26 -36 -149 -77q-200 -66 -255 -117q-54 -51 -54 -111zM635 1432zM908 0z" />
<glyph unicode="b" d="M144 0v1584h307v-584q57 158 154 239t246 81q432 0 432 -669q0 -292 -127 -492q-126 -199 -345 -199q-289 0 -379 288v-248h-288zM432 627q0 -213 70 -312q71 -98 223 -98q125 0 200 118t75 280q0 214 -70 306q-69 92 -218 92q-131 0 -206 -103q-74 -103 -74 -283z" />
<glyph unicode="c" horiz-adv-x="1139" d="M77 661q0 298 144 478q145 181 404 181q254 0 407 -168v-389q-36 106 -136 178t-216 72q-320 0 -320 -367q0 -186 74 -308q75 -121 228 -121q263 0 370 280v-321q-167 -216 -407 -216q-253 0 -401 193q-147 193 -147 508zM622 0zM622 1432z" />
<glyph unicode="d" d="M77 624q0 318 120 507t358 189q284 0 354 -288v552h307v-1584h-288v312q-83 -352 -379 -352q-472 0 -472 664zM360 615q0 -398 275 -398q139 0 213 118q75 119 75 296q0 382 -273 382q-136 0 -213 -106t-77 -292z" />
<glyph unicode="e" horiz-adv-x="1251" d="M77 645q0 311 150 493q151 182 422 182q521 0 521 -623q0 -60 -10 -163h-790q0 -328 349 -328q100 0 203 53t186 181v-268q-179 -211 -431 -212q-303 0 -452 185q-148 186 -148 500zM370 780h589q-5 123 -88 189q-83 67 -209 67q-119 0 -201 -70q-81 -69 -91 -186z M649 1432zM679 0z" />
<glyph unicode="f" horiz-adv-x="909" d="M-3 861v246h224v138q0 157 100 248q101 91 299 91q166 0 292 -54v-240q-70 48 -218 48q-229 0 -229 -175q0 -34 10 -56h405v-246h-352v-861h-307v861h-224z" />
<glyph unicode="g" d="M77 712q0 608 495 608q303 0 373 -256v216h279v-1101q0 -246 -149 -365q-148 -118 -398 -118q-299 0 -490 137v247q143 -150 398 -150q346 0 346 295v161q-116 -272 -374 -272q-242 0 -361 164q-119 165 -119 434zM360 695q0 -138 71 -237q72 -98 215 -98q145 0 215 98 q70 99 70 256q0 322 -274 322q-297 0 -297 -341zM597 1432z" />
<glyph unicode="h" d="M139 0v1584h307v-616q34 145 137 248q104 104 270 104q377 0 377 -449v-871h-307v716q0 181 -46 244q-46 64 -150 64q-142 0 -212 -103q-69 -102 -69 -253v-668h-307z" />
<glyph unicode="i" horiz-adv-x="569" d="M101 1505q0 128 183 128q182 0 182 -129q0 -128 -181 -128q-184 0 -184 129zM130 0v1280q57 -35 157 -35q88 0 150 35v-1280h-307zM284 0z" />
<glyph unicode="j" horiz-adv-x="569" d="M-94 -96q53 -12 78 -12q146 0 146 174v1214q61 -35 157 -35q88 0 150 35v-1244q0 -340 -328 -340q-77 0 -134 7q-57 8 -69 12v189zM101 1505q0 128 183 128q182 0 182 -129q0 -128 -181 -128q-184 0 -184 129z" />
<glyph unicode="k" horiz-adv-x="1251" d="M134 0v1584h307v-924l427 620h389l-504 -645l509 -635h-413l-408 605v-605h-307zM619 0z" />
<glyph unicode="l" horiz-adv-x="569" d="M130 0v1584h307v-1584h-307zM280 0zM287 1632z" />
<glyph unicode="m" horiz-adv-x="2048" d="M139 0v1280h293v-296q82 336 382 336t354 -320q88 320 384 320q366 0 366 -402v-918h-307v732q0 169 -46 230q-45 62 -140 62q-243 0 -243 -356v-668h-307v744q0 280 -183 280q-246 0 -246 -376v-648h-307z" />
<glyph unicode="n" d="M139 0v1280h293v-328q105 368 430 368q368 0 368 -469v-851h-307v704q0 201 -50 260q-49 60 -146 60q-137 0 -209 -93q-72 -92 -72 -263v-668h-307zM676 0zM697 1432z" />
<glyph unicode="o" d="M82 656q0 664 598 664q597 0 597 -664q0 -696 -598 -696q-597 0 -597 696zM365 646q0 -429 315 -429q314 0 314 429q0 367 -315 367q-314 0 -314 -367zM680 1432z" />
<glyph unicode="p" d="M144 -304v1584h288v-328q72 194 163 281q92 87 256 87q432 0 432 -664q0 -300 -127 -498t-344 -198q-275 0 -361 240v-504h-307zM432 627q0 -196 63 -303q64 -107 232 -107q125 0 199 118t74 280q0 227 -76 312q-75 86 -215 86q-142 0 -210 -108q-67 -108 -67 -278z" />
<glyph unicode="q" d="M77 629q0 326 122 508q123 183 357 183q306 0 372 -336v296h288v-1584h-307v568q-39 -154 -138 -229t-229 -75q-465 0 -465 669zM360 615q0 -398 275 -398q139 0 213 119q75 120 75 295q0 382 -273 382q-136 0 -213 -105t-77 -293z" />
<glyph unicode="r" horiz-adv-x="909" d="M149 0v1280h283v-382q55 422 306 422q106 0 166 -54v-353q-61 88 -173 88q-275 0 -275 -438v-563h-307zM285 0zM535 1432z" />
<glyph unicode="s" horiz-adv-x="1024" d="M91 886q0 200 133 317t324 117q227 0 338 -148v-332q-86 196 -326 196q-83 0 -135 -35q-51 -35 -51 -95q0 -52 42 -87q43 -34 172 -71q230 -62 288 -151t58 -216q0 -185 -129 -303t-325 -118q-97 0 -192 34q-94 35 -173 114v332q129 -223 361 -223q81 0 135 37 q54 38 54 109q0 44 -44 80t-176 79l-79 26q-130 45 -203 124q-72 79 -72 214zM470 0zM552 1432z" />
<glyph unicode="t" horiz-adv-x="909" d="M29 996v215q257 58 350 373h139l-8 -304h376v-284h-382v-512q0 -151 38 -215q39 -63 129 -63q119 0 199 160v-278q-128 -128 -308 -128q-174 0 -270 95q-95 95 -95 383v558h-168zM534 0z" />
<glyph unicode="u" d="M0 1320zM130 445v835h307v-724q0 -176 42 -238t154 -62q133 0 207 97q74 98 74 263v664h307v-1280h-293v312q-103 -352 -424 -352q-193 0 -284 120q-90 120 -90 365zM680 1432zM1012 0z" />
<glyph unicode="v" horiz-adv-x="1251" d="M16 1280h336l267 -930l293 930h326l-432 -1280h-374z" />
<glyph unicode="w" horiz-adv-x="1933" d="M53 1280h322l230 -900l168 900h389l173 -905l235 905h312l-384 -1280h-350l-183 980l-178 -980h-350z" />
<glyph unicode="x" horiz-adv-x="1251" d="M19 0l408 645l-403 635h374l236 -420l241 420h360l-411 -645l406 -635h-365l-244 425l-242 -425h-360z" />
<glyph unicode="y" horiz-adv-x="1251" d="M0 1320zM19 1280h331l293 -817l275 817h317l-559 -1584h-326l139 377zM637 1432z" />
<glyph unicode="z" horiz-adv-x="1139" d="M0 1320zM120 0v305l589 706h-589v269h896v-325l-594 -709h594v-246h-896zM596 1432z" />
<glyph unicode="{" horiz-adv-x="682" d="M64 681v159q70 3 115 47q45 45 45 118v281q0 103 75 168q76 66 184 66h173v-173h-96q-91 0 -91 -144v-215q0 -220 -263 -228q263 0 263 -228v-214q0 -145 93 -145h94v-173h-173q-109 0 -184 64q-75 65 -75 169v283q0 78 -50 121q-49 44 -110 44z" />
<glyph unicode="|" horiz-adv-x="455" d="M112 -502v2048h221v-2048h-221z" />
<glyph unicode="}" horiz-adv-x="682" d="M32 0v173h93q94 0 94 145v214q0 228 263 228q-263 8 -263 228v215q0 144 -92 144h-95v173h172q108 0 184 -66q76 -65 76 -168v-281q0 -73 45 -118q45 -44 115 -47v-159q-62 0 -111 -44q-49 -43 -49 -121v-283q0 -104 -76 -169q-75 -64 -184 -64h-172z" />
<glyph unicode="~" horiz-adv-x="1229" d="M142 514q93 176 248 176q92 0 235 -71t203 -71q117 0 185 149l73 -176q-121 -180 -255 -180q-86 0 -219 71q-132 71 -219 71q-107 0 -178 -145z" />
<glyph unicode="&#xa1;" horiz-adv-x="680" d="M174 1152q0 137 172 137q174 0 174 -131q0 -139 -176 -139q-170 0 -170 133zM201 -167v378l44 673h204l44 -667v-375q0 -67 -28 -90q-29 -23 -123 -23q-86 0 -113 21q-28 20 -28 83z" />
<glyph unicode="&#xa2;" horiz-adv-x="1139" d="M76 662q0 293 144 473t407 180q72 0 170 -28l71 236l122 -35l-76 -244q71 -43 117 -97v-388q-54 149 -200 214l-233 -751q31 -6 69 -6q223 9 364 283v-322q-162 -216 -402 -217q-45 0 -106 11l-75 -235l-114 35l71 234q-164 74 -247 250q-82 176 -82 407zM359 641 q0 -259 129 -368l219 726l-4 11q-172 0 -258 -92t-86 -277z" />
<glyph unicode="&#xa3;" horiz-adv-x="1139" d="M80 183q54 38 96 109q43 72 52 302h-131v221h113q-20 233 -20 285q0 217 128 338q129 122 339 122q207 0 387 -156v-340q-128 213 -327 213q-101 0 -166 -58t-65 -177v-227h366v-221h-366v-28q0 -231 -161 -354q42 21 92 45q51 25 105 25q49 0 140 -24q92 -24 145 -24 q139 0 271 150v-296q-128 -88 -252 -88q-64 0 -187 22t-198 22q-134 0 -247 -79z" />
<glyph unicode="&#xa4;" horiz-adv-x="1139" d="M47 355l111 112q-94 131 -94 293q0 165 94 302l-111 112l118 118l112 -112q134 95 300 95q162 0 295 -95l112 112l118 -118l-112 -112q95 -135 95 -302q0 -162 -95 -293l112 -112l-118 -118l-112 111q-133 -94 -295 -94q-166 0 -300 94l-112 -111zM285 764 q0 -120 84 -205q85 -84 206 -84q119 0 204 84q85 85 85 206q0 119 -85 204t-205 85t-205 -85q-84 -85 -84 -205z" />
<glyph unicode="&#xa5;" horiz-adv-x="1139" d="M-32 1520h338l268 -629l264 629h334l-374 -752h198v-172h-272v-144h272v-172h-272v-280h-308v280h-272v172h272v144h-272v172h197z" />
<glyph unicode="&#xa6;" horiz-adv-x="455" d="M112 358h221v-720h-221v720zM112 662v720h221v-720h-221z" />
<glyph unicode="&#xa7;" horiz-adv-x="1139" d="M114 576q0 171 209 291q-193 106 -193 300q0 171 125 281q126 110 331 110q207 0 384 -111v-305q-190 171 -365 171q-78 0 -128 -39t-50 -104q0 -55 51 -95q52 -39 191 -86l47 -16q178 -60 245 -134q68 -73 68 -171q0 -195 -200 -296q173 -96 173 -327q0 -163 -119 -256 t-307 -93q-233 0 -419 143v289q192 -187 379 -187q77 0 123 30q46 31 46 86q0 48 -28 86q-28 39 -125 82q-64 26 -251 112t-187 239zM309 683q0 -54 54 -94q38 -29 138 -69l255 -104q78 75 78 131q0 79 -70 133q-49 36 -163 77l-201 74q-91 -89 -91 -148z" />
<glyph unicode="&#xa8;" horiz-adv-x="569" d="M-48 1547q0 123 129 123t129 -121q0 -125 -131 -125q-127 0 -127 123zM293 1424zM370 1547q0 123 129 123t129 -121q0 -125 -131 -125q-127 0 -127 123z" />
<glyph unicode="&#xa9;" horiz-adv-x="1638" d="M16 757q0 332 234 563q234 232 565 232q333 0 565 -232q233 -232 233 -564q0 -327 -231 -561t-568 -234q-331 0 -565 233q-233 233 -233 563zM237 761q0 -282 172 -450q173 -167 406 -167q245 0 411 171t166 442q0 262 -162 437q-161 175 -416 175q-251 0 -414 -171 t-163 -437zM381 761q0 220 122 351q123 131 337 131q162 0 264 -96q103 -95 122 -240h-180q-19 75 -79 114t-119 39q-125 0 -186 -85q-60 -84 -60 -205q0 -122 69 -208t170 -86q77 0 133 40q56 41 69 113h190q-29 -163 -140 -250q-110 -86 -249 -86q-223 0 -343 135 t-120 333z" />
<glyph unicode="&#xaa;" horiz-adv-x="813" d="M34 958q0 177 214 231l125 31q141 35 141 85q0 70 -149 70q-188 0 -289 -119v172q111 132 323 132q138 0 225 -76q88 -75 88 -228v-489h-194v159q-51 -181 -248 -181q-108 0 -172 61q-64 62 -64 152zM232 973q0 -91 103 -91q82 0 132 56q51 56 51 159v52l-173 -66 q-113 -43 -113 -110z" />
<glyph unicode="&#xab;" horiz-adv-x="909" d="M93 680l146 -368h222l-136 368l136 368h-222zM445 680l146 -368h222l-136 368l136 368h-222z" />
<glyph unicode="&#xac;" horiz-adv-x="1229" d="M96 622v221h1040v-621h-221v400h-819z" />
<glyph unicode="&#xad;" horiz-adv-x="797" d="M128 534v283h544v-283h-544z" />
<glyph unicode="&#xae;" horiz-adv-x="1638" d="M16 757q0 329 232 562q233 233 567 233q333 0 565 -234q233 -233 233 -562q0 -330 -235 -563q-234 -232 -564 -232q-331 0 -565 233q-233 233 -233 563zM237 761q0 -278 165 -448q166 -169 413 -169q245 0 411 171t166 442q0 265 -159 438q-159 174 -414 174 q-257 0 -420 -171q-162 -171 -162 -437zM493 317v895h359q183 0 257 -62q75 -61 75 -202q0 -238 -228 -257l221 -374h-201l-207 364h-79v-364h-197zM690 830h126q171 0 171 124q0 109 -161 109h-136v-233z" />
<glyph unicode="&#xb0;" horiz-adv-x="819" d="M112 1271q0 120 84 204q84 85 206 85q121 0 205 -85q85 -84 85 -204q0 -121 -85 -205q-84 -84 -205 -84q-122 0 -206 84t-84 205zM260 1271q0 -59 42 -101t101 -42q57 0 99 42t42 101q0 58 -43 100q-42 43 -100 43t-100 -43q-41 -42 -41 -100z" />
<glyph unicode="&#xb1;" horiz-adv-x="1229" d="M96 5v221h1021v-221h-1021zM96 562v221h400v272h221v-272h400v-221h-400v-272h-221v272h-400z" />
<glyph unicode="&#xb2;" horiz-adv-x="739" d="M43 1128v243q110 189 315 189q155 0 237 -66t82 -183q0 -181 -123 -303q-122 -122 -234 -200h360v-184h-611v161q185 150 285 270q101 120 101 193q0 102 -132 102q-161 0 -280 -222z" />
<glyph unicode="&#xb3;" horiz-adv-x="739" d="M59 746v174q105 -136 248 -136q181 0 181 119q0 120 -176 120q-112 0 -184 -32v158l294 203h-360v184h589v-186l-285 -201q83 9 96 9q106 0 170 -61q65 -61 65 -181q0 -152 -95 -234t-256 -82q-96 0 -176 42q-79 42 -111 104z" />
<glyph unicode="&#xb4;" horiz-adv-x="569" d="M48 1424l262 240h314l-334 -240h-242zM197 1424z" />
<glyph unicode="&#xb5;" d="M139 -304v1584h307v-713q0 -202 45 -263q46 -60 151 -60q129 0 205 95q76 96 76 269v672h307v-1280h-293v313q-96 -326 -332 -326q-91 0 -159 50v-341h-307z" />
<glyph unicode="&#xb6;" horiz-adv-x="1229" d="M16 1146q0 374 487 374h579v-1824h-207v1641h-204v-1641h-207v1088q-207 0 -328 96q-120 97 -120 266z" />
<glyph unicode="&#xb8;" horiz-adv-x="569" d="M96 -276l130 288h222l-118 -288h-234zM301 0z" />
<glyph unicode="&#xb9;" horiz-adv-x="739" d="M48 1184v167q200 86 356 185h186v-912h-222v718q-65 -41 -320 -158z" />
<glyph unicode="&#xba;" horiz-adv-x="889" d="M48 1162q0 398 395 398q218 0 312 -114q76 -95 76 -284q0 -191 -102 -304q-101 -113 -280 -113q-198 0 -300 116q-101 116 -101 301zM255 1153q0 -240 186 -240q183 0 183 240q0 208 -183 208q-186 0 -186 -208z" />
<glyph unicode="&#xbb;" horiz-adv-x="909" d="M96 312l136 368l-136 368h222l146 -368l-146 -368h-222zM448 312l136 368l-136 368h222l146 -368l-146 -368h-222z" />
<glyph unicode="&#xbc;" horiz-adv-x="1708" d="M-13 1184v167q200 86 356 185h186v-912h-222v718q-65 -41 -320 -158zM360 -40l859 1600h165l-859 -1600h-165zM983 144v240l304 529h320v-596h95v-173h-95v-143h-222v143h-402zM1133 317h252v446z" />
<glyph unicode="&#xbd;" horiz-adv-x="1708" d="M-13 1184v167q200 86 356 185h186v-912h-222v718q-65 -41 -320 -158zM323 -40l859 1600h165l-859 -1600h-165zM1032 505v243q110 189 315 189q155 0 237 -66t82 -183q0 -181 -123 -303q-122 -122 -234 -200h360v-184h-611v161q185 150 285 270q101 120 101 193 q0 102 -132 102q-161 0 -280 -222z" />
<glyph unicode="&#xbe;" horiz-adv-x="1708" d="M59 746v174q105 -136 248 -136q181 0 181 119q0 120 -176 120q-112 0 -184 -32v158l294 203h-360v184h589v-186l-285 -201q83 9 96 9q106 0 170 -61q65 -61 65 -181q0 -152 -95 -234t-256 -82q-96 0 -176 42q-79 42 -111 104zM393 -40l859 1600h165l-859 -1600h-165z M983 144v240l304 529h320v-596h95v-173h-95v-143h-222v143h-402zM1133 317h252v446z" />
<glyph unicode="&#xbf;" horiz-adv-x="1139" d="M131 109q0 132 75 235q75 102 262 246q92 71 92 167q0 65 -11 116h211q11 -68 11 -173q0 -69 -25 -129q-26 -60 -156 -157q-141 -107 -170 -155q-29 -49 -29 -98q0 -89 63 -140q62 -51 167 -51q130 0 230 77q99 76 152 184v-312q-58 -107 -171 -169q-113 -63 -255 -63 q-196 0 -321 117q-125 116 -125 305zM474 1150q0 137 170 137q176 0 176 -133q0 -137 -174 -137q-172 0 -172 133z" />
<glyph unicode="&#xc0;" d="M0 1560zM24 0l416 1520h485l416 -1520h-317l-105 372h-475l-103 -372h-317zM279 1848h310l266 -240h-242zM496 655h362l-183 657zM693 1608zM693 1608zM1125 0z" />
<glyph unicode="&#xc1;" d="M0 1560zM24 0l416 1520h485l416 -1520h-317l-105 372h-475l-103 -372h-317zM496 655h362l-183 657zM544 1608l262 240h314l-334 -240h-242zM693 1608zM693 1608zM1125 0z" />
<glyph unicode="&#xc2;" d="M0 1560zM24 0l416 1520h485l416 -1520h-317l-105 372h-475l-103 -372h-317zM366 1608l160 240h339l160 -240h-214l-120 145l-111 -145h-214zM496 655h362l-183 657zM693 1608zM693 1608zM1125 0z" />
<glyph unicode="&#xc3;" d="M0 1560zM24 0l416 1520h485l416 -1520h-317l-105 372h-475l-103 -372h-317zM420 1581v204q85 72 162 72q53 0 146 -37q93 -36 141 -36q89 0 143 81v-200q-70 -65 -167 -65q-48 0 -140 30q-91 31 -142 31q-85 0 -143 -80zM496 655h362l-183 657zM693 1608zM693 1608z M1125 0z" />
<glyph unicode="&#xc4;" d="M0 1560zM24 0l416 1520h485l416 -1520h-317l-105 372h-475l-103 -372h-317zM352 1731q0 123 129 123t129 -121q0 -125 -131 -125q-127 0 -127 123zM496 655h362l-183 657zM693 1608zM693 1608zM770 1731q0 123 129 123t129 -121q0 -125 -131 -125q-127 0 -127 123z M1125 0z" />
<glyph unicode="&#xc5;" d="M0 1560zM24 0l416 1520h485l416 -1520h-317l-105 372h-475l-103 -372h-317zM469 1784q0 93 65 158t159 65q92 0 156 -66q65 -65 65 -158q0 -94 -66 -159q-65 -64 -158 -64t-157 65t-64 159zM496 655h362l-183 657zM578 1783q0 -48 32 -80q33 -32 82 -32q48 0 80 31 q33 31 33 82q0 47 -33 79q-33 33 -81 33q-49 0 -81 -33q-32 -32 -32 -80zM693 1608zM693 1608zM1125 0z" />
<glyph unicode="&#xc6;" horiz-adv-x="2048" d="M5 0l720 1520h1194v-307h-613v-302h608v-293h-608v-335h608v-283h-901v372h-499l-173 -372h-336zM646 655h367v633h-66z" />
<glyph unicode="&#xc7;" horiz-adv-x="1251" d="M72 766q0 356 160 575t471 219q263 0 446 -185v-423q-120 277 -398 277q-386 0 -386 -493q0 -216 102 -355q102 -138 278 -138q131 0 236 84q106 84 168 209v-331q-175 -245 -446 -245q-306 0 -469 228q-162 228 -162 578zM490 -276l130 288h222l-118 -288h-234zM695 0z M695 0zM707 1608z" />
<glyph unicode="&#xc8;" horiz-adv-x="1251" d="M0 1560zM154 0v1520h979v-307h-672v-302h672v-293h-672v-335h667v-283h-974zM256 1848h310l266 -240h-242zM670 1608zM670 1608zM942 0z" />
<glyph unicode="&#xc9;" horiz-adv-x="1251" d="M0 1560zM154 0v1520h979v-307h-672v-302h672v-293h-672v-335h667v-283h-974zM521 1608l262 240h314l-334 -240h-242zM670 1608zM670 1608zM942 0z" />
<glyph unicode="&#xca;" horiz-adv-x="1251" d="M0 1560zM154 0v1520h979v-307h-672v-302h672v-293h-672v-335h667v-283h-974zM343 1608l160 240h339l160 -240h-214l-120 145l-111 -145h-214zM670 1608zM670 1608zM942 0z" />
<glyph unicode="&#xcb;" horiz-adv-x="1251" d="M0 1560zM154 0v1520h979v-307h-672v-302h672v-293h-672v-335h667v-283h-974zM329 1731q0 123 129 123t129 -121q0 -125 -131 -125q-127 0 -127 123zM670 1608zM670 1608zM747 1731q0 123 129 123t129 -121q0 -125 -131 -125q-127 0 -127 123zM942 0z" />
<glyph unicode="&#xcc;" horiz-adv-x="569" d="M-130 1848h310l266 -240h-242zM0 1560zM130 0v1520h307v-1520h-307zM284 1608zM284 1608zM286 0z" />
<glyph unicode="&#xcd;" horiz-adv-x="569" d="M0 1560zM130 0v1520h307v-1520h-307zM135 1608l262 240h314l-334 -240h-242zM284 1608zM284 1608zM286 0z" />
<glyph unicode="&#xce;" horiz-adv-x="569" d="M-43 1608l160 240h339l160 -240h-214l-120 145l-111 -145h-214zM0 1560zM130 0v1520h307v-1520h-307zM284 1608zM284 1608zM286 0z" />
<glyph unicode="&#xcf;" horiz-adv-x="569" d="M-57 1731q0 123 129 123t129 -121q0 -125 -131 -125q-127 0 -127 123zM0 1560zM130 0v1520h307v-1520h-307zM284 1608zM284 1608zM286 0zM361 1731q0 123 129 123t129 -121q0 -125 -131 -125q-127 0 -127 123z" />
<glyph unicode="&#xd0;" horiz-adv-x="1479" d="M0 713v197h154v610h709q273 0 407 -186q135 -186 135 -509q0 -390 -191 -608q-190 -217 -547 -217h-513v713h-154zM461 293h236q401 0 401 525q0 409 -368 409h-269v-317h288v-197h-288v-420z" />
<glyph unicode="&#xd1;" horiz-adv-x="1479" d="M0 1560zM149 0v1520h461l435 -1033v1033h293v-1520h-389l-507 1164v-1164h-293zM489 1581v204q85 72 162 72q53 0 146 -37q93 -36 141 -36q89 0 143 81v-200q-70 -65 -167 -65q-48 0 -140 30q-91 31 -142 31q-85 0 -143 -80zM725 0zM762 1608zM762 1608z" />
<glyph unicode="&#xd2;" horiz-adv-x="1479" d="M82 810q0 383 159 566q160 184 500 184q334 0 496 -181q162 -180 162 -569q0 -379 -164 -615q-163 -235 -495 -235q-319 0 -489 230q-169 231 -169 620zM327 1848h310l266 -240h-242zM375 793q0 -254 88 -409q89 -155 278 -155q176 0 270 145q95 145 95 415 q0 449 -366 449q-365 0 -365 -445zM741 1608zM741 1608z" />
<glyph unicode="&#xd3;" horiz-adv-x="1479" d="M82 810q0 383 159 566q160 184 500 184q334 0 496 -181q162 -180 162 -569q0 -379 -164 -615q-163 -235 -495 -235q-319 0 -489 230q-169 231 -169 620zM375 793q0 -254 88 -409q89 -155 278 -155q176 0 270 145q95 145 95 415q0 449 -366 449q-365 0 -365 -445z M592 1608l262 240h314l-334 -240h-242zM741 1608zM741 1608z" />
<glyph unicode="&#xd4;" horiz-adv-x="1479" d="M82 810q0 383 159 566q160 184 500 184q334 0 496 -181q162 -180 162 -569q0 -379 -164 -615q-163 -235 -495 -235q-319 0 -489 230q-169 231 -169 620zM375 793q0 -254 88 -409q89 -155 278 -155q176 0 270 145q95 145 95 415q0 449 -366 449q-365 0 -365 -445z M414 1608l160 240h339l160 -240h-214l-120 145l-111 -145h-214zM741 1608zM741 1608z" />
<glyph unicode="&#xd5;" horiz-adv-x="1479" d="M82 810q0 383 159 566q160 184 500 184q334 0 496 -181q162 -180 162 -569q0 -379 -164 -615q-163 -235 -495 -235q-319 0 -489 230q-169 231 -169 620zM375 793q0 -254 88 -409q89 -155 278 -155q176 0 270 145q95 145 95 415q0 449 -366 449q-365 0 -365 -445z M468 1581v204q85 72 162 72q53 0 146 -37q93 -36 141 -36q89 0 143 81v-200q-70 -65 -167 -65q-48 0 -140 30q-91 31 -142 31q-85 0 -143 -80zM741 1608zM741 1608z" />
<glyph unicode="&#xd6;" horiz-adv-x="1479" d="M82 810q0 383 159 566q160 184 500 184q334 0 496 -181q162 -180 162 -569q0 -379 -164 -615q-163 -235 -495 -235q-319 0 -489 230q-169 231 -169 620zM375 793q0 -254 88 -409q89 -155 278 -155q176 0 270 145q95 145 95 415q0 449 -366 449q-365 0 -365 -445z M400 1731q0 123 129 123t129 -121q0 -125 -131 -125q-127 0 -127 123zM741 1608zM741 1608zM818 1731q0 123 129 123t129 -121q0 -125 -131 -125q-127 0 -127 123z" />
<glyph unicode="&#xd7;" horiz-adv-x="1229" d="M112 185l329 328l-329 329l166 166l330 -330l330 330l166 -169l-329 -328l329 -329l-166 -166l-329 328l-331 -328z" />
<glyph unicode="&#xd8;" horiz-adv-x="1479" d="M72 22l159 197q-149 223 -149 596q0 372 157 558q157 187 498 187q291 0 455 -137l121 147l96 -72l-132 -169q122 -182 122 -519v-10q-3 -388 -172 -614q-168 -226 -481 -226q-276 0 -433 163l-145 -173zM375 776q0 -176 55 -312l553 690q-93 84 -242 84 q-366 0 -366 -462zM487 350q93 -121 248 -121q198 0 284 159q87 160 87 394q0 168 -55 275z" />
<glyph unicode="&#xd9;" horiz-adv-x="1479" d="M0 1560zM144 575v945h307v-908q0 -197 59 -283t228 -86t227 88q59 88 59 286v903h307v-938q0 -622 -594 -622q-593 0 -593 615zM324 1848h310l266 -240h-242zM738 0zM738 1608zM738 1608z" />
<glyph unicode="&#xda;" horiz-adv-x="1479" d="M0 1560zM144 575v945h307v-908q0 -197 59 -283t228 -86t227 88q59 88 59 286v903h307v-938q0 -622 -594 -622q-593 0 -593 615zM589 1608l262 240h314l-334 -240h-242zM738 0zM738 1608zM738 1608z" />
<glyph unicode="&#xdb;" horiz-adv-x="1479" d="M0 1560zM144 575v945h307v-908q0 -197 59 -283t228 -86t227 88q59 88 59 286v903h307v-938q0 -622 -594 -622q-593 0 -593 615zM411 1608l160 240h339l160 -240h-214l-120 145l-111 -145h-214zM738 0zM738 1608zM738 1608z" />
<glyph unicode="&#xdc;" horiz-adv-x="1479" d="M0 1560zM144 575v945h307v-908q0 -197 59 -283t228 -86t227 88q59 88 59 286v903h307v-938q0 -622 -594 -622q-593 0 -593 615zM397 1731q0 123 129 123t129 -121q0 -125 -131 -125q-127 0 -127 123zM738 0zM738 1608zM738 1608zM815 1731q0 123 129 123t129 -121 q0 -125 -131 -125q-127 0 -127 123z" />
<glyph unicode="&#xdd;" d="M0 1560zM32 1520h355l299 -629l311 629h350l-512 -956v-564h-307v564zM551 1608l262 240h314l-334 -240h-242zM700 1608zM700 1608z" />
<glyph unicode="&#xde;" d="M154 0v1520h307v-166h338q494 0 494 -498q0 -243 -146 -387q-145 -144 -381 -144h-305v-325h-307zM461 594h293q106 0 169 66q63 67 63 173q0 125 -63 176q-62 52 -195 52h-267v-467z" />
<glyph unicode="&#xdf;" horiz-adv-x="1251" d="M134 0v1046q0 538 541 538q225 0 347 -103q123 -102 123 -285q0 -174 -112 -273q-112 -98 -315 -109q222 0 348 -98q127 -97 127 -282q0 -214 -119 -341q-118 -126 -317 -126q-141 0 -236 45v216q60 -38 153 -38q113 0 174 70q62 71 62 183q0 105 -74 161t-186 56 q-85 0 -129 -12v266q48 -8 120 -8q99 0 160 58t61 160q0 66 -49 115t-160 49q-212 0 -212 -287v-1001h-307z" />
<glyph unicode="&#xe0;" horiz-adv-x="1251" d="M72 317q0 133 81 227q82 95 449 194q111 33 163 74q53 42 53 95q0 129 -222 129q-289 0 -462 -244v303q103 114 233 169q131 56 269 56q217 0 341 -99q124 -98 124 -298v-923h-278v248q-85 -288 -387 -288q-163 0 -264 102q-100 103 -100 255zM221 1672h310l266 -240 h-242zM365 335q0 -152 166 -152q128 0 210 101q82 102 82 269v87q-26 -36 -149 -77q-200 -66 -255 -117q-54 -51 -54 -111zM635 1432zM635 1432zM908 0z" />
<glyph unicode="&#xe1;" horiz-adv-x="1251" d="M72 317q0 133 81 227q82 95 449 194q111 33 163 74q53 42 53 95q0 129 -222 129q-289 0 -462 -244v303q103 114 233 169q131 56 269 56q217 0 341 -99q124 -98 124 -298v-923h-278v248q-85 -288 -387 -288q-163 0 -264 102q-100 103 -100 255zM365 335q0 -152 166 -152 q128 0 210 101q82 102 82 269v87q-26 -36 -149 -77q-200 -66 -255 -117q-54 -51 -54 -111zM486 1432l262 240h314l-334 -240h-242zM635 1432zM635 1432zM908 0z" />
<glyph unicode="&#xe2;" horiz-adv-x="1251" d="M72 317q0 133 81 227q82 95 449 194q111 33 163 74q53 42 53 95q0 129 -222 129q-289 0 -462 -244v303q103 114 233 169q131 56 269 56q217 0 341 -99q124 -98 124 -298v-923h-278v248q-85 -288 -387 -288q-163 0 -264 102q-100 103 -100 255zM308 1432l160 240h339 l160 -240h-214l-120 145l-111 -145h-214zM365 335q0 -152 166 -152q128 0 210 101q82 102 82 269v87q-26 -36 -149 -77q-200 -66 -255 -117q-54 -51 -54 -111zM635 1432zM635 1432zM908 0z" />
<glyph unicode="&#xe3;" horiz-adv-x="1251" d="M72 317q0 133 81 227q82 95 449 194q111 33 163 74q53 42 53 95q0 129 -222 129q-289 0 -462 -244v303q103 114 233 169q131 56 269 56q217 0 341 -99q124 -98 124 -298v-923h-278v248q-85 -288 -387 -288q-163 0 -264 102q-100 103 -100 255zM362 1405v204q85 72 162 72 q53 0 146 -37q93 -36 141 -36q89 0 143 81v-200q-70 -65 -167 -65q-48 0 -140 30q-91 31 -142 31q-85 0 -143 -80zM365 335q0 -152 166 -152q128 0 210 101q82 102 82 269v87q-26 -36 -149 -77q-200 -66 -255 -117q-54 -51 -54 -111zM635 1432zM635 1432zM908 0z" />
<glyph unicode="&#xe4;" horiz-adv-x="1251" d="M72 317q0 133 81 227q82 95 449 194q111 33 163 74q53 42 53 95q0 129 -222 129q-289 0 -462 -244v303q103 114 233 169q131 56 269 56q217 0 341 -99q124 -98 124 -298v-923h-278v248q-85 -288 -387 -288q-163 0 -264 102q-100 103 -100 255zM294 1555q0 123 129 123 t129 -121q0 -125 -131 -125q-127 0 -127 123zM365 335q0 -152 166 -152q128 0 210 101q82 102 82 269v87q-26 -36 -149 -77q-200 -66 -255 -117q-54 -51 -54 -111zM635 1432zM635 1432zM712 1555q0 123 129 123t129 -121q0 -125 -131 -125q-127 0 -127 123zM908 0z" />
<glyph unicode="&#xe5;" horiz-adv-x="1251" d="M72 317q0 133 81 227q82 95 449 194q111 33 163 74q53 42 53 95q0 129 -222 129q-289 0 -462 -244v303q103 114 233 169q131 56 269 56q217 0 341 -99q124 -98 124 -298v-923h-278v248q-85 -288 -387 -288q-163 0 -264 102q-100 103 -100 255zM365 335q0 -152 166 -152 q128 0 210 101q82 102 82 269v87q-26 -36 -149 -77q-200 -66 -255 -117q-54 -51 -54 -111zM411 1608q0 93 65 158t159 65q92 0 156 -66q65 -65 65 -158q0 -94 -66 -159q-65 -64 -158 -64t-157 65t-64 159zM520 1607q0 -48 32 -80q33 -32 82 -32q48 0 80 31q33 31 33 82 q0 47 -33 79q-33 33 -81 33q-49 0 -81 -33q-32 -32 -32 -80zM635 1432zM635 1432zM908 0z" />
<glyph unicode="&#xe6;" horiz-adv-x="1933" d="M82 322q0 119 55 198q56 80 157 123q53 23 306 103q180 58 180 161q0 129 -195 129q-153 0 -276 -72t-169 -172v311q179 217 450 217q297 0 403 -219q105 219 390 219q470 0 470 -639q0 -66 -10 -147h-790q8 -140 91 -234t230 -94q125 0 241 68q116 69 171 166v-264 q-179 -216 -449 -216q-334 0 -457 288q-120 -288 -424 -288q-182 0 -278 101q-96 102 -96 261zM375 315q0 -132 140 -132q147 0 225 104t78 274v66q-137 -58 -270 -117q-173 -91 -173 -195zM1053 780h589q-6 92 -79 174t-209 82q-252 0 -301 -256z" />
<glyph unicode="&#xe7;" horiz-adv-x="1139" d="M77 661q0 298 144 478q145 181 404 181q254 0 407 -168v-389q-36 106 -136 178t-216 72q-320 0 -320 -367q0 -186 74 -308q75 -121 228 -121q263 0 370 280v-321q-167 -216 -407 -216q-253 0 -401 193q-147 193 -147 508zM417 -276l130 288h222l-118 -288h-234zM622 0z M622 0zM622 1432z" />
<glyph unicode="&#xe8;" horiz-adv-x="1251" d="M77 645q0 311 150 493q151 182 422 182q521 0 521 -623q0 -60 -10 -163h-790q0 -328 349 -328q100 0 203 53t186 181v-268q-179 -211 -431 -212q-303 0 -452 185q-148 186 -148 500zM235 1672h310l266 -240h-242zM370 780h589q-5 123 -88 189q-83 67 -209 67 q-119 0 -201 -70q-81 -69 -91 -186zM649 1432zM649 1432zM679 0z" />
<glyph unicode="&#xe9;" horiz-adv-x="1251" d="M77 645q0 311 150 493q151 182 422 182q521 0 521 -623q0 -60 -10 -163h-790q0 -328 349 -328q100 0 203 53t186 181v-268q-179 -211 -431 -212q-303 0 -452 185q-148 186 -148 500zM370 780h589q-5 123 -88 189q-83 67 -209 67q-119 0 -201 -70q-81 -69 -91 -186z M500 1432l262 240h314l-334 -240h-242zM649 1432zM649 1432zM679 0z" />
<glyph unicode="&#xea;" horiz-adv-x="1251" d="M77 645q0 311 150 493q151 182 422 182q521 0 521 -623q0 -60 -10 -163h-790q0 -328 349 -328q100 0 203 53t186 181v-268q-179 -211 -431 -212q-303 0 -452 185q-148 186 -148 500zM322 1432l160 240h339l160 -240h-214l-120 145l-111 -145h-214zM370 780h589 q-5 123 -88 189q-83 67 -209 67q-119 0 -201 -70q-81 -69 -91 -186zM649 1432zM649 1432zM679 0z" />
<glyph unicode="&#xeb;" horiz-adv-x="1251" d="M77 645q0 311 150 493q151 182 422 182q521 0 521 -623q0 -60 -10 -163h-790q0 -328 349 -328q100 0 203 53t186 181v-268q-179 -211 -431 -212q-303 0 -452 185q-148 186 -148 500zM308 1555q0 123 129 123t129 -121q0 -125 -131 -125q-127 0 -127 123zM370 780h589 q-5 123 -88 189q-83 67 -209 67q-119 0 -201 -70q-81 -69 -91 -186zM649 1432zM649 1432zM679 0zM726 1555q0 123 129 123t129 -121q0 -125 -131 -125q-127 0 -127 123z" />
<glyph unicode="&#xec;" horiz-adv-x="569" d="M-128 1672h310l266 -240h-242zM0 1320zM130 0v1280q57 -35 156 -35q89 0 151 35v-1280h-307zM286 1432zM286 1432z" />
<glyph unicode="&#xed;" horiz-adv-x="569" d="M0 1320zM130 0v1280q57 -35 156 -35q89 0 151 35v-1280h-307zM137 1432l262 240h314l-334 -240h-242zM286 1432zM286 1432z" />
<glyph unicode="&#xee;" horiz-adv-x="569" d="M-41 1432l160 240h339l160 -240h-214l-120 145l-111 -145h-214zM0 1320zM130 0v1280q57 -35 156 -35q89 0 151 35v-1280h-307zM286 1432zM286 1432z" />
<glyph unicode="&#xef;" horiz-adv-x="569" d="M-55 1555q0 123 129 123t129 -121q0 -125 -131 -125q-127 0 -127 123zM0 1320zM130 0v1280q57 -35 156 -35q89 0 151 35v-1280h-307zM286 1432zM286 1432zM363 1555q0 123 129 123t129 -121q0 -125 -131 -125q-127 0 -127 123z" />
<glyph unicode="&#xf0;" d="M82 614q0 283 151 434q151 152 419 152q186 0 250 -88q-45 125 -239 254l-275 -134l-120 134l210 101q-85 41 -220 81l168 180q181 -53 316 -138l276 138l120 -134l-234 -114q373 -311 373 -802q0 -331 -154 -525q-154 -193 -429 -193q-263 0 -438 171q-174 171 -174 483 zM365 594q0 -155 80 -266t237 -111q134 0 223 96q89 97 89 287q0 343 -312 343q-317 0 -317 -349z" />
<glyph unicode="&#xf1;" d="M139 0v1280h293v-328q105 368 430 368q368 0 368 -469v-851h-307v704q0 201 -50 260q-49 60 -146 60q-137 0 -209 -93q-72 -92 -72 -263v-668h-307zM424 1405v204q85 72 162 72q53 0 146 -37q93 -36 141 -36q89 0 143 81v-200q-70 -65 -167 -65q-48 0 -140 30 q-91 31 -142 31q-85 0 -143 -80zM676 0zM697 1432zM697 1432z" />
<glyph unicode="&#xf2;" d="M82 656q0 664 598 664q597 0 597 -664q0 -696 -598 -696q-597 0 -597 696zM266 1672h310l266 -240h-242zM365 646q0 -429 315 -429q314 0 314 429q0 367 -315 367q-314 0 -314 -367zM680 1432zM680 1432z" />
<glyph unicode="&#xf3;" d="M82 656q0 664 598 664q597 0 597 -664q0 -696 -598 -696q-597 0 -597 696zM365 646q0 -429 315 -429q314 0 314 429q0 367 -315 367q-314 0 -314 -367zM531 1432l262 240h314l-334 -240h-242zM680 1432zM680 1432z" />
<glyph unicode="&#xf4;" d="M82 656q0 664 598 664q597 0 597 -664q0 -696 -598 -696q-597 0 -597 696zM353 1432l160 240h339l160 -240h-214l-120 145l-111 -145h-214zM365 646q0 -429 315 -429q314 0 314 429q0 367 -315 367q-314 0 -314 -367zM680 1432zM680 1432z" />
<glyph unicode="&#xf5;" d="M82 656q0 664 598 664q597 0 597 -664q0 -696 -598 -696q-597 0 -597 696zM365 646q0 -429 315 -429q314 0 314 429q0 367 -315 367q-314 0 -314 -367zM407 1405v204q85 72 162 72q53 0 146 -37q93 -36 141 -36q89 0 143 81v-200q-70 -65 -167 -65q-48 0 -140 30 q-91 31 -142 31q-85 0 -143 -80zM680 1432zM680 1432z" />
<glyph unicode="&#xf6;" d="M82 656q0 664 598 664q597 0 597 -664q0 -696 -598 -696q-597 0 -597 696zM339 1555q0 123 129 123t129 -121q0 -125 -131 -125q-127 0 -127 123zM365 646q0 -429 315 -429q314 0 314 429q0 367 -315 367q-314 0 -314 -367zM680 1432zM680 1432zM757 1555q0 123 129 123 t129 -121q0 -125 -131 -125q-127 0 -127 123z" />
<glyph unicode="&#xf7;" horiz-adv-x="1229" d="M96 404v221h1036v-221h-1036zM448 92q0 70 48 119t118 49q69 0 117 -49q49 -49 49 -119q0 -71 -49 -120q-48 -48 -117 -48q-70 0 -118 48q-48 49 -48 120zM448 937q0 70 48 119t118 49q69 0 117 -49q49 -49 49 -119q0 -71 -49 -120q-48 -48 -117 -48q-70 0 -118 48 q-48 49 -48 120z" />
<glyph unicode="&#xf8;" d="M58 25l141 164q-117 176 -117 467q0 664 597 664q250 0 401 -117l116 133l91 -81l-123 -146q113 -155 113 -455q0 -331 -151 -513q-151 -181 -443 -181q-254 0 -401 138l-133 -154zM365 645q0 -129 34 -228l467 545q-65 51 -184 51q-317 0 -317 -368zM465 303 q76 -86 216 -86q313 0 313 429q0 141 -45 220z" />
<glyph unicode="&#xf9;" d="M0 1320zM130 445v835h307v-724q0 -176 42 -238t154 -62q133 0 207 97q74 98 74 263v664h307v-1280h-293v312q-103 -352 -424 -352q-193 0 -284 120q-90 120 -90 365zM266 1672h310l266 -240h-242zM680 1432zM680 1432zM1012 0z" />
<glyph unicode="&#xfa;" d="M0 1320zM130 445v835h307v-724q0 -176 42 -238t154 -62q133 0 207 97q74 98 74 263v664h307v-1280h-293v312q-103 -352 -424 -352q-193 0 -284 120q-90 120 -90 365zM531 1432l262 240h314l-334 -240h-242zM680 1432zM680 1432zM1012 0z" />
<glyph unicode="&#xfb;" d="M0 1320zM130 445v835h307v-724q0 -176 42 -238t154 -62q133 0 207 97q74 98 74 263v664h307v-1280h-293v312q-103 -352 -424 -352q-193 0 -284 120q-90 120 -90 365zM353 1432l160 240h339l160 -240h-214l-120 145l-111 -145h-214zM680 1432zM680 1432zM1012 0z" />
<glyph unicode="&#xfc;" d="M0 1320zM130 445v835h307v-724q0 -176 42 -238t154 -62q133 0 207 97q74 98 74 263v664h307v-1280h-293v312q-103 -352 -424 -352q-193 0 -284 120q-90 120 -90 365zM339 1555q0 123 129 123t129 -121q0 -125 -131 -125q-127 0 -127 123zM680 1432zM680 1432zM757 1555 q0 123 129 123t129 -121q0 -125 -131 -125q-127 0 -127 123zM1012 0z" />
<glyph unicode="&#xfd;" horiz-adv-x="1251" d="M0 1320zM19 1280h331l293 -817l275 817h317l-559 -1584h-326l139 377zM488 1432l262 240h314l-334 -240h-242zM637 1432zM637 1432z" />
<glyph unicode="&#xfe;" d="M144 -304v1888h307v-584q64 162 154 241q91 79 249 79q429 0 429 -669q0 -284 -125 -488q-124 -203 -346 -203q-271 0 -361 240v-504h-307zM432 627q0 -185 61 -298q62 -112 232 -112q127 0 201 118q74 119 74 280q0 191 -63 294q-63 104 -225 104q-140 0 -210 -110 q-70 -109 -70 -276z" />
<glyph unicode="&#xff;" horiz-adv-x="1251" d="M0 1320zM19 1280h331l293 -817l275 817h317l-559 -1584h-326l139 377zM296 1555q0 123 129 123t129 -121q0 -125 -131 -125q-127 0 -127 123zM637 1432zM637 1432zM714 1555q0 123 129 123t129 -121q0 -125 -131 -125q-127 0 -127 123z" />
<glyph unicode="&#x152;" horiz-adv-x="2048" d="M72 816q0 342 147 543q148 201 434 201q270 0 379 -208v168h885v-307h-616v-302h616v-293h-616v-335h611v-283h-880v200q-62 -107 -152 -174q-89 -66 -212 -66q-275 0 -436 235q-160 236 -160 621zM365 765q0 -235 83 -386q83 -150 248 -150q336 0 336 544q0 203 -84 334 q-83 131 -244 131q-339 0 -339 -473z" />
<glyph unicode="&#x153;" horiz-adv-x="2048" d="M72 656q0 664 581 664q312 0 452 -224q109 224 396 224q478 0 478 -632l-5 -154h-795q32 -328 332 -328q125 0 241 74q117 75 160 160v-266q-202 -214 -448 -214q-318 0 -434 240q-129 -240 -415 -240q-257 0 -400 184q-143 185 -143 512zM355 646q0 -192 72 -311 q73 -118 208 -118q285 0 285 451q0 345 -271 345q-294 0 -294 -367zM1179 780h589q-55 256 -292 256q-246 0 -297 -256z" />
<glyph unicode="&#x178;" d="M0 1560zM32 1520h355l299 -629l311 629h350l-512 -956v-564h-307v564zM359 1731q0 123 129 123t129 -121q0 -125 -131 -125q-127 0 -127 123zM700 1608zM700 1608zM777 1731q0 123 129 123t129 -121q0 -125 -131 -125q-127 0 -127 123z" />
<glyph unicode="&#x2c6;" horiz-adv-x="569" d="M-32 1424l160 240h339l160 -240h-214l-120 145l-111 -145h-214zM295 1424z" />
<glyph unicode="&#x2dc;" horiz-adv-x="569" d="M-16 1397v204q85 72 162 72q53 0 146 -37q93 -36 141 -36q89 0 143 81v-200q-70 -65 -167 -65q-48 0 -140 30q-91 31 -142 31q-85 0 -143 -80zM257 1424z" />
<glyph unicode="&#x2000;" horiz-adv-x="1003" />
<glyph unicode="&#x2001;" horiz-adv-x="2007" />
<glyph unicode="&#x2002;" horiz-adv-x="1003" />
<glyph unicode="&#x2003;" horiz-adv-x="2007" />
<glyph unicode="&#x2004;" horiz-adv-x="669" />
<glyph unicode="&#x2005;" horiz-adv-x="501" />
<glyph unicode="&#x2006;" horiz-adv-x="334" />
<glyph unicode="&#x2007;" horiz-adv-x="334" />
<glyph unicode="&#x2008;" horiz-adv-x="250" />
<glyph unicode="&#x2009;" horiz-adv-x="401" />
<glyph unicode="&#x200a;" horiz-adv-x="111" />
<glyph unicode="&#x2010;" horiz-adv-x="797" d="M128 534v283h544v-283h-544z" />
<glyph unicode="&#x2011;" horiz-adv-x="797" d="M128 534v283h544v-283h-544z" />
<glyph unicode="&#x2012;" horiz-adv-x="797" d="M128 534v283h544v-283h-544z" />
<glyph unicode="&#x2013;" horiz-adv-x="1139" d="M0 534v283h1136v-283h-1136z" />
<glyph unicode="&#x2014;" horiz-adv-x="2048" d="M0 534v283h2048v-283h-2048z" />
<glyph unicode="&#x2018;" horiz-adv-x="569" d="M145 1024q0 349 92 496h189q-41 -117 -41 -302q0 -105 11 -194h-251z" />
<glyph unicode="&#x2019;" horiz-adv-x="569" d="M143 1024q41 117 41 302q0 105 -11 194h251q0 -349 -92 -496h-189z" />
<glyph unicode="&#x201a;" horiz-adv-x="569" d="M143 -279q41 117 41 302q0 105 -11 194h251q0 -349 -92 -496h-189z" />
<glyph unicode="&#x201c;" horiz-adv-x="909" d="M149 1024q0 349 92 496h189q-41 -117 -41 -302q0 -105 11 -194h-251zM485 1024q0 349 92 496h189q-41 -117 -41 -302q0 -105 11 -194h-251z" />
<glyph unicode="&#x201d;" horiz-adv-x="909" d="M143 1024q41 117 41 302q0 105 -11 194h251q0 -349 -92 -496h-189zM479 1024q41 117 41 302q0 105 -11 194h251q0 -349 -92 -496h-189z" />
<glyph unicode="&#x201e;" horiz-adv-x="909" d="M143 -279q41 117 41 302q0 105 -11 194h251q0 -349 -92 -496h-189zM479 -279q41 117 41 302q0 105 -11 194h251q0 -349 -92 -496h-189z" />
<glyph unicode="&#x2022;" horiz-adv-x="1024" d="M131 759q0 159 112 271q113 113 272 113t271 -113q113 -112 113 -271t-113 -272q-112 -112 -271 -112t-272 112q-112 113 -112 272z" />
<glyph unicode="&#x2026;" horiz-adv-x="2048" d="M160 91q0 139 176 139q170 0 170 -133q0 -137 -172 -137q-174 0 -174 131zM848 91q0 139 176 139q170 0 170 -133q0 -137 -172 -137q-174 0 -174 131zM1536 91q0 139 176 139q170 0 170 -133q0 -137 -172 -137q-174 0 -174 131z" />
<glyph unicode="&#x202f;" horiz-adv-x="401" />
<glyph unicode="&#x2039;" horiz-adv-x="569" d="M98 680l146 -368h222l-136 368l136 368h-222z" />
<glyph unicode="&#x203a;" horiz-adv-x="569" d="M103 312l136 368l-136 368h222l146 -368l-146 -368h-222z" />
<glyph unicode="&#x205f;" horiz-adv-x="501" />
<glyph unicode="&#x20ac;" horiz-adv-x="1139" d="M26 501l38 172h124q-2 43 -2 87q0 28 2 57h-162l38 172h139q87 571 571 571q217 0 343 -145v-378q-78 113 -147 152q-69 40 -165 40q-229 0 -294 -240h446l-38 -172h-438q-4 -73 -4 -88l4 -56h412l-38 -172h-348q22 -113 96 -186q74 -72 183 -72q197 0 331 224v-319 q-71 -95 -159 -142q-88 -46 -186 -46h-16q-455 0 -549 541h-181z" />
<glyph unicode="&#x2122;" horiz-adv-x="2028" d="M129 1347v173h685v-173h-239v-675h-207v675h-239zM918 672v848h290l205 -550l202 550h287v-848h-197v613l-219 -613h-152l-219 613v-613h-197z" />
<glyph unicode="&#xe000;" horiz-adv-x="1280" d="M0 0v1280h1280v-1280h-1280z" />
<glyph unicode="&#xfb01;" horiz-adv-x="1479" d="M-3 861v246h224v138q0 165 106 252t283 87q179 0 302 -54v-240q-91 48 -220 48q-227 0 -227 -188q0 -20 10 -43h405v-246h-352v-861h-307v861h-224zM1008 1505q0 128 184 128q181 0 181 -131q0 -126 -183 -126q-182 0 -182 129zM1037 0v1280q59 -35 156 -35q89 0 151 35 v-1280h-307z" />
<glyph unicode="&#xfb02;" horiz-adv-x="1479" d="M-3 861v246h224v138q0 158 106 248q106 91 283 91q187 0 302 -54v-240q-86 48 -220 48q-227 0 -227 -188q0 -20 10 -43h405v-246h-352v-861h-307v861h-224zM1037 0v1584h307v-1584h-307z" />
</font>
</defs>
</svg>
